<?xml version="1.0" encoding="utf-8" ?><svg xmlns="http://www.w3.org/2000/svg" xmlns:xlink="http://www.w3.org/1999/xlink" width="1024" height="1024" viewBox="0 0 1024 1024"><path fill="#911E17" d="M739.208 277.191L845.914 211.635L875.711 193.282C880.372 190.448 890.024 184.955 893.878 181.728C909.139 215.293 925.223 249.351 941.128 282.628L956.094 313.767C958.99 319.752 963.196 327.901 965.473 333.938C969.163 343.31 1007.76 441.443 1007.93 445.851C1001.15 448.776 993.45 453.644 986.986 457.407C959.7 473.291 931.368 488.232 904.529 504.844C887.087 520.32 870.191 536.863 853.089 552.784C847.649 557.849 835.645 568.56 831.421 573.837C829.873 575.771 825.346 596.033 824.555 599.829C825.603 601.812 826.097 602.935 826.897 605.032C827.912 607.395 828.973 609.781 829.894 612.178C827.059 621.451 822.892 636.641 819.607 645.293C814.343 648.771 808.578 651.655 803.212 654.932C795.826 659.442 776.927 671.246 769.504 662.126L765.18 665.031L769.502 692.912C769.73 694.07 770.411 695.874 769.5 696.79C756.93 709.436 744.181 722.157 731.705 734.884L705.875 739.853L699.313 735.504C698.607 737.89 694.948 751.764 695.04 753.574C693.222 757.15 665.706 780.44 660.709 784.614C650.9 786.012 638.529 786.345 629.238 788.151C626.645 787.007 624.644 786.226 622.429 784.36C619.054 788.338 609.867 796.319 605.526 800.087C597.884 806.719 589.185 814.984 581.359 821.213C570.942 820.208 518.686 815.551 512.906 812.901C508.846 811.04 505.014 808.025 501.331 805.513L482.929 792.909C472.676 801.374 461.621 810.806 451.058 818.691C441.586 817.756 430.808 814.698 421.417 812.507C411.487 810.191 401.657 808.06 391.676 805.942C387.561 796.859 381.97 782.523 377.719 774.26C372.347 777.896 361.558 782.301 355.038 786.152C354.556 786.407 353.642 786.832 353.171 786.576C349.825 784.759 343.304 781.33 340.3 779.761L305.283 761.677C304.491 760.028 303.677 757.611 303.089 755.825C299.222 744.065 294.896 732.174 291.634 720.245C288.707 721.49 272.828 726.355 270.289 725.429C262.698 721.042 233.008 705.779 229.007 700.38C226.178 696.561 224.195 691.858 222.087 687.616C218.369 680.133 214.768 672.579 210.781 665.234C210.382 661.952 223.563 635.63 225.817 630.874C221.358 631.781 195.382 636.118 191.898 635.947C180.718 623.302 169.139 608.141 157.949 594.971L158.7 590.592C160.519 577.326 163.34 563.205 165.334 549.625C167.737 546.273 170.754 543.412 173.893 540.765L169.537 536.699C177.119 530.766 181.992 522.438 187.465 515.792C192.086 510.18 213.474 496.895 220.316 494.552C218.147 489.516 213.953 482.811 211.377 477.789C205.819 466.955 199.773 456.137 193.967 445.464C192.191 442.199 184.452 429.277 183.875 426.569C184.077 425.307 184.025 425.38 184.767 424.348C187.816 424.018 208.133 413.82 212.627 411.753L300.544 371.784C310.698 367.179 335.172 355.229 344.803 352.414C353.432 339.987 363.432 327.234 372.282 314.829C376.571 308.818 386.946 294.474 391.884 290.043C398.84 283.802 410.498 275.643 418.542 270.534C421.944 268.373 427.407 263.418 430.895 262.182C431.501 261.824 432.613 260.251 433.129 259.597C440.391 257.493 449.388 254.138 456.644 251.661L498.791 237.313C505.769 234.936 516.994 230.771 523.934 229.114C530.947 226.136 553.062 229.028 561.635 229.652L606.843 232.621C611.818 232.955 625.828 233.509 629.783 234.597C639.903 237.381 652.796 243.401 662.82 247.189C687.263 256.425 711.515 266.114 735.832 275.668C737.006 276.13 738.079 276.631 739.208 277.191Z"/><path fill="#911E17" d="M739.208 277.191L845.914 211.635L875.711 193.282C880.372 190.448 890.024 184.955 893.878 181.728C909.139 215.293 925.223 249.351 941.128 282.628L956.094 313.767C958.99 319.752 963.196 327.901 965.473 333.938C969.163 343.31 1007.76 441.443 1007.93 445.851C1001.15 448.776 993.45 453.644 986.986 457.407C959.7 473.291 931.368 488.232 904.529 504.844C887.087 520.32 870.191 536.863 853.089 552.784C847.649 557.849 835.645 568.56 831.421 573.837C829.873 575.771 825.346 596.033 824.555 599.829C821.771 598.177 810.504 587.095 807.61 584.282C789.784 566.958 772.803 548.932 754.965 531.578L754.319 530.893C749.012 524.504 735.634 513.013 728.938 506.307C706.293 483.631 682.315 458.048 658.666 436.596C653.698 432.666 646.205 427.737 640.859 424.03L608.294 401.564L591.84 390.277C587.68 387.375 583.185 383.854 578.697 381.62C576.121 380.864 573.625 380.438 570.959 380.125C554.213 378.161 537.315 375.4 520.49 374.309L483.252 415.717C479.884 419.416 467.974 433.108 464.457 434.875C445.885 444.206 426.443 452.163 407.73 461.34C391.212 455.945 370.126 448.544 354.67 440.658C351.492 439.037 333.014 413.199 329.925 408.553C331.905 399.642 334.564 390.32 336.917 381.446C339.443 371.916 341.923 361.806 344.803 352.414C353.432 339.987 363.432 327.234 372.282 314.829C376.571 308.818 386.946 294.474 391.884 290.043C398.84 283.802 410.498 275.643 418.542 270.534C421.944 268.373 427.407 263.418 430.895 262.182C431.501 261.824 432.613 260.251 433.129 259.597C440.391 257.493 449.388 254.138 456.644 251.661L498.791 237.313C505.769 234.936 516.994 230.771 523.934 229.114C530.947 226.136 553.062 229.028 561.635 229.652L606.843 232.621C611.818 232.955 625.828 233.509 629.783 234.597C639.903 237.381 652.796 243.401 662.82 247.189C687.263 256.425 711.515 266.114 735.832 275.668C737.006 276.13 738.079 276.631 739.208 277.191Z"/><path fill="#DD2A2A" d="M739.208 277.191L845.914 211.635L875.711 193.282C880.372 190.448 890.024 184.955 893.878 181.728C909.139 215.293 925.223 249.351 941.128 282.628L956.094 313.767C958.99 319.752 963.196 327.901 965.473 333.938C955.202 334.616 941.828 336.869 931.434 338.311L875.949 346.092C869.948 346.983 833.968 352.92 831.026 352.268C824.803 351.792 772.895 376.103 761.067 379.081C760.65 377.62 760.217 374.153 759.603 373.237L759.559 374.965C760.281 376.261 760.304 376.221 760.609 377.658L760.003 378.296C755.055 378.88 684.384 360.155 674.379 358.021C644.746 351.701 612.318 341.488 581.973 336.336L580.565 335.504C577.913 337.498 567.12 342.169 563.634 343.756L524.724 361.242C518.819 363.887 501.991 371.977 496.559 373.817C496.31 364.943 492.718 312.974 490.432 307.817L490.635 307.402C500.238 283.667 512.836 260.089 523.936 237.014C524.88 235.051 525.79 231.034 527.109 229.728L526.879 229.272L523.934 229.114C530.947 226.136 553.062 229.028 561.635 229.652L606.843 232.621C611.818 232.955 625.828 233.509 629.783 234.597C639.903 237.381 652.796 243.401 662.82 247.189C687.263 256.425 711.515 266.114 735.832 275.668C737.006 276.13 738.079 276.631 739.208 277.191Z"/><path fill="#C62524" d="M490.635 307.402C502.916 310.381 522.932 317.578 535.706 321.532L562.673 329.759C568.066 331.385 575.469 333.422 580.565 335.504C577.913 337.498 567.12 342.169 563.634 343.756L524.724 361.242C518.819 363.887 501.991 371.977 496.559 373.817C496.31 364.943 492.718 312.974 490.432 307.817L490.635 307.402Z"/><path fill="#C62524" d="M965.473 333.938C969.163 343.31 1007.76 441.443 1007.93 445.851C1001.15 448.776 993.45 453.644 986.986 457.407C959.7 473.291 931.368 488.232 904.529 504.844C901.278 503.618 886.67 501.513 882.823 500.965L839.905 495.042C834.626 494.27 828.006 493.572 822.882 492.501L822.35 492.589L831.026 352.268C833.968 352.92 869.948 346.983 875.949 346.092L931.434 338.311C941.828 336.869 955.202 334.616 965.473 333.938Z"/><path fill="#C02121" d="M895.046 427.217C921.5 432.784 948.704 436.092 975.383 440.484C986.331 442.286 997.039 443.333 1007.93 445.851C1001.15 448.776 993.45 453.644 986.986 457.407C959.7 473.291 931.368 488.232 904.529 504.844C901.278 503.618 886.67 501.513 882.823 500.965L839.905 495.042C834.626 494.27 828.006 493.572 822.882 492.501C841.711 472.995 865.051 455.088 884.856 436.35C888.145 433.238 891.613 430.168 895.046 427.217Z"/><path fill="#C72020" d="M581.973 336.336C612.318 341.488 644.746 351.701 674.379 358.021C684.384 360.155 755.055 378.88 760.003 378.296L760.609 377.658C760.304 376.221 760.281 376.261 759.559 374.965L759.603 373.237C760.217 374.153 760.65 377.62 761.067 379.081C772.895 376.103 824.803 351.792 831.026 352.268L822.35 492.589L821.241 492.738C805.026 486.227 787.905 478.691 771.73 471.879L720.459 450.509C707.098 444.806 692.973 438.124 679.529 432.864C677.92 432.176 676.104 431.259 674.412 431.077C668.327 427.365 655.279 412.33 649.421 406.371C626.81 383.368 603.894 360.008 581.973 336.336Z"/><path fill="#C62524" d="M674.412 431.077C684.732 425.119 694.895 418.042 705.241 412.02L742.888 390.102C748.869 386.567 755.249 383.058 760.966 379.176C765.713 389.016 771.597 399.437 776.855 409.101L806.95 464.286C811.393 472.581 817.762 483.734 821.462 492.086L822.35 492.589L821.241 492.738C805.026 486.227 787.905 478.691 771.73 471.879L720.459 450.509C707.098 444.806 692.973 438.124 679.529 432.864C677.92 432.176 676.104 431.259 674.412 431.077Z"/><path fill="#C62524" d="M433.129 259.597C440.391 257.493 449.388 254.138 456.644 251.661L498.791 237.313C505.769 234.936 516.994 230.771 523.934 229.114L526.879 229.272L527.109 229.728C525.79 231.034 524.88 235.051 523.936 237.014C512.836 260.089 500.238 283.667 490.635 307.402L490.432 307.817C478.727 320.898 468.002 335.205 456.274 348.319C454.595 350.196 447.713 357.617 446.746 359.434C440.662 365.249 390.808 404.925 386.606 406.369C373.392 402.189 360.057 397.228 347.019 393.213L346.133 391.679C346.091 389.853 354.7 377.033 356.378 374.39C374.329 346.121 392.159 317.951 411.584 290.654C418.21 281.344 424.263 271.533 430.895 262.182C431.501 261.824 432.613 260.251 433.129 259.597Z"/><path fill="#C72020" d="M446.746 359.434C447.713 357.617 454.595 350.196 456.274 348.319C468.002 335.205 478.727 320.898 490.432 307.817C492.718 312.974 496.31 364.943 496.559 373.817C484.471 385.813 473.822 399.364 461.262 410.9C457.971 413.923 454.661 416.914 451.325 419.888C449.463 399.254 448.021 380.072 446.746 359.434Z"/><path fill="#DD2A2A" d="M386.606 406.369C390.808 404.925 440.662 365.249 446.746 359.434C448.021 380.072 449.463 399.254 451.325 419.888C447.858 422.805 404.867 443.958 402.013 443.898C401.034 439.201 389.013 408.517 386.606 406.369Z"/><path fill="#C72020" d="M347.019 393.213C360.057 397.228 373.392 402.189 386.606 406.369C389.013 408.517 401.034 439.201 402.013 443.898C388.343 438.319 374.546 432.075 361.001 426.12C355.984 415.974 352.084 404.009 347.019 393.213Z"/><path fill="#DD2A2A" d="M578.697 381.62C583.185 383.854 587.68 387.375 591.84 390.277L608.294 401.564L640.859 424.03C646.205 427.737 653.698 432.666 658.666 436.596C682.315 458.048 706.293 483.631 728.938 506.307C735.634 513.013 749.012 524.504 754.319 530.893L754.965 531.578C772.803 548.932 789.784 566.958 807.61 584.282C810.504 587.095 821.771 598.177 824.555 599.829C825.603 601.812 826.097 602.935 826.897 605.032C827.912 607.395 828.973 609.781 829.894 612.178C827.059 621.451 822.892 636.641 819.607 645.293C814.343 648.771 808.578 651.655 803.212 654.932C795.826 659.442 776.927 671.246 769.504 662.126L765.18 665.031L769.502 692.912C769.73 694.07 770.411 695.874 769.5 696.79C756.93 709.436 744.181 722.157 731.705 734.884L705.875 739.853L699.313 735.504C698.607 737.89 694.948 751.764 695.04 753.574C693.222 757.15 665.706 780.44 660.709 784.614C650.9 786.012 638.529 786.345 629.238 788.151C626.645 787.007 624.644 786.226 622.429 784.36C621.55 782.705 578.814 763.215 573.468 760.954C587.133 743.205 601.224 725.139 615.326 707.751C593.718 687.12 572.842 664.077 551.272 643.309C544.662 636.946 534.004 624.513 527.491 619.391L527.51 619.199C529.205 618.951 543.232 606.075 545.688 603.952C531.04 589.817 512.428 572.035 496.981 558.817L496.952 558.626C503.194 550.017 508.987 539.741 514.668 530.62L544.003 484.292C545.058 483.382 545.946 481.64 546.373 480.32C557.022 447.387 567.34 414.321 578.697 381.62Z"/><path fill="#C72020" d="M754.965 531.578C772.803 548.932 789.784 566.958 807.61 584.282C810.504 587.095 821.771 598.177 824.555 599.829C825.603 601.812 826.097 602.935 826.897 605.032C827.912 607.395 828.973 609.781 829.894 612.178C827.059 621.451 822.892 636.641 819.607 645.293C814.343 648.771 808.578 651.655 803.212 654.932C795.826 659.442 776.927 671.246 769.504 662.126C767.016 658.761 754.041 647.363 750.122 643.762C734.589 629.49 718.406 615.664 703.295 600.912L702.937 600.629C705.432 596.295 712.624 587.194 715.813 583.088L741.797 549.561C745.73 544.411 751.754 536.987 754.965 531.578Z"/><path fill="#C02121" d="M703.295 600.912L792.462 607.368C801.694 608.079 813.981 608.248 822.705 609.288L826.897 605.032C827.912 607.395 828.973 609.781 829.894 612.178C827.059 621.451 822.892 636.641 819.607 645.293C814.343 648.771 808.578 651.655 803.212 654.932C795.826 659.442 776.927 671.246 769.504 662.126C767.016 658.761 754.041 647.363 750.122 643.762C734.589 629.49 718.406 615.664 703.295 600.912Z"/><defs><linearGradient id="gradient_0" gradientUnits="userSpaceOnUse" x1="668.73566" y1="636.49127" x2="707.84412" y2="566.27466"><stop offset="0" stop-color="#7A1E13"/><stop offset="1" stop-color="#BE1F1F"/></linearGradient></defs><path fill="url(#gradient_0)" d="M590.148 544.818C591.862 543.077 607.554 513.354 608.825 509.993C638.903 538.222 669.203 566.288 698.048 595.769C699.453 597.205 701.302 599.561 702.937 600.629L703.295 600.912C718.406 615.664 734.589 629.49 750.122 643.762C754.041 647.363 767.016 658.761 769.504 662.126L765.18 665.031L769.502 692.912L768.609 692.343C759.698 686.732 750.168 678.247 741.33 671.977C731.147 664.753 720.763 657.918 710.516 650.79C705.081 647.009 692.384 637.222 686.78 634.734C683.217 632.039 678.417 627.309 675.066 624.191L655.628 606.094L590.148 544.818Z"/><path fill="#C62524" d="M686.78 634.734C692.384 637.222 705.081 647.009 710.516 650.79C720.763 657.918 731.147 664.753 741.33 671.977C750.168 678.247 759.698 686.732 768.609 692.343L769.502 692.912C769.73 694.07 770.411 695.874 769.5 696.79C756.93 709.436 744.181 722.157 731.705 734.884L705.875 739.853L699.313 735.504C696.409 732.202 645.089 697.64 639.341 694.706C640.992 690.069 680.542 641.251 686.78 634.734Z"/><path fill="#C62524" d="M658.666 436.596C682.315 458.048 706.293 483.631 728.938 506.307C735.634 513.013 749.012 524.504 754.319 530.893C751.205 531.84 708.307 524.621 701.703 523.602L609.503 509.213C617.386 495.989 627.66 481.618 636.219 468.728C642.6 459.12 651.428 445.018 658.666 436.596Z"/><path fill="#C02121" d="M615.326 707.751C635.073 719.629 654.579 730.59 674.832 741.564C679.38 744.028 690.4 751.824 694.464 752.861L695.04 753.574C693.222 757.15 665.706 780.44 660.709 784.614C650.9 786.012 638.529 786.345 629.238 788.151C626.645 787.007 624.644 786.226 622.429 784.36C621.55 782.705 578.814 763.215 573.468 760.954C587.133 743.205 601.224 725.139 615.326 707.751Z"/><defs><linearGradient id="gradient_1" gradientUnits="userSpaceOnUse" x1="602.9502" y1="699.24152" x2="629.32184" y2="656.3739"><stop offset="0" stop-color="#811E15"/><stop offset="1" stop-color="#B11D1D"/></linearGradient></defs><path fill="url(#gradient_1)" d="M527.51 619.199C529.205 618.951 543.232 606.075 545.688 603.952L610.627 666.941L629.431 685.303C631.518 687.341 637.34 693.25 639.341 694.706C645.089 697.64 696.409 732.202 699.313 735.504C698.607 737.89 694.948 751.764 695.04 753.574L694.464 752.861C690.4 751.824 679.38 744.028 674.832 741.564C654.579 730.59 635.073 719.629 615.326 707.751C593.718 687.12 572.842 664.077 551.272 643.309C544.662 636.946 534.004 624.513 527.491 619.391L527.51 619.199Z"/><path fill="#C72020" d="M590.148 544.818C586.329 537.501 580.285 530.033 575.724 523.069C566.155 508.46 555.119 493.964 546.03 479.162C558.039 485.999 571.673 491.034 583.973 497.423C592.083 501.636 601.07 505.183 608.825 509.993C607.554 513.354 591.862 543.077 590.148 544.818Z"/><path fill="#C02121" d="M184.767 424.348C187.816 424.018 208.133 413.82 212.627 411.753L300.544 371.784C310.698 367.179 335.172 355.229 344.803 352.414C341.923 361.806 339.443 371.916 336.917 381.446C334.564 390.32 331.905 399.642 329.925 408.553C333.014 413.199 351.492 439.037 354.67 440.658C370.126 448.544 391.212 455.945 407.73 461.34C426.443 452.163 445.885 444.206 464.457 434.875C467.974 433.108 479.884 419.416 483.252 415.717L520.49 374.309C537.315 375.4 554.213 378.161 570.959 380.125C573.625 380.438 576.121 380.864 578.697 381.62C567.34 414.321 557.022 447.387 546.373 480.32C545.946 481.64 545.058 483.382 544.003 484.292L514.668 530.62C508.987 539.741 503.194 550.017 496.952 558.626L496.981 558.817C512.428 572.035 531.04 589.817 545.688 603.952C543.232 606.075 529.205 618.951 527.51 619.199L527.491 619.391C534.004 624.513 544.662 636.946 551.272 643.309C572.842 664.077 593.718 687.12 615.326 707.751C601.224 725.139 587.133 743.205 573.468 760.954L571.559 759.435C568.899 758.141 558.011 748.542 554.943 745.942C536.504 730.319 517.694 714.951 499.875 698.635C496.522 695.565 491.408 686.825 488.288 685.131C482.461 681.965 473.389 678.561 467.05 675.996C462.012 674.009 456.887 671.847 451.866 669.79C452.805 664.517 453.194 658.399 451.842 653.188C447.144 645.116 445.533 634.875 441.331 626.457C438.447 620.68 408.555 597.203 401.729 591.951C395.847 593.133 389.997 593.752 384.13 595.272C376.271 580.685 368.164 565.766 360.002 551.357C348.984 545.664 332.604 540.379 320.55 534.845C311.381 538.324 299.699 543.758 290.491 547.704C286.249 537.236 279.997 525.225 274.922 514.867C272.456 513.73 268.512 512.437 265.846 511.586C250.69 506.751 235.297 499.463 220.316 494.552C218.147 489.516 213.953 482.811 211.377 477.789C205.819 466.955 199.773 456.137 193.967 445.464C192.191 442.199 184.452 429.277 183.875 426.569C184.077 425.307 184.025 425.38 184.767 424.348Z"/><path fill="#C62524" d="M183.875 426.569C193.319 431.145 208.047 440.794 217.207 446.409L259.126 471.594C284.137 486.898 309.923 500.936 333.747 517.956C337.001 520.28 340.357 522.521 343.658 524.782L400.982 564.032C410.212 570.404 419.355 576.891 428.573 583.272C438.226 589.954 449.345 597.172 458.532 604.385C454.419 594.582 417.903 508.375 418.17 505.802L418.412 505.462C432.941 516.143 449.168 526.5 464.304 536.376C474.548 543.06 486.758 552.52 496.952 558.626L496.981 558.817C512.428 572.035 531.04 589.817 545.688 603.952C543.232 606.075 529.205 618.951 527.51 619.199L527.491 619.391C534.004 624.513 544.662 636.946 551.272 643.309C572.842 664.077 593.718 687.12 615.326 707.751C601.224 725.139 587.133 743.205 573.468 760.954L571.559 759.435C568.899 758.141 558.011 748.542 554.943 745.942C536.504 730.319 517.694 714.951 499.875 698.635C496.522 695.565 491.408 686.825 488.288 685.131C482.461 681.965 473.389 678.561 467.05 675.996C462.012 674.009 456.887 671.847 451.866 669.79C452.805 664.517 453.194 658.399 451.842 653.188C447.144 645.116 445.533 634.875 441.331 626.457C438.447 620.68 408.555 597.203 401.729 591.951C395.847 593.133 389.997 593.752 384.13 595.272C376.271 580.685 368.164 565.766 360.002 551.357C348.984 545.664 332.604 540.379 320.55 534.845C311.381 538.324 299.699 543.758 290.491 547.704C286.249 537.236 279.997 525.225 274.922 514.867C272.456 513.73 268.512 512.437 265.846 511.586C250.69 506.751 235.297 499.463 220.316 494.552C218.147 489.516 213.953 482.811 211.377 477.789C205.819 466.955 199.773 456.137 193.967 445.464C192.191 442.199 184.452 429.277 183.875 426.569Z"/><path fill="#DD2A2A" d="M527.491 619.391C534.004 624.513 544.662 636.946 551.272 643.309C572.842 664.077 593.718 687.12 615.326 707.751C601.224 725.139 587.133 743.205 573.468 760.954L571.559 759.435C568.169 749.274 507.473 682.902 496.456 669.748C495.326 668.399 483.891 655.178 482.506 653.94C485.125 652.329 494.492 645.124 497.276 642.976C506.249 636.054 519.347 627.089 527.491 619.391Z"/><path fill="#C72020" d="M458.895 604.974C478.9 609.301 499.031 612.552 519 617.003C521.829 617.634 524.739 618.346 527.51 619.199L527.491 619.391C519.347 627.089 506.249 636.054 497.276 642.976C494.492 645.124 485.125 652.329 482.506 653.94C481.857 653.349 478.882 646.971 478.717 646.28C477.162 639.754 458.905 609.175 458.895 604.974Z"/><path fill="#C02121" d="M451.842 653.188C461.707 653.062 471.437 653.979 481.233 654.091C477.866 658.17 470.114 670.947 467.05 675.996C462.012 674.009 456.887 671.847 451.866 669.79C452.805 664.517 453.194 658.399 451.842 653.188Z"/><path fill="#C72020" d="M418.412 505.462C432.14 502.515 543.573 479.432 545.269 480.345C544.807 481.697 544.414 482.923 544.003 484.292L514.668 530.62C508.987 539.741 503.194 550.017 496.952 558.626C486.758 552.52 474.548 543.06 464.304 536.376C449.168 526.5 432.941 516.143 418.412 505.462Z"/><path fill="#C02121" d="M213.489 516.056C225.362 521.491 239.962 522.628 250.792 527.359C253.4 531.489 267.42 555.062 267.385 558C263.594 560.561 259.379 563.822 256.109 567.015C246.525 580.152 234.017 596.215 225.169 609.279L224.404 609.674C213.77 618.378 202.873 627.678 191.898 635.947C180.718 623.302 169.139 608.141 157.949 594.971L158.7 590.592C160.519 577.326 163.34 563.205 165.334 549.625C167.737 546.273 170.754 543.412 173.893 540.765C178.301 539.589 207.611 519.822 213.489 516.056Z"/><path fill="#DD2A2A" d="M213.489 516.056C225.362 521.491 239.962 522.628 250.792 527.359C253.4 531.489 267.42 555.062 267.385 558C263.594 560.561 259.379 563.822 256.109 567.015C243.887 557.297 231.522 545.808 219.828 535.386C216.259 532.204 210.324 527.41 207.23 524.236C197.701 536.499 189.901 550.002 180.502 562.357C179.098 564.202 177.105 566.563 175.878 568.448C174.146 571.218 161.981 589.901 160.351 591.464L159.277 591.599L158.7 590.592C160.519 577.326 163.34 563.205 165.334 549.625C167.737 546.273 170.754 543.412 173.893 540.765C178.301 539.589 207.611 519.822 213.489 516.056Z"/><path fill="#C62524" d="M175.878 568.448C179.828 573.798 187.991 580.144 193.231 584.521C203.44 593.049 214.232 601.089 224.404 609.674C213.77 618.378 202.873 627.678 191.898 635.947C180.718 623.302 169.139 608.141 157.949 594.971L158.7 590.592L159.277 591.599L160.351 591.464C161.981 589.901 174.146 571.218 175.878 568.448Z"/><path fill="#C72020" d="M251.993 602.389C253.756 604.557 295.7 622.052 300.782 625.722C303.587 627.747 315.636 632.802 320.026 635.845C308.877 646.422 297.791 656.543 286.007 666.416C280.35 671.155 275.49 675.692 269.515 680.084L268.725 680.161L267.696 680.69L266.962 681.501C267.474 688.245 271.32 721.486 270.289 725.429C262.698 721.042 233.008 705.779 229.007 700.38C226.178 696.561 224.195 691.858 222.087 687.616C218.369 680.133 214.768 672.579 210.781 665.234C210.382 661.952 223.563 635.63 225.817 630.874C231.307 623.557 244.368 610.756 251.145 603.161L251.993 602.389Z"/><path fill="#C02121" d="M251.993 602.389C253.756 604.557 295.7 622.052 300.782 625.722C303.587 627.747 315.636 632.802 320.026 635.845C308.877 646.422 297.791 656.543 286.007 666.416C280.35 671.155 275.49 675.692 269.515 680.084L268.725 680.161C267.542 676.138 266.754 671.677 265.893 667.53C262.783 652.558 259.376 637.55 255.981 622.651C254.884 617.834 253.241 607.176 251.145 603.161L251.993 602.389Z"/><path fill="#C02121" d="M210.781 665.234C227.052 670.094 251.073 678.316 267.696 680.69L266.962 681.501C267.474 688.245 271.32 721.486 270.289 725.429C262.698 721.042 233.008 705.779 229.007 700.38C226.178 696.561 224.195 691.858 222.087 687.616C218.369 680.133 214.768 672.579 210.781 665.234Z"/><path fill="#C62524" d="M313.035 678.159C330.256 681.585 349.054 686.801 366.354 690.38C371.353 691.414 385.169 695.299 389.668 695.708C384.986 705.133 380.109 714.427 375.309 723.779C374.382 725.583 369.188 735.541 368.853 737.027L365.74 743.624C363.847 748.798 353.984 783.202 355.038 786.152C354.556 786.407 353.642 786.832 353.171 786.576C349.825 784.759 343.304 781.33 340.3 779.761L305.283 761.677C304.491 760.028 303.677 757.611 303.089 755.825C299.222 744.065 294.896 732.174 291.634 720.245C293.652 714.472 300.309 703.015 303.232 697C304.698 693.984 310.704 682.251 312.309 679.924L313.035 678.159Z"/><path fill="#C72020" d="M313.035 678.159C330.256 681.585 349.054 686.801 366.354 690.38C371.353 691.414 385.169 695.299 389.668 695.708C384.986 705.133 380.109 714.427 375.309 723.779C374.382 725.583 369.188 735.541 368.853 737.027L365.74 743.624C363.593 739.243 351.263 725.425 347.391 720.822C341.645 713.992 335.486 705.699 329.741 699.009C325.83 694.454 317.711 682.892 314.416 679.692C313.493 679.875 313.276 679.953 312.309 679.924L313.035 678.159Z"/><path fill="#DD2A2A" d="M315.359 675.181C317.197 673.641 318.456 672.139 320.135 670.47C337.221 653.488 353.921 636.105 370.769 618.883C373.411 616.182 375.856 613.468 378.813 611.117L421.098 620.4L433.846 647.998C431.929 650.901 428.332 649.169 425.598 648.167C419.568 656.893 413.028 665.074 406.599 673.498C401.268 680.485 396.166 687.759 390.695 694.622L389.668 695.708C385.169 695.299 371.353 691.414 366.354 690.38C349.054 686.801 330.256 681.585 313.035 678.159L315.359 675.181Z"/><path fill="#C62524" d="M304.671 555.284C312.72 555.533 339.914 561.741 347.414 565.036C351.866 571.535 362.531 593.443 366.854 601.578C350.078 598.519 352.325 600.331 341.042 612.423C334.197 619.759 327.117 628.944 320.026 635.845C315.636 632.802 303.587 627.747 300.782 625.722C295.7 622.052 253.756 604.557 251.993 602.389C256.338 597.618 270.434 585.647 275.79 580.934C284.542 573.233 295.831 562.278 304.671 555.284Z"/><defs><linearGradient id="gradient_2" gradientUnits="userSpaceOnUse" x1="267.89813" y1="645.7215" x2="369.48795" y2="634.72607"><stop offset="0" stop-color="#9E1B18"/><stop offset="1" stop-color="#C92221"/></linearGradient></defs><path fill="url(#gradient_2)" d="M320.026 635.845C327.117 628.944 334.197 619.759 341.042 612.423C352.325 600.331 350.078 598.519 366.854 601.578C367.306 602.668 367.541 602.56 367.027 603.484C363.081 610.582 354.825 617.894 350.073 624.113C345.004 630.749 339.236 638.634 334.572 645.329C329.082 653.208 316.078 668.464 312.272 676.03C309.668 678.517 293.354 678.936 289.245 679.168C284.375 679.443 273.337 681.243 269.515 680.084C275.49 675.692 280.35 671.155 286.007 666.416C297.791 656.543 308.877 646.422 320.026 635.845Z"/><path fill="#C62524" d="M433.846 647.998C435.196 650.061 436.44 653.413 437.238 655.796C434.206 662.17 430.699 668.281 427.384 674.513C423.234 682.314 419.548 690.08 414.291 697.215C408.387 695.259 397.198 695.576 390.695 694.622C396.166 687.759 401.268 680.485 406.599 673.498C413.028 665.074 419.568 656.893 425.598 648.167C428.332 649.169 431.929 650.901 433.846 647.998Z"/><path fill="#C02121" d="M390.695 694.622C397.198 695.576 408.387 695.259 414.291 697.215C412.326 700.17 406.396 709.285 404.02 711.079C398.956 714.899 372.262 739.258 368.655 740.276C368.592 738.957 368.887 738.197 368.853 737.027C369.188 735.541 374.382 725.583 375.309 723.779C380.109 714.427 384.986 705.133 389.668 695.708L390.695 694.622Z"/><path fill="#C62524" d="M256.109 567.015C259.379 563.822 263.594 560.561 267.385 558C270.354 568.218 234.253 607.785 225.169 609.279C234.017 596.215 246.525 580.152 256.109 567.015Z"/><path fill="#DD2A2A" d="M440.128 685.585C446.93 686.456 467.126 695.06 473.604 698.17C476.88 703.831 483.952 724.629 488.35 731.166C488.306 731.596 488.263 732.025 488.22 732.455L486.953 733.898C477.848 753.322 468.204 772.402 458.584 791.569C456.997 794.731 455.61 797.789 453.78 800.83C452.195 794.551 447.67 771.642 443.65 768.58C442.552 769.019 441.441 769.091 440.321 768.668C423.156 762.189 406.238 755.896 388.781 750.184C393.342 741.177 398.711 729.75 403.588 721.259C405.766 717.091 434.705 690.052 440.128 685.585Z"/><path fill="#C02121" d="M477.816 734.516C480.919 734.255 483.843 734.044 486.953 733.898C477.848 753.322 468.204 772.402 458.584 791.569C456.997 794.731 455.61 797.789 453.78 800.83C452.195 794.551 447.67 771.642 443.65 768.58L443.64 768.123C451.259 761.334 459.122 752.396 466.6 745.259C470.617 741.426 473.285 738.065 477.816 734.516Z"/><path fill="#C62524" d="M403.588 721.259C412.57 731.509 421.813 741.416 430.487 752.024C434.932 757.46 439.534 762.314 443.64 768.123L443.65 768.58C442.552 769.019 441.441 769.091 440.321 768.668C423.156 762.189 406.238 755.896 388.781 750.184C393.342 741.177 398.711 729.75 403.588 721.259Z"/><path fill="#C62524" d="M440.128 685.585C446.93 686.456 467.126 695.06 473.604 698.17C476.88 703.831 483.952 724.629 488.35 731.166C488.306 731.596 488.263 732.025 488.22 732.455L486.953 733.898C483.843 734.044 480.919 734.255 477.816 734.516C475.833 732.312 471.364 726.756 469.405 724.425C463.9 717.873 440.391 692.845 440.128 685.585Z"/><path fill="#C62524" d="M537.619 792.363C534.231 789.999 531.258 786.755 528.103 784.312C518.566 776.925 505.801 765.287 495.449 759.564C498.232 748.905 499.004 729.443 500.59 717.534C504.558 720.517 510.329 725.878 514.414 729.27C528.127 740.656 541.134 752.457 553.89 764.917C552.114 768.4 539.557 790.794 537.619 792.363Z"/><path fill="#C02121" d="M553.89 764.917L554.461 765.38C561.127 770.695 575.062 774.686 583.518 778.135C588.915 780.337 598.921 784.724 604.181 786.439C601.735 787.832 545.525 792.149 538.751 792.05C535.578 794.844 531.885 797.77 528.626 800.606C525.23 803.562 519.925 809.707 516.55 811.595L516.143 811.459C520.627 805.949 532.003 796.215 537.619 792.363C539.557 790.794 552.114 768.4 553.89 764.917Z"/><path fill="#C72020" d="M143.139 176.307C146.881 177.944 155.91 183.528 159.745 185.799L192.462 205.297C224.837 224.624 259.506 244.768 291.344 264.692C297.407 265.643 313.732 264.171 320.804 263.948C358.252 262.764 395.661 260.84 433.129 259.597C432.613 260.251 431.501 261.824 430.895 262.182C427.407 263.418 421.944 268.373 418.542 270.534C410.498 275.643 398.84 283.802 391.884 290.043C386.946 294.474 376.571 308.818 372.282 314.829C363.432 327.234 353.432 339.987 344.803 352.414C335.172 355.229 310.698 367.179 300.544 371.784L212.627 411.753C208.133 413.82 187.816 424.018 184.767 424.348C184.025 425.38 184.077 425.307 183.875 426.569C184.452 429.277 192.191 442.199 193.967 445.464C199.773 456.137 205.819 466.955 211.377 477.789C213.953 482.811 218.147 489.516 220.316 494.552C213.474 496.895 192.086 510.18 187.465 515.792C181.992 522.438 177.119 530.766 169.537 536.699C161.719 529.211 154.006 521.975 146.028 514.658C128.88 503.667 110.535 493.69 93.5791 482.627C68.8261 466.474 42.0563 452.3 17.9725 435.515C33.5322 397.237 50.8178 359.736 65.8578 321.245C67.5809 316.835 69.3339 312.194 71.3449 307.92C80.1719 289.776 93.6792 267.034 103.529 248.837C115.817 226.134 129.924 198.115 143.139 176.307Z"/><path fill="#911E17" d="M71.3449 307.92C75.1541 309.517 85.1169 320.874 88.3263 324.31L107.946 345.153L183.684 426.538L183.875 426.569C184.452 429.277 192.191 442.199 193.967 445.464C199.773 456.137 205.819 466.955 211.377 477.789C213.953 482.811 218.147 489.516 220.316 494.552C213.474 496.895 192.086 510.18 187.465 515.792C181.992 522.438 177.119 530.766 169.537 536.699C161.719 529.211 154.006 521.975 146.028 514.658C128.88 503.667 110.535 493.69 93.5791 482.627C68.8261 466.474 42.0563 452.3 17.9725 435.515C33.5322 397.237 50.8178 359.736 65.8578 321.245C67.5809 316.835 69.3339 312.194 71.3449 307.92Z"/><path fill="#C02121" d="M183.684 426.538L183.875 426.569C184.452 429.277 192.191 442.199 193.967 445.464C199.773 456.137 205.819 466.955 211.377 477.789C213.953 482.811 218.147 489.516 220.316 494.552C213.474 496.895 192.086 510.18 187.465 515.792C181.992 522.438 177.119 530.766 169.537 536.699C161.719 529.211 154.006 521.975 146.028 514.658C148.047 510.902 150.564 504.384 152.257 500.353L163.613 473.39C169.085 460.592 179.408 438.944 183.684 426.538Z"/><path fill="#DD2A2A" d="M291.344 264.692C297.407 265.643 313.732 264.171 320.804 263.948C358.252 262.764 395.661 260.84 433.129 259.597C432.613 260.251 431.501 261.824 430.895 262.182C427.407 263.418 421.944 268.373 418.542 270.534C410.498 275.643 398.84 283.802 391.884 290.043C386.946 294.474 376.571 308.818 372.282 314.829C363.432 327.234 353.432 339.987 344.803 352.414C335.172 355.229 310.698 367.179 300.544 371.784L212.627 411.753C208.133 413.82 187.816 424.018 184.767 424.348L245.159 334.754L277.602 286.856C280.234 282.91 290.316 268.517 291.344 264.692Z"/></svg>