<?xml version="1.0" encoding="utf-8" ?><svg xmlns="http://www.w3.org/2000/svg" xmlns:xlink="http://www.w3.org/1999/xlink" width="1024" height="1024" viewBox="0 0 1024 1024"><path fill="#C01C1A" d="M160.075 304.858C162.715 300.325 176.532 290.688 181.296 286.229C197.326 271.228 215.734 261.455 224.594 240.465C232.434 221.89 241.734 203.724 249.91 185.297C252.07 180.763 290.561 159.405 297.671 155.227L330.219 136.095C334.965 133.292 349.504 124.143 353.892 123.146C369.275 119.652 386.211 117.847 401.886 115.204C411.699 113.549 421.361 111.296 431.168 109.82C433.294 109.5 434.413 109.338 436.158 110.497C440.836 113.606 445.317 117.116 449.942 120.324L481.732 142.31C485.017 144.567 495.225 150.806 497.172 153.28C498.62 171.344 497.717 195.943 497.658 214.374L497.597 313.965L497.448 439.437L497.452 481.942C497.453 488.894 497.701 497.532 497.376 504.364L497.009 773.519C496.966 784.807 497.036 796.114 497.27 807.399C497.394 813.413 497.989 819.752 497.633 825.738C497.518 827.674 497.336 829.359 496.323 831.04C493.034 836.502 477.937 850.999 472.618 856.661C464.819 864.963 452.665 879.509 443.717 885.63C437.126 890.139 379.164 900.375 367.052 903.38C344.51 895.893 318.677 885.658 296.071 877.375L271.477 868.516C260.437 864.564 256.082 863.798 247.134 855.752L199.98 812.532C193.58 806.646 184.231 798.581 178.633 792.107C176.563 789.713 173.332 777.185 171.951 773.256L155.775 726.936C153.001 718.908 149.095 706.316 145.747 698.747C138.792 683.025 129.218 666.805 121.467 651.389C119.159 646.797 110.839 632.021 110.367 627.811C109.214 616.214 110.577 604.302 110.737 592.643C111.234 587.247 110.086 580.611 110.758 575.329C112.544 561.275 111.14 548.982 110.393 535.045C110.459 529.128 110.831 522.29 110.514 516.483C109.379 495.652 106.986 474.363 108.69 453.484C109.146 447.895 116.485 435.257 118.986 429.6C124.914 416.191 131.55 402.913 136.801 389.195C139.043 383.199 141.596 372.532 143.316 366.139L153.735 327.271C155.509 320.589 157.485 310.973 160.075 304.858Z"/><defs><linearGradient id="gradient_0" gradientUnits="userSpaceOnUse" x1="522.966" y1="365.24084" x2="252.63213" y2="174.70259"><stop offset="0" stop-color="#AE1714"/><stop offset="1" stop-color="#FA2C2E"/></linearGradient></defs><path fill="url(#gradient_0)" d="M160.075 304.858C162.715 300.325 176.532 290.688 181.296 286.229C197.326 271.228 215.734 261.455 224.594 240.465C232.434 221.89 241.734 203.724 249.91 185.297C252.07 180.763 290.561 159.405 297.671 155.227L330.219 136.095C334.965 133.292 349.504 124.143 353.892 123.146C369.275 119.652 386.211 117.847 401.886 115.204C411.699 113.549 421.361 111.296 431.168 109.82C433.294 109.5 434.413 109.338 436.158 110.497C440.836 113.606 445.317 117.116 449.942 120.324L481.732 142.31C485.017 144.567 495.225 150.806 497.172 153.28C498.62 171.344 497.717 195.943 497.658 214.374L497.597 313.965L497.448 439.437L497.452 481.942C497.453 488.894 497.701 497.532 497.376 504.364C496.051 502.865 497.208 415.116 496.87 406.201C490.343 401.323 481.733 389.328 476.304 382.675C464.937 368.746 454.168 354.044 442.237 340.568C441.086 339.209 439.691 337.875 438.007 337.18C421.237 330.254 401.386 326.322 385.186 318.244L385.323 317.746L384.635 317.579C379.93 316.406 365.227 310.903 360.402 308.913C345.468 302.754 323.12 295.385 309.538 287.624C315.002 280.361 323.266 271.364 329.43 264.224L360.476 227.681L381.226 202.575C384.311 198.789 389.381 191.993 392.62 188.929C386.827 190.99 379.702 196.026 374.119 199.095C361.836 205.844 348.109 212.255 336.652 220.205C333.658 222.283 326.969 241.084 325.154 245.508C319.618 259.006 313.82 272.744 308.767 286.409C310.031 291.612 310.842 296.7 312.231 301.825C314.23 309.195 317.719 317.187 318.374 324.804C319.765 340.964 317.434 357.162 317.739 373.55L257.954 335.955C254.978 334.093 235.06 322.147 234.315 320.249L234.786 318.8C233.657 319.042 233.383 319.077 232.332 319.527C224.927 318.981 209.606 314.809 201.695 313.41C187.764 310.944 173.807 308.274 160.075 304.858Z"/><defs><linearGradient id="gradient_1" gradientUnits="userSpaceOnUse" x1="450.67801" y1="882.40424" x2="83.358307" y2="567.21332"><stop offset="0" stop-color="#9A1815"/><stop offset="1" stop-color="#CA1D1C"/></linearGradient></defs><path fill="url(#gradient_1)" d="M110.393 535.045C111.31 535.279 112.108 535.416 113.03 535.574C117.458 536.333 173.777 580.277 181.442 586.195C185.034 588.968 194.139 597.217 197.912 598.523C205.564 600.656 213.306 603.375 220.798 606.032C243.935 614.234 266.873 622.684 290.286 630.086C275.084 646.473 257.055 662.572 242.143 678.727C249.783 683.67 257.325 687.174 265.38 691.341L294.738 706.697C299.557 709.196 309.968 714.06 313.808 717.196C308.661 721.58 292.51 729.909 285.982 733.491L219.955 769.729C213.256 773.341 187.658 786.555 182.758 790.54C188.095 791.795 197.107 792.195 202.787 792.597L233.497 794.79L271.616 797.822C280.449 798.546 290.161 799.562 298.961 799.423C313.303 818.504 327.477 840.095 340.87 859.914C347.801 870.172 361.357 890.061 365.988 900.805C366.524 874.099 367.889 846.899 370.455 820.347C371.278 811.835 371.345 803.245 372.454 794.726C403.599 789.639 434.438 782.286 465.628 777.514C472.461 776.469 491.107 772.213 497.009 773.519C496.966 784.807 497.036 796.114 497.27 807.399C497.394 813.413 497.989 819.752 497.633 825.738C497.518 827.674 497.336 829.359 496.323 831.04C493.034 836.502 477.937 850.999 472.618 856.661C464.819 864.963 452.665 879.509 443.717 885.63C437.126 890.139 379.164 900.375 367.052 903.38C344.51 895.893 318.677 885.658 296.071 877.375L271.477 868.516C260.437 864.564 256.082 863.798 247.134 855.752L199.98 812.532C193.58 806.646 184.231 798.581 178.633 792.107C176.563 789.713 173.332 777.185 171.951 773.256L155.775 726.936C153.001 718.908 149.095 706.316 145.747 698.747C138.792 683.025 129.218 666.805 121.467 651.389C119.159 646.797 110.839 632.021 110.367 627.811C109.214 616.214 110.577 604.302 110.737 592.643C111.234 587.247 110.086 580.611 110.758 575.329C112.544 561.275 111.14 548.982 110.393 535.045Z"/><path fill="#E12222" d="M160.075 304.858C173.807 308.274 187.764 310.944 201.695 313.41C209.606 314.809 224.927 318.981 232.332 319.527C232.558 337.056 234.543 357.084 235.35 374.993C253.68 374.693 271.944 375.063 290.26 375.746C298.489 376.053 307.842 375.471 315.75 376.906C311.257 382.741 308.775 387.964 305.417 394.458C296.501 411.707 285.449 428.047 277.261 445.658C303.052 443.394 328.672 440.295 354.395 437.412C358.833 436.914 363.329 436.503 367.793 436.375C376.152 443.655 385.42 452.646 394.069 459.194C387.078 463.917 381.233 469.038 374.536 473.96C354.265 488.86 334.419 504.311 314.418 519.589C309.617 508.922 303.803 498.647 298.286 488.33C293.697 479.746 289.024 471.222 284.546 462.575C283.341 460.249 277.447 447.556 276.001 446.947L274.596 447.252L238.53 451.271C230.27 452.152 209.103 453.712 202.592 456.509C186.561 475.028 161.998 492.642 144.099 509.911C135.104 518.589 123.966 523.881 115.443 534.402C148.355 525.102 177.266 519.574 210.598 512.344L235.147 507.001C240.284 505.862 246.636 504.121 251.778 503.829C261.811 519.523 272.435 536.654 283.569 551.542C266.051 562.01 244.927 571.564 226.824 581.668C215.669 587.894 208.564 590.372 197.912 598.523C194.139 597.217 185.034 588.968 181.442 586.195C173.777 580.277 117.458 536.333 113.03 535.574C112.108 535.416 111.31 535.279 110.393 535.045C110.459 529.128 110.831 522.29 110.514 516.483C109.379 495.652 106.986 474.363 108.69 453.484C109.146 447.895 116.485 435.257 118.986 429.6C124.914 416.191 131.55 402.913 136.801 389.195C139.043 383.199 141.596 372.532 143.316 366.139L153.735 327.271C155.509 320.589 157.485 310.973 160.075 304.858Z"/><path fill="#E12222" d="M326.67 380.094C333.097 371.665 345.414 360.156 352.7 351.948C356.632 347.518 382.23 319.218 385.186 318.244C401.386 326.322 421.237 330.254 438.007 337.18C439.691 337.875 441.086 339.209 442.237 340.568C434.214 344.512 428.573 348.826 421.275 352.824C409.68 359.174 400.399 364.606 389.343 371.743C380.921 377.179 366.973 386.491 357.953 390.545C350.445 387.769 334.624 381.793 326.67 380.094Z"/><path fill="#C01C1A" d="M202.592 456.509C209.103 453.712 230.27 452.152 238.53 451.271L274.596 447.252L275.789 447.787C273.126 453.327 270.369 460.143 267.817 465.92C263.057 476.694 254.584 492.979 251.619 503.912L211.641 465.672C208.61 462.739 205.476 459.238 202.592 456.509Z"/><path fill="#E12222" d="M283.905 552.265C292 555.18 307.293 558.694 315.931 560.833L373.034 574.992C372.611 585.246 373.201 595.509 373.315 605.75C373.492 621.541 373.504 637.361 373.43 653.154C366.879 653.012 346.728 646.572 339.317 644.353C323.611 639.648 306.14 634.962 290.743 629.65C289.993 612.239 289.081 597.87 286.914 580.475C285.968 572.889 284.216 559.561 283.905 552.265Z"/><path fill="#C01C1A" d="M594.885 110.503C598.957 110.58 609.899 112.918 614.668 113.755L653.04 120.348C661.648 121.83 681.437 123.932 688.226 126.49C692.482 128.093 696.929 132.147 700.701 134.819C716.995 146.359 733.65 157.329 750.405 168.181C757.74 172.932 774.08 182.297 779.298 187.588C781.443 189.762 783.717 198.21 784.856 201.391C789.31 213.84 800.959 249.595 807.566 258.71C811.803 264.555 819.64 269.185 825.408 273.523C832.228 278.653 868.217 305.291 870.275 309.357C873.331 315.397 873.893 324.35 875.121 331.084L882.344 369.874C883.871 378.23 885.128 386.354 887.325 394.699C888.897 400.665 893.601 408.149 895.102 413.617C898.993 427.795 918.874 458.637 917.687 471.774C915.206 499.239 910.569 525.293 909.195 552.701C908.503 567.807 910.53 583.976 911.443 599.053C911.26 606.287 915.864 631.707 913.778 637.475C905.956 659.105 890.628 678.932 880.965 699.885C871.865 719.738 865.177 740.996 856.585 761.05C854.157 766.718 844.832 792.842 841.056 796.598C822.595 814.959 799.406 833.987 780.377 852.369C772.992 859.502 758.753 864.003 750.036 869.588C729.161 881.04 706.895 891.578 686.614 904.011C675.22 903.191 589.127 893.283 585.277 891.283C579.985 888.533 563.423 869.164 558.02 863.559C548.61 853.799 538.391 844.26 529.557 833.992C529.098 833.46 528.709 832.901 528.309 832.324C527.592 823.694 528.028 810.872 528.036 801.825L528.044 747.719C528.047 703.832 527.843 659.951 528.544 616.07C528.6 612.554 528.509 608.98 528.625 605.472L637.607 605.529C644.95 611.709 652.82 620.014 659.642 626.931L688.462 655.801C700.758 667.926 713.258 679.993 725.409 692.231C729.348 696.198 737.987 704.522 740.976 708.487C741.099 723.539 740.475 740.249 740.937 755.042C746.4 760.679 754.83 768.704 760.798 773.925C761.012 768.605 760.756 763.721 760.671 758.428C760.353 738.735 761.964 718.712 761.304 699.039C748.876 684.851 729.033 666.328 715.237 652.888C692.67 630.901 670.067 606.654 647.385 585.126C641.201 584.001 622.942 584.39 615.819 584.388L560.566 584.428C551.303 584.489 537.902 585.041 529.094 584.628L528.938 535.137C564.792 534.506 601.34 535.641 637.255 534.944C647.472 525.417 658.188 514.134 668.147 504.191L715.052 457.667C723.446 449.275 739.744 431.745 748.592 424.805C756.601 427.922 762.988 430.332 771.7 430.058C814.174 428.723 827.349 369.794 785.878 354.137C763.781 345.795 741.371 356.472 733.054 378.287C729.14 388.76 731.609 398.302 734.517 408.615C710.982 433.048 685.073 458.123 660.908 482.091L640.798 502.036C637.049 505.771 633.039 510.017 628.925 513.364C627.758 514.314 623.798 514.453 622.14 514.453C596.541 514.455 570.933 514.291 545.333 514.434C540.149 514.463 534.686 514.335 529.532 514.779C529.172 498.294 529.97 481.582 530.042 465.092C550.004 464.701 573.342 465.76 592.556 464.852C599.125 459.774 605.749 452.384 611.569 446.34C629.567 427.648 648.519 409.731 666.511 391.055C666.656 365.553 665.789 336.716 666.637 311.69C679.672 304.908 689.916 298.694 694.069 283.812C703.902 248.579 669.243 220.823 637.114 238.86C610.401 253.857 611.601 295.403 638.965 308.301C641.256 309.39 643.721 310.34 645.931 311.469C646.264 332.611 646.572 360.937 645.947 381.954C642.124 386.604 636.787 391.59 632.45 395.93L610.988 417.473C606.643 421.846 587.417 441.984 583.622 444.455L549.319 444.517C543.531 444.524 535.789 444.766 530.14 444.448C529.451 419.796 530.038 392.58 530.041 367.67L530.039 223.025C530.038 202.9 530.5 180.844 529.931 160.852C529.892 159.687 529.837 158.678 530.193 157.545C531.139 154.53 588.477 113.843 594.885 110.503ZM775.255 632.491C796.48 629.178 810.993 609.273 807.656 588.051C804.319 566.829 784.399 552.338 763.181 555.698C741.995 559.052 727.531 578.935 730.863 600.125C734.194 621.315 754.061 635.8 775.255 632.491Z"/><path fill="#E12222" d="M529.931 160.852C529.892 159.687 529.837 158.678 530.193 157.545C531.139 154.53 588.477 113.843 594.885 110.503C595.056 121.344 598.434 139.096 600.289 150.233L609.422 206.952C587.901 192.083 563.892 180.47 541.509 166.882C539.774 165.829 530.558 161.582 529.931 160.852Z"/><path fill="#C01C1A" d="M766.642 575.659C789.365 574.643 796.18 609.442 773.552 611.955C746.804 615.717 743.969 578.622 766.642 575.659Z"/><path fill="#E12222" d="M607.199 207.957C607.645 207.932 608.139 208.071 608.607 208.159C608.345 208.54 584.131 217.993 579.37 220.097C578.462 220.237 578.936 220.274 577.96 219.879C581.263 217.576 603.188 209.087 607.199 207.957Z"/><path fill="#E12222" d="M747.507 478.552C749.2 479.013 753.442 480.127 754.407 481.515L753.821 481.711C751.646 481.24 748.819 480.397 747.507 478.552Z"/><path fill="#C01C1A" d="M767.118 372.168C794.045 370.305 800.148 399.535 774.065 408.841C750.377 414.956 740.401 377.573 767.118 372.168Z"/><path fill="#C01C1A" d="M653.649 254.199C663.698 252.505 673.239 259.21 675.049 269.239C676.86 279.267 670.265 288.885 660.258 290.811C653.682 292.077 646.932 289.71 642.587 284.614C638.241 279.518 636.97 272.479 639.26 266.185C641.549 259.891 647.045 255.313 653.649 254.199Z"/></svg>