<svg width="566" height="141" viewBox="0 0 566 141" fill="none" xmlns="http://www.w3.org/2000/svg">
<g clip-path="url(#clip0_9241_808)">
<path d="M300.73 105.32L298.92 106.49H565.38V105.32H300.73Z" fill="white"/>
<path d="M0.759766 105.58V106.75H267.22L265.41 105.58H0.759766Z" fill="white"/>
<path d="M359.36 40.36V47.86C359.36 49.67 359.1 52.78 361.17 53.56V53.69H353.28V53.56C355.35 52.78 355.09 49.67 355.09 47.86V32.08C355.09 30.27 355.47 27.16 353.28 26.38V26.25H361.17V26.38C359.1 27.16 359.36 30.27 359.36 32.21V37.38H374.36V32.21C374.36 30.27 374.62 27.16 372.55 26.38V26.25H380.5V26.38C378.43 27.16 378.68 30.27 378.68 32.08V47.86C378.68 49.67 378.43 52.78 380.5 53.56V53.69H372.61V53.56C374.68 52.78 374.42 49.67 374.42 47.86V40.36H359.36Z" fill="white"/>
<path d="M406.85 24.83C404.455 24.682 402.158 23.8258 400.25 22.37C398.267 23.8681 395.874 24.7262 393.39 24.83L400.25 18.5L406.85 24.83ZM389.64 39.59C389.64 45.4 393.78 51.36 400.25 51.36C406.72 51.36 410.6 46.7 410.6 40.5C410.6 34.3 406.73 28.6 400.25 28.6C393.77 28.6 389.64 33.25 389.64 39.6M415.39 39.72C415.39 48.26 408.39 54.35 400.12 54.35C391.85 54.35 384.85 48.35 384.85 39.98C384.85 31.98 391.71 25.36 400.51 25.62C409.18 25.62 415.39 32.22 415.39 39.72Z" fill="white"/>
<path d="M430.4 26.25C435.84 26.25 439.98 28.97 439.98 33.63C439.98 38.29 435.5 41.4 430.79 41.4C429.765 41.4336 428.744 41.2566 427.79 40.88C431.27 40.62 435.16 38.42 435.16 34.41C435.16 30.78 432.57 29.41 429.34 29.41C428.338 29.3846 427.336 29.428 426.34 29.54V48.25C426.34 50.58 426.34 52.25 428.54 53.56V53.69H420.26V53.56C422.33 52.78 422.07 49.67 422.07 47.86V32.21C422.07 30.27 422.33 27.29 420.26 26.38V26.25H430.4Z" fill="white"/>
<path d="M445.5 32.21C445.5 30.27 445.76 27.29 443.69 26.38V26.26H451.59V26.38C449.52 27.29 449.78 30.27 449.78 32.21V47.86C449.78 49.68 449.52 52.78 451.59 53.56V53.69H443.69V53.56C445.76 52.78 445.5 49.68 445.5 47.86V32.21Z" fill="white"/>
<path d="M466.5 48.25C466.5 50.58 466.5 52.25 468.69 53.56V53.68H460.42V53.56C462.49 52.78 462.23 49.68 462.23 47.87V29.36H458.61C456.792 29.2565 454.998 29.8062 453.55 30.91L454.98 26H455.11C455.6 26.2035 456.131 26.2891 456.66 26.25H473.23C473.883 26.2903 474.538 26.2055 475.16 26H475.3L473.87 30.91H473.75C473.23 29.49 471.54 29.36 470.24 29.36H466.5V48.25Z" fill="white"/>
<path d="M490.58 29.88L486.58 40.36H494.74L490.58 29.88ZM485.4 43.33L483.33 49.33C482.42 51.66 482.16 52.82 484.11 53.6V53.73H476.5V53.6C478.97 52.43 479.6 50.1 480.5 47.6L487.5 30.27C488.01 28.84 488.79 27.03 486.84 26.39V26.25H493.45L502.1 47.6C503.01 50.06 503.79 52.39 506.1 53.6V53.73H497.56V53.6C499.63 52.69 499.24 52.17 498.2 49.33L496.01 43.33H485.4Z" fill="white"/>
<path d="M528.88 50.97C527.07 53.3 523.7 54.33 520.73 54.33C517.954 54.3999 515.259 53.3847 513.22 51.5C511.02 49.04 511.16 46.19 511.16 43.22V32.08C511.16 30.27 511.41 27.29 509.34 26.39V26.25H517.23V26.39C515.16 27.29 515.42 30.27 515.42 32.08V43.21C515.42 48.77 517.63 51.36 522.03 51.36C523.206 51.3686 524.367 51.1017 525.421 50.5807C526.475 50.0598 527.393 49.2992 528.1 48.36C529.01 47.2 528.88 46.16 528.88 44.61V32.08C528.88 30.27 529.14 27.29 527.07 26.39V26.25H534.97L535.1 26.39C532.89 27.29 533.16 30.27 533.16 32.21V47.87C533.16 49.67 532.89 52.78 535.1 53.56V53.69H528.88V50.97Z" fill="white"/>
<path d="M545.32 49.42C544.32 50.71 542.99 52.53 545.58 53.56V53.69H537.42V53.56L549.07 39.07L542.99 30.4C541.82 28.71 540.79 27.03 538.99 26.26H543.78C545.08 26.26 545.46 26.64 545.85 27.26L551.93 35.93L556.07 30.37C557.07 28.94 558.52 26.74 555.69 26.37V26.25H563.32L553.87 38.67L560.5 48.5C561.8 50.44 563.09 52.77 565.5 53.68H560.72C560.182 53.6976 559.648 53.5751 559.171 53.3244C558.694 53.0737 558.291 52.7035 558 52.25L551 41.78L545.32 49.42Z" fill="white"/>
<path d="M360.01 90.8301C361.028 91.0455 362.07 91.1328 363.11 91.0901C369.33 91.0901 374.89 87.8601 374.89 80.7401C374.89 73.3601 370.75 69.7401 363.75 69.7401C362.485 69.7305 361.225 69.9056 360.01 70.2601V90.8301ZM355.87 72.5001C355.87 70.5601 356.12 67.5901 353.92 66.9401V66.8101H364.15C373.59 66.8101 379.54 71.9801 379.54 80.2701C379.54 88.5601 373.33 94.2701 364.01 94.2701H353.92V94.1301C355.99 92.5801 355.87 90.6401 355.87 88.1901V72.5001Z" fill="white"/>
<path d="M393.65 90.57L398.96 91.09C400.332 91.2114 401.714 91.0562 403.025 90.6336C404.335 90.211 405.548 89.5297 406.59 88.63H406.72L404.78 94.06H387.43C389.64 93.28 389.38 90.18 389.38 88.24V72.58C389.38 70.77 389.64 67.66 387.43 66.89V66.76H400.77C401.471 66.8754 402.19 66.7851 402.84 66.5V71.42C401.41 69.87 399.74 69.74 397.92 69.74C396.492 69.691 395.063 69.7747 393.65 69.99V77.76H398.56C399.179 77.8119 399.801 77.723 400.38 77.5H400.5V81.9H400.37C399.73 80.74 398.04 80.74 396.74 80.74H393.64L393.65 90.57Z" fill="white"/>
<path d="M450.59 66.76C455.9 66.76 460.04 69.35 460.04 74.01C460.04 78.67 455.64 81.91 450.98 81.91C449.907 81.9408 448.841 81.7181 447.87 81.26C451.49 81.13 455.38 78.8 455.38 74.91C455.38 71.02 452.79 69.74 449.43 69.74C448.425 69.7612 447.423 69.848 446.43 70V88.76C446.43 91.09 446.43 92.76 448.63 94.06H440.35C442.55 93.29 442.29 90.18 442.29 88.24V72.58C442.29 70.77 442.55 67.66 440.48 66.89V66.76H450.59Z" fill="white"/>
<path d="M479.58 70.26L475.43 80.74H483.72L479.58 70.26ZM474.4 83.84L472.2 89.66C471.29 91.99 471.03 93.28 473.1 94.06H465.34C467.8 92.77 468.58 90.44 469.48 88.06L476.34 70.72C476.99 69.17 477.76 67.48 475.82 66.84V66.71H482.3L490.96 88.06C491.96 90.39 492.65 92.72 495.1 94.06H486.56C488.51 93.06 488.26 92.64 487.08 89.66L484.88 83.84H474.4Z" fill="white"/>
<path d="M511.67 66.76C517.23 66.76 520.22 69.61 520.22 73.49C520.22 77.12 517.11 79.96 513.61 80.74L519.69 88.24C521.556 90.5772 523.838 92.5502 526.42 94.06H522.5C520.3 94.06 518.88 93.55 517.71 91.99L512.71 85.78L508.83 79.78C512.19 79.39 516.07 77.84 516.07 73.96C516.07 70.85 513.48 69.17 510.63 69.3C509.679 69.3284 508.73 69.4152 507.79 69.56V88.24C507.79 90.18 507.53 93.29 509.73 94.06H501.73C503.93 93.29 503.67 90.18 503.67 88.24V72.58C503.67 70.77 503.93 67.66 501.73 66.89V66.76H511.67Z" fill="white"/>
<path d="M530.95 72.58C530.95 70.77 531.21 67.66 529.14 66.89V66.76H537.04V66.89C534.97 67.66 535.23 70.77 535.23 72.58V88.24C535.23 90.18 534.97 93.16 537.04 94.06V94.19H529.14V94.06C531.21 93.29 530.95 90.18 530.95 88.24V72.58Z" fill="white"/>
<path d="M561.24 71.68C559.447 70.0131 557.088 69.0876 554.64 69.09C552.31 69.09 549.33 70 549.33 72.85C549.33 78.54 563.56 78.54 563.56 86.17C563.56 90.57 558.91 94.84 552.43 94.84C549.873 94.8605 547.333 94.4236 544.93 93.55L543.77 88.37C546.363 90.4947 549.598 91.6789 552.95 91.73C555.29 91.73 558.95 90.44 558.95 87.47C558.95 80.99 544.58 82.16 544.58 73.36C544.58 68.06 549.89 66.12 555.06 66.12C557.167 66.1006 559.265 66.4041 561.28 67.02L561.24 71.68Z" fill="white"/>
<path d="M13.96 28.3301L10.07 38.8101H17.84L13.96 28.3301ZM9.04 41.9101L6.97 47.9101C6.19 50.2301 5.97 51.4001 7.75 52.1701V52.3101H0.5V52.1701C2.83 50.8801 3.5 48.5501 4.38 46.1701L10.99 28.8301C11.51 27.2801 12.28 25.5901 10.34 24.9501V24.8201H16.55L24.83 46.1701C25.74 48.5001 26.38 50.8301 28.72 52.1701V52.3101H20.57V52.1701C22.5 51.2701 22.24 50.7501 21.08 47.9101L19.01 41.9101H9.04Z" fill="white"/>
<path d="M45.4999 29.75C43.8221 28.1412 41.6037 27.2174 39.2799 27.16C36.9599 27.16 34.1099 28.07 34.1099 31.05C34.1099 36.74 47.6899 36.61 47.6899 44.24C47.6899 48.77 43.2999 52.91 37.0899 52.91C34.6951 52.9369 32.3178 52.4988 30.0899 51.62L28.9199 46.44C31.31 48.5924 34.3851 49.8289 37.5999 49.93C39.7899 49.93 43.1599 48.51 43.1599 45.53C43.1599 39.07 29.5799 40.24 29.5799 31.43C29.5799 26.26 34.7499 24.18 39.5799 24.18C41.5988 24.1688 43.6067 24.4759 45.5299 25.09L45.4999 29.75Z" fill="white"/>
<path d="M65.8498 29.75C64.1773 28.1394 61.9612 27.2152 59.6398 27.16C57.3098 27.16 54.4598 28.07 54.4598 31.05C54.4598 36.74 68.0498 36.61 68.0498 44.24C68.0498 48.77 63.6598 52.91 57.5698 52.91C55.152 52.9402 52.7512 52.5021 50.4998 51.62L49.3398 46.44C51.7268 48.5911 54.7983 49.8274 58.0098 49.93C60.2098 49.93 63.7098 48.51 63.7098 45.53C63.7098 39.07 50.1098 40.24 50.1098 31.43C50.1098 26.26 55.1698 24.18 59.9498 24.18C61.9694 24.1581 63.9791 24.4655 65.8998 25.09L65.8498 29.75Z" fill="white"/>
<path d="M72.5 30.6601C72.5 28.8401 72.76 25.7401 70.81 24.9601V24.8301H78.32V24.9601C76.25 25.7401 76.51 28.8401 76.51 30.6601V46.4401C76.51 48.2501 76.25 51.3601 78.32 52.1401V52.2601H70.77V52.1401C72.77 51.3601 72.46 48.2501 72.46 46.4401L72.5 30.6601Z" fill="white"/>
<path d="M96.26 29.75C94.59 28.1417 92.3778 27.2176 90.06 27.16C87.86 27.16 84.88 28.07 84.88 31.05C84.88 36.74 98.5 36.61 98.5 44.24C98.5 48.77 94.11 52.91 88.03 52.91C85.5921 52.9466 83.1705 52.5085 80.9 51.62L79.75 46.44C82.1334 48.5903 85.2016 49.8267 88.41 49.93C90.62 49.93 94.11 48.51 94.11 45.53C94.11 39.07 80.52 40.24 80.52 31.43C80.52 26.26 85.52 24.18 90.36 24.18C92.3763 24.159 94.3825 24.4663 96.3 25.09L96.26 29.75Z" fill="white"/>
<path d="M110.5 46.8301C110.5 49.1601 110.5 50.8301 112.57 52.1301V52.2601H104.8V52.1301C106.8 51.3601 106.49 48.2501 106.49 46.4401V27.8101H102.99C101.28 27.7554 99.6154 28.3606 98.34 29.5001H98.21L99.63 24.5801H99.76C100.198 24.8023 100.691 24.8926 101.18 24.8401H116.97C117.585 24.8911 118.204 24.8022 118.78 24.5801H118.92L117.62 29.5001H117.5C116.99 28.0701 115.44 27.8201 114.15 27.8201H110.5V46.8301Z" fill="white"/>
<path d="M131.34 28.3301L127.5 38.8101H135.26L131.34 28.3301ZM126.42 41.9101L124.36 47.9101C123.57 50.2301 123.18 51.4001 125.13 52.1701V52.3101H117.88V52.1701C120.21 50.8801 120.88 48.5501 121.63 46.1701L128.23 28.8301C128.88 27.2801 129.53 25.5901 127.72 24.9501V24.8201H133.93L142.2 46.1701C143.11 48.5001 143.76 50.8301 146.09 52.1701V52.3101H137.94V52.1701C139.87 51.2701 139.49 50.7501 138.45 47.9101L136.38 41.9101H126.42Z" fill="white"/>
<path d="M152.17 46.8301C152.17 49.1601 152.17 50.8301 154.24 52.1301V52.2601H147.24V52.1301C149.32 50.8401 149.32 49.1301 149.32 46.8301V30.2701C149.32 27.9401 149.32 26.2701 147.24 24.9601V24.8301H153.06C153.158 25.2496 153.334 25.6466 153.58 26.0001L154.1 26.7701L168.6 45.9201V30.2701C168.6 27.9401 168.74 26.2701 166.53 24.9601V24.8301H173.53V24.9601C171.46 26.2501 171.46 27.9601 171.46 30.2701V53.5601C168.75 52.5601 167.46 51.2301 165.77 48.7701L152.17 30.6501V46.8301Z" fill="white"/>
<path d="M196.04 30.0099C193.862 28.5254 191.296 27.715 188.66 27.6799C183.23 27.6799 179.48 31.8199 179.48 37.8999C179.48 43.9799 183.48 49.4099 189.57 49.4099C192.515 49.3286 195.38 48.4358 197.85 46.8299H197.98L196.04 51.6199C194.182 52.5011 192.146 52.9425 190.09 52.9099C180.77 52.9099 174.95 47.4799 174.95 38.5499C174.95 29.8799 180.77 24.1799 188.79 24.1799C191.236 24.2486 193.667 24.5839 196.04 25.1799V30.0099Z" fill="white"/>
<path d="M205.1 48.77L210.1 49.29C211.436 49.4017 212.78 49.2413 214.052 48.8184C215.324 48.3956 216.497 47.7191 217.5 46.83H217.62L215.81 52.2599H199.41V52.13C201.35 51.36 201.08 48.2499 201.08 46.4399V30.66C201.08 28.84 201.35 25.7399 199.41 24.9599V24.83H211.95C212.618 24.9291 213.3 24.8847 213.95 24.7V29.5C212.66 28.08 211.1 27.82 209.29 27.82C207.901 27.8147 206.514 27.9453 205.15 28.2099V35.84H209.94C210.513 35.9029 211.093 35.8132 211.62 35.58H211.75V40.1199H211.62C210.97 38.8199 209.29 38.82 208.13 38.82H205.13L205.1 48.77Z" fill="white"/>
<path d="M12.0202 64.4299C17.5002 64.4299 21.5002 67.0199 21.5002 71.6799C21.5002 76.3399 17.0902 79.5699 12.4402 79.5699C11.3663 79.6065 10.2995 79.3836 9.33018 78.9199C12.9502 78.7899 16.8402 76.5999 16.8402 72.5799C16.8402 68.9599 14.2502 67.4099 10.8402 67.4099C9.88508 67.4265 8.93251 67.5134 7.99018 67.6699V86.4299C7.99018 88.7499 7.87018 90.4299 10.2002 91.7299V91.8599H1.93018V91.7299C4.00018 90.9599 3.74018 87.8499 3.74018 86.0399V70.2499C3.74018 68.4399 4.00018 65.3399 1.93018 64.5599V64.4299H12.0202Z" fill="white"/>
<path d="M46.4398 89.0199C44.6398 91.4999 41.2698 92.4999 38.2898 92.4999C36.8986 92.5461 35.513 92.3033 34.2204 91.7869C32.9278 91.2706 31.7563 90.4919 30.7798 89.4999C28.5898 87.0499 28.5898 84.3299 28.5898 81.3599V70.2499C28.5898 68.4399 28.9698 65.3299 26.7798 64.5599V64.4299H34.6698V64.5599C32.5898 65.3299 32.8598 68.4399 32.8598 70.2499V81.3899C32.8598 86.9499 35.1898 89.5299 39.4598 89.5299C40.6395 89.5539 41.8076 89.2938 42.8658 88.7717C43.9239 88.2496 44.841 87.4807 45.5398 86.5299C46.2711 85.4245 46.5897 84.0969 46.4398 82.7799V70.2499C46.4398 68.4399 46.6998 65.3299 44.6398 64.5599V64.4299H52.4998V64.5599C50.4298 65.3299 50.6798 68.4399 50.6798 70.2499V86.0399C50.6798 87.8499 50.4298 90.9599 52.4998 91.7299V91.8599H46.4398V89.0199Z" fill="white"/>
<path d="M67.2799 75.4299C69.9999 75.4299 73.8699 74.5199 73.8699 71.1599C73.8699 68.3099 71.2899 66.7599 68.6999 67.0199L65.9899 67.2799V75.4299H67.2799ZM69.6099 88.8799C72.9699 89.1499 76.4699 87.5999 76.4699 83.5799C76.4699 79.5599 72.5799 77.8899 68.8399 78.0199L65.9899 78.2799V88.4999L69.6099 88.8799ZM61.7099 70.2499C61.7099 68.4399 61.9699 65.3399 59.8999 64.5599V64.4299H69.7399C75.1699 64.4299 78.4099 66.7599 78.4099 70.5099C78.4099 73.2299 76.5999 74.9099 74.2699 75.9499C78.0199 76.7299 80.9999 79.1899 80.9999 83.1999C80.9217 84.7581 80.4229 86.2661 79.5567 87.5637C78.6904 88.8613 77.489 89.9001 76.0799 90.5699C73.0799 91.9899 69.8699 91.8599 66.7599 91.8599H59.8999V91.7299C61.9699 90.9599 61.7099 87.8599 61.7099 85.9199V70.2499Z" fill="white"/>
<path d="M100.14 88.8899C102.796 88.9638 105.382 88.0397 107.39 86.2999H107.5L105.5 91.8599H88.3701V91.7399C90.4401 90.9599 90.1801 87.8599 90.1801 86.0499V70.2599C90.1801 68.4399 90.4401 65.3399 88.3701 64.5599V64.4299H96.2701V64.5599C94.1901 65.3399 94.4501 68.4399 94.4501 70.2599V88.3799L100.14 88.8899Z" fill="white"/>
<path d="M115.68 70.2499C115.68 68.4399 115.94 65.3399 113.86 64.5599V64.4299H121.76V64.5599C119.69 65.3399 119.95 68.4399 119.95 70.2499V86.0399C119.95 87.8599 119.69 90.9599 121.76 91.7299V91.8599H113.86V91.7299C115.94 90.9599 115.68 87.8599 115.68 86.0399V70.2499Z" fill="white"/>
<path d="M153.73 78.67C153.73 72.97 150.23 66.76 143.11 66.76C136.52 66.76 132.76 71.93 132.76 77.37C132.76 84.1 137.16 89.53 143.37 89.53C149.58 89.53 153.73 84.88 153.73 78.67ZM164.73 97.17C163.277 98.4862 161.391 99.2228 159.43 99.24C155.29 99.24 149.34 94.58 146.1 91.99C145.002 92.3 143.871 92.4747 142.73 92.51C140.814 92.5539 138.909 92.2153 137.126 91.5139C135.343 90.8126 133.717 89.7626 132.345 88.4254C130.972 87.0882 129.88 85.4907 129.132 83.7264C128.385 81.962 127.996 80.0663 127.99 78.15C127.99 69.61 135.23 63.78 143.51 63.78C151.79 63.78 158.51 69.35 158.51 77.89C158.51 82.81 155.66 88.11 151.14 90.18C154.5 93.28 159.29 97.18 164.08 97.18L164.73 97.17Z" fill="white"/>
<path d="M184.5 89.0199C182.72 91.4999 179.22 92.4999 176.37 92.4999C174.979 92.5461 173.593 92.3033 172.3 91.7869C171.008 91.2706 169.836 90.4919 168.86 89.4999C166.67 87.0499 166.67 84.3299 166.67 81.3599V70.2499C166.67 68.4399 167.05 65.3299 164.86 64.5599V64.4299H172.75V64.5599C170.67 65.3299 170.94 68.4399 170.94 70.2499V81.3899C170.94 86.9499 173.27 89.5299 177.54 89.5299C178.72 89.5539 179.888 89.2938 180.946 88.7717C182.004 88.2496 182.921 87.4807 183.62 86.5299C184.359 85.4276 184.681 84.0983 184.53 82.7799V70.2499C184.53 68.4399 184.78 65.3299 182.72 64.5599V64.4299H190.61V64.5599C188.54 65.3299 188.79 68.4399 188.79 70.2499V86.0399C188.79 87.8499 188.54 90.9599 190.61 91.7299V91.8599H184.5V89.0199Z" fill="white"/>
<path d="M204.19 88.3701L209.5 88.88C210.882 88.9843 212.27 88.8096 213.582 88.3663C214.895 87.9231 216.105 87.2204 217.14 86.3001H217.27L215.5 91.8601H198.12V91.7301C200.18 90.9601 199.93 87.8501 199.93 86.0401V70.25C199.93 68.44 200.18 65.33 198.12 64.56V64.43H211.32C212.012 64.5253 212.716 64.4811 213.39 64.3H213.5V69.09H213.38C212.08 67.67 210.27 67.4101 208.46 67.4101C207.03 67.4239 205.601 67.5107 204.18 67.67V75.43H209.1C209.716 75.4924 210.337 75.4031 210.91 75.17H211.05V79.57H210.91C210.27 78.41 208.58 78.4101 207.29 78.4101H204.18L204.19 88.3701Z" fill="white"/>
<path d="M261.14 23.67C260.791 23.6986 260.439 23.6574 260.106 23.5487C259.773 23.4401 259.465 23.2662 259.199 23.0373C258.934 22.8083 258.717 22.5288 258.561 22.2151C258.405 21.9013 258.313 21.5597 258.29 21.21C258.39 20.5252 258.732 19.8992 259.256 19.4464C259.779 18.9937 260.448 18.7446 261.14 18.7446C261.832 18.7446 262.501 18.9937 263.024 19.4464C263.548 19.8992 263.89 20.5252 263.99 21.21C263.966 21.5592 263.873 21.9002 263.716 22.2133C263.56 22.5264 263.343 22.8053 263.078 23.0341C262.813 23.2628 262.505 23.4367 262.173 23.5459C261.84 23.655 261.489 23.6972 261.14 23.67ZM284.3 19.5C294.65 20.02 303.06 29.86 303.06 41.9C303.06 54.32 294.26 64.41 283.39 64.41C272.52 64.41 263.85 54.32 263.85 41.9C263.85 29.73 272.27 19.9 282.74 19.5C259.58 3.31996 233.96 17.82 232.27 46.03C233.05 85.9 273.56 92.88 283.39 110.22C294.39 92.22 332.39 84.47 334.51 46.68C333.09 13.18 301.38 5.93996 284.3 19.5Z" fill="white"/>
<path d="M284.17 19.4999H284.3C284.04 19.4999 283.65 19.3799 283.39 19.3799C283.13 19.3799 283 19.4999 282.75 19.4999H284.17Z" fill="white"/>
<path d="M270.58 0.5C260.88 15.77 263.07 27.55 277.05 44.37C273.56 48.64 272.65 51.61 272.91 55.63C277.57 54.98 279.24 51.88 279.91 46.96C284.83 51.36 292.33 53.04 297.25 52.78C296.25 43.98 289.48 37.52 278.74 42.3C270.32 31.05 261.66 19.5 272.14 1.66L270.58 0.5Z" fill="white"/>
<path d="M17.3101 116.38V119.85L16.6301 119.4C15.419 118.685 14.0366 118.311 12.6301 118.32C11.6319 118.284 10.6366 118.448 9.70251 118.802C8.76841 119.156 7.91426 119.692 7.19005 120.38C5.80438 121.857 5.04736 123.815 5.07909 125.839C5.11081 127.864 5.92879 129.797 7.36005 131.23C8.99613 132.674 11.1304 133.424 13.3101 133.32C14.2705 133.332 15.2254 133.173 16.1301 132.85V127.66C16.1073 127.225 15.9973 126.799 15.8066 126.407C15.6159 126.016 15.3484 125.666 15.0201 125.38H19.6001V134.9L18.2001 135.22C16.409 135.58 14.587 135.765 12.7601 135.77C10.9538 135.834 9.15347 135.528 7.47005 134.87C5.71124 134.145 4.20273 132.921 3.13005 131.35C2.62037 130.583 2.21987 129.748 1.94005 128.87C1.65136 127.971 1.50295 127.034 1.50005 126.09C1.49506 124.608 1.83755 123.146 2.50005 121.82C3.21635 120.418 4.24224 119.197 5.50005 118.25C7.77166 116.599 10.5343 115.764 13.3401 115.88C14.6872 115.906 16.0279 116.074 17.3401 116.38" fill="white"/>
<path d="M24.04 135.3C24.4265 135.056 24.7483 134.722 24.9781 134.327C25.208 133.932 25.339 133.487 25.36 133.03L25.31 118.75C25.3067 118.342 25.2252 117.938 25.07 117.56C24.8224 117.114 24.52 116.701 24.17 116.33H30.7C32.462 116.227 34.2116 116.682 35.7 117.63C36.2764 118.025 36.7436 118.56 37.0583 119.184C37.373 119.808 37.5249 120.502 37.5 121.2C37.5141 121.756 37.414 122.309 37.2059 122.825C36.9978 123.341 36.6861 123.809 36.29 124.2C35.8935 124.596 35.4422 124.933 34.95 125.2C34.2782 125.483 33.582 125.704 32.87 125.86L34.63 128.2C35.7976 129.687 37.0532 131.103 38.39 132.44C39.4387 133.564 40.6445 134.531 41.97 135.31H37.7C36.8152 135.218 36.0028 134.779 35.44 134.09C34.3708 132.969 33.388 131.769 32.5 130.5C31.27 128.8 30.11 127.1 29.02 125.38C32.3534 124.933 34.02 123.653 34.02 121.54C34.02 119.54 32.63 118.54 29.84 118.54H28.84V132.93C28.8683 133.394 29.0041 133.845 29.2367 134.248C29.4692 134.651 29.7922 134.994 30.18 135.25L24.04 135.3Z" fill="white"/>
<path d="M42.9302 135.3C43.3524 134.995 43.7123 134.611 43.9902 134.17C44.1444 133.792 44.2259 133.388 44.2302 132.98V118.72C44.2465 118.276 44.1574 117.834 43.9702 117.43C43.7566 117.022 43.4799 116.651 43.1502 116.33H54.2302V120.27C54.0145 119.866 53.7011 119.523 53.3185 119.271C52.936 119.02 52.4965 118.868 52.0402 118.83H47.7202V123.96H52.5002V127.3C52.2021 126.912 51.8048 126.611 51.3502 126.43C50.8454 126.274 50.3182 126.203 49.7902 126.22H47.7202V132.72C48.7411 132.865 49.7694 132.952 50.8002 132.98H51.9102C52.0131 132.968 52.1172 132.968 52.2202 132.98C52.62 132.982 53.0189 132.942 53.4102 132.86C53.78 132.761 54.1439 132.641 54.5002 132.5C55.239 132.176 55.9427 131.778 56.6002 131.31L55.2302 135.31L42.9302 135.3Z" fill="white"/>
<path d="M68.1701 119.5L65.5601 126.29H70.6701L68.1701 119.5ZM57.8301 135.3C58.3558 134.997 58.8427 134.631 59.2801 134.21C59.6239 133.854 59.8985 133.437 60.0901 132.98L65.9801 118.77C66.1051 118.451 66.1695 118.112 66.1701 117.77C66.1215 117.25 65.9197 116.756 65.5901 116.35H70.3301L76.9501 133C77.1118 133.458 77.3673 133.877 77.7001 134.23C78.1464 134.658 78.6475 135.024 79.1901 135.32H72.3301C72.5991 135.153 72.8245 134.925 72.988 134.653C73.1514 134.382 73.2481 134.076 73.2701 133.76C73.275 133.501 73.2309 133.243 73.1401 133L71.5001 128.56H64.7001L62.9901 132.98C62.9425 133.09 62.9057 133.203 62.8801 133.32C62.8651 133.48 62.8651 133.64 62.8801 133.8C62.9067 134.102 63.0015 134.394 63.1574 134.654C63.3133 134.914 63.5262 135.135 63.7801 135.3H57.8301Z" fill="white"/>
<path d="M77.1401 119.98L78.3001 116.33H92.9501L91.7401 120.17C91.6618 120.042 91.5677 119.925 91.4601 119.82C91.3747 119.729 91.2846 119.642 91.1901 119.56C90.2201 119.014 89.1102 118.767 88.0001 118.85H87.4001C87.1789 118.853 86.9582 118.873 86.7401 118.91V132.98C86.7405 133.381 86.8293 133.777 87.0001 134.14C87.2712 134.611 87.6521 135.008 88.1101 135.3H81.9301C82.3341 134.984 82.6735 134.594 82.9301 134.15C83.1005 133.784 83.1827 133.383 83.1701 132.98V118.98H81.7801H80.9001C80.6606 118.958 80.4196 118.958 80.1801 118.98C79.0927 119.085 78.0414 119.426 77.1001 119.98" fill="white"/>
<path d="M95.1401 135.3C95.5394 134.987 95.8783 134.604 96.1401 134.17C96.2944 133.792 96.3758 133.388 96.3801 132.98V118.72C96.4016 118.275 96.3123 117.832 96.1201 117.43C95.9102 117.02 95.633 116.648 95.3001 116.33H106.36V120.27C106.146 119.865 105.833 119.521 105.45 119.269C105.067 119.017 104.627 118.866 104.17 118.83H99.9301V123.96H104.74V127.3C104.442 126.912 104.045 126.611 103.59 126.43C103.086 126.273 102.558 126.202 102.03 126.22H99.9301V132.72C100.951 132.866 101.979 132.953 103.01 132.98H104.11C104.216 132.967 104.324 132.967 104.43 132.98C104.827 132.982 105.222 132.942 105.61 132.86C105.975 132.78 106.336 132.68 106.69 132.56C107.429 132.236 108.133 131.838 108.79 131.37L107.42 135.37L95.1401 135.3Z" fill="white"/>
<path d="M111.61 135.3C111.993 135.054 112.312 134.719 112.54 134.324C112.768 133.929 112.898 133.485 112.92 133.03V118.75C112.917 118.342 112.835 117.938 112.68 117.56C112.432 117.114 112.13 116.701 111.78 116.33H118.31C120.072 116.227 121.821 116.682 123.31 117.63C123.892 118.022 124.365 118.555 124.685 119.179C125.005 119.804 125.161 120.499 125.14 121.2C125.158 121.757 125.06 122.311 124.852 122.828C124.643 123.344 124.329 123.812 123.93 124.2C123.535 124.598 123.084 124.935 122.59 125.2C121.918 125.483 121.222 125.704 120.51 125.86L122.27 128.2C123.437 129.687 124.693 131.103 126.03 132.44C127.048 133.55 128.216 134.513 129.5 135.3H125.23C124.346 135.206 123.534 134.767 122.97 134.08C121.907 132.952 120.931 131.745 120.05 130.47C118.82 128.77 117.66 127.07 116.57 125.35C119.903 124.903 121.57 123.623 121.57 121.51C121.57 119.51 120.18 118.51 117.39 118.51H116.34V132.9C116.368 133.364 116.504 133.815 116.736 134.218C116.969 134.621 117.292 134.964 117.68 135.22L111.61 135.3Z" fill="white"/>
<path d="M140.29 135.3C140.687 134.993 141.026 134.617 141.29 134.19C141.472 133.813 141.562 133.398 141.55 132.98V118.72C141.575 118.306 141.503 117.892 141.34 117.51C141.124 117.067 140.829 116.668 140.47 116.33H146.97C148.811 116.221 150.642 116.664 152.23 117.6C152.83 117.995 153.318 118.539 153.646 119.179C153.974 119.818 154.13 120.532 154.1 121.25C154.113 121.976 153.951 122.693 153.627 123.343C153.303 123.992 152.827 124.554 152.24 124.98C150.862 125.994 149.179 126.506 147.47 126.43C146.832 126.425 146.199 126.31 145.6 126.09C146.918 126.043 148.185 125.57 149.21 124.74C149.638 124.387 149.98 123.942 150.212 123.438C150.444 122.934 150.56 122.385 150.55 121.83C150.567 121.361 150.479 120.894 150.292 120.463C150.105 120.032 149.824 119.648 149.47 119.34C148.659 118.69 147.638 118.359 146.6 118.41H145.6H145.02V132.91C145.011 133.314 145.096 133.715 145.27 134.08C145.517 134.531 145.858 134.923 146.27 135.23L140.29 135.3Z" fill="white"/>
<path d="M162.39 119.5L159.78 126.29H164.89L162.39 119.5ZM152.05 135.3C152.573 134.997 153.056 134.631 153.49 134.21C153.84 133.857 154.119 133.439 154.31 132.98L160.2 118.77C160.32 118.45 160.384 118.112 160.39 117.77C160.341 117.25 160.139 116.756 159.81 116.35H164.5L171.13 133C171.292 133.458 171.547 133.877 171.88 134.23C172.326 134.658 172.827 135.024 173.37 135.32H166.51C166.779 135.153 167.004 134.925 167.168 134.653C167.331 134.382 167.428 134.076 167.45 133.76C167.455 133.501 167.411 133.243 167.32 133L165.63 128.58H158.88L157.17 133C157.122 133.11 157.085 133.223 157.06 133.34C157.045 133.5 157.045 133.66 157.06 133.82C157.086 134.122 157.181 134.414 157.337 134.674C157.493 134.934 157.706 135.155 157.96 135.32L152.05 135.3Z" fill="white"/>
<path d="M175.23 135.3C175.613 135.054 175.932 134.719 176.16 134.324C176.388 133.929 176.518 133.485 176.54 133.03V118.75C176.535 118.343 176.458 117.94 176.31 117.56C176.055 117.119 175.753 116.706 175.41 116.33H181.93C183.692 116.227 185.442 116.682 186.93 117.63C187.512 118.022 187.985 118.555 188.305 119.179C188.625 119.804 188.782 120.499 188.76 121.2C188.778 121.757 188.68 122.311 188.472 122.828C188.263 123.344 187.949 123.812 187.55 124.2C187.155 124.598 186.704 124.935 186.21 125.2C185.538 125.483 184.842 125.704 184.13 125.86L185.89 128.2C187.058 129.687 188.313 131.103 189.65 132.44C190.704 133.562 191.913 134.529 193.24 135.31H188.97C188.086 135.216 187.274 134.777 186.71 134.09C185.617 132.972 184.61 131.772 183.7 130.5C182.47 128.8 181.31 127.1 180.22 125.38C183.553 124.933 185.203 123.653 185.17 121.54C185.17 119.54 183.78 118.54 180.99 118.54H179.94V132.93C179.968 133.394 180.104 133.845 180.337 134.248C180.569 134.651 180.892 134.994 181.28 135.25L175.23 135.3Z" fill="white"/>
<path d="M194.12 135.3C194.515 135.054 194.842 134.713 195.071 134.307C195.3 133.902 195.423 133.446 195.43 132.98V118.72C195.418 118.26 195.306 117.808 195.103 117.395C194.899 116.983 194.608 116.619 194.25 116.33H200.14C199.778 116.616 199.484 116.978 199.28 117.392C199.076 117.805 198.967 118.259 198.96 118.72V132.98C198.983 133.445 199.116 133.899 199.349 134.302C199.582 134.706 199.908 135.048 200.3 135.3H194.12Z" fill="white"/>
<path d="M203.01 131.06C203.998 131.722 205.071 132.247 206.2 132.62C207.164 132.965 208.176 133.157 209.2 133.19C209.689 133.195 210.177 133.135 210.65 133.01C211.074 132.886 211.473 132.69 211.83 132.43C212.154 132.207 212.418 131.908 212.601 131.56C212.784 131.211 212.88 130.824 212.88 130.43C212.874 130.098 212.79 129.773 212.636 129.479C212.481 129.186 212.26 128.933 211.99 128.74C211.67 128.52 211.3 128.28 210.86 128.03C210.42 127.78 209.86 127.53 209.31 127.27L206.99 126.27C205.954 125.829 205.041 125.143 204.33 124.27C203.717 123.473 203.386 122.495 203.39 121.49C203.37 120.711 203.542 119.938 203.891 119.241C204.24 118.543 204.754 117.942 205.39 117.49C206.946 116.417 208.812 115.886 210.7 115.98H211.3C211.51 115.967 211.72 115.967 211.93 115.98C212.3 115.982 212.668 116.022 213.03 116.1C213.42 116.18 213.92 116.31 214.54 116.48V119.98L213.2 119.04C212.334 118.544 211.347 118.298 210.35 118.33C209.463 118.29 208.585 118.528 207.84 119.01C207.56 119.18 207.325 119.415 207.154 119.694C206.983 119.973 206.881 120.289 206.857 120.616C206.832 120.942 206.886 121.27 207.014 121.572C207.141 121.873 207.339 122.14 207.59 122.35C208.406 122.977 209.309 123.482 210.27 123.85L212.51 124.77C213.188 125.098 213.831 125.493 214.43 125.95C215.014 126.362 215.493 126.907 215.827 127.539C216.161 128.172 216.34 128.875 216.35 129.59C216.355 130.428 216.156 131.254 215.771 131.998C215.386 132.741 214.826 133.381 214.14 133.86C212.533 135.034 210.578 135.633 208.59 135.56C208.25 135.56 207.92 135.56 207.59 135.56C207.26 135.56 206.91 135.51 206.59 135.46C205.739 135.352 204.901 135.158 204.09 134.88L203.01 131.06Z" fill="white"/>
<path d="M229.43 116.33H235.35C234.994 116.612 234.703 116.967 234.494 117.37C234.285 117.774 234.165 118.217 234.14 118.67V129.01C234.106 129.576 234.197 130.143 234.406 130.67C234.615 131.197 234.937 131.671 235.35 132.06C236.323 132.835 237.549 133.22 238.79 133.14C240.008 133.215 241.208 132.817 242.14 132.03C242.554 131.61 242.873 131.106 243.076 130.552C243.28 129.999 243.363 129.408 243.32 128.82V118.62C243.313 118.191 243.221 117.768 243.049 117.375C242.877 116.982 242.63 116.627 242.32 116.33H248.03C247.608 116.659 247.267 117.08 247.03 117.56C246.874 117.909 246.792 118.287 246.79 118.67V132.98C246.773 133.412 246.874 133.84 247.08 134.22C247.411 134.633 247.798 134.996 248.23 135.3H243.31V133.77L242.65 134.27C241.138 135.304 239.331 135.82 237.5 135.74C236.452 135.822 235.399 135.667 234.419 135.286C233.439 134.905 232.558 134.308 231.84 133.54C231.391 133.016 231.066 132.397 230.89 131.73C230.696 130.837 230.609 129.924 230.63 129.01V118.67C230.642 118.259 230.556 117.852 230.38 117.48C230.134 117.049 229.82 116.661 229.45 116.33" fill="white"/>
<path d="M251.37 135.3C251.767 134.984 252.105 134.602 252.37 134.17C252.55 133.8 252.636 133.391 252.62 132.98L252.67 118.72C252.688 118.323 252.617 117.926 252.46 117.56C252.236 117.094 251.923 116.677 251.54 116.33H255.67L266.3 129.77V118.72C266.318 118.323 266.247 117.926 266.09 117.56C265.873 117.098 265.571 116.681 265.2 116.33H270.01C269.707 116.673 269.433 117.041 269.19 117.43C269.015 117.837 268.926 118.277 268.93 118.72V136.14C268.215 135.979 267.536 135.684 266.93 135.27C266.378 134.94 265.87 134.54 265.42 134.08L264.32 132.8L263.61 131.93L255.32 121.5V133.04C255.306 133.203 255.306 133.367 255.32 133.53C255.369 133.776 255.457 134.012 255.58 134.23C255.862 134.664 256.234 135.032 256.67 135.31L251.37 135.3Z" fill="white"/>
<path d="M273.55 135.3C273.945 135.054 274.272 134.713 274.501 134.307C274.73 133.902 274.853 133.446 274.86 132.98V118.72C274.848 118.26 274.736 117.808 274.532 117.395C274.329 116.983 274.038 116.619 273.68 116.33H279.58C279.215 116.614 278.918 116.976 278.712 117.389C278.506 117.803 278.396 118.258 278.39 118.72V132.98C278.413 133.445 278.546 133.899 278.779 134.302C279.012 134.706 279.338 135.048 279.73 135.3H273.55Z" fill="white"/>
<path d="M280.87 116.33H285.63L291.18 131.4L295.89 118.72C295.956 118.488 295.999 118.25 296.02 118.01C295.903 117.347 295.547 116.749 295.02 116.33H299.94L291.89 136.01C291.213 135.754 290.568 135.418 289.97 135.01C289.046 134.274 288.352 133.288 287.97 132.17L282.63 118.7L282 117.52L280.87 116.33Z" fill="white"/>
<path d="M301.65 135.3C302.072 134.998 302.429 134.613 302.7 134.17C302.854 133.792 302.936 133.388 302.94 132.98V118.72C302.961 118.275 302.872 117.832 302.68 117.43C302.475 117.02 302.201 116.648 301.87 116.33H312.92V120.27C312.707 119.866 312.396 119.522 312.015 119.27C311.634 119.018 311.195 118.867 310.74 118.83H306.42V123.96H311.23V127.3C310.933 126.915 310.54 126.615 310.09 126.43C309.582 126.273 309.051 126.202 308.52 126.22H306.42V132.72C307.441 132.865 308.469 132.952 309.5 132.98H310.6C310.706 132.968 310.814 132.968 310.92 132.98C311.32 132.982 311.719 132.942 312.11 132.86C312.472 132.78 312.829 132.68 313.18 132.56C313.921 132.235 314.628 131.836 315.29 131.37L313.92 135.37L301.65 135.3Z" fill="white"/>
<path d="M318.12 135.3C318.505 135.055 318.826 134.721 319.054 134.326C319.282 133.931 319.411 133.486 319.43 133.03L319.38 118.75C319.382 118.341 319.3 117.936 319.14 117.56C318.897 117.114 318.598 116.701 318.25 116.33H324.78C326.542 116.228 328.291 116.683 329.78 117.63C330.359 118.024 330.829 118.558 331.147 119.182C331.465 119.806 331.621 120.5 331.6 121.2C331.616 121.756 331.518 122.308 331.311 122.824C331.105 123.341 330.795 123.809 330.4 124.2C330 124.596 329.545 124.933 329.05 125.2C328.382 125.483 327.689 125.704 326.98 125.86L328.74 128.2C329.908 129.687 331.163 131.103 332.5 132.44C333.549 133.564 334.755 134.531 336.08 135.31H331.82C330.932 135.218 330.117 134.78 329.55 134.09C328.49 132.96 327.514 131.753 326.63 130.48C325.41 128.78 324.25 127.08 323.16 125.36C326.46 124.91 328.1 123.63 328.1 121.52C328.1 119.41 326.71 118.52 323.92 118.52H322.87V132.91C322.898 133.374 323.034 133.825 323.267 134.228C323.499 134.63 323.822 134.974 324.21 135.23L318.12 135.3Z" fill="white"/>
<path d="M336.5 131.06C337.489 131.72 338.562 132.245 339.69 132.62C340.654 132.964 341.667 133.157 342.69 133.19C343.179 133.195 343.667 133.135 344.14 133.01C344.564 132.886 344.963 132.69 345.32 132.43C345.636 132.202 345.892 131.901 346.066 131.553C346.24 131.205 346.327 130.819 346.32 130.43C346.317 130.098 346.234 129.771 346.079 129.477C345.925 129.184 345.702 128.931 345.43 128.74C345.12 128.52 344.74 128.28 344.3 128.03C343.797 127.749 343.28 127.496 342.75 127.27L340.43 126.27C339.394 125.829 338.481 125.143 337.77 124.27C337.157 123.473 336.826 122.495 336.83 121.49C336.81 120.711 336.982 119.938 337.331 119.241C337.68 118.543 338.194 117.942 338.83 117.49C340.386 116.417 342.252 115.886 344.14 115.98H344.74C344.95 115.967 345.16 115.967 345.37 115.98C345.743 115.983 346.115 116.023 346.48 116.1C346.86 116.18 347.36 116.31 347.98 116.48V119.98L346.64 119.04C345.777 118.545 344.794 118.299 343.8 118.33C342.91 118.289 342.029 118.527 341.28 119.01C341.002 119.182 340.769 119.417 340.599 119.696C340.43 119.975 340.328 120.291 340.304 120.616C340.28 120.942 340.333 121.269 340.459 121.57C340.585 121.872 340.781 122.139 341.03 122.35C341.846 122.977 342.749 123.482 343.71 123.85L345.95 124.77C346.628 125.098 347.271 125.493 347.87 125.95C348.455 126.362 348.933 126.907 349.267 127.539C349.601 128.172 349.78 128.875 349.79 129.59C349.795 130.428 349.597 131.254 349.212 131.998C348.827 132.741 348.267 133.381 347.58 133.86C345.974 135.035 344.019 135.634 342.03 135.56H341.03C340.69 135.56 340.35 135.51 340.03 135.46C339.176 135.353 338.335 135.159 337.52 134.88L336.5 131.06Z" fill="white"/>
<path d="M353.06 135.3C353.456 135.054 353.785 134.713 354.016 134.308C354.246 133.903 354.371 133.446 354.38 132.98V118.72C354.366 118.259 354.253 117.807 354.047 117.395C353.842 116.982 353.549 116.619 353.19 116.33H359.09C358.725 116.614 358.429 116.976 358.223 117.389C358.017 117.803 357.906 118.258 357.9 118.72V132.98C357.923 133.445 358.056 133.899 358.289 134.302C358.522 134.706 358.848 135.048 359.24 135.3H353.06Z" fill="white"/>
<path d="M361.4 119.98L362.56 116.33H377.21L376.01 120.17C375.925 120.047 375.831 119.93 375.73 119.82C375.643 119.727 375.549 119.64 375.45 119.56C374.484 119.012 373.377 118.765 372.27 118.85H371.66C371.439 118.853 371.218 118.873 371 118.91V132.98C370.999 133.382 371.091 133.78 371.27 134.14C371.537 134.61 371.914 135.008 372.37 135.3H366.19C366.597 134.988 366.937 134.597 367.19 134.15C367.364 133.785 367.449 133.384 367.44 132.98V118.98H366.05H365.16C364.92 118.958 364.679 118.958 364.44 118.98C363.353 119.086 362.302 119.427 361.36 119.98" fill="white"/>
<path d="M377.95 116.33H383.3L388.19 124.43L391.95 118.72C392.028 118.581 392.098 118.437 392.16 118.29C392.249 118.085 392.294 117.864 392.29 117.64C392.205 117.125 391.935 116.66 391.53 116.33H396.63L389.43 127.14V132.98C389.45 133.445 389.581 133.898 389.813 134.302C390.044 134.706 390.369 135.048 390.76 135.3H384.56C384.975 134.989 385.33 134.606 385.61 134.17L385.89 132.98L385.95 127.11L380.5 118.72C380.245 118.298 379.94 117.908 379.59 117.56C379.324 117.32 378.784 116.91 377.97 116.33" fill="white"/>
<path d="M410.5 135.3C410.891 134.998 411.229 134.633 411.5 134.22C411.729 133.848 411.847 133.417 411.84 132.98V118.72C411.865 118.255 411.765 117.792 411.55 117.38C411.316 116.996 411.014 116.657 410.66 116.38H416.45C415.792 117.01 415.389 117.861 415.32 118.77V123.88H424.5V118.77C424.476 118.314 424.362 117.868 424.162 117.457C423.963 117.047 423.683 116.68 423.34 116.38H429.15C428.817 116.685 428.512 117.02 428.24 117.38C428.029 117.794 427.929 118.256 427.95 118.72V132.98C427.973 133.448 428.108 133.903 428.345 134.307C428.582 134.711 428.913 135.052 429.31 135.3H423.19C423.584 134.982 423.922 134.6 424.19 134.17C424.366 133.798 424.455 133.391 424.45 132.98V126.25H415.24V132.98C415.268 133.444 415.404 133.895 415.637 134.298C415.869 134.7 416.192 135.043 416.58 135.3H410.5Z" fill="white"/>
<path d="M436.23 125.25C436.183 127.319 436.862 129.34 438.15 130.96C438.777 131.777 439.589 132.433 440.519 132.875C441.449 133.316 442.471 133.531 443.5 133.5C444.345 133.522 445.183 133.348 445.95 132.992C446.717 132.637 447.391 132.109 447.92 131.45C449.099 129.968 449.706 128.112 449.63 126.22C449.68 124.116 448.97 122.063 447.63 120.44C447.05 119.692 446.305 119.089 445.453 118.676C444.602 118.263 443.666 118.052 442.72 118.06C441.841 118.03 440.966 118.194 440.157 118.539C439.349 118.885 438.626 119.404 438.04 120.06C436.804 121.499 436.163 123.355 436.25 125.25M432.7 125.72C432.673 124.413 432.919 123.115 433.424 121.91C433.928 120.704 434.68 119.618 435.63 118.72C436.625 117.787 437.795 117.06 439.071 116.58C440.348 116.099 441.707 115.875 443.07 115.92C444.407 115.866 445.741 116.081 446.993 116.551C448.245 117.022 449.39 117.739 450.36 118.66C451.289 119.593 452.015 120.708 452.494 121.935C452.972 123.162 453.192 124.474 453.14 125.79C453.195 127.129 452.973 128.465 452.488 129.715C452.003 130.964 451.265 132.099 450.32 133.05C449.319 133.986 448.14 134.713 446.854 135.187C445.568 135.661 444.199 135.873 442.83 135.81C441.489 135.861 440.151 135.639 438.898 135.158C437.645 134.676 436.502 133.946 435.54 133.01C434.594 132.061 433.854 130.928 433.366 129.681C432.877 128.433 432.651 127.099 432.7 125.76" fill="white"/>
<path d="M456.1 131.06C457.084 131.722 458.154 132.247 459.28 132.62C460.244 132.965 461.257 133.157 462.28 133.19C462.766 133.194 463.25 133.134 463.72 133.01C464.146 132.891 464.546 132.694 464.9 132.43C465.226 132.208 465.494 131.91 465.678 131.562C465.863 131.213 465.96 130.825 465.96 130.43C465.955 130.097 465.87 129.77 465.714 129.477C465.557 129.183 465.333 128.93 465.06 128.74C464.75 128.52 464.37 128.28 463.94 128.03C463.51 127.78 462.94 127.53 462.38 127.27L460.07 126.27C459.031 125.834 458.117 125.147 457.41 124.27C456.794 123.474 456.46 122.496 456.46 121.49C456.439 120.71 456.61 119.937 456.959 119.239C457.308 118.542 457.823 117.941 458.46 117.49C460.012 116.417 461.875 115.886 463.76 115.98H464.36C464.573 115.967 464.787 115.967 465 115.98C465.37 115.982 465.739 116.022 466.1 116.1C466.48 116.18 466.99 116.31 467.6 116.48V119.98L466.26 119.04C465.394 118.544 464.408 118.298 463.41 118.33C462.526 118.29 461.652 118.528 460.91 119.01C460.606 119.193 460.354 119.45 460.179 119.759C460.004 120.067 459.911 120.415 459.91 120.77C459.905 121.071 459.968 121.37 460.094 121.644C460.221 121.917 460.407 122.159 460.64 122.35C461.46 122.976 462.366 123.481 463.33 123.85L465.56 124.77C466.239 125.096 466.883 125.491 467.48 125.95C468.065 126.362 468.544 126.907 468.877 127.539C469.211 128.172 469.39 128.875 469.4 129.59C469.405 130.428 469.207 131.254 468.822 131.998C468.437 132.741 467.877 133.381 467.19 133.86C465.584 135.035 463.629 135.634 461.64 135.56H460.64C460.3 135.56 459.96 135.51 459.64 135.46C458.789 135.353 457.951 135.159 457.14 134.88L456.1 131.06Z" fill="white"/>
<path d="M472.7 135.3C473.1 134.996 473.44 134.62 473.7 134.19C473.887 133.815 473.977 133.399 473.96 132.98V118.72C473.985 118.306 473.913 117.892 473.75 117.51C473.541 117.063 473.246 116.662 472.88 116.33H479.38C481.221 116.221 483.052 116.664 484.64 117.6C485.241 117.995 485.729 118.539 486.056 119.179C486.384 119.818 486.54 120.532 486.51 121.25C486.523 121.976 486.361 122.693 486.037 123.343C485.713 123.992 485.237 124.554 484.65 124.98C483.273 125.995 481.589 126.507 479.88 126.43C479.242 126.425 478.609 126.31 478.01 126.09C479.328 126.043 480.595 125.57 481.62 124.74C482.048 124.387 482.39 123.942 482.622 123.438C482.854 122.934 482.97 122.385 482.96 121.83C482.979 121.36 482.892 120.893 482.705 120.461C482.518 120.03 482.236 119.647 481.88 119.34C481.069 118.69 480.048 118.359 479.01 118.41H478.01H477.43V132.91C477.421 133.314 477.506 133.715 477.68 134.08C477.931 134.528 478.271 134.92 478.68 135.23L472.7 135.3Z" fill="white"/>
<path d="M489.14 135.3C489.537 135.054 489.865 134.713 490.096 134.308C490.326 133.903 490.451 133.446 490.46 132.98V118.72C490.446 118.259 490.333 117.807 490.127 117.395C489.922 116.982 489.629 116.619 489.27 116.33H495.17C494.805 116.614 494.509 116.976 494.303 117.389C494.097 117.803 493.986 118.258 493.98 118.72V132.98C494.002 133.447 494.137 133.901 494.372 134.305C494.607 134.709 494.935 135.05 495.33 135.3H489.14Z" fill="white"/>
<path d="M497.5 119.98L498.66 116.33H513.31L512.11 120.17C512.025 120.047 511.932 119.93 511.83 119.82C511.76 119.75 511.68 119.67 511.55 119.56C510.584 119.012 509.477 118.765 508.37 118.85H507.76C507.539 118.853 507.318 118.873 507.1 118.91V132.98C507.099 133.382 507.191 133.78 507.37 134.14C507.637 134.61 508.015 135.008 508.47 135.3H502.29C502.697 134.988 503.037 134.597 503.29 134.15C503.464 133.785 503.549 133.384 503.54 132.98V118.98H502.14H501.26C501.02 118.958 500.779 118.958 500.54 118.98C499.453 119.086 498.402 119.427 497.46 119.98" fill="white"/>
<path d="M521.29 119.5L518.69 126.29H523.8L521.29 119.5ZM510.95 135.3C511.476 134.997 511.963 134.631 512.4 134.21C512.751 133.857 513.029 133.439 513.22 132.98L519.11 118.77C519.235 118.451 519.3 118.112 519.3 117.77C519.247 117.251 519.046 116.758 518.72 116.35H523.5L530.13 133C530.292 133.458 530.547 133.877 530.88 134.23C531.325 134.66 531.826 135.027 532.37 135.32H525.5C525.771 135.154 525.998 134.926 526.164 134.655C526.329 134.384 526.427 134.077 526.45 133.76C526.455 133.501 526.411 133.243 526.32 133L524.63 128.58H517.87L516.16 133C516.115 133.11 516.082 133.224 516.06 133.34C516.045 133.5 516.045 133.66 516.06 133.82C516.086 134.121 516.179 134.412 516.333 134.672C516.487 134.932 516.698 135.154 516.95 135.32L510.95 135.3Z" fill="white"/>
<path d="M534.11 135.3C534.488 135.038 534.802 134.693 535.025 134.291C535.249 133.888 535.377 133.44 535.4 132.98V118.72C535.384 117.825 535.026 116.97 534.4 116.33H540.03C539.356 116.968 538.934 117.827 538.84 118.75V132.75C539.817 132.893 540.802 132.973 541.79 132.99H542.79C543.1 132.93 543.34 132.9 543.5 132.88C544.28 132.831 545.05 132.68 545.79 132.43C546.095 132.328 546.39 132.198 546.67 132.04C546.97 131.86 547.33 131.63 547.73 131.35L546.36 135.35L534.11 135.3Z" fill="white"/>
<path d="M549.42 131.06C550.405 131.72 551.475 132.245 552.6 132.62C553.565 132.962 554.577 133.155 555.6 133.19C556.089 133.195 556.577 133.134 557.05 133.01C557.474 132.886 557.873 132.69 558.23 132.43C558.545 132.201 558.8 131.9 558.974 131.552C559.148 131.204 559.236 130.819 559.23 130.43C559.227 130.098 559.144 129.771 558.989 129.477C558.835 129.184 558.612 128.931 558.34 128.74C558.02 128.52 557.65 128.28 557.21 128.03C556.77 127.78 556.21 127.53 555.66 127.27L553.34 126.27C552.304 125.829 551.391 125.143 550.68 124.27C550.067 123.473 549.736 122.495 549.74 121.49C549.72 120.71 549.892 119.938 550.241 119.241C550.59 118.543 551.104 117.942 551.74 117.49C553.293 116.418 555.155 115.888 557.04 115.98H557.65C557.86 115.967 558.07 115.967 558.28 115.98C558.653 115.982 559.025 116.023 559.39 116.1C559.77 116.18 560.27 116.31 560.89 116.48V119.98L559.54 119.04C558.678 118.542 557.694 118.296 556.7 118.33C555.813 118.29 554.936 118.528 554.19 119.01C553.91 119.18 553.675 119.415 553.504 119.694C553.333 119.973 553.231 120.289 553.207 120.616C553.183 120.942 553.236 121.27 553.364 121.572C553.491 121.873 553.689 122.14 553.94 122.35C554.755 122.979 555.658 123.484 556.62 123.85L558.86 124.77C559.538 125.098 560.181 125.493 560.78 125.95C561.365 126.362 561.843 126.907 562.177 127.539C562.511 128.172 562.69 128.875 562.7 129.59C562.703 130.427 562.504 131.253 562.119 131.996C561.734 132.74 561.175 133.379 560.49 133.86C558.884 135.035 556.929 135.634 554.94 135.56C554.6 135.56 554.27 135.56 553.94 135.56C553.61 135.56 553.25 135.51 552.94 135.46C552.089 135.353 551.251 135.159 550.44 134.88L549.42 131.06Z" fill="white"/>
</g>
<defs>
<clipPath id="clip0_9241_808">
<rect width="565" height="140" fill="white" transform="translate(0.5 0.5)"/>
</clipPath>
</defs>
</svg>
