<?xml version="1.0" encoding="utf-8" ?><svg xmlns="http://www.w3.org/2000/svg" xmlns:xlink="http://www.w3.org/1999/xlink" width="1024" height="1536" viewBox="0 0 1024 1536"><path fill="#90161A" d="M409.31 321.441C413.878 315.194 478.68 272.495 487.276 267.704C489.156 271.065 503.549 289.839 506.382 293.229C511.163 298.949 527.899 324.381 531.674 327.774L533.337 327.749C532.439 328.819 531.953 328.913 532.115 329.792C534.993 345.476 540.24 361.732 544.604 377.074C545.968 381.868 549.525 391.406 549.246 395.634C554.985 400.383 593.632 402.493 603.257 402.622C610.996 402.681 620.364 401.531 628.542 401.407L630.868 400.909C633.235 405.559 671.172 447.487 676.783 452.806L675.541 453.876C678.085 458.642 702.476 492.581 705.942 495.473C725.732 484.874 768.328 463.077 789.784 456.4C795.145 458.014 799.723 459.176 805.149 460.462C803.434 460.486 800.703 460.442 799.293 461.543C789.526 469.214 780.778 479.926 771.226 487.701C758.962 497.684 747.651 505.947 737.662 518.55C731.785 525.965 720.832 530.587 720.412 540.798L721.12 541.62C725.309 543.808 747.678 556.087 750.941 556.677C755.858 559.961 784.492 595.128 787.945 600.761C794.78 607.897 807.125 625.482 814.595 629.714C819.012 635.121 851.552 720.379 850.93 726.853C848.351 736.58 833.761 794.218 829.567 799.577C828.284 801.785 825.738 805.902 824.893 808.119C831.949 820.818 841.999 847.984 848.261 862.038C851.808 869.999 864.532 900.379 866.197 907.247C864.583 914.486 863.17 921.741 861.554 928.99C851.822 972.66 836.654 1015.23 824.116 1058.17C821.814 1066.05 818.865 1073.91 815.604 1081.41L756.264 1209.1C732.618 1247.82 706.76 1285.75 683.452 1324.62C678.084 1330.38 671.963 1335.76 666.09 1341.02C645.541 1359.4 624.967 1377.97 604.015 1395.89C599.573 1396.09 591.288 1396.71 587.134 1396.36C568.37 1397.34 549.373 1397.59 530.571 1397.99C508.421 1386.19 485.558 1375.72 463.265 1364.36C455.488 1359.41 440.218 1354.41 433.321 1349.01C410.589 1331.23 390.485 1308.84 369.038 1289.53C331.965 1256.16 300.372 1219.46 269.739 1180.2C260.515 1168.38 250.582 1156.96 241.489 1145.02C220.946 1116.6 201.112 1087.5 180.471 1059.15L154.701 1024.11C149.36 1016.86 139.628 1004.39 136.358 996.495C122.818 963.811 115.925 903.337 118.589 867.92C116.526 863.77 108.988 853.026 106.247 848.943C103.557 844.996 95.3685 834.549 94.6023 830.73C92.5441 820.47 92.0473 805.518 91.5903 795.017C90.2348 763.872 89.5742 732.417 89.4317 701.271C91.3135 694.114 104.558 662.082 108.11 654.105C119.007 629.642 129.984 599.232 141.659 575.617L143.224 573.48C145.588 570.303 148.557 566.707 151.148 563.682C169.925 541.755 187.903 518.429 207.257 497.046C210.614 494.57 219.956 488.597 223.878 486.062C238.024 476.92 254.935 464.569 269.571 456.8L269.11 456.201L269.967 455.419C270.907 457.991 278.742 464.138 281.283 466.059C300.184 480.341 317.457 502.675 335.848 516.71C335.775 513.876 335.688 512.643 336.225 509.779C338.203 503.207 342.116 478.002 343.564 469.675C346.992 449.953 351.493 430.662 355.041 411.181L358.007 403.426C374.042 376.398 392.283 347.902 409.31 321.441Z"/><defs><linearGradient id="gradient_0" gradientUnits="userSpaceOnUse" x1="237.81049" y1="646.90741" x2="417.17535" y2="781.49005"><stop offset="0" stop-color="#761211"/><stop offset="1" stop-color="#A91720"/></linearGradient></defs><path fill="url(#gradient_0)" d="M409.31 321.441C413.878 315.194 478.68 272.495 487.276 267.704C489.156 271.065 503.549 289.839 506.382 293.229C511.163 298.949 527.899 324.381 531.674 327.774L533.337 327.749C532.439 328.819 531.953 328.913 532.115 329.792C534.993 345.476 540.24 361.732 544.604 377.074C545.968 381.868 549.525 391.406 549.246 395.634C544.06 398.143 522.37 422.595 516.214 428.681C512.278 437.801 507.059 457.4 503.991 467.447C503.063 470.849 501.22 476.233 500.564 479.271C498.722 490.078 487.408 549.369 488.643 556.404C481.333 562.845 467.24 571.507 458.985 577.844C438.277 593.739 411.185 611.848 391.679 628.851L390.532 629.926C366.231 650.25 343.544 672.852 321.451 695.492L284.006 735.017C278.9 740.381 267.997 751.304 263.879 756.762C273.042 775.927 281.059 795.856 289.993 815.152C291.3 817.974 292.924 821.245 294.031 824.114C295.491 840.749 298.95 866.97 299.292 882.712C307.433 893.409 317.961 903.781 325.358 914.003C317.153 908.298 309.368 902.09 301.755 895.618C300.079 899.433 305.398 943.643 305.94 952.007L307.145 952.713L306.874 953.41C295.714 956.221 229.807 1002.58 225.971 1002.3L225.811 1003.07C221.931 999.552 212.183 985.454 208.747 980.5C197.44 964.243 185.892 948.151 175.076 931.563C169.244 923.29 162.506 916.19 157.306 907.439C153.802 901.543 149.524 895.213 145.578 889.574C139.464 880.838 132.992 872.436 126.913 863.651C131.529 863.657 136.081 863.912 140.524 862.68C136.621 862.816 132.167 863.195 128.428 862.3C124.992 865.952 123.614 866.295 118.589 867.92C116.526 863.77 108.988 853.026 106.247 848.943C103.557 844.996 95.3685 834.549 94.6023 830.73C92.5441 820.47 92.0473 805.518 91.5903 795.017C90.2348 763.872 89.5742 732.417 89.4317 701.271C91.3135 694.114 104.558 662.082 108.11 654.105C119.007 629.642 129.984 599.232 141.659 575.617L143.224 573.48C145.588 570.303 148.557 566.707 151.148 563.682C169.925 541.755 187.903 518.429 207.257 497.046C210.614 494.57 219.956 488.597 223.878 486.062C238.024 476.92 254.935 464.569 269.571 456.8L269.11 456.201L269.967 455.419C270.907 457.991 278.742 464.138 281.283 466.059C300.184 480.341 317.457 502.675 335.848 516.71C335.775 513.876 335.688 512.643 336.225 509.779C338.203 503.207 342.116 478.002 343.564 469.675C346.992 449.953 351.493 430.662 355.041 411.181L358.007 403.426C374.042 376.398 392.283 347.902 409.31 321.441Z"/><path fill="#CE252E" d="M269.571 456.8L269.11 456.201L269.967 455.419C270.907 457.991 278.742 464.138 281.283 466.059C300.184 480.341 317.457 502.675 335.848 516.71C339.666 531.061 343.843 547.683 348.376 561.777C354.047 580.174 358.064 600.757 363.602 618.091C363.605 618.783 363.607 619.602 363.61 620.548C357.456 629.4 323.814 676.478 318.552 680.675C310.937 686.749 273.139 710.458 265.462 714.575C263.887 712.62 256.403 697.9 254.901 695.015L228.759 644.791C225.579 638.81 219.713 627.073 216.14 622.285L215.928 621.687L216.159 620.57L215.873 619.434C212.26 617.915 184.953 601.304 180.569 598.441C169.899 591.472 151.284 582.277 141.659 575.617L143.224 573.48C145.588 570.303 148.557 566.707 151.148 563.682C169.925 541.755 187.903 518.429 207.257 497.046C210.614 494.57 219.956 488.597 223.878 486.062C238.024 476.92 254.935 464.569 269.571 456.8Z"/><path fill="#E4333E" d="M269.571 456.8C266.832 479.581 260.164 502.209 257.286 523.593L257.79 523.929C256.276 526.077 255.513 528.228 254.57 530.644C242.974 560.354 227.068 589.701 215.873 619.434C212.26 617.915 184.953 601.304 180.569 598.441C169.899 591.472 151.284 582.277 141.659 575.617L143.224 573.48C145.588 570.303 148.557 566.707 151.148 563.682C169.925 541.755 187.903 518.429 207.257 497.046C210.614 494.57 219.956 488.597 223.878 486.062C238.024 476.92 254.935 464.569 269.571 456.8Z"/><path fill="#D0252C" d="M257.286 523.593L257.79 523.929C256.276 526.077 255.513 528.228 254.57 530.644C242.974 560.354 227.068 589.701 215.873 619.434C212.26 617.915 184.953 601.304 180.569 598.441C169.899 591.472 151.284 582.277 141.659 575.617L143.224 573.48C145.169 573.705 146.631 573.741 148.502 573.035C159.447 568.908 170.273 563.043 180.829 558.035C197.829 549.969 214.86 541.939 231.913 534.034C237.377 531.5 252.105 524.367 257.286 523.593Z"/><path fill="#D0252C" d="M363.602 618.091C363.605 618.783 363.607 619.602 363.61 620.548C357.456 629.4 323.814 676.478 318.552 680.675C310.937 686.749 273.139 710.458 265.462 714.575C263.887 712.62 256.403 697.9 254.901 695.015L228.759 644.791C225.579 638.81 219.713 627.073 216.14 622.285L215.928 621.687L216.159 620.57C220.109 621.602 363.675 618.069 363.602 618.091Z"/><path fill="#C2222D" d="M269.571 456.8L269.11 456.201L269.967 455.419C270.907 457.991 278.742 464.138 281.283 466.059C300.184 480.341 317.457 502.675 335.848 516.71C339.666 531.061 343.843 547.683 348.376 561.777C318.487 547.708 288.448 536.1 257.79 523.929L257.286 523.593C260.164 502.209 266.832 479.581 269.571 456.8Z"/><path fill="#CE252E" d="M409.31 321.441C413.878 315.194 478.68 272.495 487.276 267.704C489.156 271.065 503.549 289.839 506.382 293.229C511.163 298.949 527.899 324.381 531.674 327.774L533.337 327.749C532.439 328.819 531.953 328.913 532.115 329.792C534.993 345.476 540.24 361.732 544.604 377.074C545.968 381.868 549.525 391.406 549.246 395.634C544.06 398.143 522.37 422.595 516.214 428.681C512.278 437.801 507.059 457.4 503.991 467.447C503.063 470.849 501.22 476.233 500.564 479.271C496.842 477.502 489.095 475.387 484.893 474.108C474.433 473.925 444.612 463.325 432.566 460.306C430.017 464.279 431.298 475.484 429.185 478.242C429.206 473.315 430.741 464.08 431.498 459.057C421.865 454.204 405.965 443.824 396.416 437.904C383.927 430.16 366.497 419.843 355.041 411.181L358.007 403.426C374.042 376.398 392.283 347.902 409.31 321.441Z"/><path fill="#D0252C" d="M409.31 321.441C413.878 315.194 478.68 272.495 487.276 267.704C489.156 271.065 503.549 289.839 506.382 293.229C511.163 298.949 527.899 324.381 531.674 327.774L533.337 327.749C532.439 328.819 531.953 328.913 532.115 329.792C534.993 345.476 540.24 361.732 544.604 377.074C545.968 381.868 549.525 391.406 549.246 395.634C544.06 398.143 522.37 422.595 516.214 428.681C504.576 418.52 491.057 409.053 478.982 399.393C475.245 396.403 465.525 389.505 462.686 386.333L462.352 386.338C452.132 375.717 416.2 324.477 409.31 321.441Z"/><path fill="#CE252E" d="M531.674 327.774L533.337 327.749C532.439 328.819 531.953 328.913 532.115 329.792C534.993 345.476 540.24 361.732 544.604 377.074C545.968 381.868 549.525 391.406 549.246 395.634C544.06 398.143 522.37 422.595 516.214 428.681C504.576 418.52 491.057 409.053 478.982 399.393C475.245 396.403 465.525 389.505 462.686 386.333C465.041 383.362 475.792 374.84 479.126 371.797C495.579 356.781 515.34 342.476 531.674 327.774Z"/><path fill="#D0252C" d="M462.352 386.338L462.686 386.333C465.525 389.505 475.245 396.403 478.982 399.393C491.057 409.053 504.576 418.52 516.214 428.681C512.278 437.801 507.059 457.4 503.991 467.447C503.063 470.849 501.22 476.233 500.564 479.271C496.842 477.502 489.095 475.387 484.893 474.108C474.061 469.667 444.373 462.43 431.292 458.632C441.164 437.323 453.708 408.143 462.352 386.338Z"/><path fill="#A21A25" d="M141.659 575.617C151.284 582.277 169.899 591.472 180.569 598.441C184.953 601.304 212.26 617.915 215.873 619.434L216.159 620.57L215.928 621.687L216.14 622.285C219.713 627.073 225.579 638.81 228.759 644.791L254.901 695.015C256.403 697.9 263.887 712.62 265.462 714.575C247.271 725.36 228.198 736.006 209.756 746.392C200.181 751.785 185.792 760.305 176.225 764.636L117.615 721.443L96.6744 706.273C95.1658 705.184 90.3038 702.061 89.4317 701.271C91.3135 694.114 104.558 662.082 108.11 654.105C119.007 629.642 129.984 599.232 141.659 575.617Z"/><path fill="#C2222D" d="M141.659 575.617C151.284 582.277 169.899 591.472 180.569 598.441C184.953 601.304 212.26 617.915 215.873 619.434L216.159 620.57L215.928 621.687C213.955 622.713 210.335 625.436 209.164 626.104C193.784 634.88 100.971 700.847 89.4317 701.271C91.3135 694.114 104.558 662.082 108.11 654.105C119.007 629.642 129.984 599.232 141.659 575.617Z"/><path fill="#C2222D" d="M216.14 622.285C219.713 627.073 225.579 638.81 228.759 644.791L254.901 695.015C256.403 697.9 263.887 712.62 265.462 714.575C247.271 725.36 228.198 736.006 209.756 746.392C200.181 751.785 185.792 760.305 176.225 764.636L216.14 622.285Z"/><path fill="#90161A" d="M355.041 411.181C366.497 419.843 383.927 430.16 396.416 437.904C405.965 443.824 421.865 454.204 431.498 459.057C430.741 464.08 429.206 473.315 429.185 478.242C428.857 492.68 424.853 510.954 426.232 525.09C426.456 527.378 429.935 537.365 428.617 539.125C426.998 532.882 425.553 526.59 424.077 520.312C416.361 520.388 341.384 516.29 337.699 514.25C336.331 512.517 336.457 512.09 336.225 509.779C338.203 503.207 342.116 478.002 343.564 469.675C346.992 449.953 351.493 430.662 355.041 411.181Z"/><path fill="#90161A" d="M89.4317 701.271C90.3038 702.061 95.1658 705.184 96.6744 706.273L117.615 721.443L176.225 764.636C174.147 772.856 116.735 837.563 106.247 848.943C103.557 844.996 95.3685 834.549 94.6023 830.73C92.5441 820.47 92.0473 805.518 91.5903 795.017C90.2348 763.872 89.5742 732.417 89.4317 701.271Z"/><path fill="#CE252E" d="M249.083 742.594C237.994 776.863 224.866 810.586 214.387 845.088C213.398 848.345 212.322 851.839 211.154 855.022C190.56 857.142 169.975 859.233 149.447 861.92C146.492 862.307 143.512 862.868 140.524 862.68C136.621 862.816 132.167 863.195 128.428 862.3C147.477 841.318 166.596 819.736 187.019 800.116C206.862 781.054 226.805 758.849 249.083 742.594Z"/><path fill="#CE252E" d="M225.971 1002.3C225.849 998.709 225.719 994.887 225.856 991.304C226.904 964.068 222.366 934.317 224.63 907.32L225.453 907.031L229.128 908.929L229.157 908.019C227.461 907.07 226.698 906.61 225.144 905.45C225.685 900.421 225.896 894.728 226.199 889.631C231.835 895.006 251.103 912.769 257.318 915.344C259.6 915.757 299.766 947.891 305.94 952.007L307.145 952.713L306.874 953.41C295.714 956.221 229.807 1002.58 225.971 1002.3Z"/><path fill="#C2222D" d="M233.393 832.433C235.509 834.051 237.918 836.374 239.883 838.263C260.28 857.861 280.438 876.989 301.755 895.618C300.079 899.433 305.398 943.643 305.94 952.007C299.766 947.891 259.6 915.757 257.318 915.344C249.297 907.277 235.396 896.988 225.668 887.482C222.8 859.769 222.683 858.43 233.393 832.433Z"/><path fill="#C2222D" d="M263.879 756.762C273.042 775.927 281.059 795.856 289.993 815.152C291.3 817.974 292.924 821.245 294.031 824.114C295.491 840.749 298.95 866.97 299.292 882.712C279.406 859.707 257.631 837.952 238.679 813.928C244.574 799.715 256.518 769.108 263.879 756.762Z"/><path fill="#84151F" d="M128.428 862.3C132.167 863.195 136.621 862.816 140.524 862.68C136.081 863.912 131.529 863.657 126.913 863.651C132.992 872.436 139.464 880.838 145.578 889.574C149.524 895.213 153.802 901.543 157.306 907.439C162.506 916.19 169.244 923.29 175.076 931.563C185.892 948.151 197.44 964.243 208.747 980.5C212.183 985.454 221.931 999.552 225.811 1003.07L225.971 1002.3C229.807 1002.58 295.714 956.221 306.874 953.41L394.294 1102.66L401.581 1105.94L395.933 1105.09C394.455 1106.23 381.516 1144.73 379.103 1150.62C371.814 1168.42 364.92 1187.03 357.561 1204.81L357.714 1205.72L398.546 1223.56C402.695 1225.39 407.685 1230.52 411.973 1227.25C420.343 1220.87 424.386 1209.45 433.489 1203.52C430.289 1207.75 413.518 1229.08 410.444 1230.7C414.078 1232.29 420.757 1237.09 424.142 1239.62L424.536 1239.47C443.412 1246.66 462.52 1253.6 481.669 1260.03C488.246 1262.24 501.696 1267.56 507.747 1268.99C509.383 1269.85 510.143 1270.34 511.974 1270.8L512.845 1271.11L513.708 1271.22C517.887 1280.04 527.478 1312.7 530.127 1323.06C533.813 1337.46 542.183 1361.74 545.14 1375.54C541.899 1381.01 534.567 1394.03 530.571 1397.99C508.421 1386.19 485.558 1375.72 463.265 1364.36C455.488 1359.41 440.218 1354.41 433.321 1349.01C410.589 1331.23 390.485 1308.84 369.038 1289.53C331.965 1256.16 300.372 1219.46 269.739 1180.2C260.515 1168.38 250.582 1156.96 241.489 1145.02C220.946 1116.6 201.112 1087.5 180.471 1059.15L154.701 1024.11C149.36 1016.86 139.628 1004.39 136.358 996.495C122.818 963.811 115.925 903.337 118.589 867.92C123.614 866.295 124.992 865.952 128.428 862.3Z"/><path fill="#A21A25" d="M225.971 1002.3C229.807 1002.58 295.714 956.221 306.874 953.41L394.294 1102.66L401.581 1105.94L395.933 1105.09C394.455 1106.23 381.516 1144.73 379.103 1150.62C371.814 1168.42 364.92 1187.03 357.561 1204.81L357.714 1205.72L398.546 1223.56C402.695 1225.39 407.685 1230.52 411.973 1227.25C420.343 1220.87 424.386 1209.45 433.489 1203.52C430.289 1207.75 413.518 1229.08 410.444 1230.7C403.484 1227.71 359.463 1209.22 355.936 1206.14C329.023 1182.59 298.858 1159.2 274.32 1133.38C272.669 1131.65 258.388 1092.35 256.417 1087.02L225.811 1003.07L225.971 1002.3Z"/><path fill="#90161A" d="M424.536 1239.47C443.412 1246.66 462.52 1253.6 481.669 1260.03C488.246 1262.24 501.696 1267.56 507.747 1268.99C509.383 1269.85 510.143 1270.34 511.974 1270.8L512.845 1271.11C510.957 1273.26 508.326 1275.53 506.115 1277.42C480.324 1299.48 455.74 1322.35 431.111 1345.68C430.911 1337.81 429.645 1328.51 429.128 1320.5C427.359 1293.07 423.839 1267.16 424.142 1239.62L424.536 1239.47Z"/><path fill="#EB444D" d="M390.532 629.926C391.451 630.563 392.936 631.731 393.905 632.045C413.461 644.941 432.289 655.878 452.707 667.342C457.445 670.003 484.523 684.471 487.062 686.738C487.649 694.346 495.375 720.975 497.554 729.704L526.133 843.349C527.59 849.171 535.122 877.849 535.379 882.466L532.816 884.335C528.623 888.021 523.877 891.113 519.33 894.364C497.539 909.94 478.933 926.769 454.123 937.65C435.992 945.602 418.197 955.863 399.799 963.517C398.655 963.727 392.811 966.789 391.369 967.511C390.91 959.913 390.092 951.349 389.11 943.8C382.172 890.472 378.978 836.997 374.618 783.442C349.91 793.481 319.233 812.093 294.031 824.114C292.924 821.245 291.3 817.974 289.993 815.152C281.059 795.856 273.042 775.927 263.879 756.762C267.997 751.304 278.9 740.381 284.006 735.017L321.451 695.492C343.544 672.852 366.231 650.25 390.532 629.926Z"/><path fill="#CE252E" d="M321.451 695.492C326.703 704.837 372.339 778.695 375.023 780.615C425.457 816.705 479.93 851.793 532.816 884.335C528.623 888.021 523.877 891.113 519.33 894.364C497.539 909.94 478.933 926.769 454.123 937.65C435.992 945.602 418.197 955.863 399.799 963.517C398.655 963.727 392.811 966.789 391.369 967.511C390.91 959.913 390.092 951.349 389.11 943.8C382.172 890.472 378.978 836.997 374.618 783.442C349.91 793.481 319.233 812.093 294.031 824.114C292.924 821.245 291.3 817.974 289.993 815.152C281.059 795.856 273.042 775.927 263.879 756.762C267.997 751.304 278.9 740.381 284.006 735.017L321.451 695.492Z"/><path fill="#D0252C" d="M516.214 428.681C522.37 422.595 544.06 398.143 549.246 395.634C554.985 400.383 593.632 402.493 603.257 402.622C610.996 402.681 620.364 401.531 628.542 401.407L630.868 400.909C633.235 405.559 671.172 447.487 676.783 452.806L675.541 453.876C660.47 467.401 648.475 481.28 635.175 496.435C628.182 504.403 617.555 515.751 611.47 524.07L611.059 524.972C620.081 540.799 628.497 559.725 637.425 575.828C639.623 579.792 647.52 596.486 650.024 599.044L650.096 599.641C646.9 603 614.291 682.429 609.761 694.411L607.717 694.555C596.742 694.401 578.405 692.377 566.716 691.506C540.244 689.534 514.751 687.99 488.252 686.786L487.062 686.738C484.523 684.471 457.445 670.003 452.707 667.342C432.289 655.878 413.461 644.941 393.905 632.045C392.936 631.731 391.451 630.563 390.532 629.926L391.679 628.851C411.185 611.848 438.277 593.739 458.985 577.844C467.24 571.507 481.333 562.845 488.643 556.404C487.408 549.369 498.722 490.078 500.564 479.271C501.22 476.233 503.063 470.849 503.991 467.447C507.059 457.4 512.278 437.801 516.214 428.681Z"/><path fill="#E4333E" d="M516.214 428.681C522.37 422.595 544.06 398.143 549.246 395.634C554.985 400.383 593.632 402.493 603.257 402.622C610.996 402.681 620.364 401.531 628.542 401.407L630.868 400.909C633.235 405.559 671.172 447.487 676.783 452.806L675.541 453.876C660.47 467.401 648.475 481.28 635.175 496.435C628.182 504.403 617.555 515.751 611.47 524.07C587.679 512.702 562.318 503.301 538.175 492.707L537.626 493.151C527.128 485.884 514.31 475.413 503.991 467.447C507.059 457.4 512.278 437.801 516.214 428.681Z"/><defs><linearGradient id="gradient_1" gradientUnits="userSpaceOnUse" x1="526.10242" y1="414.29858" x2="593.30688" y2="454.40768"><stop offset="0" stop-color="#791111"/><stop offset="1" stop-color="#BA1816"/></linearGradient></defs><path fill="url(#gradient_1)" d="M516.214 428.681C522.37 422.595 544.06 398.143 549.246 395.634C554.985 400.383 593.632 402.493 603.257 402.622C610.996 402.681 620.364 401.531 628.542 401.407C603.97 421.896 581.71 442.687 560.508 466.662C553.415 474.684 544.457 484.154 538.175 492.707L537.626 493.151C527.128 485.884 514.31 475.413 503.991 467.447C507.059 457.4 512.278 437.801 516.214 428.681Z"/><path fill="#D0252C" d="M503.991 467.447C514.31 475.413 527.128 485.884 537.626 493.151L538.175 492.707C562.318 503.301 587.679 512.702 611.47 524.07L611.059 524.972C603.446 534.464 556.221 588.04 554.271 593.728L551.903 594.969C542.436 597.59 530.529 599.642 520.725 601.599L470.707 611.898L424.966 622.234C414.348 624.668 402.443 627.662 391.679 628.851C411.185 611.848 438.277 593.739 458.985 577.844C467.24 571.507 481.333 562.845 488.643 556.404C487.408 549.369 498.722 490.078 500.564 479.271C501.22 476.233 503.063 470.849 503.991 467.447Z"/><path fill="#90161A" d="M503.991 467.447C514.31 475.413 527.128 485.884 537.626 493.151L506.393 534.199C502.272 539.623 493.17 552.501 488.643 556.404C487.408 549.369 498.722 490.078 500.564 479.271C501.22 476.233 503.063 470.849 503.991 467.447Z"/><path fill="#CE252E" d="M611.059 524.972C620.081 540.799 628.497 559.725 637.425 575.828C639.623 579.792 647.52 596.486 650.024 599.044L650.096 599.641C646.9 603 614.291 682.429 609.761 694.411L607.717 694.555C596.742 694.401 578.405 692.377 566.716 691.506C540.244 689.534 514.751 687.99 488.252 686.786L487.734 685.524C489.023 682.362 492.975 677.836 495.238 674.982C499.825 675.464 504.424 675.768 509.026 676.069C541.624 678.202 574.221 681.094 606.628 685.207L606.436 684.731C600.73 671.062 591.285 656.519 583.569 643.707C574.071 627.936 564.822 608.497 554.271 593.728C556.221 588.04 603.446 534.464 611.059 524.972Z"/><path fill="#E4333E" d="M551.903 594.969C550.871 600.095 502.833 660.163 495.71 674.742C483.267 668.818 400.761 631.083 393.905 632.045C392.936 631.731 391.451 630.563 390.532 629.926L391.679 628.851C402.443 627.662 414.348 624.668 424.966 622.234L470.707 611.898L520.725 601.599C530.529 599.642 542.436 597.59 551.903 594.969Z"/><path fill="#A21A25" d="M732.93 1092.41C743.043 1090.64 809.759 1079.34 815.604 1081.41L756.264 1209.1C732.618 1247.82 706.76 1285.75 683.452 1324.62C678.084 1330.38 671.963 1335.76 666.09 1341.02C645.541 1359.4 624.967 1377.97 604.015 1395.89C599.573 1396.09 591.288 1396.71 587.134 1396.36C568.37 1397.34 549.373 1397.59 530.571 1397.99C534.567 1394.03 541.899 1381.01 545.14 1375.54C542.183 1361.74 533.813 1337.46 530.127 1323.06C527.478 1312.7 517.887 1280.04 513.708 1271.22L512.845 1271.11L511.974 1270.8C512.017 1268.62 511.343 1266.13 511.332 1263.55C512.222 1265.92 513.109 1268.97 513.891 1271.43C530.982 1257.86 551.438 1245.61 569.4 1233.02C576.392 1228.12 589.344 1220.97 594.953 1215.21L594.969 1214.58C600.497 1206.6 605.828 1195.85 610.74 1187.33C617.636 1175.37 624.588 1163.47 631.531 1151.54L631.218 1151.02L632.865 1145.97L633.673 1149.02L633.588 1150.15C635.451 1150.39 638.362 1148.59 639.969 1147.56C670.196 1128.23 701.16 1109.16 732.93 1092.41Z"/><path fill="#A21A25" d="M732.93 1092.41C743.043 1090.64 809.759 1079.34 815.604 1081.41L756.264 1209.1C748.272 1204.85 700.939 1211.12 685.213 1208.96L686.103 1207.7C683.986 1206.89 638.676 1158.14 631.531 1151.54L631.218 1151.02L632.865 1145.97L633.673 1149.02L633.588 1150.15C635.451 1150.39 638.362 1148.59 639.969 1147.56C670.196 1128.23 701.16 1109.16 732.93 1092.41Z"/><path fill="#C2222D" d="M633.673 1149.02L633.588 1150.15C635.451 1150.39 638.362 1148.59 639.969 1147.56C670.196 1128.23 701.16 1109.16 732.93 1092.41C728.322 1104.57 722.211 1116.45 717.799 1128.44C708.039 1154.97 696.042 1181.36 686.103 1207.7C683.986 1206.89 638.676 1158.14 631.531 1151.54L631.218 1151.02L632.865 1145.97L633.673 1149.02Z"/><path fill="#84151F" d="M513.708 1271.22C521.216 1274.25 528.638 1276.5 536.318 1279C567.631 1289.18 598.532 1300.28 630.007 1309.99L632.998 1310.36C642.212 1314.3 678.672 1319.37 683.452 1324.62C678.084 1330.38 671.963 1335.76 666.09 1341.02C645.541 1359.4 624.967 1377.97 604.015 1395.89C599.573 1396.09 591.288 1396.71 587.134 1396.36C568.37 1397.34 549.373 1397.59 530.571 1397.99C534.567 1394.03 541.899 1381.01 545.14 1375.54C542.183 1361.74 533.813 1337.46 530.127 1323.06C527.478 1312.7 517.887 1280.04 513.708 1271.22Z"/><path fill="#90161A" d="M513.708 1271.22C521.216 1274.25 528.638 1276.5 536.318 1279C567.631 1289.18 598.532 1300.28 630.007 1309.99C625.112 1313.14 620.464 1316.86 615.891 1320.47C592.732 1338.75 570.075 1357.79 546.746 1375.85C551.628 1377.56 584.586 1388.88 586.325 1390.7C583.621 1391.25 551.662 1378.59 545.958 1376.85C542.122 1383.18 538.141 1389.96 534.07 1396.13C543.793 1396.28 582.006 1394.39 587.134 1396.36C568.37 1397.34 549.373 1397.59 530.571 1397.99C534.567 1394.03 541.899 1381.01 545.14 1375.54C542.183 1361.74 533.813 1337.46 530.127 1323.06C527.478 1312.7 517.887 1280.04 513.708 1271.22Z"/><path fill="#90161A" d="M685.213 1208.96C700.939 1211.12 748.272 1204.85 756.264 1209.1C732.618 1247.82 706.76 1285.75 683.452 1324.62C678.672 1319.37 642.212 1314.3 632.998 1310.36C633.031 1303.75 644.375 1285.07 647.953 1278.23L684.209 1210.09L685.213 1208.96Z"/><path fill="#CE252E" d="M631.531 1151.54C638.676 1158.14 683.986 1206.89 686.103 1207.7L685.213 1208.96L684.209 1210.09C673.505 1210.86 601.063 1217.84 594.953 1215.21L594.969 1214.58C600.497 1206.6 605.828 1195.85 610.74 1187.33C617.636 1175.37 624.588 1163.47 631.531 1151.54Z"/><path fill="#D0252C" d="M294.031 824.114C319.233 812.093 349.91 793.481 374.618 783.442C378.978 836.997 382.172 890.472 389.11 943.8C390.092 951.349 390.91 959.913 391.369 967.511C392.811 966.789 398.655 963.727 399.799 963.517C400.591 963.713 401.605 963.963 402.843 964.268C427.222 955.868 457.576 943.934 479.948 931.767C489.156 926.76 496.238 921.316 504.077 916.835C494.058 940.122 475.164 986.183 465.604 1011.37C465.789 1011.97 465.975 1012.57 466.16 1013.17C465.287 1015.9 462.237 1021.34 460.671 1024.02L497.671 1034.51C500.598 1035.37 514.411 1039.71 516.578 1040.04C514.004 1044.15 505.107 1058.94 502.179 1061.82C493.006 1070.87 478.47 1080.05 467.877 1087.86C455.714 1096.83 444.132 1105.78 432.251 1115.02C425.501 1112.78 406.625 1108.54 401.581 1105.94L394.294 1102.66L306.874 953.41L307.145 952.713L305.94 952.007C305.398 943.643 300.079 899.433 301.755 895.618C309.368 902.09 317.153 908.298 325.358 914.003C317.961 903.781 307.433 893.409 299.292 882.712C298.95 866.97 295.491 840.749 294.031 824.114Z"/><path fill="#C2222D" d="M307.145 952.713C335.693 957.668 363.91 962.364 392.303 968.214C398.778 974.787 408.205 981.651 415.43 987.766C429.765 999.898 445.454 1012.19 458.938 1025.1C439.254 1047.51 411.342 1078.46 394.294 1102.66L306.874 953.41L307.145 952.713Z"/><path fill="#C2222D" d="M720.412 540.798L721.12 541.62C725.309 543.808 747.678 556.087 750.941 556.677C755.858 559.961 784.492 595.128 787.945 600.761C794.78 607.897 807.125 625.482 814.595 629.714C819.012 635.121 851.552 720.379 850.93 726.853C848.351 736.58 833.761 794.218 829.567 799.577C826.582 794.827 778.891 772.454 772.367 767.263C769.62 766.135 767.04 764.846 764.395 763.512C747.605 755.048 730.489 747.079 712.977 740.191C707.951 741.287 692.482 748.51 686.922 750.985C678.864 742.053 659.826 716.155 653.781 705.355C653.909 697.411 653.084 686.867 652.875 678.548C652.782 652.75 651.723 628.003 651.381 602.38C654.61 600.625 680.052 577.25 685.183 572.53C695.004 563.494 711.769 550.031 720.412 540.798Z"/><path fill="#D0252C" d="M787.945 600.761C794.78 607.897 807.125 625.482 814.595 629.714C819.012 635.121 851.552 720.379 850.93 726.853C848.351 736.58 833.761 794.218 829.567 799.577C826.582 794.827 778.891 772.454 772.367 767.263C775.167 762.87 777.805 758.615 780.484 754.143C769.139 734.23 753.984 700.796 744.294 679.705C759.348 653.491 774.121 627.749 787.945 600.761Z"/><path fill="#90161A" d="M780.484 754.143C784.662 751.877 801.509 745.114 806.274 743.378C818.533 738.911 838.678 729.638 850.93 726.853C848.351 736.58 833.761 794.218 829.567 799.577C826.582 794.827 778.891 772.454 772.367 767.263C775.167 762.87 777.805 758.615 780.484 754.143Z"/><path fill="#CE252E" d="M721.12 541.62C725.309 543.808 747.678 556.087 750.941 556.677C755.858 559.961 784.492 595.128 787.945 600.761C774.121 627.749 759.348 653.491 744.294 679.705C737.11 675.889 728.014 672.056 720.529 668.56C712.781 664.942 703.322 660.069 695.459 657.184L694.868 655.867C698.814 643.881 718.534 545.225 721.12 541.62Z"/><path fill="#A21A25" d="M693.852 657.837C698.864 682.643 705.416 716.207 712.977 740.191C707.951 741.287 692.482 748.51 686.922 750.985C678.864 742.053 659.826 716.155 653.781 705.355C653.909 697.411 653.084 686.867 652.875 678.548C660.036 673.575 684.414 662.51 693.852 657.837Z"/><path fill="#C2222D" d="M726.097 799.005C722.721 791.015 717.296 778.281 713.722 769.892C713.888 769.391 714.053 768.89 714.218 768.39C720.713 767.865 811.167 802.451 820.266 806.663L824.893 808.119C831.949 820.818 841.999 847.984 848.261 862.038C851.808 869.999 864.532 900.379 866.197 907.247C864.583 914.486 863.17 921.741 861.554 928.99C851.822 972.66 836.654 1015.23 824.116 1058.17C821.814 1066.05 818.865 1073.91 815.604 1081.41C809.759 1079.34 743.043 1090.64 732.93 1092.41L732.922 1091.8C734.797 1085.74 739.877 1063.07 741.676 1059.25C744.731 1056.72 755.448 1022.31 757.578 1015.87L784.521 1039.1C791.531 1045.23 800.683 1053.92 808.404 1058.43C794.359 1041.82 774.812 1024.18 759.926 1007.74C760.972 1001.45 767.645 959.429 771.217 958.014L773.528 959.274L774.034 958.669L771.632 957.022C774.689 944.826 782.346 923.77 786.488 911.002L786.73 911.429C787.407 909.911 786.75 908.85 786.267 906.904C785.173 901.267 778.534 883.524 776.364 877.342C763.762 868.78 747.643 860.648 734.328 852.073C728.167 840.108 722.364 825.649 716.79 813.199C713.451 805.738 707.298 792.496 704.915 785.049L705.593 783.96C704.073 780.282 700.976 774.889 701.383 771.46C702.67 771.257 703.277 771.466 704.564 771.689L704.979 771.429C706.72 770.359 707.122 770.183 709.061 769.591C717.679 772.104 720.457 795.445 725.714 799.076L726.097 799.005Z"/><path fill="#E4333E" d="M726.097 799.005C722.721 791.015 717.296 778.281 713.722 769.892C713.888 769.391 714.053 768.89 714.218 768.39C720.713 767.865 811.167 802.451 820.266 806.663C813.067 818.545 804.937 830.657 797.31 842.315C794.269 846.965 785.829 859.95 782.467 863.702C772.762 859.524 761.455 856.001 751.166 851.649C743.923 837.261 737.108 822.773 730.57 808.05C729.188 804.937 727.816 801.955 726.097 799.005Z"/><path fill="#CE252E" d="M820.266 806.663L824.893 808.119C831.949 820.818 841.999 847.984 848.261 862.038C851.808 869.999 864.532 900.379 866.197 907.247C860.804 904.6 842.7 905.11 834.507 903.532C830.85 899.868 826.671 896.762 822.545 893.656C809.227 883.632 796.064 873.345 782.467 863.702C785.829 859.95 794.269 846.965 797.31 842.315C804.937 830.657 813.067 818.545 820.266 806.663Z"/><path fill="#E4333E" d="M487.062 686.738L488.252 686.786C514.751 687.99 540.244 689.534 566.716 691.506C578.405 692.377 596.742 694.401 607.717 694.555C608.372 697.014 604.374 718.052 603.669 722.454L592.111 795.195C589.662 810.746 585.645 833.772 585.519 849.1C568.41 860.047 552.008 870.786 535.379 882.466C535.122 877.849 527.59 849.171 526.133 843.349L497.554 729.704C495.375 720.975 487.649 694.346 487.062 686.738Z"/><path fill="#E4333E" d="M660.837 756.148C673.482 760.667 686.436 765.718 698.743 771.073L704.915 785.049C707.298 792.496 713.451 805.738 716.79 813.199C722.364 825.649 728.167 840.108 734.328 852.073C747.643 860.648 763.762 868.78 776.364 877.342C778.534 883.524 785.173 901.267 786.267 906.904C786.75 908.85 787.407 909.911 786.73 911.429L786.488 911.002C782.346 923.77 774.689 944.826 771.632 957.022L774.034 958.669L773.528 959.274L771.217 958.014C767.645 959.429 760.972 1001.45 759.926 1007.74C750.006 997.03 741.185 984.868 731.649 973.831C716.266 956.027 706.509 935.52 698.617 913.386C693.742 904.808 685.462 884.838 681.075 875.029L650.392 807.42C653.742 790.098 657.039 773.388 660.837 756.148Z"/><path fill="#CE252E" d="M786.267 906.904C786.75 908.85 787.407 909.911 786.73 911.429L786.488 911.002C782.346 923.77 774.689 944.826 771.632 957.022L774.034 958.669L773.528 959.274L771.217 958.014C767.645 959.429 760.972 1001.45 759.926 1007.74C750.006 997.03 741.185 984.868 731.649 973.831C716.266 956.027 706.509 935.52 698.617 913.386C701.097 914.504 703.452 915.975 705.782 917.376C727.453 930.408 748.734 944.123 770.024 957.76C775.666 942.065 781.222 922.959 786.267 906.904Z"/><path fill="#CE252E" d="M619.62 1069.54L619.622 1069.05C619.568 1048.12 614.891 1026.08 613.357 1005.21C612.305 990.887 606.774 969.045 611.041 955.731C630.687 970.451 652.013 994.276 671.681 1008.74C661.346 1052.12 648.153 1094.59 635.687 1137.38C634.85 1140.26 634.127 1143.26 632.865 1145.97L631.218 1151.02C630.451 1151.06 629.77 1150.97 629.108 1150.47C597.121 1126.34 565.776 1099.99 532.817 1077.26C536.538 1068.8 544.849 1055.46 549.681 1047.21C565.12 1020.87 582.289 996.026 601.278 972.106C607.313 1001.57 611.738 1041.05 619.62 1069.54Z"/><path fill="#E4333E" d="M466.16 1013.17C468.463 1007.95 473.165 999.781 475.957 994.51L493.832 960.215C499.029 950.098 509.978 923.399 516.321 916.063C521.908 909.601 595.032 863.732 606.841 857.757L608.057 858.206L595.627 904.354C593.595 911.894 589.684 927.872 586.564 934.148C583.688 939.934 574.686 951.34 570.681 957.452L542.325 1001.09C533.752 1014.02 524.705 1026.87 516.578 1040.04C514.411 1039.71 500.598 1035.37 497.671 1034.51L460.671 1024.02C462.237 1021.34 465.287 1015.9 466.16 1013.17Z"/><path fill="#D0252C" d="M501.287 1140.02C512.584 1119 522.163 1098.45 532.817 1077.26C565.776 1099.99 597.121 1126.34 629.108 1150.47C629.77 1150.97 630.451 1151.06 631.218 1151.02L631.531 1151.54C624.588 1163.47 617.636 1175.37 610.74 1187.33C605.828 1195.85 600.497 1206.6 594.969 1214.58C593.146 1213.93 570.613 1194.33 567.798 1191.94C546.28 1173.66 523.496 1157.34 501.287 1140.02Z"/><path fill="#C2222D" d="M501.287 1140.02C523.496 1157.34 546.28 1173.66 567.798 1191.94C570.613 1194.33 593.146 1213.93 594.969 1214.58L594.953 1215.21C589.344 1220.97 576.392 1228.12 569.4 1233.02C551.438 1245.61 530.982 1257.86 513.891 1271.43C513.109 1268.97 512.222 1265.92 511.332 1263.55C509.811 1256.74 503.478 1242.17 500.991 1234.91C494.929 1217.21 488.361 1199.46 481.768 1181.96C486.772 1167.98 494.515 1153.34 501.287 1140.02Z"/><path fill="#E4333E" d="M644.298 839.301C653.175 855.472 661.611 873.156 669.817 889.733C674.722 899.643 680.87 911.273 685.179 921.268C682.816 940.963 680.372 960.08 676.899 979.594C675.223 989.014 674.123 999.636 671.681 1008.74C652.013 994.276 630.687 970.451 611.041 955.731C623.653 917.709 634.254 878.082 644.298 839.301Z"/><path fill="#C2222D" d="M675.541 453.876C678.085 458.642 702.476 492.581 705.942 495.473L661.684 576.109C657.643 583.565 654.129 591.746 650.024 599.044C647.52 596.486 639.623 579.792 637.425 575.828C628.497 559.725 620.081 540.799 611.059 524.972L611.47 524.07C617.555 515.751 628.182 504.403 635.175 496.435C648.475 481.28 660.47 467.401 675.541 453.876Z"/><path fill="#CE252E" d="M695.892 951.074C707.63 963.143 719.085 976.092 730.801 988.297C735.179 992.858 748.457 1006.24 751.671 1010.69C748.449 1026.1 744.259 1043.92 741.676 1059.25C739.877 1063.07 734.797 1085.74 732.922 1091.8C727.902 1086.69 723.367 1078.17 718.54 1073.09C705.824 1059.71 691.378 1034.13 678.307 1022.57C685.486 997.137 689.717 975.814 695.892 951.074Z"/><path fill="#D0252C" d="M633.673 1149.02C651.331 1108.46 668.798 1066.01 678.307 1022.57C691.378 1034.13 705.824 1059.71 718.54 1073.09C723.367 1078.17 727.902 1086.69 732.922 1091.8L732.93 1092.41C701.16 1109.16 670.196 1128.23 639.969 1147.56C638.362 1148.59 635.451 1150.39 633.588 1150.15L633.673 1149.02Z"/><path fill="#CE252E" d="M607.717 694.555L609.761 694.411C616.876 704.325 626.002 716.779 632.512 726.896C627.556 758.718 621.214 799.645 614.026 830.77C604.205 836.483 595.81 843.337 585.519 849.1C585.645 833.772 589.662 810.746 592.111 795.195L603.669 722.454C604.374 718.052 608.372 697.014 607.717 694.555Z"/><path fill="#C2222D" d="M424.536 1239.47C427.705 1232.58 461.44 1195.14 467.814 1188.99C480.42 1213.26 492.992 1237.54 504.677 1262.27C505.73 1264.5 507.118 1266.59 507.747 1268.99C501.696 1267.56 488.246 1262.24 481.669 1260.03C462.52 1253.6 443.412 1246.66 424.536 1239.47Z"/><path fill="#84151F" d="M705.942 495.473C725.732 484.874 768.328 463.077 789.784 456.4C795.145 458.014 799.723 459.176 805.149 460.462C803.434 460.486 800.703 460.442 799.293 461.543C789.526 469.214 780.778 479.926 771.226 487.701C758.962 497.684 747.651 505.947 737.662 518.55C731.785 525.965 720.832 530.587 720.412 540.798C711.769 550.031 695.004 563.494 685.183 572.53C680.052 577.25 654.61 600.625 651.381 602.38C654.217 594.666 708.983 552.176 716.973 541.946C721.136 536.616 718.909 534.662 720.846 530.669C726.605 518.797 728.323 506.153 732.934 493.871C734.719 489.149 736.192 488.523 736.397 483.321L736.359 483.383L737.17 481.249C732.961 481.631 716.1 491.709 711.533 494.363C707.863 496.495 700.656 504.244 699.781 508.723C699.686 509.338 699.591 509.952 699.496 510.567C693.143 519.75 653.556 597.627 650.096 599.641L650.024 599.044C654.129 591.746 657.643 583.565 661.684 576.109L705.942 495.473Z"/><path fill="#D0252C" d="M492.677 1087.45L493.2 1088.01C493.851 1092.81 480.696 1129.66 478.247 1135.63C478.457 1127.51 465.207 1128.3 458.783 1124.14C453.712 1122.56 448.874 1121.24 444.127 1118.82L444.164 1118.05C450.906 1112.18 484.145 1092.18 492.677 1087.45Z"/><defs><linearGradient id="gradient_2" gradientUnits="userSpaceOnUse" x1="410.09671" y1="451.41925" x2="312.63791" y2="334.80667"><stop offset="0" stop-color="#5D0E10"/><stop offset="1" stop-color="#911726"/></linearGradient></defs><path fill="url(#gradient_2)" d="M266.851 146.744L268.353 146.776C273.739 152.981 278.73 161.943 283.045 169.064C297.265 192.531 308.97 216.926 320.142 241.935C322.335 246.845 332.485 271.394 334.537 274.157C334.621 274.036 347.903 183.229 349.879 172.273C367.636 165.706 387.714 165.577 405.443 172.297C409.209 173.724 412.795 175.765 412.857 180.037C408.093 213.533 407.511 241.689 408.832 275.226C398.547 294.228 387.649 313.402 379.301 333.288C372.657 349.114 367.979 365.419 363.606 381.978C362.726 385.312 358.118 401.001 358.007 403.426L355.041 411.181C351.493 430.662 346.992 449.953 343.564 469.675C342.116 478.002 338.203 503.207 336.225 509.779C335.688 512.643 335.775 513.876 335.848 516.71C317.457 502.675 300.184 480.341 281.283 466.059C278.742 464.138 270.907 457.991 269.967 455.419L269.11 456.201L269.571 456.8C254.935 464.569 238.024 476.92 223.878 486.062C219.956 488.597 210.614 494.57 207.257 497.046C228.144 411.043 245.145 341.174 212.907 253.821C208.081 240.748 203.784 230.675 197.434 218.087C194.252 211.778 185.976 197.263 184.08 191.359L183.851 190.625C208.211 172.519 238.53 157.403 266.851 146.744Z"/><path fill="#C2222D" d="M266.851 146.744L268.353 146.776C273.739 152.981 278.73 161.943 283.045 169.064C297.265 192.531 308.97 216.926 320.142 241.935C322.335 246.845 332.485 271.394 334.537 274.157C319.968 287.733 293.797 316.063 277.589 326.465C279.769 355.623 277.317 387.342 275.152 416.418C274.447 422.994 271.523 450.336 269.967 455.419L269.11 456.201L269.571 456.8C254.935 464.569 238.024 476.92 223.878 486.062C219.956 488.597 210.614 494.57 207.257 497.046C228.144 411.043 245.145 341.174 212.907 253.821C208.081 240.748 203.784 230.675 197.434 218.087C194.252 211.778 185.976 197.263 184.08 191.359L183.851 190.625C208.211 172.519 238.53 157.403 266.851 146.744Z"/><defs><linearGradient id="gradient_3" gradientUnits="userSpaceOnUse" x1="314.49588" y1="300.99768" x2="232.32153" y2="171.81738"><stop offset="0" stop-color="#85121A"/><stop offset="1" stop-color="#C51926"/></linearGradient></defs><path fill="url(#gradient_3)" d="M266.851 146.744L268.353 146.776C273.739 152.981 278.73 161.943 283.045 169.064C297.265 192.531 308.97 216.926 320.142 241.935C322.335 246.845 332.485 271.394 334.537 274.157C319.968 287.733 293.797 316.063 277.589 326.465C271.386 276.951 257.053 224.998 235.033 180.205C241.457 175.337 265.756 154.379 266.851 146.744Z"/><path fill="#90161A" d="M183.851 190.625C208.211 172.519 238.53 157.403 266.851 146.744C265.756 154.379 241.457 175.337 235.033 180.205C220.458 185.848 199.502 190.84 183.851 190.625Z"/><path fill="#A21A25" d="M349.879 172.273C367.636 165.706 387.714 165.577 405.443 172.297C409.209 173.724 412.795 175.765 412.857 180.037C408.093 213.533 407.511 241.689 408.832 275.226C400.894 275.652 387.598 276.513 379.793 277.603C371.533 285.605 361.999 297.812 354.389 306.678C330.146 334.918 307.661 364.369 287.528 395.68C284.303 400.695 276.287 411.461 275.152 416.418C277.317 387.342 279.769 355.623 277.589 326.465C293.797 316.063 319.968 287.733 334.537 274.157C334.621 274.036 347.903 183.229 349.879 172.273Z"/><path fill="#C2222D" d="M412.857 180.037C408.093 213.533 407.511 241.689 408.832 275.226C400.894 275.652 387.598 276.513 379.793 277.603C376.37 260.782 377.261 208.515 380.555 191.388C382.115 190.053 384.275 190.194 386.659 189.855C396.364 189.53 404.989 185.338 412.857 180.037Z"/><path fill="#90161A" d="M349.879 172.273C367.636 165.706 387.714 165.577 405.443 172.297C409.209 173.724 412.795 175.765 412.857 180.037C404.989 185.338 396.364 189.53 386.659 189.855C373.914 189.994 356.235 183.974 349.879 172.273Z"/><defs><linearGradient id="gradient_4" gradientUnits="userSpaceOnUse" x1="669.6748" y1="140.67697" x2="511.7178" y2="307.12595"><stop offset="0" stop-color="#D21E29"/><stop offset="1" stop-color="#EC3B48"/></linearGradient></defs><path fill="url(#gradient_4)" d="M549.256 111.498C549.669 111.843 550.082 112.187 550.495 112.531C558.171 151.112 565.885 215.584 571.943 251.865C575.569 252.428 579.146 252.975 582.783 253.459C596.423 215.218 609.757 176.822 625.3 139.245C626.542 136.241 626.762 134.545 629.137 133.613C652.688 134.619 665.726 139.627 685.528 151.485C670.661 187.843 656.235 229.534 650.847 268.364C655.563 269.667 664.014 271.349 667.179 274.654C664.42 282.126 653.228 329.452 649.15 331.742L649.823 332.257C659.254 341.878 668.626 353.509 677.549 363.703C680.419 366.982 690.227 377.558 692.117 380.583C672.577 385.911 650.728 394.871 630.868 400.909L628.542 401.407C620.364 401.531 610.996 402.681 603.257 402.622C598.315 397.968 592.765 393.895 587.378 389.749C582.344 387.898 554.618 391.739 549.246 395.634C549.525 391.406 545.968 381.868 544.604 377.074C540.24 361.732 534.993 345.476 532.115 329.792C531.953 328.913 532.439 328.819 533.337 327.749L531.674 327.774C527.899 324.381 511.163 298.949 506.382 293.229C503.549 289.839 489.156 271.065 487.276 267.704L487.509 267.203C485.879 259.498 487.632 232.866 486.895 223.396C484.616 194.102 482.216 161.85 475.234 133.399C482.489 125.968 506.545 118.701 516.905 116.245C527.214 113.802 538.709 113.068 549.256 111.498Z"/><defs><linearGradient id="gradient_5" gradientUnits="userSpaceOnUse" x1="610.4715" y1="379.13544" x2="561.02856" y2="309.18649"><stop offset="0" stop-color="#951412"/><stop offset="1" stop-color="#BB1F22"/></linearGradient></defs><path fill="url(#gradient_5)" d="M533.337 327.749C571.474 327.057 611.159 322.609 649.15 331.742L649.823 332.257C659.254 341.878 668.626 353.509 677.549 363.703C680.419 366.982 690.227 377.558 692.117 380.583C672.577 385.911 650.728 394.871 630.868 400.909L628.542 401.407C620.364 401.531 610.996 402.681 603.257 402.622C598.315 397.968 592.765 393.895 587.378 389.749C582.344 387.898 554.618 391.739 549.246 395.634C549.525 391.406 545.968 381.868 544.604 377.074C540.24 361.732 534.993 345.476 532.115 329.792C531.953 328.913 532.439 328.819 533.337 327.749Z"/><path fill="#90161A" d="M649.823 332.257C659.254 341.878 668.626 353.509 677.549 363.703C680.419 366.982 690.227 377.558 692.117 380.583C672.577 385.911 650.728 394.871 630.868 400.909L628.542 401.407C620.364 401.531 610.996 402.681 603.257 402.622C598.315 397.968 592.765 393.895 587.378 389.749C590.931 389.091 601.713 387.361 603.959 385.461C618.956 372.774 638.171 347.183 649.823 332.257Z"/><path fill="#CE252E" d="M475.234 133.399C484.605 135.695 505.114 134.751 514.989 134.215C521.679 171.544 522.624 208.155 520.714 246.011C520.471 250.843 520.368 255.776 520.394 260.612C509.848 262.494 497.986 264.773 487.509 267.203C485.879 259.498 487.632 232.866 486.895 223.396C484.616 194.102 482.216 161.85 475.234 133.399Z"/><path fill="#CE252E" d="M582.783 253.459C596.423 215.218 609.757 176.822 625.3 139.245C626.542 136.241 626.762 134.545 629.137 133.613C633.287 138.241 646.821 146.179 652.46 149.489C650.069 151.631 638.3 185.279 636.493 190.244C628.349 212.624 622.647 236.813 617.063 259.977C608.342 258.074 590.803 253.864 582.783 253.459Z"/><path fill="#90161A" d="M475.234 133.399C482.489 125.968 506.545 118.701 516.905 116.245C527.214 113.802 538.709 113.068 549.256 111.498C539.759 120.361 526.63 128.468 514.989 134.215C505.114 134.751 484.605 135.695 475.234 133.399Z"/><path fill="#90161A" d="M629.137 133.613C652.688 134.619 665.726 139.627 685.528 151.485C676.205 152.885 661.545 152.128 652.46 149.489C646.821 146.179 633.287 138.241 629.137 133.613Z"/><path fill="#EB444D" d="M744.63 362.518C790.771 346.603 863.596 320.496 912.638 305.402C913.278 305.588 913.919 305.773 914.56 305.958C928.068 328.402 941.714 380.738 935.96 405.008C935.095 406.084 935.093 406.358 933.984 406.95L841.395 437.785C826.245 442.962 804.244 450.043 789.784 456.4C768.328 463.077 725.732 484.874 705.942 495.473C702.476 492.581 678.085 458.642 675.541 453.876L676.783 452.806C671.172 447.487 633.235 405.559 630.868 400.909C650.728 394.871 672.577 385.911 692.117 380.583C705.186 375.211 730.912 366.737 744.63 362.518Z"/><path fill="#C2222D" d="M676.783 452.806C685.16 446.816 717.097 433.325 726.591 429.158C784.78 403.623 844.469 381.846 904.865 362.093C909.898 378.274 921.958 395.125 933.984 406.95L841.395 437.785C826.245 442.962 804.244 450.043 789.784 456.4C768.328 463.077 725.732 484.874 705.942 495.473C702.476 492.581 678.085 458.642 675.541 453.876L676.783 452.806Z"/><path fill="#90161A" d="M914.56 305.958C928.068 328.402 941.714 380.738 935.96 405.008C935.095 406.084 935.093 406.358 933.984 406.95C921.958 395.125 909.898 378.274 904.865 362.093C901.936 347.38 909.201 319.833 914.56 305.958Z"/><defs><linearGradient id="gradient_6" gradientUnits="userSpaceOnUse" x1="851.95386" y1="488.60992" x2="919.74652" y2="591.09338"><stop offset="0" stop-color="#901823"/><stop offset="1" stop-color="#B62B3A"/></linearGradient></defs><path fill="url(#gradient_6)" d="M805.149 460.462C812.09 462.044 841.32 468.586 847.049 468.448C879.382 467.669 925.905 459.26 956.88 451.851C964.513 479.006 961.894 513.181 951.856 539.315C948.134 540.1 932.597 539.733 927.37 539.993C907.106 541.001 884.456 540.467 864.377 542.095C883.051 554.104 910.273 569.438 930.112 579.841C932.924 595.797 908.598 635.549 894.55 643.647C893.086 643.74 893.384 643.987 892.363 643.464C887.831 639.987 878.845 635.01 873.603 631.773C857.355 621.744 840.019 611.947 822.805 603.624C820.102 611.825 816.668 621.461 814.595 629.714C807.125 625.482 794.78 607.897 787.945 600.761C784.492 595.128 755.858 559.961 750.941 556.677C747.678 556.087 725.309 543.808 721.12 541.62L720.412 540.798C720.832 530.587 731.785 525.965 737.662 518.55C747.651 505.947 758.962 497.684 771.226 487.701C780.778 479.926 789.526 469.214 799.293 461.543C800.703 460.442 803.434 460.486 805.149 460.462Z"/><defs><linearGradient id="gradient_7" gradientUnits="userSpaceOnUse" x1="784.91217" y1="455.98553" x2="895.32391" y2="544.38104"><stop offset="0" stop-color="#9A1D28"/><stop offset="1" stop-color="#E33C4F"/></linearGradient></defs><path fill="url(#gradient_7)" d="M805.149 460.462C812.09 462.044 841.32 468.586 847.049 468.448C879.382 467.669 925.905 459.26 956.88 451.851C964.513 479.006 961.894 513.181 951.856 539.315C941.744 530.961 938.548 508.614 937.021 496.191C903.508 502.049 870.182 506.245 836.329 509.571C831.871 510.009 816.716 511.958 813.57 511.363C807.784 518.976 801.887 527.828 796.428 535.771C790.481 538.408 754.334 553.75 750.941 556.677C747.678 556.087 725.309 543.808 721.12 541.62L720.412 540.798C720.832 530.587 731.785 525.965 737.662 518.55C747.651 505.947 758.962 497.684 771.226 487.701C780.778 479.926 789.526 469.214 799.293 461.543C800.703 460.442 803.434 460.486 805.149 460.462Z"/><path fill="#90161A" d="M956.88 451.851C964.513 479.006 961.894 513.181 951.856 539.315C941.744 530.961 938.548 508.614 937.021 496.191C937.159 478.316 946.235 464.998 956.88 451.851Z"/><path fill="#A21A25" d="M796.428 535.771C800.349 542.003 825.43 569.074 831.227 573.941L832.589 573.883L832.149 575.743C828.917 584.998 826.09 594.374 822.805 603.624C820.102 611.825 816.668 621.461 814.595 629.714C807.125 625.482 794.78 607.897 787.945 600.761C784.492 595.128 755.858 559.961 750.941 556.677C754.334 553.75 790.481 538.408 796.428 535.771Z"/><path fill="#84151F" d="M832.149 575.743C852.886 583.999 873.11 592.292 892.687 603.107C895.136 604.46 897.763 605.828 900.27 607.056C894.665 617.65 891.251 631.463 892.363 643.464C887.831 639.987 878.845 635.01 873.603 631.773C857.355 621.744 840.019 611.947 822.805 603.624C826.09 594.374 828.917 584.998 832.149 575.743Z"/><path fill="#84151F" d="M813.57 511.363C819.955 521.466 828.559 534.511 835.862 544.005C834.538 551.931 832.794 565.938 832.589 573.883L831.227 573.941C825.43 569.074 800.349 542.003 796.428 535.771C801.887 527.828 807.784 518.976 813.57 511.363Z"/><path fill="#90161A" d="M930.112 579.841C932.924 595.797 908.598 635.549 894.55 643.647C893.086 643.74 893.384 643.987 892.363 643.464C891.251 631.463 894.665 617.65 900.27 607.056C908.542 595.685 918.693 587.714 930.112 579.841Z"/><path fill="#C2222D" d="M667.179 274.654C674.539 282.079 681.927 289.512 689.049 297.17C708.454 318.034 725.616 341.411 744.63 362.518C730.912 366.737 705.186 375.211 692.117 380.583C690.227 377.558 680.419 366.982 677.549 363.703C668.626 353.509 659.254 341.878 649.823 332.257L649.15 331.742C653.228 329.452 664.42 282.126 667.179 274.654Z"/></svg>