<?xml version="1.0" encoding="utf-8" ?><svg xmlns="http://www.w3.org/2000/svg" xmlns:xlink="http://www.w3.org/1999/xlink" width="1000" height="889" viewBox="0 0 1000 889"><path fill="#FEFEFE" d="M204.517 0L346.413 0C346.939 4.3898 346.657 10.1455 346.702 14.6786C346.796 24.3735 346.493 34.2042 346.763 43.8957L347.243 44.4842L437.531 44.419L437.567 74.4708C437.561 79.7241 437.335 87.0799 437.906 92.0853L438.115 92.5709C452.698 92.5563 468.962 92.8917 483.411 92.3542C483.531 105.532 483.201 119.878 483.609 132.92L483.872 133.502C498.776 133.415 515.786 133.881 530.48 133.308L531.414 132.867C530.799 121.109 531.286 104.595 531.262 92.5624C546.778 92.2077 562.565 92.8639 578.166 92.4023L578.785 91.7262C577.908 77.9101 579.052 59.2164 578.575 44.4376L627 44.3853L627.59 43.9633C627.428 41.8366 627.469 39.6989 627.48 37.5671C627.547 25.2763 627.31 12.9736 627.567 0.68496C641.32 0.199046 655.633 0.906221 669.48 0.492799L671.845 0.699429L699.706 0.598165C703.9 0.60495 711.064 0.840545 715.073 0.482893L717.024 0.69874L759.367 0.556384L761.554 0.58856C767.641 0.631496 805.074 1.08923 808.478 0L809.214 0C809.184 13.5477 808.713 30.5099 809.354 43.9351L809.657 44.4957C839.525 44.4595 871.138 45.0072 900.84 44.3632L900.789 75.3109C900.785 79.1915 900.59 88.5164 901.172 91.9696L901.497 92.575C915.984 92.5649 933.352 92.9778 947.611 92.3779C947.978 119.396 947.634 146.857 947.695 173.919L947.728 174.294L994.099 174.332C993.705 203.455 993.383 237.334 994.119 266.204L993.985 268.333C993.978 282.759 993.687 298.312 994.13 312.649L993.977 314.757L994.041 399.966C980.518 399.919 961.565 400.528 948.553 399.86C947.25 400.936 947.785 400.257 947.297 402.241C947.86 404.72 947.751 407.261 947.784 409.787C947.921 420.418 947.597 431.054 947.756 441.685C933.211 441.542 915.831 441.094 901.461 441.765L901.144 442.5C900.609 456.958 900.995 472.97 900.984 487.555C886.33 487.787 868.649 486.979 854.549 487.63L854.204 487.87C853.837 500.845 853.721 518.637 854.152 531.607L809.487 531.547L809.255 531.933L809.419 577.787L775.927 577.759C773.687 577.764 762.758 577.95 761.068 577.691L760.582 578.111C761.208 592.837 760.453 609.073 760.729 623.992L716.612 623.968L716.402 624.345L716.433 656.148L684.154 656.116L851.67 759.357L900.961 789.722C907.126 793.564 921.204 802.946 926.772 805.661C919.874 812.761 905.66 826.577 899.763 833.907C899.913 837.892 899.947 841.643 899.951 845.621C895.271 848.576 890.633 851.533 885.864 854.344L702.663 740.631C680.485 727.051 658.276 713.565 635.985 700.175C633.31 698.569 630.717 696.759 627.89 695.434C628.115 699.176 627.899 709.938 628.372 712.407L627.962 713.648L627.981 756.631C613.318 756.776 594.453 757.186 579.954 756.587L578.851 757.861C579.386 771.373 578.897 786.157 579.017 799.792C563.861 799.775 547.282 799.433 532.238 799.963L531.828 800.024L531.686 800.559C532.006 814.396 531.746 829.225 531.756 843.14L483 843.162C483.334 839.707 483.072 831.791 483.052 827.99L483.002 800.217L481.102 799.859C470.758 799.312 459.796 800.065 449.413 799.758C445.51 799.642 441.067 799.714 437.174 800.013C437.942 788.859 437.195 768.994 437.197 757.108C436.042 756.807 434.612 756.714 433.399 756.577C430.393 756.92 422.681 756.738 419.343 756.735L391.504 756.69C391.632 750.885 392 716.581 391 713.121C377.616 713.77 360.212 713.047 346.245 713.283C346.509 697.812 346.24 681.575 346.226 666.043L345.709 665.889L297.375 665.902C297.592 652.129 297.393 637.837 297.392 624.022L296.512 624.02C282.755 623.543 266.793 623.947 252.868 623.961C253.229 609.132 252.908 592.938 252.945 578.004L252.43 577.837C237.698 577.251 220.917 577.874 205.898 577.678L203.474 577.929L202.103 577.773C200.614 574.674 201.285 537.08 201.636 531.776L200.995 531.502C184.814 531.941 166.787 531.53 150.438 531.622C150.451 517.01 150.524 502.354 150.337 487.747L149.832 487.61L103.026 487.615C103.326 472.675 103.026 456.719 102.991 441.715C103.172 428.013 102.998 413.919 102.997 400.185C100.501 399.753 87.1073 399.784 83.8874 399.865C74.5692 400.098 63.1229 399.475 54.005 400.164C53.929 387.399 54.2847 373.204 53.7139 360.567L53.4423 360.134C38.2746 360.261 23.0052 359.953 7.84819 360.291C8.39105 346.086 7.8777 328.294 7.89002 313.723L7.90093 220.974L7.94326 174.363L53.8777 174.287C54.614 163.969 54.0942 145.604 53.9407 134.749L54.0084 132.631C54.0786 119.989 54.4358 104.877 53.7794 92.447C67.6174 92.9876 88.0533 92.794 101.992 92.4171L103.161 91.9732L103.072 44.3961C136.367 44.8836 170.057 44.1712 203.415 44.5068L204.645 43.7634C203.955 40.1815 204.208 4.8151 204.517 0Z"/><path fill="white" d="M204.517 0L346.413 0C346.939 4.3898 346.657 10.1455 346.702 14.6786C346.796 24.3735 346.493 34.2042 346.763 43.8957L347.243 44.4842L437.531 44.419L437.567 74.4708C437.561 79.7241 437.335 87.0799 437.906 92.0853L438.115 92.5709C452.698 92.5563 468.962 92.8917 483.411 92.3542C483.531 105.532 483.201 119.878 483.609 132.92L483.872 133.502C498.776 133.415 515.786 133.881 530.48 133.308L531.414 132.867C530.799 121.109 531.286 104.595 531.262 92.5624C546.778 92.2077 562.565 92.8639 578.166 92.4023L578.785 91.7262C577.908 77.9101 579.052 59.2164 578.575 44.4376L627 44.3853L627.59 43.9633C627.428 41.8366 627.469 39.6989 627.48 37.5671C627.547 25.2763 627.31 12.9736 627.567 0.68496C641.32 0.199046 655.633 0.906221 669.48 0.492799L671.845 0.699429L699.706 0.598165C703.9 0.60495 711.064 0.840545 715.073 0.482893L717.024 0.69874L759.367 0.556384L761.554 0.58856C767.641 0.631496 805.074 1.08923 808.478 0L809.214 0C809.184 13.5477 808.713 30.5099 809.354 43.9351L809.657 44.4957C839.525 44.4595 871.138 45.0072 900.84 44.3632L900.789 75.3109C900.785 79.1915 900.59 88.5164 901.172 91.9696L901.497 92.575C915.984 92.5649 933.352 92.9778 947.611 92.3779C947.978 119.396 947.634 146.857 947.695 173.919L947.728 174.294L994.099 174.332C993.705 203.455 993.383 237.334 994.119 266.204L993.985 268.333C993.978 282.759 993.687 298.312 994.13 312.649L993.977 314.757L994.041 399.966C980.518 399.919 961.565 400.528 948.553 399.86C947.25 400.936 947.785 400.257 947.297 402.241C947.86 404.72 947.751 407.261 947.784 409.787C947.921 420.418 947.597 431.054 947.756 441.685C933.211 441.542 915.831 441.094 901.461 441.765L901.144 442.5C900.609 456.958 900.995 472.97 900.984 487.555C886.33 487.787 868.649 486.979 854.549 487.63L854.204 487.87L850.993 487.598L850.953 487.412C842.29 486.756 828.531 487.208 819.337 487.206L760.715 487.173L760.623 486.635C761.006 473.962 761.048 454.982 760.562 442.41L760.529 440.276C761.189 428.501 760.716 412.517 760.731 400.448C758.704 398.809 722.477 400.041 716.489 399.552C715.362 393.316 717.658 362.29 715.46 359.707C701.218 360.053 686.097 359.653 671.696 359.824L669.409 359.847C657.214 359.225 640.511 359.751 628.137 359.799C626.936 353.114 629.248 315.907 627.267 313.398C626.407 310.03 626.653 274.431 626.617 268.434C611.436 268.222 594.047 269.015 579.13 268.021L578.196 266.918C563.869 267.431 546.454 266.944 531.862 267.043C530.832 260.394 533.305 223.44 530.882 220.59C516.514 220.874 498.276 220.948 483.992 220.507L482.832 221.597C469.408 222.312 452.277 222.017 438.573 221.877L438.573 267.079L436.451 267.109C436.195 252.24 436.332 236.951 436.287 222.048C422.579 221.129 406.629 222.483 392.125 221.574L391.074 220.566C377.977 221.162 360.285 220.589 346.792 220.695C345.993 213.675 348.001 176.774 345.786 174.244C344.977 170.77 345.289 140.333 345.29 134.737L314.388 134.801C310.702 134.807 301.059 135.028 297.857 134.271C297.102 133.692 296.529 133.691 295.541 133.45C282.66 132.897 266.402 133.334 253.251 133.427C252.918 130.992 253.137 124.017 253.118 121.291C253.049 111.794 253.384 102.25 252.949 92.7541C238.805 92.4963 224.092 92.6993 209.904 92.6988L198.789 92.6914C182.871 92.6939 166.328 92.4594 150.463 92.7518L150.424 118.505C150.434 122.101 150.661 130.176 150.167 133.313C148.795 133.806 148.174 133.614 146.736 133.453C132.983 133.001 118.685 133.588 104.793 133.254L103.469 133.908C102.202 138.297 103.523 166.89 102.893 173.947C101.524 174.631 59.1097 174.262 53.8777 174.287C54.614 163.969 54.0942 145.604 53.9407 134.749L54.0084 132.631C54.0786 119.989 54.4358 104.877 53.7794 92.447C67.6174 92.9876 88.0533 92.794 101.992 92.4171L103.161 91.9732L103.072 44.3961C136.367 44.8836 170.057 44.1712 203.415 44.5068L204.645 43.7634C203.955 40.1815 204.208 4.8151 204.517 0Z"/><path fill="#9B9B9B" d="M947.359 261.362L947.911 261.239L947.968 266.236C956.575 266.552 965.723 266.455 974.362 266.432C980.434 266.416 988.172 266.644 994.119 266.204L993.985 268.333C993.978 282.759 993.687 298.312 994.13 312.649L993.977 314.757L994.041 399.966C980.518 399.919 961.565 400.528 948.553 399.86C947.25 400.936 947.785 400.257 947.297 402.241C947.86 404.72 947.751 407.261 947.784 409.787C947.921 420.418 947.597 431.054 947.756 441.685C933.211 441.542 915.831 441.094 901.461 441.765L901.144 442.5C900.609 456.958 900.995 472.97 900.984 487.555C886.33 487.787 868.649 486.979 854.549 487.63L854.204 487.87L850.993 487.598L850.953 487.412C852.093 487.344 852.59 487.203 853.696 486.959C854.233 484.909 853.995 466.817 854.009 463.122C854.087 442.209 853.787 421.218 854.078 400.301C857.813 398.664 892.607 400.534 900.509 399.576C901.895 388.891 899.625 370.929 901.047 360.293L902.106 359.713C916.612 360.162 932.345 359.851 946.94 359.828C947.95 357.505 947.288 271.557 947.359 261.362Z"/><path fill="#555" d="M947.941 314.801C962.366 314.363 979.498 314.575 993.977 314.757L994.041 399.966C980.518 399.919 961.565 400.528 948.553 399.86C948.251 393.711 948.665 385.428 948.506 379.016C948.413 375.24 948.3 363.585 948.772 360.625L948.546 360.195L949.133 359.391L948.612 359.152C947.52 356.666 948.015 320.794 947.941 314.801Z"/><path fill="#9B9B9B" d="M949.133 359.391C955.208 359.319 990.601 358.744 993.42 359.92C989.126 361.371 955.141 360.868 948.772 360.625L948.546 360.195L949.133 359.391Z"/><path fill="#555" d="M854.561 442.489C863.049 442.202 872.274 442.401 880.815 442.338C886.84 442.294 895.281 442.072 901.144 442.5C900.609 456.958 900.995 472.97 900.984 487.555C886.33 487.787 868.649 486.979 854.549 487.63C853.988 474.121 854.575 456.459 854.561 442.489Z"/><path fill="#555" d="M947.957 268.351C956.004 268.165 964.374 268.331 972.466 268.246C979.155 268.175 987.406 267.914 993.985 268.333C993.978 282.759 993.687 298.312 994.13 312.649C980.826 312.89 960.649 313.259 947.849 312.546C948.445 298.782 947.993 282.313 947.957 268.351Z"/><path fill="#555" d="M901.571 400.676C912.601 400.86 923.667 400.733 934.695 400.797C936.974 400.81 944.879 400.496 946.515 400.871L946.975 402.09L947.297 402.241C947.86 404.72 947.751 407.261 947.784 409.787C947.921 420.418 947.597 431.054 947.756 441.685C933.211 441.542 915.831 441.094 901.461 441.765L901.327 441.207C902.246 438.277 901.737 405.899 901.571 400.676Z"/><path fill="#555" d="M901.047 360.293C915.111 360.939 932.151 360.468 946.495 360.443C946.271 372.825 946.156 386.513 946.429 398.876C931.65 398.87 916.053 398.635 901.349 399.166C901.377 393.971 901.808 363.153 901.047 360.293Z"/><path fill="#555" d="M854.54 400.435C869.597 400.318 885.09 400.631 900.059 400.351C899.762 411.213 899.845 422.116 899.867 432.983C899.871 434.939 899.909 437.06 900.142 439.005L899.911 439.567C898.12 440.958 859.558 440.28 854.476 440.265C854.916 427.771 854.628 413.076 854.54 400.435Z"/><path fill="#F43349" d="M204.517 0L346.413 0C346.939 4.3898 346.657 10.1455 346.702 14.6786C346.796 24.3735 346.493 34.2042 346.763 43.8957C330.956 43.3402 314.587 43.6917 298.728 43.5813C298.702 30.0781 298.284 14.5108 298.684 1.1778L298.061 0.67362C297.38 0.969802 296.759 1.05616 296.731 1.66803C296.223 12.8503 296.426 33.1004 296.434 43.5334C282.683 43.7152 267.662 43.8131 253.888 43.5666C253.891 38.5751 254.309 1.74098 253.102 0.489478L253.491 1.34155L252.926 0.767285C251.145 6.87948 251.966 35.8312 251.97 43.5518L221.561 43.5952C218.436 43.5886 208.157 43.4254 205.305 43.838L204.645 43.7634C203.955 40.1815 204.208 4.8151 204.517 0Z"/><path fill="#F43349" d="M103.072 44.3961C136.367 44.8836 170.057 44.1712 203.415 44.5068L203.325 75.4247C203.33 79.1894 203.565 88.5455 203.125 91.8186C201.477 92.395 200.722 92.2763 198.939 92.2818C184.153 91.7431 166.598 92.2091 151.599 92.2187C151.776 80.8087 151.968 58.0259 151.35 45.5008C151.33 45.0949 150.709 45.0026 150.233 44.8364C148.809 46.5415 149.464 86.0206 149.558 91.9017C135.42 91.6987 117.151 91.3472 103.161 91.9732L103.072 44.3961Z"/><path fill="#555" d="M947.728 174.294L994.099 174.332C993.705 203.455 993.383 237.334 994.119 266.204C988.172 266.644 980.434 266.416 974.362 266.432C965.723 266.455 956.575 266.552 947.968 266.236L947.911 261.239L947.359 261.362L947.318 206.868C947.315 197.858 946.886 183.32 947.66 174.895L947.728 174.294Z"/><path fill="#9B9B9B" d="M947.359 261.362L947.318 206.868C947.315 197.858 946.886 183.32 947.66 174.895C948.028 179.772 948.075 185.122 947.96 190.04C947.728 199.995 948.271 210.274 947.779 220.192C954.889 220.184 988.95 219.544 993.414 221.062C990.515 222.2 953.64 221.67 947.887 221.664L947.911 261.239L947.359 261.362Z"/><path fill="#F43349" d="M809.657 44.4957C839.525 44.4595 871.138 45.0072 900.84 44.3632L900.789 75.3109C900.785 79.1915 900.59 88.5164 901.172 91.9696C887.854 91.2247 868.794 91.7844 854.982 91.783C854.973 82.7402 855.706 51.5798 853.987 45.2445L853.516 45.1654C852.908 48.5045 853.036 58.4811 853.036 62.3334L853.056 91.7917L810.109 91.7901L810.191 63.6333C810.198 58.4583 810.418 49.3306 809.657 44.4957Z"/><path fill="#F43349" d="M347.243 44.4842L437.531 44.419L437.567 74.4708C437.561 79.7241 437.335 87.0799 437.906 92.0853C433.039 91.645 426.114 91.812 421.095 91.8078L392.801 91.8048C392.777 83.8252 393.513 49.8471 391.544 45.1444L391.069 45.5688C390.471 50.0337 390.664 58.3116 390.659 63.0633L390.658 91.788L347.659 91.8009L347.685 62.3938C347.686 57.2724 347.88 49.3838 347.243 44.4842Z"/><path fill="#F43349" d="M901.497 92.575C915.984 92.5649 933.352 92.9778 947.611 92.3779C947.978 119.396 947.634 146.857 947.695 173.919C944.146 172.995 907.091 173.379 901.837 173.382L901.834 134.727C909.785 134.723 943.564 135.636 948.168 133.415C943.843 131.924 908.924 132.677 901.835 132.645C901.845 121.177 902.349 103.622 901.497 92.575Z"/><path fill="#F43349" d="M578.575 44.4376L627 44.3853C626.507 58.7005 626.374 77.3825 626.762 91.7877C611.346 91.8016 594.046 92.2126 578.785 91.7262C577.908 77.9101 579.052 59.2164 578.575 44.4376Z"/><path fill="#F43349" d="M760.562 442.41L808.079 442.467C808.111 457.026 807.924 472.189 808.237 486.698C794.403 486.708 773.942 487.37 760.623 486.635C761.006 473.962 761.048 454.982 760.562 442.41Z"/><path fill="#F43349" d="M484.334 175.698L530.359 175.703C530.363 181.097 530.029 217.414 530.882 220.59C516.514 220.874 498.276 220.948 483.992 220.507C484.603 216.306 484.413 208.228 484.407 203.753L484.334 175.698Z"/><path fill="#F43349" d="M532.062 221.688C546.592 222.067 563.803 221.286 577.704 221.991L577.689 249.413C577.687 253.595 577.558 262.893 578.196 266.918C563.869 267.431 546.454 266.944 531.862 267.043C532.175 264.4 532.231 261.686 532.195 259.024C532.031 246.627 532.409 234.073 532.062 221.688Z"/><path fill="#F43349" d="M808.478 0L809.214 0C809.184 13.5477 808.713 30.5099 809.354 43.9351C806.273 42.9168 768.126 43.5968 761.56 43.5608C761.678 32.4566 761.533 21.3449 761.421 10.241C761.389 7.01965 761.304 3.80342 761.554 0.58856C767.641 0.631496 805.074 1.08923 808.478 0Z"/><path fill="#F43349" d="M901.841 314.772C916.394 314.767 932.368 314.422 946.802 314.818L946.85 343.946C946.835 346.818 946.569 357.49 946.94 359.828C932.345 359.851 916.612 360.162 902.106 359.713C901.532 358.837 901.838 319.453 901.841 314.772Z"/><path fill="#F43349" d="M347.039 175.477C361.05 176.036 376.48 175.614 390.628 175.705C390.627 182.519 389.691 215.356 391.074 220.566C377.977 221.162 360.285 220.589 346.792 220.695C347.388 215.874 347.154 207.944 347.141 202.874L347.039 175.477Z"/><path fill="#F43349" d="M671.699 314.801C685.977 314.784 700.703 314.575 714.943 314.783L715.044 343.294C715.044 346.929 714.918 356.412 715.46 359.707C701.218 360.053 686.097 359.653 671.696 359.824L671.699 314.801Z"/><path fill="#F43349" d="M53.7794 92.447C67.6174 92.9876 88.0533 92.794 101.992 92.4171C102.344 105.817 101.765 119.36 102.221 132.765C86.6235 132.675 69.4469 133.068 54.0084 132.631C54.0786 119.989 54.4358 104.877 53.7794 92.447Z"/><path fill="#F43349" d="M53.9407 134.749L102.578 134.723L102.483 159.372C102.475 162.697 102.353 170.859 102.893 173.947C101.524 174.631 59.1097 174.262 53.8777 174.287C54.614 163.969 54.0942 145.604 53.9407 134.749Z"/><path fill="#F43349" d="M671.845 0.699429L699.706 0.598165C703.9 0.60495 711.064 0.840545 715.073 0.482893C715.424 2.66066 715.221 12.502 715.187 15.2059C715.069 24.7393 715.014 34.0121 715.169 43.5568C700.752 43.7571 686.129 43.6213 671.708 43.5668C671.802 34.1253 671.549 24.5659 671.593 15.1196C671.613 10.7808 671.276 4.86365 671.845 0.699429Z"/><path fill="#F43349" d="M531.262 92.5624C546.778 92.2077 562.565 92.8639 578.166 92.4023C577.289 104.662 577.715 120.183 577.755 132.652C562.847 132.704 546.113 132.307 531.414 132.867C530.799 121.109 531.286 104.595 531.262 92.5624Z"/><path fill="#F43349" d="M760.731 400.448C763.619 400.956 766.652 400.838 769.583 400.87C782.402 401.007 795.264 400.677 808.079 400.823L808.135 440.252C792.408 440.268 776.215 440.493 760.529 440.276C761.189 428.501 760.716 412.517 760.731 400.448Z"/><path fill="#F43349" d="M483.872 133.502C498.776 133.415 515.786 133.881 530.48 133.308C530.792 137.48 530.484 143.889 530.447 148.337L530.373 173.374L484.334 173.37C484.364 165.733 484.85 139.381 483.872 133.502Z"/><path fill="#F43349" d="M628.387 314.586C642.018 315.051 655.714 314.555 669.303 314.8L669.409 359.847C657.214 359.225 640.511 359.751 628.137 359.799C628.728 355.671 628.541 346.331 628.501 341.805C628.422 332.816 628.568 323.548 628.387 314.586Z"/><path fill="#F43349" d="M104.014 93.7129L150.001 93.7516L149.977 119.23C149.991 121.73 150.21 130.852 149.82 132.841C148.329 133.333 148.227 133.315 146.736 133.453C132.983 133.001 118.685 133.588 104.793 133.254L103.957 132.221C104.179 128.585 104.052 124.484 104.02 120.808C104.493 112.405 104.162 102.161 104.014 93.7129Z"/><path fill="#F43349" d="M717.024 0.69874L759.367 0.556384L759.271 43.5504C745.336 43.6405 731.081 43.7711 717.155 43.564C717.224 29.7352 716.676 14.2173 717.024 0.69874Z"/><path fill="#F43349" d="M438.115 92.5709C452.698 92.5563 468.962 92.8917 483.411 92.3542C483.531 105.532 483.201 119.878 483.609 132.92C470.106 132.19 452.255 132.683 438.545 132.666L438.604 107.677C438.606 103.885 438.759 96.0511 438.115 92.5709Z"/><path fill="#F43349" d="M627.567 0.68496C641.32 0.199046 655.633 0.906221 669.48 0.492799L669.356 43.5388C661.899 43.632 632.651 42.6039 627.59 43.9633C627.428 41.8366 627.469 39.6989 627.48 37.5671C627.547 25.2763 627.31 12.9736 627.567 0.68496Z"/><path fill="#F43349" d="M854.984 360.956C869.742 361.184 885.54 361.183 900.285 360.812L900.253 386.216C900.252 389.284 900.095 396.876 900.509 399.576C896.089 399.011 889.15 399.332 884.442 399.299C874.524 399.231 864.562 399.412 854.631 399.281C855.562 391.573 855.003 369.506 854.984 360.956Z"/><path fill="#F43349" d="M253.508 93.7359L296.422 93.841C296.433 98.1135 296.795 132.124 296.156 133.146L295.541 133.45C282.66 132.897 266.402 133.334 253.251 133.427C254.173 125.612 253.537 102.302 253.508 93.7359Z"/><path fill="#F43349" d="M716.751 360.803C729.801 361.152 746.528 360.437 758.938 361.168C759.439 363.289 759.289 365.447 759.315 367.621C759.443 378.149 759.141 388.724 759.331 399.246L731.289 399.198C727.864 399.195 719.427 399.023 716.489 399.552C717.372 392.45 716.872 368.634 716.751 360.803Z"/><path fill="#ED859B" d="M103.957 132.221L103.246 132.128C102.49 131.169 102.373 127.425 102.483 126.123C102.752 122.94 102.092 122.686 104.02 120.808C104.052 124.484 104.179 128.585 103.957 132.221Z"/><path fill="#F43349" d="M341.776 45.6412C343.386 45.5845 343.625 45.5113 345.187 46.0856C345.748 47.5657 345.31 87.1335 345.302 91.7971L302.612 91.813C300.865 91.8666 300.817 91.883 299.124 91.5131C297.945 87.9925 298.721 51.9331 298.742 45.7752C313.009 45.7866 327.533 45.9279 341.776 45.6412Z"/><path fill="#F43349" d="M804.702 45.6414L808.195 45.6383L808.161 91.8052L765.733 91.8092C763.915 91.8738 763.594 91.9697 761.906 91.4291C761.307 88.8312 761.519 79.3413 761.522 76.0865L761.564 45.8066C775.939 45.7075 790.322 45.9376 804.702 45.6414Z"/><path fill="#F43349" d="M205.576 45.7112L210.32 45.6866L251.919 45.791C251.909 58.8226 251.287 79.9048 252.249 92.2226C238.841 92.2139 222.956 91.7826 209.753 92.285C208.359 92.2475 206.916 92.4345 205.894 91.6401C205.368 87.0289 205.631 79.5209 205.641 74.5992L205.576 45.7112Z"/><path fill="#F43349" d="M579.883 221.813C595.341 222.263 611.143 221.556 626.625 222.008C626.79 236.586 626.683 251.299 626.674 265.888C624.538 266.634 584.796 266.306 579.706 266.441C580.041 251.77 579.863 236.527 579.883 221.813Z"/><path fill="#F43349" d="M579.89 175.692L626.614 175.711L626.65 219.982C612.112 220.451 594.502 220.099 579.862 219.982C580.102 205.464 579.855 190.288 579.89 175.692Z"/><path fill="#F43349" d="M761.594 175.702L808.081 175.705L808.163 220.031L761.557 219.974L761.594 175.702Z"/><path fill="#F43349" d="M799.669 221.893C802.412 221.833 805.325 221.928 808.081 221.976L808.132 266.172L768.921 266.212L761.572 266.166L761.578 221.886L799.669 221.893Z"/><path fill="#F43349" d="M761.562 314.805L808.079 314.793L808.165 359.139C792.9 359.245 776.78 359.396 761.565 359.054L761.562 314.805Z"/><path fill="#F43349" d="M761.629 268.443L808.076 268.426L808.155 312.522L761.56 312.526L761.629 268.443Z"/><path fill="#F43349" d="M901.844 175.688L947.009 175.599C946.619 189.944 946.854 205.621 946.83 220.043L901.834 219.989L901.844 175.688Z"/><path fill="#F43349" d="M532.708 175.704L577.717 175.703L577.748 219.991C563.108 220.346 547.332 220.075 532.577 220.141C533.072 206.101 532.696 189.91 532.708 175.704Z"/><path fill="#F43349" d="M671.714 45.7859L714.952 45.7824C715.273 60.885 715.023 76.5817 715.164 91.7664C701.324 92.1662 685.684 91.7999 671.7 91.7969L671.714 45.7859Z"/><path fill="#F43349" d="M902.035 221.864C916.971 222.067 931.883 221.742 946.814 221.863L946.768 266.236L901.84 266.165L901.782 237.741C901.776 233.12 901.569 226.245 902.035 221.864Z"/><path fill="#F43349" d="M854.998 175.685L899.782 175.701L899.812 219.987C885.591 220.355 869.238 220.121 854.977 219.974L854.998 175.685Z"/><path fill="#F43349" d="M854.995 314.784L899.77 314.795C899.769 329.572 899.682 344.445 899.947 359.212C885.141 359.214 869.748 359.422 854.989 359.056L854.995 314.784Z"/><path fill="#F43349" d="M901.856 268.448C916.712 268.408 931.964 268.193 946.789 268.44L946.795 312.59L901.828 312.544L901.856 268.448Z"/><path fill="#F43349" d="M854.999 268.378L899.766 268.437L899.821 312.487C885.622 312.962 869.282 312.576 854.977 312.515L854.999 268.378Z"/><path fill="#F43349" d="M855.027 221.805C869.823 222.244 884.932 221.616 899.786 222.003L899.786 266.127C885.678 266.554 869.174 266.245 854.994 266.167L855.027 221.805Z"/><path fill="#F43349" d="M253.923 45.7536L296.422 45.8032L296.432 91.7935C282.253 91.7874 267.997 91.7029 253.827 91.9706C254.188 76.9529 253.911 60.8554 253.923 45.7536Z"/><path fill="#F43349" d="M717.193 45.7627L759.23 45.7926L759.275 91.8016L717.149 91.779C717.494 76.8662 717.19 60.7705 717.193 45.7627Z"/><path fill="#F43349" d="M438.569 175.707L482.048 175.698C482.172 190.523 482.015 205.275 482.351 220.113L438.548 219.982L438.569 175.707Z"/><path fill="#F43349" d="M392.816 175.685L436.235 175.697C436.572 190.179 436.356 205.473 436.369 220.021L392.659 220.137C393.078 205.851 392.752 190.108 392.816 175.685Z"/><path fill="#F43349" d="M671.726 175.701L714.957 175.698L715.158 220.025L671.699 219.996L671.726 175.701Z"/><path fill="#F43349" d="M671.901 221.859C686.18 222.166 700.668 221.627 714.964 221.966C715.177 236.538 715.078 251.381 715.094 265.971C713.25 266.355 703.593 266.278 701.285 266.274L671.712 266.169L671.639 238.257C671.631 233.398 671.424 226.478 671.901 221.859Z"/><path fill="#F43349" d="M671.771 268.448L714.966 268.418L715.143 312.472C701.975 313.045 685.152 312.561 671.71 312.528C671.687 297.875 671.565 283.088 671.771 268.448Z"/><path fill="#F43349" d="M810.192 442.448L853.414 442.469L853.463 486.806C839.551 486.371 824.115 486.679 810.087 486.662L810.192 442.448Z"/><path fill="#F43349" d="M810.151 314.816L853 314.789L853.051 359.143C838.771 359.161 824.412 359.307 810.141 359.089L810.151 314.816Z"/><path fill="#F43349" d="M810.167 175.696L853.002 175.702L853.039 220.017L810.121 219.971C810.318 205.343 810.158 190.353 810.167 175.696Z"/><path fill="#F43349" d="M810.199 221.845C824.388 222.171 838.799 221.613 853.003 221.98L853.025 266.194L810.137 266.174C810.347 251.532 810.11 236.543 810.199 221.845Z"/><path fill="#F43349" d="M810.17 268.42L853.004 268.421L853.063 312.516L810.129 312.519C810.315 297.94 810.161 283.026 810.17 268.42Z"/><path fill="#F43349" d="M717.205 175.692L759.238 175.696L759.28 220.027L717.15 219.978C717.442 205.515 717.197 190.222 717.205 175.692Z"/><path fill="#F43349" d="M628.538 45.5412C641.697 46.027 656.041 45.782 669.291 45.7935C669.564 60.9062 669.348 76.6379 669.352 91.7986L628.854 91.8007C628.866 79.074 629.506 57.384 628.538 45.5412Z"/><path fill="#F43349" d="M717.207 314.783L759.232 314.792L759.242 359.121C745.308 359.363 730.931 359.216 716.962 359.251C717.549 345.115 717.204 329.06 717.207 314.783Z"/><path fill="#F43349" d="M717.213 268.4L759.244 268.429L759.268 312.532L717.17 312.518C717.387 297.981 717.203 282.975 717.213 268.4Z"/><path fill="#F43349" d="M717.246 221.804C731.12 222.248 745.333 221.567 759.237 222.028L759.259 266.178L717.2 266.168L717.246 221.804Z"/><path fill="#F43349" d="M579.656 93.6753C594.95 94.0822 611.258 93.8142 626.627 93.8193L626.725 132.504C623.098 132.945 614.573 132.75 610.527 132.744L579.89 132.654C579.886 119.638 579.888 106.689 579.656 93.6753Z"/><path fill="#F43349" d="M761.547 93.8127L808.085 93.815L808.166 132.657L761.566 132.656L761.547 93.8127Z"/><path fill="#F43349" d="M298.735 93.7848L345.287 93.8427L345.316 132.656L298.594 132.78C299.074 120.59 298.724 106.146 298.735 93.7848Z"/><path fill="#F43349" d="M579.828 134.72L626.627 134.741L626.677 173.367L579.927 173.365L579.828 134.72Z"/><path fill="#F43349" d="M761.546 134.74L808.079 134.734L808.156 173.398L761.577 173.371L761.546 134.74Z"/><path fill="#F43349" d="M628.948 221.849C642.295 222.142 656.028 221.557 669.315 222.041L669.321 266.159C656.211 266.478 642.032 266.217 628.871 266.182C628.847 251.587 628.613 236.396 628.948 221.849Z"/><path fill="#F43349" d="M628.886 175.692L669.288 175.699C669.527 190.309 669.35 205.374 669.358 220.019L628.865 220.008L628.886 175.692Z"/><path fill="#F43349" d="M628.891 268.435L669.307 268.421L669.348 312.523C655.935 312.535 642.162 312.403 628.788 312.819L628.891 268.435Z"/><path fill="#F43349" d="M798.774 361.019C801.831 360.958 805.001 361.072 808.067 361.139L808.156 398.813L769.965 398.825L761.311 398.935C762.089 388.501 761.601 371.818 761.598 361.066L798.774 361.019Z"/><path fill="#F43349" d="M855.004 93.7829L899.921 93.7689C899.666 106.579 899.809 119.777 899.805 132.617C885.792 133.009 869.004 132.828 854.977 132.602L855.004 93.7829Z"/><path fill="#F43349" d="M532.504 134.604C547.264 134.976 562.898 134.732 577.723 134.737L577.741 173.376L532.694 173.373C532.702 160.54 532.838 147.404 532.504 134.604Z"/><path fill="#F43349" d="M854.987 134.722L899.784 134.736L899.814 173.361L854.988 173.354L854.987 134.722Z"/><path fill="#F43349" d="M810.156 400.827L853.429 400.736L853.394 440.265L810.162 440.238L810.156 400.827Z"/><path fill="#F43349" d="M392.779 93.7824L436.52 93.7621C436.225 106.612 436.349 119.779 436.345 132.657L392.836 132.658L392.779 93.7824Z"/><path fill="#F43349" d="M671.701 93.8072L714.958 93.8109C715.163 106.662 715.06 119.743 715.152 132.631C700.718 132.804 686.159 132.689 671.715 132.665L671.701 93.8072Z"/><path fill="#F43349" d="M438.537 134.741L482.334 134.681C482.028 147.381 482.09 160.394 482.19 173.1C476.341 174.466 446.593 173.406 438.566 173.378L438.537 134.741Z"/><path fill="#F43349" d="M392.793 134.727L436.242 134.736C436.569 147.287 436.342 160.748 436.35 173.385L392.844 173.386L392.793 134.727Z"/><path fill="#F43349" d="M671.705 134.734L714.955 134.736C715.158 147.515 715.057 160.537 715.127 173.348C701.024 173.664 685.9 173.382 671.717 173.376L671.705 134.734Z"/><path fill="#F43349" d="M347.671 93.8014L390.636 93.8233L390.639 132.633C376.403 132.842 361.915 132.695 347.659 132.655L347.671 93.8014Z"/><path fill="#F43349" d="M347.665 134.744L390.632 134.739L390.649 173.384C376.349 173.376 361.87 173.256 347.589 173.583C347.818 160.82 347.65 147.548 347.665 134.744Z"/><path fill="#F43349" d="M810.155 93.7925L852.999 93.8108L853.036 132.641C838.796 132.822 824.355 132.709 810.11 132.647C810.412 120.07 810.153 106.452 810.155 93.7925Z"/><path fill="#F43349" d="M810.147 134.728L853.003 134.73L853.052 173.377L810.145 173.363L810.147 134.728Z"/><path fill="#F43349" d="M717.207 93.7841L759.233 93.8245L759.273 132.659C745.255 132.699 731.187 132.803 717.174 132.612C717.316 119.752 717.198 106.663 717.207 93.7841Z"/><path fill="#F43349" d="M717.199 134.721L759.235 134.731L759.267 173.379L717.194 173.358L717.199 134.721Z"/><path fill="#F43349" d="M843.463 361.022C846.613 360.958 849.841 361.066 852.997 361.134C852.997 373.708 852.939 386.301 853.191 398.872C841.863 398.678 830.115 398.823 818.754 398.812L810.105 398.793C810.412 386.6 810.151 373.311 810.153 361.032L843.463 361.022Z"/><path fill="#F43349" d="M628.874 93.7912L669.303 93.834C669.457 106.7 669.342 119.787 669.349 132.67L628.865 132.68L628.874 93.7912Z"/><path fill="#F43349" d="M628.87 134.727L669.305 134.736C669.458 147.528 669.337 160.549 669.339 173.358C656.273 173.666 642.039 173.38 628.878 173.381L628.87 134.727Z"/><path fill="#BBB" d="M519.245 563.949C527.62 561.42 533.276 560.326 537.932 569.117L539.345 567.578C541.807 567.631 617.801 616.144 628.218 621.726C627.555 608.005 628.13 591.785 627.939 577.787C630.585 578.253 633.271 578.169 635.948 578.197C647.091 578.313 658.237 578.053 669.38 578.149C669.379 586.002 669.593 612.753 669.103 622.12C668.869 622.383 668.635 622.645 668.401 622.908L667.553 623.181C663.641 622.774 633.34 622.406 630.811 623.172C632.803 625.754 664.142 624.893 669.52 624.452C669.473 628.447 668.8 643.797 670.204 647.629C670.32 647.945 670.732 648.113 671.364 648.451C673.945 650.105 682.643 654.98 684.154 656.116L851.67 759.357L900.961 789.722C907.126 793.564 921.204 802.946 926.772 805.661C919.874 812.761 905.66 826.577 899.763 833.907C899.913 837.892 899.947 841.643 899.951 845.621C895.271 848.576 890.633 851.533 885.864 854.344L702.663 740.631C680.485 727.051 658.276 713.565 635.985 700.175C633.31 698.569 630.717 696.759 627.89 695.434C628.115 699.176 627.899 709.938 628.372 712.407L627.962 713.648L627.981 756.631C613.318 756.776 594.453 757.186 579.954 756.587L579.618 756.172L578.541 756.256L577.999 755.354C577.767 742.188 577.496 726.252 578.151 713.229L579.115 712.238C578.725 701.449 579.273 690.3 579.045 679.47C578.96 675.471 578.945 670.844 579.329 666.913C577.616 662.859 507.998 625.249 500.782 622.09C499.671 613.667 498.107 604.677 496.794 596.235C502.496 587.303 510.293 576.76 516.466 567.921L519.245 563.949Z"/><path fill="#555" d="M519.245 563.949C527.62 561.42 533.276 560.326 537.932 569.117L515.216 596.798L778.402 758.993L857.774 807.871C871.14 816.107 886.834 825.259 899.763 833.907C899.913 837.892 899.947 841.643 899.951 845.621C895.271 848.576 890.633 851.533 885.864 854.344L702.663 740.631C680.485 727.051 658.276 713.565 635.985 700.175C633.31 698.569 630.717 696.759 627.89 695.434C628.115 699.176 627.899 709.938 628.372 712.407L627.962 713.648L627.981 756.631C613.318 756.776 594.453 757.186 579.954 756.587L579.618 756.172L578.541 756.256L577.999 755.354C577.767 742.188 577.496 726.252 578.151 713.229L579.115 712.238C578.725 701.449 579.273 690.3 579.045 679.47C578.96 675.471 578.945 670.844 579.329 666.913C577.616 662.859 507.998 625.249 500.782 622.09C499.671 613.667 498.107 604.677 496.794 596.235C502.496 587.303 510.293 576.76 516.466 567.921L519.245 563.949Z"/><path fill="#555" d="M579.115 712.238L579.764 712.354L580.001 713.724C595.607 713.785 612.405 714.079 627.962 713.648L627.981 756.631C613.318 756.776 594.453 757.186 579.954 756.587L579.618 756.172L578.541 756.256L577.999 755.354C577.767 742.188 577.496 726.252 578.151 713.229L579.115 712.238Z"/><path fill="#979797" d="M579.115 712.238L579.764 712.354L580.001 713.724C578.995 716.629 579.709 749.593 579.618 756.172L578.541 756.256L577.999 755.354C577.767 742.188 577.496 726.252 578.151 713.229L579.115 712.238Z"/><path fill="#555" d="M579.329 666.913C585.329 667.497 613.529 687.444 620.866 690.63C622.444 691.315 626.454 694.176 627.89 695.434C628.115 699.176 627.899 709.938 628.372 712.407L627.962 713.648C612.405 714.079 595.607 713.785 580.001 713.724L579.764 712.354L579.115 712.238C578.725 701.449 579.273 690.3 579.045 679.47C578.96 675.471 578.945 670.844 579.329 666.913Z"/><path fill="#979797" d="M579.764 712.354C594.837 712.106 613.374 711.879 628.372 712.407L627.962 713.648C612.405 714.079 595.607 713.785 580.001 713.724L579.764 712.354Z"/><path fill="#F3E6E6" d="M760.715 487.173L819.337 487.206C828.531 487.208 842.29 486.756 850.953 487.412L850.993 487.598L854.204 487.87C853.837 500.845 853.721 518.637 854.152 531.607L809.487 531.547L809.255 531.933L809.419 577.787L775.927 577.759C773.687 577.764 762.758 577.95 761.068 577.691L760.582 578.111C761.208 592.837 760.453 609.073 760.729 623.992L716.612 623.968L716.402 624.345L716.433 656.148L684.154 656.116C682.643 654.98 673.945 650.105 671.364 648.451C670.732 648.113 670.32 647.945 670.204 647.629C668.8 643.797 669.473 628.447 669.52 624.452C664.142 624.893 632.803 625.754 630.811 623.172C633.34 622.406 663.641 622.774 667.553 623.181L668.401 622.908C668.635 622.645 668.869 622.383 669.103 622.12C669.593 612.753 669.379 586.002 669.38 578.149C658.237 578.053 647.091 578.313 635.948 578.197C633.271 578.169 630.585 578.253 627.939 577.787C629.789 577.45 639.498 577.621 641.807 577.627C651.397 577.654 660.834 577.766 670.44 577.535C670.788 564.341 670.395 551.125 670.494 537.928C670.51 535.762 670.448 533.61 670.702 531.456C683.099 531.567 698.277 531.048 710.198 531.569C712.127 531.472 714.84 531.596 716.356 530.617L716.282 487.483C718.266 487.136 727.65 487.308 730.068 487.313C740.321 487.333 750.447 487.448 760.715 487.173Z"/><path fill="#BBB" d="M670.702 531.456C683.099 531.567 698.277 531.048 710.198 531.569C711.902 531.682 713.706 531.584 715.138 532.287C715.477 536.066 715.477 540.326 715.365 544.13C715.051 554.826 715.577 565.789 715.21 576.461L714.727 577.448L715.267 578.529C715.279 592.617 714.866 609.395 715.429 623.229C707.301 623.273 697.117 622.962 689.169 623.276C686.011 623.49 669.766 623.883 667.553 623.181L668.401 622.908C668.635 622.645 668.869 622.383 669.103 622.12C669.593 612.753 669.379 586.002 669.38 578.149C658.237 578.053 647.091 578.313 635.948 578.197C633.271 578.169 630.585 578.253 627.939 577.787C629.789 577.45 639.498 577.621 641.807 577.627C651.397 577.654 660.834 577.766 670.44 577.535C670.788 564.341 670.395 551.125 670.494 537.928C670.51 535.762 670.448 533.61 670.702 531.456Z"/><path fill="#BBB" d="M670.702 531.456C683.099 531.567 698.277 531.048 710.198 531.569C711.902 531.682 713.706 531.584 715.138 532.287C715.477 536.066 715.477 540.326 715.365 544.13C715.051 554.826 715.577 565.789 715.21 576.461L671.034 576.53L671.081 547.385C671.084 542.948 671.269 535.621 670.702 531.456Z"/><path fill="#D3D3D3" d="M670.44 577.535C670.788 564.341 670.395 551.125 670.494 537.928C670.51 535.762 670.448 533.61 670.702 531.456C671.269 535.621 671.084 542.948 671.081 547.385L671.034 576.53L715.21 576.461L714.727 577.448L715.267 578.529L671.434 578.547C672.153 589.455 672.045 611.578 671.612 622.951C676.723 623.029 684.26 622.909 689.169 623.276C686.011 623.49 669.766 623.883 667.553 623.181L668.401 622.908C668.635 622.645 668.869 622.383 669.103 622.12C669.593 612.753 669.379 586.002 669.38 578.149C658.237 578.053 647.091 578.313 635.948 578.197C633.271 578.169 630.585 578.253 627.939 577.787C629.789 577.45 639.498 577.621 641.807 577.627C651.397 577.654 660.834 577.766 670.44 577.535Z"/><path fill="#555" d="M760.94 531.933C776.51 532.286 794.228 531.253 809.255 531.933L809.419 577.787L775.927 577.759C773.687 577.764 762.758 577.95 761.068 577.691C760.759 575.479 760.983 566.314 760.991 563.325L760.94 531.933Z"/><path fill="#555" d="M716.668 578.108C730.396 578.468 745.359 578.41 759.114 578.126L760.09 579.618L760.582 578.111C761.208 592.837 760.453 609.073 760.729 623.992L716.612 623.968C717.337 611.33 716.688 591.418 716.668 578.108Z"/><path fill="#555" d="M809.635 487.541C823.31 487.751 837.275 487.555 850.993 487.598L854.204 487.87C853.837 500.845 853.721 518.637 854.152 531.607L809.487 531.547C810.213 518.017 809.755 501.281 809.635 487.541Z"/><path fill="#BBB" d="M716.282 487.483C720.334 488.07 728.314 487.87 732.638 487.857L759.407 487.739L759.388 530.352L730.955 530.258C728.055 530.251 718.689 530.105 716.356 530.617L716.282 487.483Z"/><path fill="#555" d="M671.3 624.427C685.763 624.675 701.991 624.671 716.402 624.345L716.433 656.148L684.154 656.116C682.643 654.98 673.945 650.105 671.364 648.451L671.3 624.427Z"/><path fill="#9B9B9B" d="M761.065 487.486C775.435 487.944 793.915 487.802 808.327 487.473L808.53 530.542C793.372 530.544 776.208 530.931 761.208 530.298C761.678 518.035 761.504 499.655 761.065 487.486Z"/><path fill="#BBB" d="M716.813 532.127C730.365 532.549 745.792 532.289 759.44 532.105L759.503 561.201C759.51 563.662 760.159 575.61 758.912 576.73C745.204 576.725 730.444 576.979 716.816 576.571C717.612 563.921 717.146 545.094 716.813 532.127Z"/><path fill="#F3E6E6" d="M150.388 440.911C154.9 442.492 194.444 441.008 202.337 441.389L235.286 441.403C240.265 441.405 247.631 441.176 252.45 441.455C253.4 443.753 252.842 481.474 252.949 487.218C263.236 487.488 273.431 487.324 283.706 487.313C285.786 487.311 295.839 487.14 297.431 487.49L297.356 530.587C298.717 531.47 299.846 531.358 301.487 531.462L298.821 531.929C298.302 532.982 298.436 575.545 299.166 576.727C297.986 577.053 297.29 577.093 296.088 577.132L295.999 577.52L296.543 577.87C293.059 578.813 258.64 578.148 252.945 578.004L252.43 577.837C237.698 577.251 220.917 577.874 205.898 577.678L203.474 577.929L202.103 577.773C200.614 574.674 201.285 537.08 201.636 531.776L200.995 531.502C184.814 531.941 166.787 531.53 150.438 531.622C150.451 517.01 150.524 502.354 150.337 487.747L149.832 487.61L103.026 487.615C103.326 472.675 103.026 456.719 102.991 441.715L103.577 441.64C106.323 439.484 133.186 441.06 138.233 440.608C140.084 440.443 148.307 440.682 150.388 440.911Z"/><path fill="#BBB" d="M150.388 440.911C154.9 442.492 194.444 441.008 202.337 441.389L202.324 441.744C202.587 442.091 202.85 442.437 203.113 442.784C203.64 457.183 203.283 471.849 203.28 486.268C203.257 486.4 203.234 486.532 203.211 486.664L204.041 487.575L200.136 487.776C183.79 487.792 166.614 488.083 150.337 487.747L149.832 487.61L103.026 487.615C103.326 472.675 103.026 456.719 102.991 441.715L103.577 441.64C106.323 439.484 133.186 441.06 138.233 440.608C140.084 440.443 148.307 440.682 150.388 440.911Z"/><path fill="#555" d="M102.991 441.715L103.577 441.64C106.681 441.956 109.715 441.987 112.834 441.968C125.207 441.891 137.636 442.074 150.002 441.793C149.906 446.238 149.182 485.223 149.832 487.61L103.026 487.615C103.326 472.675 103.026 456.719 102.991 441.715Z"/><path fill="#F3E6E6" d="M150.388 440.911C154.9 442.492 194.444 441.008 202.337 441.389L202.324 441.744C186.035 441.997 167.458 442.147 151.188 441.769C151.517 454.964 151.741 473.68 151.239 486.871C168.522 486.562 185.917 486.663 203.211 486.664L204.041 487.575L200.136 487.776C183.79 487.792 166.614 488.083 150.337 487.747L149.832 487.61C149.182 485.223 149.906 446.238 150.002 441.793C137.636 442.074 125.207 441.891 112.834 441.968C109.715 441.987 106.681 441.956 103.577 441.64C106.323 439.484 133.186 441.06 138.233 440.608C140.084 440.443 148.307 440.682 150.388 440.911Z"/><path fill="#555" d="M200.136 487.776L204.041 487.575C204.308 488.319 204.712 489.327 204.891 490.068C204.152 498.632 204.521 508.829 204.408 517.557C204.356 521.541 205.328 527.075 205.023 530.855L205.715 531.73L205.678 561.671C205.674 565.43 205.455 574.276 205.898 577.678L203.474 577.929L202.103 577.773C200.614 574.674 201.285 537.08 201.636 531.776L200.995 531.502C184.814 531.941 166.787 531.53 150.438 531.622C150.451 517.01 150.524 502.354 150.337 487.747C166.614 488.083 183.79 487.792 200.136 487.776Z"/><path fill="#9C9C9C" d="M200.136 487.776L204.041 487.575C204.308 488.319 204.712 489.327 204.891 490.068C204.152 498.632 204.521 508.829 204.408 517.557C204.356 521.541 205.328 527.075 205.023 530.855L205.715 531.73L205.678 561.671C205.674 565.43 205.455 574.276 205.898 577.678L203.474 577.929L202.103 577.773C200.614 574.674 201.285 537.08 201.636 531.776L200.995 531.502L201.055 530.737L202.81 530.242C204.021 528.4 203.601 493.264 203.408 488.715C202.53 487.833 201.686 488.014 200.136 487.776Z"/><path fill="#BBB" d="M202.337 441.389L235.286 441.403C240.265 441.405 247.631 441.176 252.45 441.455L252.362 441.856C252.571 456.76 252.24 471.749 252.426 486.645C249.479 487.095 243.052 486.955 239.757 486.961L215.648 486.888C213.345 486.878 207.182 486.667 205.366 487.225L204.891 490.068C204.712 489.327 204.308 488.319 204.041 487.575L203.211 486.664C203.234 486.532 203.257 486.4 203.28 486.268C203.283 471.849 203.64 457.183 203.113 442.784C202.85 442.437 202.587 442.091 202.324 441.744L202.337 441.389Z"/><path fill="#D3D3D3" d="M202.337 441.389L235.286 441.403C240.265 441.405 247.631 441.176 252.45 441.455L252.362 441.856L205.711 441.888C205.686 456.41 205.933 471.763 205.631 486.212L235.495 486.194C238.531 486.186 250.001 486.004 252.426 486.645C249.479 487.095 243.052 486.955 239.757 486.961L215.648 486.888C213.345 486.878 207.182 486.667 205.366 487.225L204.891 490.068C204.712 489.327 204.308 488.319 204.041 487.575L203.211 486.664C203.234 486.532 203.257 486.4 203.28 486.268C203.283 471.849 203.64 457.183 203.113 442.784C202.85 442.437 202.587 442.091 202.324 441.744L202.337 441.389Z"/><path fill="#555" d="M205.715 531.73C220.889 531.748 237.332 532.072 252.399 531.741C252.392 535.972 252.083 577.007 252.43 577.837C237.698 577.251 220.917 577.874 205.898 577.678C205.455 574.276 205.674 565.43 205.678 561.671L205.715 531.73Z"/><path fill="#BBB" d="M253.455 487.774L281.376 487.857C285.746 487.864 293.354 488.056 297.431 487.49L297.356 530.587C294.816 530.132 285.12 530.269 282.143 530.273L253.701 530.255C254.052 519.067 254.143 498.643 253.455 487.774Z"/><path fill="#BBB" d="M205.523 488.144C220.594 488.366 237.189 488.398 252.207 488.06C252.021 502.078 252.186 516.446 252.19 530.491C237.614 531.036 220.249 530.587 205.457 530.592L205.523 488.144Z"/><path fill="#BBB" d="M253.577 532.158C267.483 532.375 282.72 532.364 296.57 532.059C296.315 544.228 296.701 556.472 296.572 568.649C296.544 571.331 296.667 573.937 296.334 576.604C282.44 577.09 267.635 576.67 253.495 577.034C253.765 562.29 253.563 546.948 253.577 532.158Z"/><path fill="#F3E6E6" d="M346.38 576.189L346.867 577.212C351.332 578.469 376.525 577.245 382.882 577.632C385.058 577.765 389.475 577.327 391.646 577.793L391.608 623.338C393.357 624.347 432.446 623.98 437.502 623.833C437.367 632.995 436.708 710.326 437.775 713.136L435.227 713.604C429.404 713.947 395.241 713.875 391 713.121C377.616 713.77 360.212 713.047 346.245 713.283C346.509 697.812 346.24 681.575 346.226 666.043L345.709 665.889L297.375 665.902C297.592 652.129 297.393 637.837 297.392 624.022L296.512 624.02C282.755 623.543 266.793 623.947 252.868 623.961C253.229 609.132 252.908 592.938 252.945 578.004C258.64 578.148 293.059 578.813 296.543 577.87L295.999 577.52L296.088 577.132C297.29 577.093 297.986 577.053 299.166 576.727C306.61 576.109 342.985 577.529 346.38 576.189Z"/><path fill="#BBB" d="M346.38 576.189L346.867 577.212C351.332 578.469 376.525 577.245 382.882 577.632C385.058 577.765 389.475 577.327 391.646 577.793L391.608 623.338C388.148 622.464 353.987 622.635 349.7 623.264L348.269 623.895C351.124 624.601 359.328 624.182 362.627 624.231C372.057 624.372 381.75 624.051 391.175 624.404C390.314 629.827 390.696 657.334 390.808 664.578C376.932 665.237 362.779 664.454 349.002 665.118C348.818 665.237 347.865 665.517 347.617 665.598C345.898 664.071 348.019 630.574 346.152 624.444C342.267 622.383 329.509 623.705 323.923 623.323L323.407 623.283C315.717 623.162 306.248 623.152 298.637 623.537L298.157 624.023L297.392 624.022L296.512 624.02C282.755 623.543 266.793 623.947 252.868 623.961C253.229 609.132 252.908 592.938 252.945 578.004C258.64 578.148 293.059 578.813 296.543 577.87L295.999 577.52L296.088 577.132C297.29 577.093 297.986 577.053 299.166 576.727C306.61 576.109 342.985 577.529 346.38 576.189Z"/><path fill="#555" d="M252.945 578.004C258.64 578.148 293.059 578.813 296.543 577.87C297.213 583.412 296.815 595.752 296.894 601.713C296.955 606.405 297.126 619.826 296.512 624.02C282.755 623.543 266.793 623.947 252.868 623.961C253.229 609.132 252.908 592.938 252.945 578.004Z"/><path fill="#BBB" d="M347.477 578.117L375.208 578.187C379.512 578.193 387.644 578.399 391.646 577.793L391.608 623.338C388.148 622.464 353.987 622.635 349.7 623.264L348.141 622.784C347.21 621.472 347.637 582.972 347.477 578.117Z"/><path fill="#BBB" d="M347.631 624.762C359.252 624.816 380.479 625.467 391.175 624.404C390.314 629.827 390.696 657.334 390.808 664.578C376.932 665.237 362.779 664.454 349.002 665.118L348.001 664.872C347.142 662.974 347.616 629.489 347.631 624.762Z"/><path fill="#D3D3D3" d="M346.38 576.189L346.867 577.212C351.332 578.469 376.525 577.245 382.882 577.632C385.058 577.765 389.475 577.327 391.646 577.793C387.644 578.399 379.512 578.193 375.208 578.187L347.477 578.117C347.637 582.972 347.21 621.472 348.141 622.784L349.7 623.264L348.269 623.895C351.124 624.601 359.328 624.182 362.627 624.231C372.057 624.372 381.75 624.051 391.175 624.404C380.479 625.467 359.252 624.816 347.631 624.762C347.616 629.489 347.142 662.974 348.001 664.872L349.002 665.118C348.818 665.237 347.865 665.517 347.617 665.598C345.898 664.071 348.019 630.574 346.152 624.444C342.267 622.383 329.509 623.705 323.923 623.323L323.407 623.283C325.065 622.964 341.972 623.017 345.372 622.883C345.221 608.379 345.182 592.924 345.46 578.46C330.09 578.75 314.098 578.527 298.681 578.525C298.251 587.125 298.586 597.018 298.405 605.718C298.327 609.502 298.179 620.207 298.637 623.537L298.157 624.023L297.392 624.022L296.512 624.02C297.126 619.826 296.955 606.405 296.894 601.713C296.815 595.752 297.213 583.412 296.543 577.87L295.999 577.52L296.088 577.132C297.29 577.093 297.986 577.053 299.166 576.727C306.61 576.109 342.985 577.529 346.38 576.189Z"/><path fill="#555" d="M346.226 666.043C356.666 667.053 379.579 666.42 391.103 666.408L391 713.121C377.616 713.77 360.212 713.047 346.245 713.283C346.509 697.812 346.24 681.575 346.226 666.043Z"/><path fill="#555" d="M297.392 624.022L298.157 624.023C301.983 624.743 311.728 624.537 315.986 624.531L345.713 624.451C345.719 637.772 346.08 652.712 345.709 665.889L297.375 665.902C297.592 652.129 297.393 637.837 297.392 624.022Z"/><path fill="#BBB" d="M392.643 666.621C406.065 667.196 423.163 666.701 436.924 666.7L436.906 712.491C432.889 712.066 424.93 712.293 420.652 712.331L392.525 712.641C392.803 697.515 392.618 681.783 392.643 666.621Z"/><path fill="#BBB" d="M392.483 624.376C404.909 624.692 424.768 624.819 436.967 624.22L436.96 664.669L392.604 664.643C392.794 651.613 392.749 637.35 392.483 624.376Z"/><path fill="#BBB" d="M7.90093 220.974L8.24894 221.042C10.9459 222.168 48.2318 221.762 53.8841 221.599C53.5983 235.73 54.3237 251.979 53.6931 265.673L54.1754 267.46C55.2098 271.505 54.6812 306.275 54.6488 312.85C70.7751 312.499 86.9729 312.787 103.112 312.689L103.051 314.711L102.941 344.258C102.939 347.429 102.788 356.887 103.328 359.488L103.019 360.414C102.975 372.244 102.47 388.495 103.088 399.927L102.997 400.185C100.501 399.753 87.1073 399.784 83.8874 399.865C74.5692 400.098 63.1229 399.475 54.005 400.164C53.929 387.399 54.2847 373.204 53.7139 360.567L53.4423 360.134C38.2746 360.261 23.0052 359.953 7.84819 360.291C8.39105 346.086 7.8777 328.294 7.89002 313.723L7.90093 220.974Z"/><path fill="#555" d="M7.90093 220.974L8.24894 221.042C10.9459 222.168 48.2318 221.762 53.8841 221.599C53.5983 235.73 54.3237 251.979 53.6931 265.673L53.5894 266.238C54.4356 278.556 53.4911 298.879 53.7158 312.011L53.2778 312.151C46.8887 314.248 10.4807 311.187 8.22335 313.829L7.89002 313.723L7.90093 220.974Z"/><path fill="#9B9B9B" d="M53.5894 266.238C54.4356 278.556 53.4911 298.879 53.7158 312.011L53.2778 312.151C52.915 297.899 53.1951 282.373 53.2779 268.037C40.7504 268.563 28.1968 268.245 15.6631 268.26C13.3409 268.262 11.0348 268.271 8.7359 267.907L8.437 266.939C10.0577 265.768 48.321 266.783 53.5894 266.238Z"/><path fill="#555" d="M53.2778 312.151L53.7158 312.011L53.6956 344.158C53.6988 346.917 53.8509 357.589 53.4161 359.646L53.4423 360.134C38.2746 360.261 23.0052 359.953 7.84819 360.291C8.39105 346.086 7.8777 328.294 7.89002 313.723L8.22335 313.829C10.4807 311.187 46.8887 314.248 53.2778 312.151Z"/><path fill="#9B9B9B" d="M53.2778 312.151L53.7158 312.011L53.6956 344.158C53.6988 346.917 53.8509 357.589 53.4161 359.646C52.9894 355.09 53.1929 347.634 53.1963 342.855L53.2326 314.581C38.7799 314.989 24.0378 314.72 9.56842 314.583C9.17007 314.579 8.51114 314.052 8.22335 313.829C10.4807 311.187 46.8887 314.248 53.2778 312.151Z"/><path fill="#9C9C9C" d="M53.7139 360.567C63.824 360.807 74.3083 360.679 84.4433 360.722C89.1741 360.742 98.6778 360.973 103.019 360.414C102.975 372.244 102.47 388.495 103.088 399.927L102.997 400.185C100.501 399.753 87.1073 399.784 83.8874 399.865C74.5692 400.098 63.1229 399.475 54.005 400.164C53.929 387.399 54.2847 373.204 53.7139 360.567Z"/><path fill="#F3E6E6" d="M53.6931 265.673L54.1754 267.46C55.2098 271.505 54.6812 306.275 54.6488 312.85C70.7751 312.499 86.9729 312.787 103.112 312.689L103.051 314.711C87.1632 314.566 70.585 314.488 54.6909 314.698C54.6723 329.503 54.8211 344.635 54.6078 359.411L86.5505 359.327C90.4709 359.319 99.758 359.078 103.328 359.488L103.019 360.414C98.6778 360.973 89.1741 360.742 84.4433 360.722C74.3083 360.679 63.824 360.807 53.7139 360.567L53.4423 360.134L53.4161 359.646C53.8509 357.589 53.6988 346.917 53.6956 344.158L53.7158 312.011C53.4911 298.879 54.4356 278.556 53.5894 266.238L53.6931 265.673Z"/><path fill="#555" d="M437.775 713.136L438.45 713.271L483.019 713.215L482.918 740.475C482.91 744.244 482.742 752.063 483.173 755.521L482.982 756.132L482.436 757.332C482.253 766.687 482.401 776.012 482.381 785.362C482.373 788.805 483.126 797.314 481.102 799.859C470.758 799.312 459.796 800.065 449.413 799.758C445.51 799.642 441.067 799.714 437.174 800.013C437.942 788.859 437.195 768.994 437.197 757.108C436.042 756.807 434.612 756.714 433.399 756.577C430.393 756.92 422.681 756.738 419.343 756.735L391.504 756.69C391.632 750.885 392 716.581 391 713.121C395.241 713.875 429.404 713.947 435.227 713.604L437.775 713.136Z"/><path fill="#555" d="M391 713.121C395.241 713.875 429.404 713.947 435.227 713.604L436.176 714.071C436.607 716.984 436.66 753.288 436.193 755.055L433.399 756.577C430.393 756.92 422.681 756.738 419.343 756.735L391.504 756.69C391.632 750.885 392 716.581 391 713.121Z"/><path fill="#555" d="M437.197 757.108C439.304 757.544 441.387 757.508 443.524 757.607C456.339 758.201 469.69 756.995 482.436 757.332C482.253 766.687 482.401 776.012 482.381 785.362C482.373 788.805 483.126 797.314 481.102 799.859C470.758 799.312 459.796 800.065 449.413 799.758C445.51 799.642 441.067 799.714 437.174 800.013C437.942 788.859 437.195 768.994 437.197 757.108Z"/><path fill="#9C9C9C" d="M437.775 713.136L438.45 713.271C438.61 726.854 438.849 741.76 438.468 755.278L466.828 755.268C471.48 755.269 478.725 755.09 483.173 755.521L482.982 756.132L482.436 757.332C469.69 756.995 456.339 758.201 443.524 757.607C441.387 757.508 439.304 757.544 437.197 757.108C436.042 756.807 434.612 756.714 433.399 756.577L436.193 755.055C436.66 753.288 436.607 716.984 436.176 714.071L435.227 713.604L437.775 713.136Z"/><path fill="#555" d="M482.982 756.132L483.853 756.63C499.056 756.691 515.459 756.382 530.565 756.714C530.26 765.387 530.324 774.329 530.315 783.015C530.311 786.904 530.134 794.977 530.76 798.594C531.775 799.358 531.481 798.849 531.828 800.024L531.686 800.559C532.006 814.396 531.746 829.225 531.756 843.14L483 843.162C483.334 839.707 483.072 831.791 483.052 827.99L483.002 800.217L481.102 799.859C483.126 797.314 482.373 788.805 482.381 785.362C482.401 776.012 482.253 766.687 482.436 757.332L482.982 756.132Z"/><path fill="#555" d="M483.002 800.217C487.804 800.944 497.513 800.739 502.698 800.7C512.274 800.63 522.131 800.755 531.686 800.559C532.006 814.396 531.746 829.225 531.756 843.14L483 843.162C483.334 839.707 483.072 831.791 483.052 827.99L483.002 800.217Z"/><path fill="#979797" d="M482.982 756.132L483.853 756.63C484.302 767.879 484.863 787.752 483.952 798.762L513.998 798.713C518.848 798.712 526.062 798.928 530.76 798.594C531.775 799.358 531.481 798.849 531.828 800.024L531.686 800.559C522.131 800.755 512.274 800.63 502.698 800.7C497.513 800.739 487.804 800.944 483.002 800.217L481.102 799.859C483.126 797.314 482.373 788.805 482.381 785.362C482.401 776.012 482.253 766.687 482.436 757.332L482.982 756.132Z"/><path fill="#BBB" d="M54.1754 267.46L103.032 267.478C102.994 281.218 102.441 299.278 103.112 312.689C86.9729 312.787 70.7751 312.499 54.6488 312.85C54.6812 306.275 55.2098 271.505 54.1754 267.46Z"/><path fill="#555" d="M7.94326 174.363L53.8777 174.287C53.6121 187.977 53.444 205.178 53.8609 218.843C53.944 220.025 54.0396 220.415 53.8841 221.599C48.2318 221.762 10.9459 222.168 8.24894 221.042L7.90093 220.974L7.94326 174.363Z"/><path fill="#9B9B9B" d="M53.8609 218.843C53.944 220.025 54.0396 220.415 53.8841 221.599C48.2318 221.762 10.9459 222.168 8.24894 221.042C10.472 218.914 46.9757 221.078 53.3285 219.956L53.8609 218.843Z"/><path fill="#555" d="M531.86 755.513C534.239 755.102 544.451 755.216 547.547 755.243C557.595 755.328 567.982 755.088 577.999 755.354L578.541 756.256L579.618 756.172L579.954 756.587L578.851 757.861C579.386 771.373 578.897 786.157 579.017 799.792C563.861 799.775 547.282 799.433 532.238 799.963L531.828 800.024C531.481 798.849 531.775 799.358 530.76 798.594C530.134 794.977 530.311 786.904 530.315 783.015C530.324 774.329 530.26 765.387 530.565 756.714L531.86 755.513Z"/><path fill="#9C9C9C" d="M531.86 755.513C534.239 755.102 544.451 755.216 547.547 755.243C557.595 755.328 567.982 755.088 577.999 755.354L578.541 756.256L579.618 756.172L579.954 756.587L578.851 757.861C575.759 757.13 567.439 757.531 563.838 757.515C553.475 757.469 543.036 757.692 532.669 757.563C532.676 762.993 532.288 797.332 533.534 799.313C532.726 799.806 533.156 799.586 532.238 799.963L531.828 800.024C531.481 798.849 531.775 799.358 530.76 798.594C530.134 794.977 530.311 786.904 530.315 783.015C530.324 774.329 530.26 765.387 530.565 756.714L531.86 755.513Z"/><path fill="#F43349" d="M579.13 268.021C594.047 269.015 611.436 268.222 626.617 268.434C626.653 274.431 626.407 310.03 627.267 313.398L579.09 313.46L579.13 268.021Z"/><path fill="#BBB" d="M301.487 531.462C315.716 531.712 332.142 531.785 346.382 531.46C346.214 545.1 345.855 562.638 346.38 576.189C342.985 577.529 306.61 576.109 299.166 576.727C298.436 575.545 298.302 532.982 298.821 531.929L301.487 531.462Z"/><path fill="#BBB" d="M440.989 534.149C448.457 534.174 460.25 533.77 467.215 534.401L516.466 567.921C510.293 576.76 502.496 587.303 496.794 596.235C492.106 591.585 486.261 586.647 481.367 581.979C465.71 567.045 451.963 552.839 440.989 534.149Z"/><path fill="#F43349" d="M438.573 221.877C452.277 222.017 469.408 222.312 482.832 221.597C483.083 236.73 482.801 251.917 482.946 267.05C469.027 266.945 452.282 266.516 438.573 267.079L438.573 221.877Z"/><path fill="#F43349" d="M392.125 221.574C406.629 222.483 422.579 221.129 436.287 222.048C436.332 236.951 436.195 252.24 436.451 267.109C422.772 266.505 405.932 266.958 392.062 267.046L392.125 221.574Z"/><path fill="#555" d="M531.752 713.203C547.103 713.388 562.773 713.227 578.151 713.229C577.496 726.252 577.767 742.188 577.999 755.354C567.982 755.088 557.595 755.328 547.547 755.243C544.451 755.216 534.239 755.102 531.86 755.513C531.255 743.052 531.765 726.066 531.752 713.203Z"/><path fill="#9B9B9B" d="M103.088 399.927C115.614 400.661 128.736 399.86 141.316 400.129C144.182 400.191 147.574 400.167 150.428 399.926L150.388 440.911C148.307 440.682 140.084 440.443 138.233 440.608C133.186 441.06 106.323 439.484 103.577 441.64L102.991 441.715C103.172 428.013 102.998 413.919 102.997 400.185L103.088 399.927Z"/><path fill="#F43349" d="M297.857 134.271C301.059 135.028 310.702 134.807 314.388 134.801L345.29 134.737C345.289 140.333 344.977 170.77 345.786 174.244C330.044 174.509 313.664 174.223 297.835 174.316L297.857 134.271Z"/><path fill="#F43349" d="M394.123 490.381L435.507 490.38L435.53 520.418C435.53 523.042 435.707 531.994 435.299 534.189L434.176 534.518L391.414 534.516C391.427 529.303 390.837 492.061 392.091 490.511L394.123 490.381Z"/><path fill="#F43349" d="M926.772 805.661C940.272 814.924 953.277 825.185 966.534 834.802C968.095 835.935 969.789 837.175 971.181 838.492C972.14 849.078 971.313 869.388 963.957 878.127C962.846 879.447 960.402 881.437 959.024 882.522C957.04 876.82 954.365 869.714 952.804 864.009C943.908 859.271 929.831 850.865 920.689 847.781C917.434 846.683 904.382 846.977 899.951 845.621C899.947 841.643 899.913 837.892 899.763 833.907C905.66 826.577 919.874 812.761 926.772 805.661Z"/></svg>