<svg width="146" height="74" viewBox="0 0 146 74" fill="none" xmlns="http://www.w3.org/2000/svg">
<g clip-path="url(#clip0_9203_59906)">
<path d="M47.4477 13.6371C50.2841 13.4874 54.1229 13.5973 57.0389 13.5664C57.094 17.9236 57.2134 23.0872 57.0276 27.3951C63.9073 27.4753 70.9148 27.4327 77.7999 27.4089C77.5699 23.0833 78 18.0268 77.7277 13.6156L87.7412 13.5791L87.7456 37.8887C87.7456 42.0377 87.6689 46.4677 87.7884 50.5996C86.9198 50.5493 85.7793 50.5754 84.89 50.571L77.7513 50.5848C78.001 45.7763 77.7473 39.5506 77.8019 34.573C70.8947 34.4708 63.9422 34.6375 57.0517 34.5429C57.1495 39.7433 57.1249 45.4007 57.0517 50.5986C53.9311 50.4861 50.2556 50.567 47.0935 50.5631L47.0845 23.687L47.0904 16.8953C47.0916 16.3482 47.0596 14.2407 47.161 13.8054L47.4477 13.6371Z" fill="#061024"/>
<path d="M131.486 24.4248L131.674 24.4342C132.025 24.8647 131.811 30.5633 131.786 31.5283C131.652 36.6656 132.594 42.2086 128.839 46.3575C125.483 50.0652 120.313 51.1604 115.522 51.4993C109.566 51.8318 101.585 51.4549 96.9064 47.2691C94.185 44.8348 93.3493 41.9885 93.1345 38.4717C93.0357 36.2789 93.2087 34.0283 93.0288 31.8194C96.4605 31.6044 99.6966 31.4909 103.195 31.226C102.83 34.2826 102.85 39.617 105.037 42.0128C108.085 45.3525 116.15 45.3599 119.405 42.4037C122.676 39.4339 121.59 32.414 121.762 28.1658C122.629 27.7978 124.27 27.3817 125.242 27.0899C127.7 26.3521 129.301 25.6991 131.486 24.4248Z" fill="#061024"/>
<path d="M93.7614 13.6155C96.8023 13.5168 100.045 13.6258 103.145 13.5571C102.937 16.7381 103.213 20.5702 103.113 23.7974C103.081 24.8232 103.215 26.8302 103.013 27.7319C102.57 28.3145 101.556 28.4098 100.836 28.5483C98.1788 29.1177 95.7985 29.638 93.0992 29.9721C93.2275 24.6863 92.9567 19.1344 93.1037 13.8811C93.3539 13.5963 93.2826 13.6827 93.7614 13.6155Z" fill="#061024"/>
<path d="M115.116 57.6006C117.931 57.5887 121.414 56.9982 121.671 60.9261C121.894 64.3361 122.04 68.0666 121.429 71.4341C121.354 71.8495 120.948 72.3843 120.694 72.7143C119.369 73.883 116.892 73.6038 115.081 73.6576C114.895 71.3735 115.134 67.3508 115.052 64.9088C115.007 63.5739 114.982 58.6065 115.116 57.6006ZM116.355 72.4174C117.501 72.4346 118.928 72.628 119.787 71.8002L119.808 71.7785C121.021 69.6404 120.645 62.9996 120.248 60.4259C119.94 58.4239 117.915 58.8551 116.425 58.7061C116.087 62.7095 116.615 68.266 116.355 72.4174Z" fill="#161616"/>
<path d="M68.8075 57.5073C71.465 57.1166 72.9427 58.4668 73.0764 61.1239C73.2514 64.6103 73.5577 68.5141 72.6842 71.9087C72.4905 72.663 71.4429 73.3724 70.7616 73.6447C69.8925 73.8228 69.0528 73.8337 68.2265 73.4587C67.5633 73.1578 66.9887 72.59 66.735 71.8998C66.0222 69.9595 65.9269 60.9537 66.7896 59.1284C67.2084 58.2414 67.9192 57.8245 68.8075 57.5073ZM70.1589 72.5545C70.7616 72.3266 71.1057 72.111 71.3839 71.5042C72.2378 69.6399 72.169 61.6326 71.4193 59.6528C71.265 59.2448 70.997 58.9617 70.5949 58.787C70.2066 58.6178 69.8172 58.5897 69.3989 58.5862C67.5216 59.1664 67.3382 61.8462 67.5206 63.5245C67.8244 66.3178 66.238 72.5653 70.1589 72.5545Z" fill="#161616"/>
<path d="M75.7125 57.6215C77.0457 57.5998 78.542 57.5268 79.8487 57.7454C82.7436 58.2303 82.546 62.5973 81.7422 64.651C81.4158 65.4848 80.9311 65.8449 80.1967 66.2948C80.6278 67.1325 82.6821 72.8315 82.4894 73.532L82.2264 73.6509C80.906 73.5749 80.6706 71.6865 80.3535 70.608C79.916 69.3821 79.4328 67.6683 79.0366 66.3955C78.2466 66.4251 77.696 66.4039 76.9159 66.359C77.0211 68.3624 76.9203 70.8863 76.9577 72.9287C76.9626 73.2212 76.6834 73.4817 76.4592 73.6559C76.0699 73.7299 76.1893 73.7678 75.9008 73.5794C75.4927 72.6687 75.6422 59.2964 75.7125 57.6215ZM76.9321 65.2736C77.9944 65.2717 79.3699 65.3901 80.2345 64.7142C81.1312 63.3708 81.378 60.1573 79.9543 59.0798C79.4539 58.7014 77.6587 58.7582 76.964 58.7217C76.8544 60.8168 77.0034 63.1405 76.9321 65.2736Z" fill="#161616"/>
<path d="M85.2128 57.4424C85.7516 57.5174 86.2388 57.6264 86.4639 58.1602C87.683 61.0536 88.5733 64.17 89.6872 67.1053C90.5008 64.3313 91.9401 60.5139 93.0644 57.7497C93.1912 57.437 93.9497 57.4582 94.2899 57.8889C94.4585 59.209 94.2929 62.1735 94.312 63.7018C94.3012 66.7753 94.3474 69.8517 94.2904 72.9247C94.2816 73.4141 94.168 73.6711 93.7015 73.7471C92.71 73.3065 93.0403 70.8862 93.0423 69.9025L93.0506 63.4862C93.0496 62.6594 93.1357 61.5568 93.1819 60.7206C92.1078 62.4399 90.8277 68.5799 89.6464 69.2444C88.4435 68.8206 87.2858 62.759 86.4447 61.4665L86.2732 61.4936C85.7344 62.5716 87.1679 73.269 85.5417 73.6987C85.2025 73.4525 84.9921 73.1136 85.0383 72.7012C85.2979 70.3949 84.5128 59.0141 85.2128 57.4424Z" fill="#161616"/>
<path d="M105.322 57.5168C105.819 57.536 106.453 57.5054 106.682 58.0338C107.84 60.7072 108.651 63.5848 109.668 66.3168C110.127 67.5517 110.414 68.6715 111.065 69.8092C111.165 67.0702 110.712 60.6544 111.185 57.7087C111.207 57.5691 111.423 57.535 111.558 57.501C112.002 57.6307 112.38 58.0032 112.369 58.4926C112.255 63.3702 112.446 68.2581 112.309 73.1337C112.302 73.3908 112.164 73.6221 111.999 73.8086C111.461 73.6729 111.324 73.6478 110.993 73.1998C109.979 71.8298 107.374 62.0367 106.509 61.5562C106.273 61.8709 106.978 72.5279 106.154 73.6478C105.721 73.6808 105.885 73.7119 105.49 73.5077C105.19 72.9354 105.316 59.3159 105.322 57.5168Z" fill="#161616"/>
<path d="M62.6713 70.3204C62.513 67.3412 62.54 64.3486 62.5248 61.3645C62.5213 60.7044 62.4692 58.2101 62.5788 57.7163C62.9657 57.4158 63.0984 57.4104 63.4784 57.6822C63.623 57.9585 63.737 58.3443 63.7345 58.658C63.6982 63.5849 63.7852 68.5183 63.7164 73.4457C63.4253 73.6623 63.3541 73.6623 62.9859 73.6795C61.9103 73.1832 60.6533 68.1502 60.0452 66.7211C59.2995 64.9668 58.9195 63.0122 57.9521 61.2623C58.163 65.0368 58.0071 68.8804 58.0769 72.6633C58.0809 72.8754 57.8891 73.3529 57.7313 73.5069C57.4787 73.7525 57.4197 73.7565 57.0972 73.7516C56.5599 73.0703 56.7324 68.3989 56.7324 67.2257L56.7482 57.5475C57.3867 57.5322 57.8557 57.4464 58.159 58.1119C59.2552 60.5209 59.9705 63.1459 60.903 65.6214C61.4811 67.1557 61.9476 68.8685 62.6713 70.3204Z" fill="#161616"/>
<path d="M99.5092 57.4155C99.725 57.4584 100.078 57.5675 100.237 57.7036C100.39 57.8344 100.569 58.2937 100.602 58.4816C100.942 60.3903 103.868 72.3433 103.806 73.3852C102.129 74.8139 101.826 70.0646 101.707 69.146L100.314 69.1697C99.4988 69.1796 98.7605 69.1633 97.9479 69.1337C97.6898 70.3083 97.5527 73.0448 96.5444 73.59C96.0927 73.6339 96.2451 73.6753 95.8685 73.4755C95.6208 72.8894 98.9787 58.2379 99.5092 57.4155ZM98.1755 68.0646L100.13 68.0049L101.493 68.0444C100.987 66.4835 100.251 60.8787 99.7009 60.2803C99.2939 61.5768 98.5373 66.3809 98.1755 68.0646Z" fill="#161616"/>
<path d="M144.179 11.5566C144.213 11.6438 144.245 11.8794 144.212 11.965C142.105 17.4622 139.519 22.9091 135.729 27.4543C135.221 28.063 134.47 28.9954 133.84 29.4112C133.765 29.1925 133.848 24.3603 133.852 23.7256C137.192 21.2281 139.497 18.7652 141.858 15.2813C142.672 14.0791 143.329 12.7271 144.179 11.5566Z" fill="#061024"/>
<path d="M128.334 57.6123C129.743 57.6005 132.399 57.4915 133.674 57.7988C133.884 58.1165 133.848 57.9799 133.842 58.3474C133.373 58.9991 130.464 58.7584 129.589 58.7347C129.678 60.7692 129.635 62.9931 129.624 65.034C130.5 65.0104 132.629 64.8071 133.267 65.5116L133.218 65.7454C132.419 66.3345 130.603 66.1485 129.604 66.1204C129.631 67.3976 129.625 68.7015 129.633 69.9812C129.655 70.8796 129.628 71.5051 129.564 72.4015C130.52 72.3985 133.445 72.1484 133.884 72.9831L133.767 73.324C133.382 73.6906 129.231 73.6264 128.337 73.6575C128.205 72.0961 128.289 69.2229 128.29 67.5609C128.291 64.295 128.243 60.8649 128.334 57.6123Z" fill="#161616"/>
<path d="M122.195 13.6232C124.574 13.5311 126.929 13.7035 129.333 13.5293C128.067 14.7272 126.644 16.0332 125.298 17.1212C124.648 17.6384 122.469 19.6913 121.798 19.2189C121.55 18.5802 121.765 14.8544 121.758 13.9085C121.757 13.7556 122.019 13.6945 122.195 13.6232Z" fill="#061024"/>
<path d="M124.355 57.5551C124.862 57.5487 125.186 57.4806 125.53 57.8841C125.725 60.3917 125.516 64.0473 125.595 66.6457C125.63 67.7986 125.634 72.8765 125.45 73.6866C125.075 73.6752 124.723 73.7083 124.43 73.4789C124.152 72.8938 124.193 58.8185 124.355 57.5551Z" fill="#161616"/>
<path d="M0 29.1454C0.279048 28.6489 0.306545 27.6248 0.414506 27.016C1.55487 20.5855 5.96997 15.5221 12.3278 13.8107C22.4908 11.075 39.4846 11.9281 42.7995 24.3954C43.0844 25.4658 43.3447 26.5599 43.6007 27.6365C40.203 27.6398 36.1107 27.742 32.7714 27.5945C31.7472 24.4911 30.7429 22.3607 27.6299 20.8122C24.6195 19.3148 20.8977 19.3203 17.7367 20.3067C10.8692 22.4655 9.52215 31.3372 11.4618 37.3359C12.2742 39.8485 14.0372 42.2091 16.4069 43.3259C21.3943 45.6764 29.2106 44.796 31.718 39.2388C32.1449 38.2927 32.4246 37.3908 32.7399 36.4123C35.9867 36.2146 40.2681 36.3369 43.6118 36.3603C41.4766 50.4695 28.2051 52.6525 16.0329 51.1808C11.1167 50.5869 6.23774 48.2656 3.31463 44.1874C1.77534 42.0295 1.0151 39.8871 0.495122 37.2891C0.40142 36.8209 0.164475 35.353 0 35V29.1454Z" fill="#061024"/>
<path d="M102.713 30.235C103.831 29.6926 105.381 29.3492 106.606 28.9609C120.435 24.579 132.861 16.0643 142.273 5.02399C143.124 4.02533 145.125 1.01581 145.965 0.341846L146 0.314453V0.85232C145.389 1.6317 144.335 4.57657 143.868 5.63873C137.671 19.7579 123.545 27.8587 108.716 29.6756C106.772 29.9137 104.689 30.1985 102.713 30.235Z" fill="#061024"/>
<path d="M15.1301 74C13.1809 72.7701 12.1596 71.5008 12.1279 69.0785C12.0909 66.2463 11.8245 63.3263 12.3689 60.5429C13.2827 55.8715 20.1025 56.0757 20.8557 60.6672C21.0991 62.1013 21.1477 63.6884 21.1447 65.1624C20.9222 69.1481 21.8661 71.6162 18.046 74H15.1301ZM16.961 71.2694C17.6259 70.7529 17.9029 70.0751 17.9458 69.1915C18.0714 66.603 18.2982 63.7259 17.7855 61.1783C17.6049 60.2804 17.1418 59.8946 16.2152 59.9025C14.5365 61.2518 15.0349 67.782 15.3702 69.8442C15.544 70.9122 15.9819 71.1579 16.961 71.2694Z" fill="#061024"/>
<path d="M47.6933 57.3149C48.73 57.3218 49.7675 57.3243 50.8038 57.3539C50.6956 61.1427 50.8249 65.0075 50.787 68.7978C50.7762 69.8614 50.8677 73.1628 50.6514 74H48.2009C46.9297 71.8638 46.184 68.2709 44.6273 65.706C44.8518 67.8126 44.9161 71.8712 44.7033 74H41.818C41.593 72.8752 41.6704 69.3469 41.6713 68.0252L41.6867 57.3648C42.7195 57.311 43.3263 57.3066 44.3565 57.3756C45.6641 60.0293 46.5378 63.3035 47.9037 65.7993C47.5645 63.2675 47.6769 59.9469 47.6933 57.3149Z" fill="#061024"/>
<path d="M2.0173 57.3175C6.502 57.3215 10.9336 56.4093 10.6665 62.5232C10.5799 64.5079 10.3094 65.3011 8.88048 66.6987L8.83835 66.7402C9.28352 67.8591 11.0921 72.973 11.2086 74.0001H8.24461C7.38321 72.6183 6.51478 67.8753 5.61396 67.2676L5.39737 67.3583C4.78049 68.5157 5.28568 72.3627 4.94983 73.9562L4.9402 74.0001H2.1535C1.90004 72.9434 1.98572 69.2394 1.98757 67.9311L2.0173 57.3175ZM5.02342 64.4072C5.76075 64.4043 6.52231 64.4482 7.22355 64.1813C7.70756 62.943 8.18494 60.9312 6.5954 60.279C6.27199 60.1463 5.44692 60.1428 5.08123 60.1315C5.0744 61.2494 5.14229 63.3835 5.02342 64.4072Z" fill="#061024"/>
<path d="M22.5088 57.3642C23.6252 57.3198 24.4879 57.3233 25.6047 57.3672C25.5934 59.0632 25.3138 70.1253 25.9234 70.7681C26.1577 71.0152 26.5624 71.179 26.9048 71.1899C27.1921 71.1987 27.5471 71.0621 27.7447 70.8519C28.0046 70.5757 28.0694 70.1756 28.112 69.813C28.2892 68.3049 28.1763 66.7069 28.1697 65.186L28.1473 57.3533C29.1822 57.3405 30.2201 57.3188 31.2546 57.345C31.1415 61.667 31.424 66.3305 31.0798 70.6457C30.9486 72.291 29.6291 73.1538 28.3518 73.9999H25.3664C22.7764 72.3117 22.4337 71.4035 22.4808 68.2348C22.5345 64.6285 22.4198 60.9685 22.5088 57.3642Z" fill="#061024"/>
<path d="M33.0589 57.3527C35.2963 57.3305 38.1223 57.256 40.335 57.3719C40.2835 58.3635 40.2381 59.1657 40.2845 60.1568C38.963 60.1696 37.3325 60.2293 36.0343 60.1686C36.1009 61.3871 36.1522 62.8962 36.0677 64.1177C37.3413 64.0881 38.4144 64.0728 39.684 64.137C39.6906 65.0363 39.6767 66.0245 39.7366 66.9144C38.5978 66.9371 37.1236 67.0057 36.0112 66.9465C36.1097 68.0984 36.1655 69.8434 36.0653 70.9908C37.3092 70.9721 39.0554 70.9376 40.2931 71.0727C40.2892 71.8374 40.3428 73.3475 40.1093 74.0002H33.1819C32.9832 72.9375 33.085 70.0269 33.0711 68.8197C33.0275 65.0205 33.1389 61.1493 33.0589 57.3527Z" fill="#061024"/>
</g>
<defs>
<clipPath id="clip0_9203_59906">
<rect width="146" height="74" fill="white"/>
</clipPath>
</defs>
</svg>
