<svg width="222" height="68" viewBox="0 0 222 68" fill="none" xmlns="http://www.w3.org/2000/svg">
<path d="M8.06934 9.07617C24.757 9.07617 41.4447 9.07617 58.638 9.07617C58.638 25.7029 58.638 42.3296 58.638 59.4602C41.9503 59.4602 25.2627 59.4602 8.06934 59.4602C8.06934 42.8335 8.06934 26.2067 8.06934 9.07617Z" fill="black"/>
<path d="M28.6914 14.436C28.9281 14.495 29.1648 14.554 29.4087 14.6147C29.1112 15.5442 28.7349 16.4218 28.337 17.3121C28.1559 17.8239 28.1159 18.187 28.1535 18.724C28.2947 18.7611 28.4359 18.7982 28.5815 18.8364C30.1124 19.2678 31.471 19.834 32.8158 20.6894C32.875 20.8073 32.9342 20.9252 32.9951 21.0467C32.7695 21.0836 32.5439 21.1204 32.3115 21.1584C30.844 21.4841 29.4902 22.2268 28.5121 23.3694C29.1055 25.3124 30.3416 26.9482 31.5606 28.5507C31.7127 28.5224 31.8648 28.494 32.0215 28.4649C33.4215 28.2536 35.0226 28.0785 36.2804 28.8368C37.1536 29.5612 37.7688 30.4788 38.0161 31.588C38.0205 31.8858 38.0212 32.1836 38.0161 32.4814C35.732 32.5669 34.2409 32.004 32.2779 30.8734C32.2386 30.9791 32.1993 31.0848 32.1588 31.1937C31.7545 32.1975 31.3995 32.7794 30.4846 33.3747C29.9691 33.5199 29.9691 33.5199 29.588 33.5534C29.4758 32.1666 29.8013 31.3532 30.4846 30.1587C30.6056 29.9212 30.7257 29.6832 30.8433 29.444C30.7564 29.342 30.6695 29.24 30.5799 29.1349C29.5797 27.9295 28.7771 26.6736 27.9741 25.3347C27.8558 25.1578 27.7374 24.9809 27.6155 24.7987C27.4989 25.0515 27.3833 25.3047 27.2681 25.558C27.2036 25.699 27.1391 25.8399 27.0726 25.9852C26.2358 28.0077 26.6391 30.5143 27.4362 32.4814C28.4254 34.3902 29.8101 35.5314 31.7959 36.278C33.5799 36.6396 34.9873 36.4106 36.5816 35.5187C38.5984 34.1287 39.5329 32.159 39.9887 29.8014C40.2414 27.3149 39.4938 25.2714 38.0386 23.2626C36.8998 21.98 35.3611 21.3803 33.7124 21.0467C35.1275 19.5173 37.0476 18.8885 39.0921 18.724C39.4017 18.6988 39.4017 18.6988 39.7176 18.6731C42.5906 18.5552 45.1379 19.4374 47.317 21.3098C49.4746 23.3342 50.905 26.0925 51.0968 29.0776C51.1 29.1985 51.1033 29.3195 51.1066 29.444C51.1135 29.5778 51.1205 29.7117 51.1276 29.8495C51.2412 33.7423 49.8102 37.551 47.2064 40.4432C46.9527 40.7078 46.6987 40.9721 46.4443 41.236C46.289 41.4241 46.1354 41.6137 45.9847 41.8055C45.0291 42.9042 43.8483 43.7874 42.6897 44.6642C42.5596 44.7632 42.4294 44.8621 42.2953 44.9641C41.3651 45.6666 40.4186 46.3431 39.4619 47.0092C38.3477 47.7854 37.2605 48.5775 36.2229 49.4547C36.0683 49.5848 35.9136 49.715 35.7543 49.849C34.8246 50.6546 34.0406 51.4712 33.3538 52.492C33.2525 52.3631 33.1513 52.2341 33.047 52.1012C31.0352 49.6384 28.4203 47.9479 25.7838 46.2171C21.174 43.1186 17.0705 39.3206 15.7803 33.732C15.0683 29.9731 15.5559 26.5442 17.6239 23.2696C18.6422 21.8284 19.8201 20.6982 21.3392 19.796C21.4798 19.7115 21.6203 19.627 21.7651 19.5399C23.3531 18.7068 25.1403 18.5734 26.8982 18.3667C26.9375 18.2476 26.9768 18.1286 27.0173 18.0059C27.4552 16.7376 28.0163 15.5952 28.6914 14.436Z" fill="#FDFDFE"/>
<path d="M65.2729 57.6733C114.33 57.6733 163.387 57.6733 213.93 57.6733C213.93 58.2629 213.93 58.8525 213.93 59.46C164.873 59.46 115.817 59.46 65.2729 59.46C65.2729 58.8704 65.2729 58.2808 65.2729 57.6733Z" fill="black"/>
<path d="M73.7583 26.8609C74.8107 27.7063 75.3744 28.6751 75.6734 29.9799C75.236 30.004 74.7999 30.0217 74.3621 30.0357C74.2384 30.0432 74.1146 30.0507 73.987 30.0584C73.6245 30.0671 73.6245 30.0671 72.9836 29.9799C72.6691 29.5555 72.6691 29.5555 72.4456 29.0865C71.6695 28.4759 70.7778 28.2427 69.7992 28.2916C68.841 28.4829 68.1631 28.9752 67.6152 29.7677C67.165 31.1134 67.1517 32.0964 67.7833 33.3745C68.3983 34.1745 68.9414 34.4574 69.9351 34.6252C71.0005 34.6419 71.7583 34.3363 72.625 33.7319C72.7433 33.496 72.8617 33.2602 72.9836 33.0172C71.9776 33.0172 70.9716 33.0172 69.9351 33.0172C69.9351 32.4276 69.9351 31.838 69.9351 31.2305C71.8288 31.2305 73.7224 31.2305 75.6734 31.2305C75.6734 33.1235 75.3797 34.352 74.0707 35.7405C72.9216 36.7162 71.5205 37.2038 70.0136 37.1754C68.3616 36.9907 66.8844 36.4561 65.8107 35.1612C64.682 33.4925 64.5997 31.9433 64.7348 29.9799C65.0757 28.5292 66.0982 27.4231 67.2453 26.5182C69.294 25.4126 71.8219 25.5779 73.7583 26.8609Z" fill="black"/>
<path d="M108.215 28.5325C108.557 28.7293 108.557 28.7293 109.028 29.0867C109.146 28.9098 109.264 28.7329 109.386 28.5507C109.774 28.4983 109.774 28.4983 110.216 28.5172C110.362 28.522 110.509 28.5269 110.66 28.5318C110.772 28.5381 110.884 28.5443 111 28.5507C111.023 29.7393 111.039 30.9278 111.049 32.1166C111.054 32.5204 111.06 32.9241 111.068 33.3278C111.079 33.9107 111.084 34.4933 111.088 35.0762C111.092 35.2546 111.097 35.4329 111.102 35.6167C111.102 36.8757 110.843 37.8754 110.104 38.9133C108.691 40.0766 107.206 40.1133 105.441 39.9853C104.281 39.7044 103.599 39.1671 102.931 38.1987C102.633 37.7049 102.572 37.5347 102.572 36.948C102.946 36.9287 103.319 36.9148 103.693 36.9033C103.901 36.8951 104.109 36.8868 104.323 36.8782C105.018 36.9618 105.175 37.1476 105.621 37.6627C106.37 37.9115 107.075 37.96 107.828 37.6962C108.185 37.4733 108.185 37.4733 108.49 36.948C108.49 36.7122 108.49 36.4763 108.49 36.2333C108.365 36.2909 108.241 36.3485 108.112 36.4078C106.984 36.8054 105.567 36.805 104.466 36.3115C103.46 35.7139 102.747 34.8422 102.393 33.732C102.248 32.3306 102.196 30.9463 103.11 29.8013C104.45 28.3906 106.315 27.8435 108.215 28.5325ZM104.903 31.4093C104.657 32.1747 104.628 32.7858 104.937 33.531C105.516 34.2213 105.516 34.2213 106.353 34.5102C107.152 34.559 107.485 34.5316 108.131 34.0223C108.699 33.2791 108.77 32.6876 108.669 31.7667C108.376 31.1261 108.187 30.9103 107.593 30.516C106.417 30.304 105.661 30.4844 104.903 31.4093Z" fill="black"/>
<path d="M162.286 28.3718C162.813 28.6175 162.813 28.6175 163.183 28.9078C163.42 29.0295 163.659 29.1496 163.9 29.2651C164.04 29.1509 164.181 29.0367 164.326 28.919C165.251 28.1944 166.161 28.2657 167.307 28.3718C168.192 28.7811 168.625 29.3176 169.1 30.1585C169.338 30.8343 169.302 31.5257 169.297 32.2327C169.297 32.3625 169.296 32.4924 169.296 32.6262C169.295 33.0394 169.293 33.4526 169.291 33.8658C169.29 34.1466 169.289 34.4274 169.288 34.7082C169.286 35.3952 169.283 36.0821 169.279 36.7691C168.51 36.7691 167.741 36.7691 166.948 36.7691C166.939 36.4055 166.931 36.0418 166.922 35.6671C166.912 35.3129 166.902 34.9587 166.891 34.6045C166.884 34.3593 166.878 34.1141 166.873 33.8689C166.864 33.5154 166.854 33.1619 166.843 32.8084C166.838 32.5961 166.832 32.3837 166.826 32.1648C166.77 31.5981 166.682 31.1943 166.41 30.6945C165.76 30.4974 165.26 30.4727 164.617 30.6945C164.168 31.9179 164.179 33.1437 164.146 34.4353C164.139 34.6597 164.132 34.8842 164.125 35.1154C164.109 35.6666 164.094 36.2179 164.079 36.7691C163.369 36.7691 162.659 36.7691 161.927 36.7691C161.924 36.6168 161.92 36.4646 161.916 36.3077C161.902 35.7399 161.887 35.1722 161.87 34.6045C161.863 34.3593 161.857 34.1141 161.852 33.8689C161.843 33.5154 161.833 33.1619 161.822 32.8084C161.814 32.4899 161.814 32.4899 161.805 32.1648C161.749 31.5997 161.653 31.1961 161.389 30.6945C160.976 30.484 160.976 30.484 160.493 30.5158C159.993 30.719 159.993 30.719 159.596 31.0518C159.395 31.6531 159.379 32.14 159.36 32.7736C159.352 33.0056 159.345 33.2376 159.337 33.4767C159.33 33.7218 159.323 33.9669 159.316 34.212C159.308 34.4591 159.3 34.7063 159.292 34.9535C159.273 35.5587 159.255 36.1639 159.237 36.7691C158.468 36.7691 157.699 36.7691 156.906 36.7691C156.906 34.057 156.906 31.3448 156.906 28.5505C157.439 28.5505 157.971 28.5505 158.52 28.5505C158.698 28.7273 158.875 28.9042 159.058 29.0865C159.225 28.9685 159.391 28.8506 159.562 28.7291C160.434 28.2324 161.308 28.2434 162.286 28.3718Z" fill="black"/>
<path d="M177.607 28.6402C178.651 29.2691 179.498 30.2463 179.86 31.4095C180.004 32.8096 180.061 34.2001 179.142 35.3402C178.274 36.2491 177.491 36.8954 176.2 36.9956C175.983 36.9947 175.767 36.9938 175.545 36.9928C175.328 36.9938 175.111 36.9947 174.888 36.9956C174.301 36.9482 174.301 36.9482 173.583 36.5908C173.524 37.6521 173.465 38.7134 173.404 39.8068C172.635 39.8068 171.865 39.8068 171.073 39.8068C171.073 36.0924 171.073 32.3779 171.073 28.5508C171.605 28.5508 172.138 28.5508 172.687 28.5508C172.805 28.7277 172.923 28.9046 173.045 29.0868C173.278 28.91 173.278 28.91 173.516 28.7295C174.686 28.0648 176.386 28.108 177.607 28.6402ZM173.659 31.2909C173.194 31.8326 173.203 32.5056 173.225 33.1962C173.482 33.7853 173.812 34.2098 174.301 34.6255C175.035 34.842 175.701 34.8845 176.419 34.6143C177.016 34.0872 177.489 33.6274 177.564 32.8005C177.522 32.0797 177.396 31.6591 176.99 31.0522C175.777 30.2463 174.747 30.3728 173.659 31.2909Z" fill="black"/>
<path d="M167.565 11.8453C168.609 12.4742 169.456 13.4514 169.818 14.6146C169.962 16.0146 170.019 17.4052 169.1 18.5453C168.232 19.4542 167.449 20.1005 166.158 20.2007C165.941 20.1998 165.725 20.1989 165.503 20.1979C165.286 20.1988 165.069 20.1998 164.846 20.2007C164.259 20.1533 164.259 20.1533 163.541 19.7959C163.482 20.8572 163.423 21.9185 163.362 23.0119C162.593 23.0119 161.823 23.0119 161.031 23.0119C161.031 19.2974 161.031 15.583 161.031 11.7559C161.563 11.7559 162.096 11.7559 162.645 11.7559C162.763 11.9328 162.881 12.1097 163.003 12.2919C163.236 12.115 163.236 12.115 163.474 11.9346C164.644 11.2699 166.344 11.313 167.565 11.8453ZM163.617 14.4959C163.152 15.0377 163.161 15.7107 163.183 16.4013C163.44 16.9904 163.77 17.4149 164.259 17.8306C164.993 18.0471 165.659 18.0896 166.377 17.8194C166.974 17.2923 167.447 16.8325 167.522 16.0055C167.48 15.2848 167.354 14.8642 166.948 14.2573C165.735 13.4513 164.705 13.5779 163.617 14.4959Z" fill="black"/>
<path d="M92.6082 11.8453C93.6528 12.4742 94.4991 13.4514 94.861 14.6146C95.0054 16.0146 95.0626 17.4052 94.1437 18.5453C93.275 19.4542 92.4923 20.1005 91.201 20.2007C90.9849 20.1998 90.7687 20.1989 90.546 20.1979C90.3295 20.1988 90.1129 20.1998 89.8897 20.2007C89.302 20.1533 89.302 20.1533 88.5847 19.7959C88.5255 20.8572 88.4664 21.9185 88.4054 23.0119C87.6361 23.0119 86.8668 23.0119 86.0742 23.0119C86.0742 19.2974 86.0742 15.583 86.0742 11.7559C86.6068 11.7559 87.1394 11.7559 87.6881 11.7559C87.8065 11.9328 87.9248 12.1097 88.0468 12.2919C88.2798 12.115 88.2798 12.115 88.5175 11.9346C89.6873 11.2699 91.3873 11.313 92.6082 11.8453ZM88.6604 14.4959C88.1958 15.0377 88.2041 15.7107 88.2261 16.4013C88.4831 16.9904 88.8137 17.4149 89.302 17.8306C90.0363 18.0471 90.7025 18.0896 91.4202 17.8194C92.0175 17.2923 92.4909 16.8325 92.5655 16.0055C92.5234 15.2848 92.3979 14.8642 91.9918 14.2573C90.7785 13.4513 89.7488 13.5779 88.6604 14.4959Z" fill="black"/>
<path d="M191.695 25.6919C192.464 25.6919 193.233 25.6919 194.026 25.6919C194.026 29.3474 194.026 33.0029 194.026 36.7692C193.434 36.7692 192.843 36.7692 192.233 36.7692C192.115 36.6513 191.996 36.5334 191.874 36.4119C191.722 36.4987 191.57 36.5856 191.413 36.675C190.311 37.1641 188.996 37.1519 187.837 36.8181C186.725 36.2988 185.888 35.4681 185.37 34.3579C185.02 33.1611 185.009 31.7364 185.542 30.5941C186.196 29.5287 187.072 28.7193 188.288 28.3719C189.453 28.2666 190.457 28.2019 191.516 28.7292C191.575 27.7269 191.634 26.7246 191.695 25.6919ZM187.75 31.5879C187.527 32.3369 187.481 32.9906 187.795 33.7096C188.452 34.5125 188.452 34.5125 189.431 34.7816C190.171 34.8414 190.57 34.7497 191.157 34.2679C191.733 33.776 191.851 33.3691 191.953 32.6152C191.862 31.8367 191.675 31.5018 191.142 30.943C189.928 30.0647 188.653 30.5347 187.75 31.5879Z" fill="black"/>
<path d="M92.5298 43.0225C93.2991 43.0225 94.0684 43.0225 94.861 43.0225C94.861 44.3196 94.861 45.6167 94.861 46.9531C96.1628 46.9531 97.4647 46.9531 98.806 46.9531C98.806 45.656 98.806 44.3589 98.806 43.0225C99.5753 43.0225 100.345 43.0225 101.137 43.0225C101.137 46.5011 101.137 49.9797 101.137 53.5638C100.368 53.5638 99.5986 53.5638 98.806 53.5638C98.806 52.0898 98.806 50.6158 98.806 49.0971C97.5042 49.0971 96.2023 49.0971 94.861 49.0971C94.861 50.5711 94.861 52.0451 94.861 53.5638C94.0917 53.5638 93.3224 53.5638 92.5298 53.5638C92.5298 50.0852 92.5298 46.6065 92.5298 43.0225Z" fill="black"/>
<path d="M65.4521 9.43311C66.2214 9.43311 66.9907 9.43311 67.7833 9.43311C67.7833 10.7302 67.7833 12.0273 67.7833 13.3638C69.0852 13.3638 70.3871 13.3638 71.7284 13.3638C71.7284 12.0667 71.7284 10.7695 71.7284 9.43311C72.4977 9.43311 73.267 9.43311 74.0596 9.43311C74.0596 12.9117 74.0596 16.3904 74.0596 19.9744C73.2903 19.9744 72.521 19.9744 71.7284 19.9744C71.7284 18.5004 71.7284 17.0264 71.7284 15.5078C70.4265 15.5078 69.1247 15.5078 67.7833 15.5078C67.7833 16.9818 67.7833 18.4558 67.7833 19.9744C67.014 19.9744 66.2447 19.9744 65.4521 19.9744C65.4521 16.4958 65.4521 13.0172 65.4521 9.43311Z" fill="black"/>
<path d="M68.3217 43.0225C69.1501 43.0225 69.9786 43.0225 70.8322 43.0225C71.3443 44.2646 71.8557 45.5071 72.366 46.75C72.603 47.3272 72.8402 47.9042 73.0782 48.481C73.3519 49.1445 73.6244 49.8086 73.8967 50.4727C74.0248 50.7824 74.0248 50.7824 74.1554 51.0983C74.2344 51.2914 74.3134 51.4844 74.3947 51.6834C74.4993 51.9375 74.4993 51.9375 74.6059 52.1968C74.7772 52.6705 74.7772 52.6705 74.9566 53.5638C74.0689 53.5638 73.1813 53.5638 72.2667 53.5638C71.7288 52.2015 71.7288 52.2015 71.7288 51.5985C70.3677 51.6574 69.0067 51.7164 67.6044 51.7771C67.2493 52.6615 67.2493 52.6615 66.8871 53.5638C65.9994 53.5638 65.1118 53.5638 64.1973 53.5638C64.8579 51.7903 65.5338 50.0229 66.218 48.2583C66.3117 48.0165 66.4054 47.7747 66.4989 47.5328C67.0843 46.0197 67.689 44.5167 68.3217 43.0225ZM69.3976 46.2385C69.0425 47.2997 68.6875 48.361 68.3217 49.4545C69.1501 49.4545 69.9786 49.4545 70.8322 49.4545C70.4771 48.3932 70.122 47.3319 69.7562 46.2385C69.6379 46.2385 69.5195 46.2385 69.3976 46.2385Z" fill="black"/>
<path d="M113.869 12.1134C113.928 11.9955 113.988 11.8776 114.049 11.7561C114.64 11.7561 115.232 11.7561 115.842 11.7561C115.842 14.4683 115.842 17.1804 115.842 19.9748C115.25 19.9748 114.658 19.9748 114.049 19.9748C113.989 19.7979 113.93 19.621 113.869 19.4388C113.684 19.5567 113.499 19.6746 113.309 19.7961C112.136 20.3785 110.743 20.3631 109.488 20.0418C108.403 19.5696 107.552 18.6376 107.024 17.5935C106.664 16.4368 106.647 14.9412 107.145 13.8219C108.61 11.4055 111.4 10.9326 113.869 12.1134ZM109.386 14.7934C109.125 15.6104 109.125 16.2316 109.498 17.0044C110.207 17.786 110.207 17.786 111.205 18.0325C111.986 17.9899 112.353 17.897 112.973 17.3953C113.524 16.6917 113.572 16.2493 113.562 15.3755C113.485 14.7731 113.235 14.4825 112.793 14.0788C111.602 13.2194 110.253 13.7799 109.386 14.7934Z" fill="black"/>
<path d="M103.648 43.0229C104.935 42.9953 104.935 42.9953 106.248 42.9671C106.516 42.9589 106.784 42.9508 107.06 42.9424C108.422 42.9283 109.435 42.9641 110.462 43.9162C111.287 44.7425 111.565 45.3999 111.583 46.5627C111.569 47.597 111.468 48.2736 110.71 49.0292C109.623 50.0011 108.903 50.2227 107.459 50.1919C106.726 50.1808 106.726 50.1808 105.979 50.1696C105.979 51.2898 105.979 52.41 105.979 53.5642C105.21 53.5642 104.441 53.5642 103.648 53.5642C103.648 50.0856 103.648 46.607 103.648 43.0229ZM105.979 45.1669C105.979 46.1103 105.979 47.0536 105.979 48.0256C107.266 48.0962 107.266 48.0962 108.501 47.8246C108.966 47.3763 109.105 47.0536 109.207 46.4176C108.997 45.906 108.822 45.6224 108.354 45.3218C107.854 45.1292 107.455 45.1319 106.921 45.1446C106.455 45.1556 106.455 45.1556 105.979 45.1669Z" fill="black"/>
<path d="M76.3911 43.0229C77.6782 42.9953 77.6782 42.9953 78.9913 42.9671C79.2591 42.9589 79.5269 42.9508 79.8028 42.9424C81.1649 42.9283 82.1781 42.9641 83.2053 43.9162C84.0297 44.7425 84.3085 45.3999 84.3261 46.5627C84.3123 47.597 84.2117 48.2736 83.4533 49.0292C82.3658 50.0011 81.6458 50.2227 80.2017 50.1919C79.4694 50.1808 79.4694 50.1808 78.7223 50.1696C78.7223 51.2898 78.7223 52.41 78.7223 53.5642C77.953 53.5642 77.1837 53.5642 76.3911 53.5642C76.3911 50.0856 76.3911 46.607 76.3911 43.0229ZM78.7223 45.1669C78.7223 46.1103 78.7223 47.0536 78.7223 48.0256C80.0091 48.0962 80.0091 48.0962 81.244 47.8246C81.7089 47.3763 81.8479 47.0536 81.9501 46.4176C81.74 45.906 81.565 45.6224 81.0969 45.3218C80.5969 45.1292 80.1982 45.1319 79.6637 45.1446C79.1977 45.1556 79.1977 45.1556 78.7223 45.1669Z" fill="black"/>
<path d="M137.719 26.228C139.006 26.2003 139.006 26.2003 140.319 26.1721C140.587 26.164 140.855 26.1559 141.13 26.1475C142.493 26.1334 143.506 26.1692 144.533 27.1213C145.357 27.9476 145.636 28.605 145.654 29.7678C145.64 30.8021 145.539 31.4787 144.781 32.2343C143.693 33.2062 142.973 33.4278 141.529 33.397C140.797 33.3859 140.797 33.3859 140.05 33.3746C140.05 34.4949 140.05 35.6151 140.05 36.7693C139.281 36.7693 138.511 36.7693 137.719 36.7693C137.719 33.2907 137.719 29.812 137.719 26.228ZM140.05 28.372C140.05 29.3153 140.05 30.2587 140.05 31.2306C141.337 31.3013 141.337 31.3013 142.572 31.0296C143.037 30.5813 143.176 30.2586 143.278 29.6226C143.068 29.111 142.893 28.8275 142.425 28.5269C141.925 28.3343 141.526 28.337 140.991 28.3496C140.525 28.3607 140.525 28.3607 140.05 28.372Z" fill="black"/>
<path d="M119.261 28.8508C120.259 29.5303 120.767 30.3681 121.141 31.498C121.251 32.1145 121.221 32.7486 121.221 33.3747C119.209 33.4337 117.197 33.4926 115.124 33.5534C115.554 34.4235 115.554 34.4235 116.066 34.6924C116.715 34.8394 117.17 34.7888 117.814 34.6254C117.918 34.5052 118.023 34.3849 118.13 34.2611C118.697 33.7664 119.092 33.8387 119.832 33.866C120.058 33.8725 120.285 33.8789 120.518 33.8856C120.777 33.898 120.777 33.898 121.042 33.9107C120.672 35.1343 120.09 35.9969 118.98 36.6689C117.835 37.1756 116.404 37.1635 115.213 36.8175C114.1 36.3017 113.263 35.4677 112.745 34.3581C112.394 33.1612 112.383 31.7365 112.916 30.5942C114.289 28.3595 116.892 27.6123 119.261 28.8508ZM115.124 31.2307C115.124 31.4076 115.124 31.5845 115.124 31.7667C116.308 31.7667 117.491 31.7667 118.711 31.7667C118.445 30.8971 118.445 30.8971 117.96 30.5495C116.717 30.0265 116.001 30.3146 115.124 31.2307Z" fill="black"/>
<path d="M83.5756 28.8508C84.5744 29.5303 85.0819 30.3681 85.4564 31.498C85.5664 32.1145 85.5362 32.7486 85.5362 33.3747C83.5242 33.4337 81.5122 33.4926 79.4393 33.5534C79.8691 34.4235 79.8691 34.4235 80.3807 34.6924C81.0299 34.8394 81.4847 34.7888 82.1291 34.6254C82.2333 34.5052 82.3376 34.3849 82.445 34.2611C83.0117 33.7664 83.4066 33.8387 84.1465 33.866C84.373 33.8725 84.5995 33.8789 84.8329 33.8856C85.0923 33.898 85.0923 33.898 85.3569 33.9107C84.9867 35.1343 84.4052 35.9969 83.2947 36.6689C82.1498 37.1756 80.7187 37.1635 79.5282 36.8175C78.4145 36.3017 77.5775 35.4677 77.0598 34.3581C76.7093 33.1612 76.6984 31.7365 77.2314 30.5942C78.6039 28.3595 81.2068 27.6123 83.5756 28.8508ZM79.4393 31.2307C79.4393 31.4076 79.4393 31.5845 79.4393 31.7667C80.6228 31.7667 81.8063 31.7667 83.0257 31.7667C82.7595 30.8971 82.7595 30.8971 82.2748 30.5495C81.0315 30.0265 80.3159 30.3146 79.4393 31.2307Z" fill="black"/>
<path d="M187.044 12.0559C188.043 12.7354 188.551 13.5732 188.925 14.7031C189.035 15.3195 189.005 15.9537 189.005 16.5798C186.993 16.6387 184.981 16.6977 182.908 16.7585C183.338 17.6286 183.338 17.6286 183.849 17.8975C184.499 18.0445 184.953 17.9939 185.598 17.8305C185.702 17.7102 185.806 17.59 185.914 17.4661C186.48 16.9715 186.875 17.0438 187.615 17.0711C187.842 17.0776 188.068 17.084 188.302 17.0907C188.561 17.1031 188.561 17.1031 188.826 17.1158C188.455 18.3394 187.874 19.202 186.763 19.874C185.619 20.3807 184.187 20.3686 182.997 20.0226C181.883 19.5067 181.046 18.6728 180.529 17.5632C180.178 16.3663 180.167 14.9416 180.7 13.7993C182.073 11.5646 184.676 10.8173 187.044 12.0559ZM182.908 14.4358C182.908 14.6127 182.908 14.7895 182.908 14.9718C184.092 14.9718 185.275 14.9718 186.494 14.9718C186.228 14.1022 186.228 14.1022 185.744 13.7546C184.5 13.2316 183.785 13.5197 182.908 14.4358Z" fill="black"/>
<path d="M177.54 12.0559C178.539 12.7354 179.047 13.5732 179.421 14.7031C179.531 15.3195 179.501 15.9537 179.501 16.5798C177.489 16.6387 175.477 16.6977 173.404 16.7585C173.834 17.6286 173.834 17.6286 174.346 17.8975C174.995 18.0445 175.45 17.9939 176.094 17.8305C176.198 17.7102 176.302 17.59 176.41 17.4661C176.977 16.9715 177.371 17.0438 178.111 17.0711C178.338 17.0776 178.564 17.084 178.798 17.0907C179.057 17.1031 179.057 17.1031 179.322 17.1158C178.952 18.3394 178.37 19.202 177.26 19.874C176.115 20.3807 174.683 20.3686 173.493 20.0226C172.379 19.5067 171.542 18.6728 171.025 17.5632C170.674 16.3663 170.663 14.9416 171.196 13.7993C172.569 11.5646 175.172 10.8173 177.54 12.0559ZM173.404 14.4358C173.404 14.6127 173.404 14.7895 173.404 14.9718C174.588 14.9718 175.771 14.9718 176.991 14.9718C176.724 14.1022 176.724 14.1022 176.24 13.7546C174.996 13.2316 174.281 13.5197 173.404 14.4358Z" fill="black"/>
<path d="M131.993 12.0559C132.991 12.7354 133.499 13.5732 133.873 14.7031C133.983 15.3195 133.953 15.9537 133.953 16.5798C131.941 16.6387 129.929 16.6977 127.856 16.7585C128.286 17.6286 128.286 17.6286 128.798 17.8975C129.447 18.0445 129.902 17.9939 130.546 17.8305C130.65 17.7102 130.755 17.59 130.862 17.4661C131.429 16.9715 131.824 17.0438 132.563 17.0711C132.79 17.0776 133.017 17.084 133.25 17.0907C133.509 17.1031 133.509 17.1031 133.774 17.1158C133.404 18.3394 132.822 19.202 131.712 19.874C130.567 20.3807 129.136 20.3686 127.945 20.0226C126.832 19.5067 125.995 18.6728 125.477 17.5632C125.126 16.3663 125.115 14.9416 125.648 13.7993C127.021 11.5646 129.624 10.8173 131.993 12.0559ZM127.856 14.4358C127.856 14.6127 127.856 14.7895 127.856 14.9718C129.04 14.9718 130.223 14.9718 131.443 14.9718C131.176 14.1022 131.176 14.1022 130.692 13.7546C129.448 13.2316 128.733 13.5197 127.856 14.4358Z" fill="black"/>
<path d="M202.387 28.7518C203.393 29.3437 204.089 30.1037 204.514 31.2119C204.858 32.6245 204.695 33.8822 203.975 35.1391C203.346 36.0372 202.465 36.7102 201.378 36.9481C199.924 37.0806 198.437 37.1997 197.253 36.2334C196.349 35.3738 195.71 34.5974 195.579 33.3266C195.562 31.805 195.618 30.7527 196.692 29.629C198.26 28.1854 200.413 27.8324 202.387 28.7518ZM198.509 31.0521C198.042 31.6823 197.929 32.1736 197.971 32.9393C198.065 33.5187 198.171 33.7631 198.509 34.2681C199.218 34.7391 199.813 34.8578 200.661 34.8041C201.327 34.5296 201.744 34.1824 202.095 33.5534C202.285 32.8223 202.324 32.4319 202.05 31.7221C201.585 30.9763 201.585 30.9763 200.831 30.5845C199.905 30.4793 199.292 30.4758 198.509 31.0521Z" fill="black"/>
<path d="M153.074 28.7518C154.08 29.3437 154.776 30.1037 155.201 31.2119C155.545 32.6245 155.382 33.8822 154.662 35.1391C154.033 36.0372 153.152 36.7102 152.065 36.9481C150.612 37.0806 149.124 37.1997 147.94 36.2334C147.036 35.3738 146.397 34.5974 146.266 33.3266C146.249 31.805 146.305 30.7527 147.379 29.629C148.947 28.1854 151.1 27.8324 153.074 28.7518ZM149.196 31.0521C148.729 31.6823 148.616 32.1736 148.658 32.9393C148.752 33.5187 148.858 33.7631 149.196 34.2681C149.905 34.7391 150.5 34.8578 151.348 34.8041C152.014 34.5296 152.431 34.1824 152.782 33.5534C152.972 32.8223 153.011 32.4319 152.737 31.7221C152.272 30.9763 152.272 30.9763 151.518 30.5845C150.592 30.4793 149.979 30.4758 149.196 31.0521Z" fill="black"/>
<path d="M93.18 28.7518C94.1863 29.3437 94.8825 30.1037 95.3073 31.2119C95.6519 32.6245 95.4884 33.8822 94.7687 35.1391C94.139 36.0372 93.2586 36.7102 92.1713 36.9481C90.718 37.0806 89.2301 37.1997 88.0469 36.2334C87.1427 35.3738 86.5038 34.5974 86.3728 33.3266C86.3559 31.805 86.4119 30.7527 87.4858 29.629C89.0533 28.1854 91.2069 27.8324 93.18 28.7518ZM89.3022 31.0521C88.8353 31.6823 88.722 32.1736 88.7642 32.9393C88.8583 33.5187 88.9643 33.7631 89.3022 34.2681C90.0113 34.7391 90.6067 34.8578 91.454 34.8041C92.1209 34.5296 92.5379 34.1824 92.8886 33.5534C93.0788 32.8223 93.1177 32.4319 92.8438 31.7221C92.3781 30.9763 92.3781 30.9763 91.6242 30.5845C90.6981 30.4793 90.0858 30.4758 89.3022 31.0521Z" fill="black"/>
<path d="M157.198 11.9568C158.204 12.5488 158.9 13.3088 159.325 14.417C159.669 15.8296 159.506 17.0873 158.786 18.3442C158.157 19.2422 157.276 19.9153 156.189 20.1532C154.736 20.2857 153.248 20.4047 152.064 19.4385C151.16 18.5789 150.521 17.8024 150.39 16.5317C150.374 15.0101 150.429 13.9577 151.503 12.8341C153.071 11.3905 155.225 11.0375 157.198 11.9568ZM153.32 14.2572C152.853 14.8874 152.74 15.3787 152.782 16.1443C152.876 16.7238 152.982 16.9682 153.32 17.4732C154.029 17.9442 154.624 18.0629 155.472 18.0092C156.139 17.7347 156.555 17.3875 156.906 16.7585C157.096 16.0274 157.135 15.6369 156.861 14.9272C156.396 14.1814 156.396 14.1814 155.642 13.7896C154.716 13.6844 154.103 13.6809 153.32 14.2572Z" fill="black"/>
<path d="M82.4207 11.9568C83.427 12.5488 84.1233 13.3088 84.548 14.417C84.8926 15.8296 84.7291 17.0873 84.0094 18.3442C83.3798 19.2422 82.4993 19.9153 81.412 20.1532C79.9587 20.2857 78.4708 20.4047 77.2876 19.4385C76.3834 18.5789 75.7445 17.8024 75.6135 16.5317C75.5967 15.0101 75.6526 13.9577 76.7265 12.8341C78.294 11.3905 80.4477 11.0375 82.4207 11.9568ZM78.5429 14.2572C78.076 14.8874 77.9627 15.3787 78.0049 16.1443C78.0991 16.7238 78.205 16.9682 78.5429 17.4732C79.252 17.9442 79.8474 18.0629 80.6947 18.0092C81.3617 17.7347 81.7786 17.3875 82.1293 16.7585C82.3196 16.0274 82.3585 15.6369 82.0845 14.9272C81.6189 14.1814 81.6189 14.1814 80.8649 13.7896C79.9389 13.6844 79.3265 13.6809 78.5429 14.2572Z" fill="black"/>
<path d="M196.178 11.5773C196.999 11.9846 197.429 12.4652 197.971 13.1853C198.192 13.8456 198.173 14.4544 198.168 15.1416C198.168 15.2796 198.167 15.4177 198.167 15.5599C198.166 16.0004 198.164 16.4409 198.161 16.8815C198.161 17.1803 198.16 17.4791 198.159 17.778C198.157 18.5102 198.154 19.2424 198.15 19.9746C197.381 19.9746 196.612 19.9746 195.819 19.9746C195.816 19.8097 195.812 19.6447 195.808 19.4747C195.794 18.8623 195.779 18.25 195.762 17.6377C195.755 17.3728 195.749 17.1078 195.743 16.8428C195.735 16.4618 195.725 16.0809 195.714 15.6999C195.706 15.3561 195.706 15.3561 195.697 15.0053C195.682 14.4085 195.682 14.4085 195.281 13.9C194.64 13.7014 194.329 13.6655 193.712 13.9446C193.271 14.2526 193.271 14.2526 192.95 14.7933C192.884 15.3476 192.884 15.3476 192.876 15.9791C192.865 16.3271 192.865 16.3271 192.855 16.6822C192.849 16.9273 192.843 17.1724 192.838 17.4175C192.831 17.6647 192.824 17.9118 192.817 18.159C192.8 18.7642 192.785 19.3694 192.771 19.9746C192.001 19.9746 191.232 19.9746 190.439 19.9746C190.439 17.2625 190.439 14.5503 190.439 11.756C190.972 11.756 191.505 11.756 192.053 11.756C192.231 11.9329 192.408 12.1097 192.591 12.292C192.784 12.1741 192.976 12.0561 193.174 11.9346C194.134 11.4557 195.126 11.4168 196.178 11.5773Z" fill="black"/>
<path d="M206.04 28.5508C206.81 28.5508 207.579 28.5508 208.372 28.5508C208.378 28.8866 208.385 29.2224 208.392 29.5683C208.404 30.0108 208.416 30.4533 208.428 30.8958C208.432 31.1169 208.436 31.338 208.44 31.5658C208.446 31.78 208.453 31.9942 208.459 32.2148C208.464 32.4113 208.469 32.6078 208.473 32.8103C208.562 33.4525 208.755 33.8927 209.089 34.4468C209.598 34.7006 209.959 34.6816 210.523 34.6254C211.034 34.2267 211.214 33.9912 211.42 33.3748C211.447 33.0061 211.465 32.6367 211.477 32.2672C211.484 32.0513 211.492 31.8354 211.5 31.6129C211.507 31.3873 211.514 31.1617 211.521 30.9293C211.529 30.7016 211.536 30.474 211.544 30.2394C211.563 29.6765 211.582 29.1137 211.599 28.5508C212.369 28.5508 213.138 28.5508 213.931 28.5508C213.944 29.3134 213.954 30.0759 213.96 30.8386C213.963 31.0975 213.966 31.3564 213.971 31.6152C214.026 34.7437 214.026 34.7437 213.097 35.8803C212.995 35.96 212.893 36.0397 212.787 36.1218C212.686 36.2042 212.585 36.2867 212.481 36.3716C211.309 37.1198 210.081 37.0699 208.73 36.9481C207.66 36.6568 207.013 36.0609 206.399 35.1614C206.062 34.3426 205.998 33.6546 206.005 32.7732C206.006 32.6518 206.006 32.5303 206.007 32.4052C206.009 32.0212 206.013 31.6372 206.018 31.2531C206.02 30.9912 206.021 30.7292 206.023 30.4673C206.027 29.8284 206.033 29.1896 206.04 28.5508Z" fill="black"/>
<path d="M135.208 11.7559C135.978 11.7559 136.747 11.7559 137.54 11.7559C137.546 12.0917 137.553 12.4275 137.56 12.7734C137.572 13.2159 137.584 13.6584 137.596 14.1009C137.6 14.322 137.604 14.5431 137.608 14.7709C137.614 14.985 137.621 15.1992 137.627 15.4199C137.632 15.6164 137.637 15.8129 137.641 16.0153C137.73 16.6576 137.923 17.0978 138.257 17.6519C138.766 17.9056 139.127 17.8867 139.691 17.8305C140.202 17.4317 140.382 17.1963 140.588 16.5799C140.615 16.2112 140.633 15.8417 140.645 15.4723C140.652 15.2563 140.66 15.0404 140.668 14.818C140.675 14.5924 140.682 14.3668 140.689 14.1344C140.697 13.9067 140.704 13.679 140.712 13.4445C140.731 12.8816 140.749 12.3187 140.767 11.7559C141.537 11.7559 142.306 11.7559 143.099 11.7559C143.112 12.5185 143.122 13.281 143.128 14.0437C143.131 14.3026 143.134 14.5615 143.139 14.8203C143.194 17.9488 143.194 17.9488 142.265 19.0854C142.163 19.1651 142.061 19.2448 141.955 19.3269C141.854 19.4093 141.753 19.4918 141.649 19.5767C140.477 20.3248 139.249 20.275 137.898 20.1532C136.828 19.8618 136.181 19.266 135.567 18.3665C135.23 17.5477 135.166 16.8597 135.173 15.9783C135.174 15.8568 135.174 15.7354 135.175 15.6103C135.177 15.2262 135.181 14.8422 135.186 14.4582C135.188 14.1962 135.189 13.9343 135.191 13.6723C135.195 13.0335 135.201 12.3947 135.208 11.7559Z" fill="black"/>
<path d="M127.61 28.6514C128.322 29.0807 128.612 29.5799 128.932 30.3376C128.932 30.6324 128.932 30.9272 128.932 31.2309C128.163 31.2309 127.394 31.2309 126.601 31.2309C126.542 30.9951 126.483 30.7592 126.422 30.5162C125.475 30.3019 125.475 30.3019 124.629 30.6949C124.688 30.8718 124.747 31.0487 124.808 31.2309C125.118 31.3736 125.118 31.3736 125.5 31.4473C125.641 31.4818 125.782 31.5163 125.927 31.5519C126.224 31.6201 126.521 31.6876 126.818 31.7543C127.759 31.9863 128.311 32.2303 128.932 33.0176C129.211 33.8506 129.209 34.534 128.91 35.3626C128.409 36.1283 127.848 36.6533 126.96 36.9482C126.523 36.9745 126.086 36.9877 125.648 36.9929C125.416 36.9975 125.184 37.0021 124.944 37.0069C124.008 36.9254 123.43 36.5897 122.69 36.0326C122.144 35.3178 122.158 34.8001 122.118 33.9109C122.828 33.9109 123.538 33.9109 124.27 33.9109C124.388 34.1467 124.507 34.3826 124.629 34.6256C125.06 34.8405 125.337 34.8222 125.817 34.8154C126.036 34.813 126.036 34.813 126.261 34.8105C126.373 34.8084 126.485 34.8064 126.601 34.8042C126.512 34.362 126.512 34.362 126.422 33.9109C126.227 33.8697 126.032 33.8284 125.832 33.786C125.573 33.7273 125.314 33.6684 125.054 33.6094C124.863 33.5695 124.863 33.5695 124.667 33.5288C123.59 33.2778 122.822 32.8559 122.219 31.8897C122.043 31.0543 122.068 30.3504 122.519 29.6229C123.731 28.1285 125.852 27.8828 127.61 28.6514Z" fill="black"/>
<path d="M103.468 9.61182C103.468 10.3193 103.468 11.0269 103.468 11.7558C104.238 11.7558 105.007 11.7558 105.8 11.7558C105.8 12.3454 105.8 12.935 105.8 13.5425C105.089 13.5425 104.379 13.5425 103.648 13.5425C103.707 14.8986 103.766 16.2546 103.827 17.6518C104.537 17.7697 105.247 17.8877 105.979 18.0091C105.979 18.6577 105.979 19.3063 105.979 19.9745C105.523 19.9939 105.068 20.008 104.612 20.0191C104.484 20.0251 104.356 20.0311 104.224 20.0373C103.289 20.0544 102.765 19.8902 102.034 19.2598C101.195 18.4052 101.241 17.5751 101.253 16.4423C101.259 16.2297 101.266 16.0172 101.272 15.7981C101.275 15.5814 101.278 15.3647 101.282 15.1414C101.29 14.6083 101.302 14.0755 101.317 13.5425C100.784 13.5425 100.251 13.5425 99.7026 13.5425C99.9142 12.6995 100.328 12.2846 100.913 11.6776C101.007 11.5776 101.102 11.4775 101.199 11.3744C101.386 11.1769 101.574 10.9804 101.763 10.7851C102.018 10.5215 102.268 10.2535 102.519 9.9852C102.93 9.61182 102.93 9.61182 103.468 9.61182Z" fill="black"/>
<path d="M117.814 8.71875C118.584 8.71875 119.353 8.71875 120.146 8.71875C120.146 12.4332 120.146 16.1477 120.146 19.9748C119.376 19.9748 118.607 19.9748 117.814 19.9748C117.814 16.2603 117.814 12.5458 117.814 8.71875Z" fill="black"/>
<path d="M96.8335 28.5505C97.3661 28.5505 97.8987 28.5505 98.4474 28.5505C98.5657 28.7863 98.6841 29.0221 98.806 29.2651C98.9429 29.1472 99.0797 29.0293 99.2207 28.9078C100.034 28.3532 100.905 28.5043 101.854 28.5505C101.854 29.258 101.854 29.9655 101.854 30.6945C101.306 30.7701 100.757 30.8457 100.208 30.9213C99.6466 31.0065 99.6466 31.0065 99.344 31.5878C99.2777 32.142 99.2777 32.142 99.2697 32.7736C99.2593 33.1216 99.2593 33.1216 99.2487 33.4767C99.2431 33.7218 99.2375 33.9669 99.2319 34.212C99.2251 34.4592 99.2181 34.7063 99.2109 34.9535C99.194 35.5587 99.1791 36.1639 99.1647 36.7691C98.3954 36.7691 97.6261 36.7691 96.8335 36.7691C96.8335 34.057 96.8335 31.3448 96.8335 28.5505Z" fill="black"/>
<path d="M145.071 11.756C145.604 11.756 146.136 11.756 146.685 11.756C146.804 11.9919 146.922 12.2277 147.044 12.4707C147.181 12.3528 147.318 12.2349 147.459 12.1134C148.272 11.5587 149.143 11.7099 150.092 11.756C150.092 12.4636 150.092 13.1711 150.092 13.9C149.544 13.9756 148.995 14.0513 148.446 14.1269C147.884 14.2121 147.884 14.2121 147.582 14.7934C147.516 15.3476 147.516 15.3476 147.508 15.9791C147.497 16.3272 147.497 16.3272 147.487 16.6823C147.481 16.9274 147.475 17.1725 147.47 17.4175C147.463 17.6647 147.456 17.9119 147.449 18.1591C147.432 18.7642 147.417 19.3695 147.402 19.9747C146.633 19.9747 145.864 19.9747 145.071 19.9747C145.071 17.2625 145.071 14.5504 145.071 11.756Z" fill="black"/>
<path d="M181.473 28.5508C182.242 28.5508 183.012 28.5508 183.804 28.5508C183.804 31.2629 183.804 33.9751 183.804 36.7694C183.035 36.7694 182.266 36.7694 181.473 36.7694C181.473 34.0573 181.473 31.3451 181.473 28.5508Z" fill="black"/>
<path d="M96.4751 11.7559C97.2444 11.7559 98.0137 11.7559 98.8063 11.7559C98.8063 14.468 98.8063 17.1802 98.8063 19.9745C98.037 19.9745 97.2677 19.9745 96.4751 19.9745C96.4751 17.2624 96.4751 14.5502 96.4751 11.7559Z" fill="black"/>
<path d="M85.3569 48.2041C87.0139 48.2041 88.6708 48.2041 90.3779 48.2041C90.3779 48.9116 90.3779 49.6191 90.3779 50.3481C88.721 50.3481 87.0641 50.3481 85.3569 50.3481C85.3569 49.6406 85.3569 48.9331 85.3569 48.2041Z" fill="black"/>
<path d="M130.546 31.4092C132.203 31.4092 133.86 31.4092 135.567 31.4092C135.567 32.1167 135.567 32.8242 135.567 33.5532C133.91 33.5532 132.253 33.5532 130.546 33.5532C130.546 32.8457 130.546 32.1381 130.546 31.4092Z" fill="black"/>
<path d="M80.8896 8.34187C81.7087 8.50282 82.111 8.93612 82.5777 9.60091C83.2053 10.5984 83.2053 10.5984 83.2053 10.8627C82.8619 10.8821 82.5181 10.8959 82.1742 10.9074C81.8871 10.9198 81.8871 10.9198 81.5942 10.9325C80.9391 10.848 80.7446 10.6499 80.3362 10.1481C79.8936 10.3539 79.6103 10.514 79.2603 10.8627C78.7545 10.8976 78.7545 10.8976 78.1619 10.8851C77.9654 10.8819 77.7689 10.8786 77.5665 10.8753C77.4153 10.8712 77.2642 10.867 77.1084 10.8627C77.2262 10.6236 77.3462 10.3856 77.467 10.1481C77.5359 10.009 77.6048 9.86986 77.6758 9.72653C78.4591 8.44945 79.4606 8.21227 80.8896 8.34187Z" fill="black"/>
<path d="M174.838 8.54004C175.667 8.54004 176.495 8.54004 177.349 8.54004C176.667 10.2389 176.667 10.2389 175.914 10.8627C175.298 10.9827 174.74 10.9505 174.121 10.8627C174.227 9.99678 174.476 9.32484 174.838 8.54004Z" fill="black"/>
<path d="M181.473 25.3345C182.242 25.3345 183.012 25.3345 183.804 25.3345C183.804 26.042 183.804 26.7495 183.804 27.4785C183.035 27.4785 182.266 27.4785 181.473 27.4785C181.473 26.771 181.473 26.0634 181.473 25.3345Z" fill="black"/>
<path d="M96.4751 8.54004C97.2444 8.54004 98.0137 8.54004 98.8063 8.54004C98.8063 9.24756 98.8063 9.95508 98.8063 10.684C98.037 10.684 97.2677 10.684 96.4751 10.684C96.4751 9.97652 96.4751 9.269 96.4751 8.54004Z" fill="black"/>
<path d="M25.7437 20.7342C26.1808 20.8682 26.1808 20.8682 26.5394 21.2255C26.4398 22.0394 26.4398 22.0394 26.1808 22.2975C25.5644 22.331 25.5644 22.331 24.9255 22.2975C24.8072 22.1796 24.6888 22.0616 24.5669 21.9402C24.6005 21.4935 24.6005 21.4935 24.7462 21.0468C25.2842 20.6895 25.2842 20.6895 25.7437 20.7342Z" fill="black"/>
</svg>
