<svg width="80" height="74" viewBox="0 0 80 74" fill="none" xmlns="http://www.w3.org/2000/svg">
<g clip-path="url(#clip0_9203_59928)">
<path d="M80 0.357508V55.3928C79.4145 57.3551 79.0962 58.8511 78.3069 60.8118C76.3749 65.6123 73.249 70.1581 68.642 72.7049C68.3171 72.8843 65.84 74.0257 65.8707 74.0002H31.3556H23.458H22.5872H16.4906H8.54681H6.7742H4.07406H2.54496H0V68.8182V68.4237V66.203V63.5298V62.1667V55.254V54.1423V47.9509V24.4155C0.165092 24.1118 0.441149 21.2021 0.576669 20.4606C2.18044 11.6859 7.8336 1.71627 17.504 0.482699C19.6232 0.212379 22.4267 0.346824 24.627 0.347508L36.8519 0.351794L65.2669 0.351444C70.1476 0.351162 75.1291 0.29698 80 0.357508Z" fill="#061024"/>
<path d="M15.1059 55.248L15.14 55.2238C15.855 54.7097 16.2612 54.0954 16.8857 53.5503C18.4088 52.2487 20.7111 51.9638 22.6248 52.2703C24.35 52.5892 25.9963 53.7274 26.991 55.1439C28.8351 57.7696 28.6033 60.8998 25.8467 62.742C23.9731 63.9941 21.0943 63.7783 19.7778 61.8281C18.5786 60.0518 18.919 58.1219 20.6638 56.8953C21.7269 56.1625 22.877 56.245 24.0983 56.4451C24.9414 57.3141 26.0205 58.56 25.2178 59.837C24.8202 60.4693 23.6421 58.985 22.8345 59.112C22.4129 59.4866 22.5598 60.502 22.8433 60.9372C23.7064 61.5737 24.6449 61.5373 25.5525 61.0095C27.8664 59.6687 26.8699 56.4382 24.9975 55.2159C24.6077 54.9615 24.1999 54.7297 23.7133 54.5493C22.7273 54.1832 19.7006 54.1305 19.7261 55.6658C19.731 55.9615 20.1171 56.1995 20.3619 56.3668C19.886 56.6029 19.1643 56.9867 18.6852 57.1537C16.4391 60.1968 18.5274 62.7236 20.6493 64.9839C21.0947 65.0203 21.9493 65.1689 22.275 65.5035C22.4305 65.6633 22.6815 66.8457 22.8603 66.9308C23.0434 67.0186 24.1154 67.3742 24.2842 67.5526C24.7732 68.069 24.2895 69.436 24.3054 70.0866C24.3118 70.3469 24.4534 70.9321 24.5104 71.1835C25.2994 69.9121 26.2131 68.3162 27.275 67.3093C26.7595 65.8762 26.3002 65.2904 28.0111 64.7685C28.2073 65.107 28.4971 65.6404 28.709 65.9472C29.6446 65.5019 30.5269 65.0379 31.4866 64.6453C35.1241 63.1575 38.8296 63.0026 42.5403 64.3248C46.1106 65.5969 49.3151 69.2461 47.7749 73.2051C47.2645 72.3633 46.792 71.4779 46.4965 70.5319C46.1481 69.4174 45.5973 67.7049 44.0805 68.4439C43.9411 68.5123 43.7641 68.6698 43.6289 68.7582C42.458 67.0808 41.8382 66.5104 39.7422 66.1401L39.6737 66.1283C40.2696 67.6433 42.027 67.9298 41.4141 69.6721C40.3698 72.6393 27.9957 70.843 33.4 67.0065C33.6417 66.8349 33.8644 66.7013 33.8376 66.4112C32.8335 65.8791 30.7935 66.7881 29.9638 67.456C30.1794 68.0962 30.3415 68.3846 30.6877 68.9701C29.8866 70.4642 29.321 69.9999 28.5813 68.8064C27.3413 70.0097 26.6576 70.5444 25.9111 72.1046C27.9333 72.1383 30.4407 71.7323 31.3558 74.0001H23.4582H22.5874H16.4908H8.54702H6.77441C7.28746 72.0254 8.03352 71.1979 9.90509 70.3178C9.58813 69.7766 9.33095 69.2189 9.54036 68.6125C10.1551 66.8326 12.35 66.8693 13.8202 67.3529C14.5943 67.6073 15.2238 68.1469 15.8233 68.5952C16.7218 68.621 17.4484 68.4924 18.1545 67.8617C18.6395 67.4282 18.5469 67.0733 18.4337 66.4947C18.1087 64.8317 16.408 64.3451 15.1416 63.5782C13.5283 62.6208 12.0509 60.8854 12.1412 58.9008C12.1741 56.9156 12.5025 55.8076 13.9734 54.4772C14.3065 54.7094 14.767 55.0483 15.1059 55.248Z" fill="#FEFEFE"/>
<path d="M8.54688 74.0001C9.40931 71.8724 12.821 72.0951 14.6829 71.8394C17.4264 71.4622 19.3513 70.6495 20.7017 68.1187C20.7037 68.1151 21.0667 68.1289 21.0944 68.1613C21.7773 68.5703 21.0459 69.639 21.9453 70.0935C22.2464 70.2457 22.5855 70.4501 22.8792 70.6053C23.2531 71.6972 23.6573 72.822 23.4581 74.0001H22.5873H16.4906H8.54688Z" fill="#061024"/>
<path d="M16.4907 73.9999C18.3406 72.3568 20.7946 72.0746 22.5874 73.9999H16.4907Z" fill="#FEFEFE"/>
<path d="M0 47.9507C1.08366 47.0814 2.02969 46.7576 3.31425 46.2867C3.92754 46.0618 4.72441 45.4711 5.32931 45.3516C5.90886 45.8869 5.68927 47.1744 5.74103 47.934C7.03915 48.2755 8.25877 48.2605 9.38527 49.1102C10.4022 49.8774 10.9595 51.0027 11.1775 52.249C10.6359 53.7286 9.78067 54.7669 8.08908 54.9375C7.27559 55.0197 6.07399 54.6399 6.08379 53.65C6.09349 52.5856 7.41375 51.8449 8.35974 52.2097C8.64127 52.3164 8.73535 52.6222 9.12575 52.6209C9.23318 52.5014 9.26922 52.4369 9.23314 52.2689C9.0337 51.3393 7.21656 50.6406 6.45744 50.7549C4.83882 50.9988 3.86753 52.2034 2.54729 53.0184C1.86053 53.4362 0.764235 53.8432 0 54.1422V47.9507Z" fill="#FEFEFE"/>
<path d="M0 55.2539C0.22128 55.1871 0.484816 55.0584 0.682955 55.1848C1.15003 55.4828 1.6296 55.9012 2.10511 56.175C3.35141 56.8924 4.9409 56.5116 6.24473 56.4752C5.10642 57.225 4.43363 57.3639 3.38573 57.8753C2.22493 58.4421 0.788379 61.0645 0 62.1667V55.2539Z" fill="#FEFEFE"/>
<path d="M0 63.5298C2.45565 64.1837 4.53985 66.3657 1.51293 68.2759C1.10693 68.532 0.467703 68.6823 0 68.8182V68.4236V66.203V63.5298Z" fill="#FEFEFE"/>
<path d="M0 66.2026C2.19467 66.7413 1.71251 67.6397 0 68.4233V66.2026Z" fill="#061024"/>
<path d="M1.90507 70.5879C4.26936 71.1468 4.12255 71.8338 4.07429 74.0001H2.54519C2.58204 73.6245 2.65546 73.1517 2.42898 72.8357C1.80365 72.5047 0.704605 73.4949 0.400521 72.5086C-0.0305011 71.1111 0.921187 70.8832 1.90507 70.5879Z" fill="#FEFEFE"/>
<path d="M43.9515 21.9604C47.1845 22.5558 53.1276 21.0056 55.7239 22.8913C59.4114 25.5696 57.8382 31.4519 53.1946 32.305C55.1779 35.7871 57.3516 38.9475 59.4424 42.3374C57.2462 42.2365 56.1977 42.2405 53.9972 42.3515C53.4398 41.1969 52.4791 39.5948 51.8388 38.4544C50.7701 36.552 49.6951 34.5582 48.5807 32.6959C48.5559 36.0801 48.6538 38.9416 48.8233 42.3266C47.0209 42.2421 45.7072 42.2503 43.9058 42.3214C44.2777 37.3146 44.1425 32.3629 44.1735 27.3512C44.181 26.1239 43.8333 22.9493 43.9515 21.9604Z" fill="#FEFEFE"/>
<path d="M48.668 23.7217C50.8593 23.7534 52.8806 23.7381 53.1127 26.5873C53.2411 28.1597 53.1147 29.4005 52.0819 30.6618C51.0366 31.6455 49.9199 31.68 48.5743 31.682C48.5655 28.9912 48.6657 26.3886 48.668 23.7217Z" fill="#061024"/>
<path d="M22.7592 22.0176C23.9799 22.1515 26.4784 22.1442 27.6879 21.999C27.4978 24.5261 27.4439 27.5644 27.4376 30.1188C28.8963 30.103 30.345 30.2127 31.7911 30.2044C33.2926 30.1959 34.8218 30.1319 36.3287 30.1025C36.3499 27.2834 36.2125 24.8326 36.0714 22.0079C37.2518 22.1614 39.8125 22.1354 40.9896 22.0035C40.9027 24.2076 40.7855 26.4358 40.7424 28.6389C40.6523 33.2084 40.7976 37.7604 40.9873 42.3232L39.5512 42.3242L36.0672 42.3114C36.299 38.9804 36.3362 35.9183 36.3303 32.5846C33.2629 32.529 30.5388 32.4399 27.4355 32.5801C27.4272 35.8138 27.5223 39.0947 27.6808 42.3245L22.7524 42.3078C23.0696 35.4477 23.153 28.8942 22.7592 22.0176Z" fill="#FEFEFE"/>
<path d="M60.3198 22.0131C61.2945 22.2158 64.0876 22.1614 65.0921 22.0034C64.8001 25.4619 64.6241 28.9431 64.7006 32.4163C64.7479 34.5657 64.7923 37.5234 66.4612 39.1115C67.5045 40.1039 69.1038 40.2906 70.4828 40.2516C71.5828 40.2205 72.5951 39.9065 73.365 39.0797C76.2539 35.9773 75.1303 26.1748 75.0081 22.0285C76.2062 22.1662 76.7992 22.1442 77.9766 22.0615L77.9407 23.0214C77.8372 23.8049 77.8372 25.119 77.8016 25.9495C77.7412 27.3645 77.6602 28.82 77.6429 30.234C77.6034 33.4502 77.928 37.4498 75.542 39.9726C73.8578 41.7428 71.5841 42.1766 69.2452 42.2405C65.5877 42.3318 61.6152 41.0961 60.6362 37.1292C60.2627 35.5883 60.28 33.9564 60.3469 32.3765C60.4935 28.9143 60.3538 25.4722 60.3198 22.0131Z" fill="#FEFEFE"/>
<path d="M12.4633 21.8083C12.5805 21.7717 13.2567 21.7649 13.4423 21.7579C15.7957 21.6691 17.7335 22.2163 19.8704 23.1173C19.5182 23.9674 19.2642 25.473 19.0814 26.4058C18.0923 25.6886 17.3983 24.4813 16.1594 24.0738C10.1765 22.1059 7.17202 27.5047 7.33832 32.7088C7.53169 38.762 11.8486 42.2596 17.4482 39.6962C17.9715 39.4293 19.0539 38.5793 19.459 38.5233C19.6311 38.8069 19.1158 40.5763 19.0497 41.1965C15.1047 42.9587 9.25476 42.8258 5.7827 40.0642C1.54157 36.691 1.58892 29.4755 4.79422 25.4402C6.68281 23.0625 9.56242 22.1205 12.4633 21.8083Z" fill="#FEFEFE"/>
<path d="M31.2448 46.8097C31.7553 46.9528 32.0465 46.8821 32.5497 46.7881C32.8181 47.2134 33.9436 48.4095 34.3557 48.8591C35.5446 50.1564 36.7453 51.5244 37.9753 52.7752C37.924 51.1295 37.8973 48.5706 37.9348 46.9449C38.0641 46.8857 38.9072 46.8627 39.1469 46.8451C38.8442 49.3172 38.9408 53.0172 38.9373 55.5626L38.8795 55.6232C38.6287 55.7192 38.118 55.6727 37.829 55.6638C37.5724 55.4228 37.2941 55.101 37.0649 54.8305C35.5495 53.044 33.8907 51.3656 32.3484 49.6089C32.2943 51.5637 32.3354 53.7035 32.3346 55.672L31.0815 55.6668C31.2041 55.0083 31.2081 53.9157 31.2445 53.2205C31.3569 51.0745 31.3943 48.956 31.2448 46.8097Z" fill="#FEFEFE"/>
<path d="M49.4647 46.7964C49.8432 46.9031 50.1811 46.8223 50.5557 46.8769C50.9661 46.9365 55.5526 52.1823 56.1374 52.8772C56.1704 52.147 55.9908 47.1494 56.1217 46.9113L57.2446 46.8314C57.2417 48.2283 57.1104 49.6264 57.0778 51.0157C57.0419 52.553 57.0585 54.1381 57.0602 55.6787L55.93 55.6643C54.2383 53.6414 52.2585 51.478 50.443 49.5652C50.5031 51.4666 50.3395 53.827 50.5436 55.6672L49.292 55.6702C49.3939 52.458 49.4993 50.0616 49.4647 46.7964Z" fill="#FEFEFE"/>
<path d="M43.5524 46.7485C43.9857 46.8415 44.2123 46.8025 44.6329 46.7324C45.7539 49.6207 46.8556 52.8859 48.2084 55.6635L45.8669 55.6612C45.6716 55.0188 45.2618 53.3688 44.8099 53.0486C43.9106 53.0372 43.077 53.0473 42.1781 53.0735C41.8365 53.7657 41.5093 54.9228 41.2762 55.6831L39.9175 55.6573C40.4615 54.6327 41.3108 52.4321 41.7601 51.3266C42.2701 50.0706 43.1717 48.0052 43.5524 46.7485Z" fill="#FEFEFE"/>
<path d="M43.5437 49.4907C43.8405 49.698 44.5112 51.7101 44.5961 52.1482C44.4309 52.2674 43.8924 52.2251 43.6531 52.2238L42.5171 52.2209L43.5437 49.4907Z" fill="#061024"/>
<path d="M62.8656 46.679C64.0865 46.5333 65.201 46.8116 66.3409 47.2002L65.9696 48.8626C65.1272 47.9432 64.0183 47.0745 62.7572 47.694C59.3201 49.3826 60.5528 56.7564 65.2199 54.6143C65.6235 54.4146 65.9654 54.1386 66.3265 53.8691C66.2054 54.3429 66.0996 54.892 65.9948 55.3749C64.1936 56.021 61.9468 56.11 60.3125 55.0046C57.9043 53.3756 58.0689 49.2192 60.399 47.5964C61.2033 47.0365 61.9213 46.8538 62.8656 46.679Z" fill="#FEFEFE"/>
<path d="M66.9561 46.8336C67.8948 46.939 68.3872 46.9233 69.3179 46.79C69.6705 47.7612 70.6684 49.6164 71.1654 50.5948C71.9595 49.4288 72.3889 48.181 73.0602 46.9433C73.1987 46.8657 74.1378 46.8572 74.43 46.829C73.7972 47.7632 73.0537 49.2036 72.5316 50.2062C71.3224 52.3705 71.6147 53.1233 71.761 55.6648L69.5301 55.6661C69.9278 51.4825 69.7485 52.303 67.7887 48.4416C67.5523 47.9754 67.1579 47.3673 66.9711 46.8834C66.9662 46.8667 66.961 46.8503 66.9561 46.8336Z" fill="#FEFEFE"/>
</g>
<defs>
<clipPath id="clip0_9203_59928">
<rect width="80" height="74" fill="white"/>
</clipPath>
</defs>
</svg>
