<svg width="204" height="52" viewBox="0 0 204 52" fill="none" xmlns="http://www.w3.org/2000/svg">
<path d="M1.03271 1.75098C17.0532 1.75098 33.0736 1.75098 49.5796 1.75098C49.5796 18.0443 49.5796 34.3376 49.5796 51.1247C33.5591 51.1247 17.5386 51.1247 1.03271 51.1247C1.03271 34.8314 1.03271 18.538 1.03271 1.75098Z" fill="#061024"/>
<path d="M21.0023 6.82812C21.1728 6.94368 21.3432 7.05924 21.5188 7.17829C21.3286 7.80704 21.1022 8.39923 20.8302 8.99479C20.5049 9.72188 20.3088 10.4256 20.1416 11.2052C20.2876 11.226 20.4336 11.2468 20.584 11.2681C21.9038 11.5189 23.2503 11.9796 24.3593 12.7591C24.787 13.0482 24.9281 13.1289 25.4568 13.164C25.9545 12.9716 26.3322 12.7512 26.7802 12.4636C29.2447 10.9249 32.1844 10.8093 34.9574 11.4788C37.7035 12.3539 39.5902 14.0839 41.0257 16.5918C41.4413 17.4019 41.7572 18.2064 42.0049 19.084C42.0435 19.2154 42.0821 19.3467 42.1219 19.4821C42.9925 23.036 42.1206 26.873 40.3909 30.0049C39.7998 30.983 39.1191 31.8662 38.3897 32.7406C38.3011 32.8521 38.2126 32.9636 38.1214 33.0784C37.4786 33.8756 36.7604 34.5366 35.9795 35.1918C35.8914 35.266 35.8033 35.3403 35.7126 35.4168C34.3624 36.55 32.976 37.6109 31.5402 38.6292C28.2785 40.8987 28.2785 40.8987 25.6773 43.8701C25.6116 43.9529 25.546 44.0357 25.4783 44.1211C25.3647 44.1211 25.251 44.1211 25.134 44.1211C24.8778 43.8105 24.6593 43.4797 24.4326 43.1465C23.5735 42.0424 22.5593 41.197 21.4327 40.3896C21.2976 40.2914 21.1626 40.1933 21.0234 40.0922C20.1773 39.481 19.3196 38.89 18.4523 38.3104C16.5956 37.0684 14.8753 35.692 13.2555 34.1413C13.1394 34.0345 13.0234 33.9277 12.9038 33.8178C10.0828 31.1205 8.42538 27.3896 8.22811 23.4659C8.15639 19.7089 9.18057 16.528 11.735 13.7802C13.5254 12.0069 15.6695 11.0209 18.1618 11.0083C18.5348 11.0138 18.9079 11.0206 19.2808 11.0301C19.295 10.8582 19.3092 10.6862 19.3238 10.509C19.4371 9.70402 19.7723 9.05135 20.1416 8.33823C20.205 8.21161 20.2685 8.085 20.3339 7.95455C20.7984 7.03548 20.7984 7.03548 21.0023 6.82812Z" fill="#FDFDFE"/>
<path d="M55.9492 49.1987C103.329 49.1987 150.709 49.1987 199.524 49.1987C199.524 49.8343 199.524 50.4698 199.524 51.1247C152.144 51.1247 104.765 51.1247 55.9492 51.1247C55.9492 50.4891 55.9492 49.8535 55.9492 49.1987Z" fill="#061024"/>
<path d="M28.0143 13.9273C29.851 15.1233 31.0959 16.7381 31.729 18.8556C32.1801 21.0484 31.8882 23.4386 30.7264 25.3604C29.6367 26.9673 28.2764 28.2245 26.3383 28.6067C24.6563 28.8185 23.2803 28.4452 21.8632 27.4881C21.7469 27.4102 21.6307 27.3324 21.5108 27.2521C19.9384 26.0385 19.0341 24.0036 18.7645 22.0605C18.6281 20.1823 18.7536 18.3175 19.9695 16.808C20.0241 16.9186 20.0787 17.0291 20.135 17.1431C20.9189 18.6715 21.8606 20.307 23.0683 21.5352C23.0037 22.0959 22.759 22.4878 22.4658 22.9578C21.9811 23.8116 21.8852 24.5878 21.8632 25.5622C22.0514 25.4863 22.2396 25.4105 22.4335 25.3324C22.5393 25.2897 22.6452 25.2471 22.7542 25.2031C23.289 24.9201 23.5314 24.6534 23.7481 24.0774C23.7901 23.921 23.832 23.7646 23.8752 23.6034C23.9185 23.4457 23.9618 23.2879 24.0064 23.1254C24.0377 23.0051 24.069 22.8848 24.1012 22.7608C24.2388 22.8432 24.3764 22.9256 24.5181 23.0105C26.2757 24.0238 27.9319 24.5153 29.9544 24.6868C29.546 23.0949 29.039 21.9983 27.7164 21.01C26.459 20.264 24.9129 20.6854 23.5847 21.01C23.1928 20.4198 22.8023 19.8286 22.412 19.2373C22.3013 19.0707 22.1907 18.9041 22.0767 18.7325C20.6484 16.5648 20.6484 16.5648 20.6743 15.8183C21.0365 14.8642 22.0284 14.2341 22.8854 13.7549C24.3969 13.1384 26.5545 13.209 28.0143 13.9273Z" fill="#061024"/>
<path d="M122.744 18.3838C123.539 18.3838 124.335 18.3838 125.154 18.3838C125.646 19.6448 126.018 20.9343 126.392 22.2356C126.455 22.4548 126.518 22.6739 126.584 22.8997C126.739 23.4369 126.894 23.9743 127.048 24.5117C127.425 23.9372 127.665 23.3467 127.915 22.7096C127.965 22.586 128.014 22.4624 128.064 22.335C128.221 21.941 128.377 21.5467 128.533 21.1523C128.639 20.8848 128.745 20.6172 128.851 20.3497C129.112 19.6947 129.371 19.0393 129.63 18.3838C129.971 18.3838 130.312 18.3838 130.663 18.3838C131.007 19.2248 131.35 20.0662 131.693 20.9079C131.81 21.1943 131.926 21.4807 132.044 21.7669C132.212 22.1778 132.379 22.589 132.546 23.0003C132.599 23.1287 132.651 23.2571 132.706 23.3894C133.073 24.2968 133.073 24.2968 133.073 24.6868C133.187 24.6868 133.3 24.6868 133.418 24.6868C133.434 24.5881 133.451 24.4894 133.468 24.3877C133.706 23.0759 134.078 21.8213 134.472 20.5505C134.536 20.3412 134.6 20.132 134.666 19.9165C134.823 19.4053 134.981 18.8945 135.139 18.3838C135.934 18.3838 136.73 18.3838 137.549 18.3838C137.318 19.6686 136.999 20.8931 136.612 22.1378C136.556 22.3215 136.5 22.5051 136.441 22.6943C136.323 23.0789 136.204 23.4634 136.085 23.8477C135.902 24.4386 135.72 25.03 135.539 25.6214C135.423 25.9959 135.308 26.3703 135.192 26.7447C135.11 27.0109 135.11 27.0109 135.027 27.2824C134.976 27.445 134.926 27.6076 134.874 27.7751C134.829 27.9187 134.785 28.0624 134.739 28.2103C134.623 28.5387 134.623 28.5387 134.45 28.7138C134.103 28.7264 133.755 28.7284 133.407 28.7247C133.122 28.7223 133.122 28.7223 132.83 28.7199C132.683 28.7179 132.536 28.7158 132.385 28.7138C131.816 27.6001 131.339 26.463 130.878 25.2996C130.637 24.6929 130.395 24.0863 130.147 23.4612C129.465 25.1946 128.783 26.9279 128.081 28.7138C127.342 28.7138 126.604 28.7138 125.843 28.7138C125.136 26.4878 125.136 26.4878 124.834 25.534C124.795 25.4106 124.756 25.2871 124.715 25.1599C124.635 24.9075 124.556 24.6551 124.476 24.4027C124.218 23.5913 123.96 22.7803 123.7 21.9696C123.575 21.5768 123.45 21.184 123.325 20.7912C123.266 20.6082 123.207 20.4251 123.147 20.2366C123.093 20.0684 123.04 19.9003 122.985 19.727C122.938 19.5809 122.891 19.4349 122.843 19.2843C122.744 18.909 122.744 18.909 122.744 18.3838Z" fill="#061024"/>
<path d="M82.3641 4.28978C83.3669 4.90607 84.1794 5.86372 84.5268 7.00359C84.6654 8.37556 84.7204 9.73827 83.8381 10.8554C83.0042 11.7461 82.2528 12.3795 81.0131 12.4777C80.8056 12.4768 80.5981 12.4759 80.3843 12.475C80.1764 12.4759 79.9685 12.4768 79.7542 12.4777C79.19 12.4312 79.19 12.4312 78.5014 12.081C78.4446 13.121 78.3878 14.161 78.3293 15.2325C77.5908 15.2325 76.8522 15.2325 76.0913 15.2325C76.0913 11.5925 76.0913 7.95254 76.0913 4.20224C76.6026 4.20224 77.1139 4.20224 77.6407 4.20224C77.7543 4.37557 77.8679 4.54891 77.985 4.72749C78.2087 4.55416 78.2087 4.55416 78.4369 4.37732C79.5599 3.72598 81.1919 3.76823 82.3641 4.28978ZM78.5741 6.88732C78.128 7.41822 78.136 8.0777 78.1571 8.75443C78.4039 9.33172 78.7213 9.74775 79.19 10.1551C79.895 10.3672 80.5345 10.4089 81.2236 10.1442C81.797 9.62762 82.2514 9.17702 82.3231 8.36664C82.2826 7.66037 82.1622 7.24818 81.7723 6.65342C80.6075 5.86366 79.619 5.98767 78.5741 6.88732Z" fill="#061024"/>
<path d="M141.853 1.40088C142.592 1.40088 143.33 1.40088 144.091 1.40088C144.091 2.3831 144.091 3.36532 144.091 4.37731C144.375 4.26175 144.659 4.1462 144.952 4.02714C146.327 3.88338 147.598 3.86609 148.739 4.72748C149.68 5.51072 150.215 6.35959 150.355 7.58969C150.403 9.16668 150.185 10.128 149.213 11.3369C148.015 12.3336 147.08 12.5333 145.52 12.4907C144.821 12.4175 144.353 12.258 143.747 11.9059C143.69 12.0215 143.633 12.137 143.575 12.2561C143.006 12.2561 142.438 12.2561 141.853 12.2561C141.853 8.67388 141.853 5.09165 141.853 1.40088ZM144.435 6.6534C143.944 7.23683 143.804 7.79524 143.838 8.5677C143.996 9.27414 144.377 9.74111 144.952 10.1551C145.694 10.4133 146.276 10.4298 146.996 10.1113C147.77 9.46903 147.77 9.46903 148.029 8.51367C148.099 7.63451 147.856 7.21408 147.303 6.55218C146.477 5.83272 145.255 6.05819 144.435 6.6534Z" fill="#061024"/>
<path d="M148.739 17.8584C149.478 17.8584 150.216 17.8584 150.977 17.8584C150.977 21.4406 150.977 25.0228 150.977 28.7136C150.409 28.7136 149.841 28.7136 149.256 28.7136C149.142 28.5981 149.028 28.4825 148.911 28.3634C148.765 28.4485 148.619 28.5336 148.469 28.6213C147.411 29.1006 146.148 29.0886 145.036 28.7615C143.968 28.2527 143.165 27.4386 142.668 26.3507C142.331 25.1778 142.321 23.7817 142.832 22.6623C143.46 21.6182 144.301 20.8251 145.468 20.4847C146.587 20.3815 147.551 20.318 148.567 20.8348C148.624 19.8526 148.681 18.8704 148.739 17.8584ZM144.952 23.6362C144.738 24.3701 144.694 25.0108 144.995 25.7153C145.626 26.5022 145.626 26.5022 146.566 26.7658C147.276 26.8244 147.659 26.7346 148.223 26.2624C148.776 25.7804 148.889 25.3817 148.987 24.6429C148.899 23.88 148.72 23.5518 148.208 23.0042C147.043 22.1436 145.819 22.6041 144.952 23.6362Z" fill="#061024"/>
<path d="M113.276 17.8584C114.014 17.8584 114.753 17.8584 115.514 17.8584C115.514 21.4406 115.514 25.0228 115.514 28.7136C114.946 28.7136 114.378 28.7136 113.792 28.7136C113.679 28.5981 113.565 28.4825 113.448 28.3634C113.302 28.4485 113.156 28.5336 113.006 28.6213C111.947 29.1006 110.685 29.0886 109.573 28.7615C108.505 28.2527 107.701 27.4386 107.204 26.3507C106.868 25.1778 106.857 23.7817 107.369 22.6623C107.997 21.6182 108.838 20.8251 110.005 20.4847C111.124 20.3815 112.087 20.318 113.104 20.8348C113.161 19.8526 113.217 18.8704 113.276 17.8584ZM109.489 23.6362C109.275 24.3701 109.23 25.0108 109.532 25.7153C110.163 26.5022 110.163 26.5022 111.102 26.7658C111.813 26.8244 112.196 26.7346 112.759 26.2624C113.312 25.7804 113.426 25.3817 113.523 24.6429C113.436 23.88 113.256 23.5518 112.745 23.0042C111.58 22.1436 110.356 22.6041 109.489 23.6362Z" fill="#061024"/>
<path d="M82.2886 34.8418C83.0271 34.8418 83.7656 34.8418 84.5265 34.8418C84.5265 36.1129 84.5265 37.384 84.5265 38.6936C85.7764 38.6936 87.0262 38.6936 88.3139 38.6936C88.3139 37.4225 88.3139 36.1514 88.3139 34.8418C89.0524 34.8418 89.791 34.8418 90.5519 34.8418C90.5519 38.2507 90.5519 41.6596 90.5519 45.1718C89.8133 45.1718 89.0748 45.1718 88.3139 45.1718C88.3139 43.7273 88.3139 42.2829 88.3139 40.7947C87.0641 40.7947 85.8142 40.7947 84.5265 40.7947C84.5265 42.2391 84.5265 43.6835 84.5265 45.1718C83.788 45.1718 83.0495 45.1718 82.2886 45.1718C82.2886 41.7629 82.2886 38.354 82.2886 34.8418Z" fill="#061024"/>
<path d="M56.1216 1.92578C56.8601 1.92578 57.5986 1.92578 58.3596 1.92578C58.3596 3.19689 58.3596 4.468 58.3596 5.77763C59.6094 5.77763 60.8592 5.77763 62.1469 5.77763C62.1469 4.50652 62.1469 3.23541 62.1469 1.92578C62.8854 1.92578 63.624 1.92578 64.3849 1.92578C64.3849 5.33467 64.3849 8.74356 64.3849 12.2557C63.6463 12.2557 62.9078 12.2557 62.1469 12.2557C62.1469 10.8113 62.1469 9.36686 62.1469 7.87864C60.8971 7.87864 59.6473 7.87864 58.3596 7.87864C58.3596 9.32309 58.3596 10.7675 58.3596 12.2557C57.621 12.2557 56.8825 12.2557 56.1216 12.2557C56.1216 8.84686 56.1216 5.43797 56.1216 1.92578Z" fill="#061024"/>
<path d="M58.876 34.8418C59.6713 34.8418 60.4667 34.8418 61.2861 34.8418C61.7778 36.0591 62.2688 37.2766 62.7586 38.4946C62.9861 39.0602 63.2139 39.6257 63.4424 40.1909C63.7051 40.8411 63.9667 41.4919 64.2282 42.1427C64.3511 42.4461 64.3511 42.4461 64.4765 42.7557C64.5523 42.9449 64.6281 43.1341 64.7063 43.3291C64.8066 43.5781 64.8066 43.5781 64.909 43.8321C65.0735 44.2963 65.0735 44.2963 65.2456 45.1718C64.3935 45.1718 63.5413 45.1718 62.6633 45.1718C62.1469 43.8367 62.1469 43.8367 62.1469 43.2458C60.8403 43.3036 59.5336 43.3614 58.1874 43.4209C57.8465 44.2876 57.8465 44.2876 57.4988 45.1718C56.6466 45.1718 55.7945 45.1718 54.9165 45.1718C55.5507 43.4338 56.1996 41.7019 56.8564 39.9727C56.9464 39.7357 57.0363 39.4987 57.1261 39.2617C57.6881 37.779 58.2687 36.3061 58.876 34.8418ZM59.9089 37.9933C59.568 39.0333 59.2272 40.0733 58.876 41.1448C59.6713 41.1448 60.4667 41.1448 61.2861 41.1448C60.9453 40.1048 60.6044 39.0648 60.2532 37.9933C60.1396 37.9933 60.026 37.9933 59.9089 37.9933Z" fill="#061024"/>
<path d="M159.24 21.0102C159.297 20.8946 159.354 20.7791 159.413 20.66C159.981 20.66 160.549 20.66 161.134 20.66C161.134 23.3178 161.134 25.9756 161.134 28.7139C160.566 28.7139 159.998 28.7139 159.413 28.7139C159.356 28.5405 159.299 28.3672 159.24 28.1886C159.063 28.3042 158.885 28.4197 158.702 28.5388C157.576 29.1096 156.24 29.0944 155.034 28.7795C153.992 28.3169 153.175 27.4036 152.669 26.3803C152.324 25.2468 152.307 23.7813 152.785 22.6844C154.192 20.3165 156.87 19.853 159.24 21.0102ZM154.937 23.6364C154.686 24.437 154.686 25.0458 155.044 25.8031C155.724 26.5691 155.724 26.5691 156.683 26.8105C157.432 26.7688 157.785 26.6778 158.38 26.1861C158.909 25.4966 158.955 25.0632 158.945 24.2068C158.872 23.6165 158.632 23.3318 158.207 22.9361C157.064 22.094 155.769 22.6432 154.937 23.6364Z" fill="#061024"/>
<path d="M94.339 21.0102C94.3958 20.8946 94.4526 20.7791 94.5112 20.66C95.0793 20.66 95.6474 20.66 96.2327 20.66C96.2327 23.3178 96.2327 25.9756 96.2327 28.7139C95.6646 28.7139 95.0965 28.7139 94.5112 28.7139C94.4544 28.5405 94.3976 28.3672 94.339 28.1886C94.1615 28.3042 93.984 28.4197 93.8011 28.5388C92.6746 29.1096 91.3382 29.0944 90.1327 28.7795C89.0909 28.3169 88.2741 27.4036 87.7677 26.3803C87.4222 25.2468 87.4054 23.7813 87.8833 22.6844C89.2903 20.3165 91.9686 19.853 94.339 21.0102ZM90.0352 23.6364C89.7848 24.437 89.7843 25.0458 90.1428 25.8031C90.8231 26.5691 90.8231 26.5691 91.7816 26.8105C92.5306 26.7688 92.8832 26.6778 93.4783 26.1861C94.0074 25.4966 94.0533 25.0632 94.0438 24.2068C93.9705 23.6165 93.7305 23.3318 93.3061 22.9361C92.1627 22.094 90.8674 22.6432 90.0352 23.6364Z" fill="#061024"/>
<path d="M127.909 4.55217C127.966 4.43662 128.022 4.32106 128.081 4.202C128.649 4.202 129.217 4.202 129.803 4.202C129.803 6.85978 129.803 9.51756 129.803 12.2559C129.234 12.2559 128.666 12.2559 128.081 12.2559C128.024 12.0825 127.967 11.9092 127.909 11.7306C127.731 11.8462 127.554 11.9617 127.371 12.0808C126.244 12.6516 124.908 12.6364 123.703 12.3215C122.661 11.8589 121.844 10.9456 121.337 9.92233C120.992 8.78883 120.975 7.32327 121.453 6.22641C122.86 3.85846 125.538 3.39499 127.909 4.55217ZM123.605 7.17843C123.355 7.97904 123.354 8.58775 123.713 9.3451C124.393 10.111 124.393 10.111 125.351 10.3525C126.1 10.3108 126.453 10.2198 127.048 9.7281C127.577 9.03863 127.623 8.60515 127.614 7.74882C127.54 7.15851 127.3 6.87375 126.876 6.4781C125.733 5.63601 124.437 6.1852 123.605 7.17843Z" fill="#061024"/>
<path d="M102.603 4.55217C102.66 4.43662 102.716 4.32106 102.775 4.202C103.343 4.202 103.911 4.202 104.496 4.202C104.496 6.85978 104.496 9.51756 104.496 12.2559C103.928 12.2559 103.36 12.2559 102.775 12.2559C102.718 12.0825 102.661 11.9092 102.603 11.7306C102.425 11.8462 102.248 11.9617 102.065 12.0808C100.938 12.6516 99.6019 12.6364 98.3964 12.3215C97.3546 11.8589 96.5378 10.9456 96.0313 9.92233C95.6859 8.78883 95.6691 7.32327 96.147 6.22641C97.554 3.85846 100.232 3.39499 102.603 4.55217ZM98.2989 7.17843C98.0485 7.97904 98.048 8.58775 98.4065 9.3451C99.0867 10.111 99.0867 10.111 100.045 10.3525C100.794 10.3108 101.147 10.2198 101.742 9.7281C102.271 9.03863 102.317 8.60515 102.307 7.74882C102.234 7.15851 101.994 6.87375 101.57 6.4781C100.426 5.63601 99.1311 6.1852 98.2989 7.17843Z" fill="#061024"/>
<path d="M92.79 34.8416C94.0257 34.8145 94.0257 34.8145 95.2862 34.7868C95.5433 34.7789 95.8004 34.7709 96.0653 34.7627C97.373 34.7488 98.3457 34.784 99.3318 35.717C100.123 36.5267 100.391 37.1709 100.408 38.3104C100.395 39.3239 100.298 39.987 99.5699 40.7274C98.5258 41.6798 97.8346 41.897 96.4483 41.8668C95.7452 41.856 95.7452 41.856 95.028 41.8449C95.028 42.9427 95.028 44.0405 95.028 45.1715C94.2895 45.1715 93.551 45.1715 92.79 45.1715C92.79 41.7626 92.79 38.3537 92.79 34.8416ZM95.028 36.9426C95.028 37.867 95.028 38.7915 95.028 39.7439C96.2633 39.8131 96.2633 39.8131 97.4489 39.5469C97.8953 39.1076 98.0287 38.7914 98.1267 38.1682C97.9251 37.6668 97.757 37.3889 97.3077 37.0944C96.8277 36.9056 96.4449 36.9083 95.9318 36.9207C95.4844 36.9315 95.4844 36.9315 95.028 36.9426Z" fill="#061024"/>
<path d="M66.6226 34.8416C67.8582 34.8145 67.8582 34.8145 69.1188 34.7868C69.3758 34.7789 69.6329 34.7709 69.8978 34.7627C71.2055 34.7488 72.1782 34.784 73.1643 35.717C73.9557 36.5267 74.2234 37.1709 74.2403 38.3104C74.2271 39.3239 74.1304 39.987 73.4024 40.7274C72.3584 41.6798 71.6671 41.897 70.2808 41.8668C69.5778 41.856 69.5778 41.856 68.8605 41.8449C68.8605 42.9427 68.8605 44.0405 68.8605 45.1715C68.122 45.1715 67.3835 45.1715 66.6226 45.1715C66.6226 41.7626 66.6226 38.3537 66.6226 34.8416ZM68.8605 36.9426C68.8605 37.867 68.8605 38.7915 68.8605 39.7439C70.0959 39.8131 70.0959 39.8131 71.2814 39.5469C71.7278 39.1076 71.8612 38.7914 71.9593 38.1682C71.7576 37.6668 71.5896 37.3889 71.1402 37.0944C70.6602 36.9056 70.2774 36.9083 69.7643 36.9207C69.317 36.9315 69.317 36.9315 68.8605 36.9426Z" fill="#061024"/>
<path d="M69.561 20.9541C70.5199 21.62 71.0071 22.441 71.3666 23.5482C71.4722 24.1523 71.4432 24.7737 71.4432 25.3873C69.5117 25.4451 67.5801 25.5029 65.5901 25.5624C66.0027 26.4151 66.0027 26.4151 66.4939 26.6785C67.1171 26.8226 67.5538 26.773 68.1724 26.6129C68.2724 26.4951 68.3725 26.3773 68.4756 26.2559C69.0196 25.7712 69.3988 25.842 70.1091 25.8688C70.3265 25.8751 70.544 25.8814 70.7681 25.8879C71.0171 25.9001 71.0171 25.9001 71.2711 25.9125C70.9157 27.1116 70.3574 27.957 69.2913 28.6154C68.1922 29.112 66.8183 29.1002 65.6755 28.7611C64.6063 28.2556 63.8028 27.4383 63.3057 26.3509C62.9693 25.1781 62.9588 23.782 63.4705 22.6625C64.7881 20.4726 67.2869 19.7404 69.561 20.9541ZM65.5901 23.2863C65.5901 23.4596 65.5901 23.633 65.5901 23.8115C66.7263 23.8115 67.8625 23.8115 69.0331 23.8115C68.7775 22.9594 68.7775 22.9594 68.3122 22.6188C67.1186 22.1062 66.4317 22.3886 65.5901 23.2863Z" fill="#061024"/>
<path d="M198.158 4.4961C199.117 5.162 199.604 5.98301 199.964 7.09022C200.069 7.69432 200.04 8.31572 200.04 8.92929C198.109 8.98707 196.177 9.04484 194.187 9.10437C194.6 9.95705 194.6 9.95705 195.091 10.2205C195.714 10.3646 196.151 10.315 196.77 10.1549C196.87 10.0371 196.97 9.91925 197.073 9.79787C197.617 9.31316 197.996 9.38402 198.706 9.41077C198.924 9.41709 199.141 9.42341 199.365 9.42992C199.614 9.44211 199.614 9.44211 199.868 9.45454C199.513 10.6536 198.955 11.4989 197.889 12.1574C196.789 12.654 195.415 12.6422 194.273 12.3031C193.203 11.7976 192.4 10.9803 191.903 9.89294C191.566 8.7201 191.556 7.32395 192.068 6.20454C193.385 4.01464 195.884 3.28239 198.158 4.4961ZM194.187 6.82828C194.187 7.00161 194.187 7.17495 194.187 7.35353C195.323 7.35353 196.46 7.35353 197.63 7.35353C197.375 6.5014 197.375 6.5014 196.909 6.16077C195.716 5.64823 195.029 5.93057 194.187 6.82828Z" fill="#061024"/>
<path d="M182.901 4.37696C183.949 4.99236 184.629 5.83529 184.956 7.02511C185.05 7.62097 185.107 8.15287 185.063 8.75406C184.891 8.92915 184.891 8.92915 184.334 8.94902C184.088 8.94899 183.841 8.948 183.594 8.94624C183.4 8.94587 183.4 8.94587 183.201 8.94549C182.785 8.94451 182.37 8.94231 181.954 8.94009C181.673 8.93921 181.391 8.93841 181.11 8.93769C180.42 8.93576 179.729 8.93274 179.038 8.92915C179.484 9.6819 179.484 9.6819 180.136 10.2313C180.704 10.3552 181.062 10.3204 181.62 10.1547C181.81 9.97802 181.81 9.97802 182.004 9.79773C182.62 9.35436 182.994 9.38228 183.74 9.41063C183.956 9.41695 184.172 9.42327 184.394 9.42978C184.64 9.44196 184.64 9.44196 184.891 9.4544C184.562 10.5616 184.127 11.3018 183.18 11.9637C181.949 12.6151 180.563 12.6739 179.237 12.2886C178.123 11.7973 177.485 11.091 176.972 9.97965C176.53 8.76604 176.487 7.56634 176.994 6.37059C178.181 4.15174 180.58 3.3082 182.901 4.37696ZM179.21 6.82814C179.153 7.00147 179.097 7.1748 179.038 7.35339C180.231 7.35339 181.424 7.35339 182.653 7.35339C182.398 6.50126 182.398 6.50126 181.932 6.16063C180.731 5.64461 180.063 5.93971 179.21 6.82814Z" fill="#061024"/>
<path d="M157.799 4.39882C158.765 4.9789 159.433 5.72364 159.841 6.80965C160.172 8.19393 160.015 9.42639 159.324 10.6581C158.72 11.5381 157.874 12.1977 156.83 12.4308C155.435 12.5607 154.007 12.6773 152.871 11.7305C152.003 10.8881 151.39 10.1272 151.264 8.88194C151.248 7.39088 151.301 6.3596 152.332 5.25851C153.837 3.84384 155.905 3.49789 157.799 4.39882ZM154.076 6.65303C153.628 7.2706 153.519 7.75203 153.56 8.50236C153.65 9.07019 153.752 9.30971 154.076 9.80455C154.757 10.2661 155.328 10.3824 156.142 10.3298C156.782 10.0608 157.182 9.72055 157.519 9.10421C157.702 8.38773 157.739 8.00513 157.476 7.3096C157.029 6.57876 157.029 6.57876 156.305 6.1948C155.416 6.09173 154.828 6.08829 154.076 6.65303Z" fill="#061024"/>
<path d="M72.4111 4.39882C73.3772 4.9789 74.0456 5.72364 74.4534 6.80965C74.7842 8.19393 74.6272 9.42639 73.9363 10.6581C73.3319 11.5381 72.4866 12.1977 71.4428 12.4308C70.0476 12.5607 68.6192 12.6773 67.4833 11.7305C66.6153 10.8881 66.0019 10.1272 65.8761 8.88194C65.8599 7.39088 65.9137 6.3596 66.9447 5.25851C68.4494 3.84384 70.517 3.49789 72.4111 4.39882ZM68.6884 6.65303C68.2402 7.2706 68.1314 7.75203 68.1719 8.50236C68.2623 9.07019 68.364 9.30971 68.6884 9.80455C69.3691 10.2661 69.9407 10.3824 70.7542 10.3298C71.3944 10.0608 71.7947 9.72055 72.1314 9.10421C72.314 8.38773 72.3514 8.00513 72.0884 7.3096C71.6414 6.57876 71.6414 6.57876 70.9176 6.1948C70.0285 6.09173 69.4407 6.08829 68.6884 6.65303Z" fill="#061024"/>
<path d="M103.808 20.4848C104.596 20.8839 105.009 21.3549 105.529 22.0605C105.741 22.7075 105.723 23.3042 105.718 23.9776C105.718 24.1128 105.718 24.2481 105.717 24.3875C105.716 24.8192 105.714 25.2509 105.712 25.6826C105.711 25.9754 105.71 26.2683 105.71 26.5611C105.708 27.2786 105.705 27.9962 105.701 28.7137C104.963 28.7137 104.224 28.7137 103.463 28.7137C103.46 28.5521 103.457 28.3904 103.453 28.2238C103.44 27.6237 103.425 27.0237 103.409 26.4237C103.402 26.164 103.396 25.9044 103.391 25.6447C103.383 25.2713 103.373 24.898 103.363 24.5247C103.354 24.1878 103.354 24.1878 103.346 23.844C103.332 23.2592 103.332 23.2592 102.947 22.7609C102.332 22.5662 102.032 22.5311 101.441 22.8046C101.017 23.1064 101.017 23.1064 100.709 23.6363C100.645 24.1794 100.645 24.1794 100.638 24.7983C100.628 25.1394 100.628 25.1394 100.617 25.4873C100.612 25.7275 100.607 25.9677 100.601 26.2078C100.595 26.4501 100.588 26.6923 100.581 26.9345C100.565 27.5276 100.551 28.1206 100.537 28.7137C99.7983 28.7137 99.0597 28.7137 98.2988 28.7137C98.2988 26.056 98.2988 23.3982 98.2988 20.6599C98.8101 20.6599 99.3214 20.6599 99.8482 20.6599C100.019 20.8332 100.189 21.0065 100.365 21.1851C100.549 21.0696 100.734 20.954 100.924 20.835C101.845 20.3656 102.798 20.3275 103.808 20.4848Z" fill="#061024"/>
<path d="M84.3546 20.4848C85.1429 20.8839 85.5557 21.3549 86.0761 22.0605C86.2881 22.7075 86.2696 23.3042 86.265 23.9776C86.2648 24.1128 86.2646 24.2481 86.2643 24.3875C86.2633 24.8192 86.2612 25.2509 86.259 25.6826C86.2581 25.9754 86.2573 26.2683 86.2566 26.5611C86.2547 27.2786 86.2518 27.9962 86.2482 28.7137C85.5097 28.7137 84.7712 28.7137 84.0103 28.7137C84.0068 28.5521 84.0034 28.3904 83.9999 28.2238C83.9865 27.6237 83.9715 27.0237 83.9556 26.4237C83.949 26.164 83.943 25.9044 83.9376 25.6447C83.9298 25.2713 83.9198 24.898 83.9094 24.5247C83.9013 24.1878 83.9013 24.1878 83.893 23.844C83.8788 23.2592 83.8788 23.2592 83.4938 22.7609C82.8787 22.5662 82.5793 22.5311 81.9875 22.8046C81.5638 23.1064 81.5638 23.1064 81.2558 23.6363C81.1922 24.1794 81.1922 24.1794 81.1845 24.7983C81.1746 25.1394 81.1746 25.1394 81.1644 25.4873C81.159 25.7275 81.1536 25.9677 81.1482 26.2078C81.1417 26.4501 81.1349 26.6923 81.1281 26.9345C81.1118 27.5276 81.0976 28.1206 81.0837 28.7137C80.3451 28.7137 79.6066 28.7137 78.8457 28.7137C78.8457 26.056 78.8457 23.3982 78.8457 20.6599C79.357 20.6599 79.8683 20.6599 80.3951 20.6599C80.5655 20.8332 80.7359 21.0065 80.9115 21.1851C81.0962 21.0696 81.2808 20.954 81.471 20.835C82.3923 20.3656 83.3444 20.3275 84.3546 20.4848Z" fill="#061024"/>
<path d="M170.366 4.3006C171.049 4.72126 171.328 5.2105 171.635 5.95295C171.635 6.24184 171.635 6.53073 171.635 6.82837C170.897 6.82837 170.158 6.82837 169.397 6.82837C169.341 6.59726 169.284 6.36615 169.225 6.12804C168.316 5.91796 168.316 5.91796 167.504 6.30312C167.561 6.47645 167.617 6.64979 167.676 6.82837C167.974 6.96821 167.974 6.96821 168.34 7.04039C168.476 7.07424 168.611 7.1081 168.75 7.14298C169.035 7.20979 169.321 7.27592 169.606 7.34131C170.509 7.56862 171.039 7.80777 171.635 8.57921C171.903 9.39555 171.901 10.0652 171.614 10.8772C171.133 11.6276 170.594 12.142 169.742 12.4311C169.323 12.4568 168.903 12.4698 168.483 12.4748C168.26 12.4794 168.037 12.4839 167.807 12.4885C166.908 12.4087 166.353 12.0797 165.642 11.5338C165.118 10.8333 165.132 10.326 165.094 9.45464C165.775 9.45464 166.457 9.45464 167.159 9.45464C167.273 9.68575 167.387 9.91686 167.504 10.155C167.918 10.3656 168.184 10.3477 168.644 10.341C168.855 10.3386 168.855 10.3386 169.071 10.3362C169.178 10.3342 169.286 10.3321 169.397 10.3301C169.312 9.89672 169.312 9.89672 169.225 9.45464C169.038 9.41424 168.852 9.37384 168.659 9.33221C168.41 9.27469 168.161 9.21701 167.913 9.15918C167.728 9.12008 167.728 9.12008 167.541 9.08019C166.507 8.8342 165.769 8.42083 165.19 7.474C165.022 6.65528 165.046 5.96555 165.478 5.25262C166.642 3.78814 168.678 3.54743 170.366 4.3006Z" fill="#061024"/>
<path d="M56.1216 18.3838C58.1667 18.3838 60.2119 18.3838 62.3191 18.3838C62.3191 19.0771 62.3191 19.7705 62.3191 20.4848C61.0124 20.4848 59.7058 20.4848 58.3596 20.4848C58.3596 21.1781 58.3596 21.8715 58.3596 22.5858C59.5526 22.5858 60.7456 22.5858 61.9747 22.5858C61.9747 23.2791 61.9747 23.9725 61.9747 24.6868C60.7817 24.6868 59.5887 24.6868 58.3596 24.6868C58.3596 26.0157 58.3596 27.3446 58.3596 28.7138C57.621 28.7138 56.8825 28.7138 56.1216 28.7138C56.1216 25.3049 56.1216 21.896 56.1216 18.3838Z" fill="#061024"/>
<path d="M114.309 1.92578C115.048 1.92578 115.786 1.92578 116.547 1.92578C116.547 4.64134 116.547 7.35689 116.547 10.1547C117.854 10.1547 119.16 10.1547 120.507 10.1547C120.507 10.8481 120.507 11.5414 120.507 12.2557C118.461 12.2557 116.416 12.2557 114.309 12.2557C114.309 8.84686 114.309 5.43797 114.309 1.92578Z" fill="#061024"/>
<path d="M92.79 2.10107C92.79 2.79441 92.79 3.48774 92.79 4.20208C93.5285 4.20208 94.2671 4.20208 95.028 4.20208C95.028 4.77986 95.028 5.35764 95.028 5.95293C94.3462 5.95293 93.6645 5.95293 92.9621 5.95293C93.019 7.28182 93.0758 8.6107 93.1343 9.97986C93.816 10.0954 94.4977 10.211 95.2001 10.33C95.2001 10.9656 95.2001 11.6011 95.2001 12.256C94.7624 12.275 94.3254 12.2888 93.8875 12.2997C93.7647 12.3056 93.642 12.3115 93.5156 12.3175C92.6174 12.3343 92.1147 12.1734 91.4128 11.5556C90.608 10.7181 90.6515 9.90473 90.6636 8.79462C90.6694 8.58631 90.6752 8.37799 90.6811 8.16336C90.6842 7.95099 90.6873 7.73861 90.6905 7.51979C90.6986 6.99736 90.7099 6.47522 90.7242 5.95293C90.2129 5.95293 89.7016 5.95293 89.1748 5.95293C89.3779 5.12681 89.7754 4.72023 90.3368 4.12548C90.4274 4.02742 90.5179 3.92936 90.6112 3.82832C90.7906 3.63475 90.9712 3.44223 91.1529 3.25083C91.3976 2.99247 91.638 2.72985 91.8781 2.46697C92.2735 2.10107 92.2735 2.10107 92.79 2.10107Z" fill="#061024"/>
<path d="M163.028 17.6836C163.766 17.6836 164.505 17.6836 165.266 17.6836C165.266 21.3236 165.266 24.9636 165.266 28.7139C164.527 28.7139 163.789 28.7139 163.028 28.7139C163.028 25.0739 163.028 21.4339 163.028 17.6836Z" fill="#061024"/>
<path d="M106.39 1.22559C107.128 1.22559 107.867 1.22559 108.628 1.22559C108.628 4.86559 108.628 8.50559 108.628 12.2559C107.889 12.2559 107.151 12.2559 106.39 12.2559C106.39 8.61589 106.39 4.97589 106.39 1.22559Z" fill="#061024"/>
<path d="M72.8203 20.6597C73.3316 20.6597 73.8429 20.6597 74.3697 20.6597C74.4833 20.8909 74.5969 21.122 74.714 21.3601C74.8454 21.2445 74.9767 21.129 75.1121 21.0099C75.893 20.4664 76.7293 20.6145 77.6406 20.6597C77.6406 21.3531 77.6406 22.0464 77.6406 22.7608C77.1138 22.8348 76.587 22.9089 76.0603 22.983C75.521 23.0666 75.521 23.0666 75.2304 23.6362C75.1668 24.1793 75.1668 24.1793 75.1592 24.7982C75.1492 25.1392 75.1492 25.1392 75.139 25.4872C75.1336 25.7274 75.1282 25.9675 75.1228 26.2077C75.1163 26.4499 75.1095 26.6922 75.1027 26.9344C75.0864 27.5274 75.0722 28.1205 75.0583 28.7136C74.3198 28.7136 73.5812 28.7136 72.8203 28.7136C72.8203 26.0558 72.8203 23.3981 72.8203 20.6597Z" fill="#061024"/>
<path d="M186.613 4.20222C187.124 4.20222 187.635 4.20222 188.162 4.20222C188.276 4.43333 188.389 4.66444 188.506 4.90256C188.638 4.787 188.769 4.67145 188.905 4.55239C189.685 4.00887 190.522 4.15701 191.433 4.20222C191.433 4.89555 191.433 5.58889 191.433 6.30323C190.906 6.37732 190.38 6.45141 189.853 6.52551C189.313 6.60904 189.313 6.60904 189.023 7.17865C188.959 7.72178 188.959 7.72178 188.952 8.34064C188.942 8.68172 188.942 8.68172 188.931 9.02969C188.926 9.26986 188.921 9.51003 188.915 9.7502C188.909 9.99243 188.902 10.2347 188.895 10.4769C188.879 11.0699 188.865 11.663 188.851 12.2561C188.112 12.2561 187.374 12.2561 186.613 12.2561C186.613 9.59832 186.613 6.94054 186.613 4.20222Z" fill="#061024"/>
<path d="M131.696 4.20222C132.208 4.20222 132.719 4.20222 133.246 4.20222C133.359 4.43333 133.473 4.66444 133.59 4.90256C133.721 4.787 133.853 4.67145 133.988 4.55239C134.769 4.00887 135.605 4.15701 136.517 4.20222C136.517 4.89555 136.517 5.58889 136.517 6.30323C135.99 6.37732 135.463 6.45141 134.936 6.52551C134.397 6.60904 134.397 6.60904 134.106 7.17865C134.043 7.72178 134.043 7.72178 134.035 8.34064C134.025 8.68172 134.025 8.68172 134.015 9.02969C134.01 9.26986 134.004 9.51003 133.999 9.7502C133.992 9.99243 133.986 10.2347 133.979 10.4769C133.962 11.0699 133.948 11.663 133.934 12.2561C133.196 12.2561 132.457 12.2561 131.696 12.2561C131.696 9.59832 131.696 6.94054 131.696 4.20222Z" fill="#061024"/>
<path d="M138.927 20.6602C139.665 20.6602 140.404 20.6602 141.165 20.6602C141.165 23.3179 141.165 25.9757 141.165 28.714C140.426 28.714 139.688 28.714 138.927 28.714C138.927 26.0563 138.927 23.3985 138.927 20.6602Z" fill="#061024"/>
<path d="M173.185 4.20215C173.923 4.20215 174.662 4.20215 175.423 4.20215C175.423 6.85993 175.423 9.5177 175.423 12.256C174.684 12.256 173.945 12.256 173.185 12.256C173.185 9.59824 173.185 6.94046 173.185 4.20215Z" fill="#061024"/>
<path d="M161.306 4.20215C162.045 4.20215 162.783 4.20215 163.544 4.20215C163.544 6.85993 163.544 9.5177 163.544 12.256C162.806 12.256 162.067 12.256 161.306 12.256C161.306 9.59824 161.306 6.94046 161.306 4.20215Z" fill="#061024"/>
<path d="M137.722 4.20215C138.46 4.20215 139.199 4.20215 139.96 4.20215C139.96 6.85993 139.96 9.5177 139.96 12.256C139.221 12.256 138.483 12.256 137.722 12.256C137.722 9.59824 137.722 6.94046 137.722 4.20215Z" fill="#061024"/>
<path d="M86.0762 4.20215C86.8147 4.20215 87.5532 4.20215 88.3141 4.20215C88.3141 6.85993 88.3141 9.5177 88.3141 12.256C87.5756 12.256 86.8371 12.256 86.0762 12.256C86.0762 9.59824 86.0762 6.94046 86.0762 4.20215Z" fill="#061024"/>
<path d="M75.4023 39.9189C76.993 39.9189 78.5837 39.9189 80.2226 39.9189C80.2226 40.6123 80.2226 41.3056 80.2226 42.02C78.6319 42.02 77.0412 42.02 75.4023 42.02C75.4023 41.3266 75.4023 40.6333 75.4023 39.9189Z" fill="#061024"/>
<path d="M117.408 23.4614C118.998 23.4614 120.589 23.4614 122.228 23.4614C122.228 24.1548 122.228 24.8481 122.228 25.5624C120.637 25.5624 119.047 25.5624 117.408 25.5624C117.408 24.8691 117.408 24.1758 117.408 23.4614Z" fill="#061024"/>
<path d="M70.9415 0.856376C71.7279 1.0141 72.1141 1.43872 72.5622 2.09017C73.1647 3.06767 73.1647 3.06767 73.1647 3.3267C72.8349 3.34569 72.5049 3.35923 72.1748 3.37048C71.8992 3.38266 71.8992 3.38266 71.618 3.3951C70.989 3.31223 70.8024 3.11808 70.4103 2.62637C69.9854 2.82802 69.7134 2.98491 69.3773 3.3267C68.8918 3.3609 68.8918 3.3609 68.3229 3.34859C68.1343 3.34543 67.9457 3.34227 67.7513 3.33901C67.6062 3.33495 67.4611 3.33089 67.3115 3.3267C67.4246 3.09241 67.5398 2.85918 67.6558 2.62637C67.722 2.49005 67.7881 2.35373 67.8562 2.21328C68.6082 0.961806 69.5697 0.729378 70.9415 0.856376Z" fill="#061024"/>
<path d="M178.694 1.05029C179.489 1.05029 180.285 1.05029 181.104 1.05029C181.793 2.73548 181.793 2.73548 181.793 3.32639C181.188 3.4377 180.671 3.47456 180.071 3.32639C179.417 2.68151 178.981 1.92621 178.694 1.05029Z" fill="#061024"/>
<path d="M138.927 17.5083C139.665 17.5083 140.404 17.5083 141.165 17.5083C141.165 18.2016 141.165 18.895 141.165 19.6093C140.426 19.6093 139.688 19.6093 138.927 19.6093C138.927 18.916 138.927 18.2226 138.927 17.5083Z" fill="#061024"/>
<path d="M173.185 1.05029C173.923 1.05029 174.662 1.05029 175.423 1.05029C175.423 1.74363 175.423 2.43696 175.423 3.1513C174.684 3.1513 173.945 3.1513 173.185 3.1513C173.185 2.45797 173.185 1.76464 173.185 1.05029Z" fill="#061024"/>
<path d="M161.306 1.05029C162.045 1.05029 162.783 1.05029 163.544 1.05029C163.544 1.74363 163.544 2.43696 163.544 3.1513C162.806 3.1513 162.067 3.1513 161.306 3.1513C161.306 2.45797 161.306 1.76464 161.306 1.05029Z" fill="#061024"/>
<path d="M137.722 1.05029C138.46 1.05029 139.199 1.05029 139.96 1.05029C139.96 1.74363 139.96 2.43696 139.96 3.1513C139.221 3.1513 138.483 3.1513 137.722 3.1513C137.722 2.45797 137.722 1.76464 137.722 1.05029Z" fill="#061024"/>
<path d="M86.0762 1.05029C86.8147 1.05029 87.5532 1.05029 88.3141 1.05029C88.3141 1.74363 88.3141 2.43696 88.3141 3.1513C87.5756 3.1513 86.8371 3.1513 86.0762 3.1513C86.0762 2.45797 86.0762 1.76464 86.0762 1.05029Z" fill="#061024"/>
<path d="M17.3873 13.1313C18.5196 13.2324 18.5196 13.2324 18.7645 13.4815C18.7968 13.9083 18.7968 13.9083 18.7645 14.3569C18.4202 14.7071 18.4202 14.7071 17.9038 14.7509C17.3873 14.7071 17.3873 14.7071 17.043 14.3569C17 13.9192 17 13.9192 17.043 13.4815C17.1566 13.366 17.2703 13.2504 17.3873 13.1313Z" fill="#061024"/>
</svg>
