<?xml version="1.0" encoding="utf-8" ?><svg xmlns="http://www.w3.org/2000/svg" xmlns:xlink="http://www.w3.org/1999/xlink" width="1024" height="1024" viewBox="0 0 1024 1024"><path fill="#FEFEFE" d="M250.585 183.254C254.808 180.225 262.527 175.976 267.182 173.24L297.955 155.161L333.314 134.342C337.234 132.033 350.186 123.828 354.032 123.017C372.412 119.138 391.546 117.268 410.065 113.774C418.222 112.235 426.58 110.487 434.74 109.171C441.794 115.15 456.673 124.931 464.7 130.413C474.003 136.766 488.192 147.291 497.52 152.487C506.948 154.248 520.638 158.472 529.837 157.602C531.711 154.21 587.094 116.142 594.63 110.471C596.005 110.145 616.248 113.966 619.28 114.48L671.552 123.475C676.961 124.425 686.58 124.719 690.719 127.729C719.492 148.653 749.621 167.59 779.471 186.918C783.423 197.37 803.564 254.129 807.338 258.784C811.441 263.844 818.768 268.288 823.948 272.304L853.966 295.643C858.758 299.321 866.281 304.638 870.641 308.321C872.367 315.337 873.785 324.202 875.135 331.404L882.701 371.486C883.82 377.418 886.006 392.027 888.17 397.122C897.596 419.322 907.828 443.987 918.369 465.523L912.04 522.056C911.302 528.828 909.261 543.973 909.288 550.427C909.026 567.364 910.383 583.462 911.568 600.165C911.943 605.461 915.38 635.605 914.469 637.566C904.624 658.762 890.833 679.985 880.391 701.024C874.058 713.785 870.041 728.39 864.402 741.484C862.059 747.394 852.683 769.592 852.219 774.377C846.68 799.494 838.889 805.461 820.373 822.308C803.264 837.875 787.071 855.429 766.7 866.872C740.009 881.866 712.922 896.134 685.613 909.915C668.331 908.413 651.296 905.274 634.107 903.062C626.471 902.08 587.937 899.456 583.218 896.179C583.063 896.071 582.917 895.951 582.765 895.839C578.13 892.426 574.171 887.125 570.131 882.948C556.983 869.356 544.377 855.353 531.397 841.63C525.931 835.852 514.481 831.128 506.426 831.381C503.703 831.467 500.573 833.512 498.568 835.194C493.825 839.174 489.865 844.73 485.632 849.302C473.669 862.224 461.894 875.649 449.472 888.105C447.919 889.662 446.579 890.814 444.475 891.537C437.304 893.999 372.267 908.381 367.092 908.16C358.848 907.808 310.792 888.094 298.823 883.513C288.801 879.678 278.618 876.196 268.526 872.549C262.04 870.204 254.712 867.986 248.831 864.366C242 860.161 229.523 847.021 222.926 840.902C207.337 826.441 191.321 812.3 175.905 797.681C174.668 796.507 173.288 795.31 172.474 793.794C169.971 789.137 168.781 783.117 167.199 778.073C164.501 769.469 161.677 760.903 158.726 752.383C153.331 736.807 148.023 720.853 141.642 705.663C137.044 694.715 131.576 683.976 126.409 673.282C122.114 664.393 110.704 639.049 104.714 633.017C104.545 632.847 104.372 632.682 104.202 632.514C108.275 618.577 107.889 595.208 110.685 579.903C111.147 576.229 112.46 546.221 111.453 543.734C109.541 536.712 111.556 520.203 110.668 512.482C109.998 506.655 109.485 500.423 109.061 494.57C108.071 480.901 108.463 467.141 108.394 453.449C108.399 450.62 116.754 434.84 118.317 431.397C124.514 417.756 130.814 404.026 136.625 390.196C138.162 386.483 141.289 373.673 142.469 369.387L154.086 326.316C155.203 322.045 158.874 306.539 160.784 303.359C179.313 288.088 199.724 271.264 217.26 254.575C219.608 251.437 221.706 246.844 223.262 243.385C232.27 223.353 241.871 203.399 250.585 183.254Z"/><defs><linearGradient id="gradient_0" gradientUnits="userSpaceOnUse" x1="520.96613" y1="370.43842" x2="255.27623" y2="175.69565"><stop offset="0" stop-color="#A71613"/><stop offset="1" stop-color="#F82B2F"/></linearGradient></defs><path fill="url(#gradient_0)" d="M250.585 183.254C254.808 180.225 262.527 175.976 267.182 173.24L297.955 155.161L333.314 134.342C337.234 132.033 350.186 123.828 354.032 123.017C372.412 119.138 391.546 117.268 410.065 113.774C418.222 112.235 426.58 110.487 434.74 109.171C441.794 115.15 456.673 124.931 464.7 130.413C474.003 136.766 488.192 147.291 497.52 152.487L497.462 286.672L497.464 328.851C497.466 335.753 497.73 344.586 497.399 351.241L497.468 420.729L497.466 586.255L497.469 640.253C497.47 648.577 497.803 659.735 497.394 667.9C496.973 666.868 497.039 660.093 497.019 658.484C489.517 659.86 473.026 658.771 464.754 658.415C443.902 657.518 422.903 656.533 402.12 654.678C393.662 653.923 381.32 654.477 373.548 652.361L371.951 653.522C367.468 652.891 363.382 651.4 359.053 650.118C336.316 643.383 313.432 637.173 290.85 629.911C290.23 623.756 290.723 616.896 289.986 610.37L285.611 568.371C285.195 564.32 283.696 555.354 283.693 552.262L283.503 551.505C278.063 555.126 266.495 560.752 260.404 563.939L222.515 584.039C215.849 587.566 203.095 593.435 198.414 598.557L197.241 598.443C177.833 605.465 158.016 611.932 138.587 618.862C133.788 620.573 113.205 626.766 110.028 628.535C109.396 614.238 112.049 592.366 110.685 579.903C111.147 576.229 112.46 546.221 111.453 543.734C109.541 536.712 111.556 520.203 110.668 512.482C109.998 506.655 109.485 500.423 109.061 494.57C108.071 480.901 108.463 467.141 108.394 453.449C108.399 450.62 116.754 434.84 118.317 431.397C124.514 417.756 130.814 404.026 136.625 390.196C138.162 386.483 141.289 373.673 142.469 369.387L154.086 326.316C155.203 322.045 158.874 306.539 160.784 303.359C179.313 288.088 199.724 271.264 217.26 254.575C219.608 251.437 221.706 246.844 223.262 243.385C232.27 223.353 241.871 203.399 250.585 183.254Z"/><path fill="#E02222" d="M160.784 303.359L160.931 305.609L161.856 305.681C169.192 306.317 181.44 310.54 187.742 310.906C193.433 311.235 229.799 320.051 232.126 319.584C233.148 337.635 234.683 357.057 235.38 375.004C257.992 373.99 281.403 376.205 304.066 375.764C306.624 375.714 313.723 375.963 315.724 377.289C310.422 382.953 307.686 391.142 303.802 397.907C297.204 409.401 290.749 420.993 284.027 432.419C281.608 436.551 279.567 441.442 277.172 445.611C304.274 443.347 331.279 439.743 358.331 436.87C361.533 436.53 364.62 436.501 367.866 436.084C374.441 441.776 388.245 454.768 394.45 459.171C387.921 463.197 382.633 468.462 376.581 472.704C361.706 483.129 347.87 494.266 333.477 505.265C329.484 508.315 318.116 517.965 314.02 519.65L313.944 519.847C307.79 526.978 291.389 545.654 284.071 551.075L283.503 551.505C278.063 555.126 266.495 560.752 260.404 563.939L222.515 584.039C215.849 587.566 203.095 593.435 198.414 598.557L197.241 598.443C177.833 605.465 158.016 611.932 138.587 618.862C133.788 620.573 113.205 626.766 110.028 628.535C109.396 614.238 112.049 592.366 110.685 579.903C111.147 576.229 112.46 546.221 111.453 543.734C109.541 536.712 111.556 520.203 110.668 512.482C109.998 506.655 109.485 500.423 109.061 494.57C108.071 480.901 108.463 467.141 108.394 453.449C108.399 450.62 116.754 434.84 118.317 431.397C124.514 417.756 130.814 404.026 136.625 390.196C138.162 386.483 141.289 373.673 142.469 369.387L154.086 326.316C155.203 322.045 158.874 306.539 160.784 303.359Z"/><path fill="#C61C1B" d="M111.453 543.734C113.657 540.023 112.273 535.934 113.038 534.68C118.229 538.077 196.524 597.227 197.241 598.443C177.833 605.465 158.016 611.932 138.587 618.862C133.788 620.573 113.205 626.766 110.028 628.535C109.396 614.238 112.049 592.366 110.685 579.903C111.147 576.229 112.46 546.221 111.453 543.734Z"/><path fill="#C31C1B" d="M202.422 456.527C211.08 465.889 220.97 474.755 230.299 483.465C237.317 490.016 244.28 497.572 251.434 503.851C246.202 504.516 238.819 506.299 233.524 507.433L204.072 513.76C185.405 517.778 166.713 521.646 148.057 525.693C137.098 528.07 125.957 531.501 115.161 534.613C124.481 523.76 136.584 516.687 147.264 507.331C159.019 497.033 170.298 486.304 182.218 476.162C186.398 472.605 199.801 460.812 202.422 456.527Z"/><path fill="#C31C1B" d="M276.951 447.031C277.987 450.041 279.559 452.957 280.989 455.811C290.491 474.772 301.184 493.107 310.84 511.995C312.219 514.693 313.256 516.687 314.02 519.65L313.944 519.847C307.79 526.978 291.389 545.654 284.071 551.075L283.503 551.505C271.77 535.237 262.596 520.804 251.999 504.032L252.095 503.497L252.251 502.7C252.856 499.442 254.938 495.333 256.17 492.147C260.099 482.178 264.845 472.511 269.416 462.822C271.384 458.65 274.177 449.844 276.951 447.031Z"/><path fill="#B61A18" d="M202.422 456.527C206 454.117 228.211 452.43 234.394 451.768L276.951 447.031C274.177 449.844 271.384 458.65 269.416 462.822C264.845 472.511 260.099 482.178 256.17 492.147C254.938 495.333 252.856 499.442 252.251 502.7L252.095 503.497L251.999 504.032L251.434 503.851C244.28 497.572 237.317 490.016 230.299 483.465C220.97 474.755 211.08 465.889 202.422 456.527Z"/><path fill="#B61A18" d="M442.434 340.78C447.917 346.325 454.448 355.122 459.387 361.399L480.358 387.717C484.862 393.42 491.311 401.967 496.73 406.721C497.684 394.28 496.76 379.857 497.089 367.298C497.197 363.169 496.801 355.005 497.399 351.241L497.468 420.729L497.466 586.255L497.469 640.253C497.47 648.577 497.803 659.735 497.394 667.9C496.973 666.868 497.039 660.093 497.019 658.484C489.517 659.86 473.026 658.771 464.754 658.415C443.902 657.518 422.903 656.533 402.12 654.678C393.662 653.923 381.32 654.477 373.548 652.361L371.951 653.522C367.468 652.891 363.382 651.4 359.053 650.118C336.316 643.383 313.432 637.173 290.85 629.911C290.23 623.756 290.723 616.896 289.986 610.37L285.611 568.371C285.195 564.32 283.696 555.354 283.693 552.262L283.503 551.505L284.071 551.075C291.389 545.654 307.79 526.978 313.944 519.847L314.02 519.65C318.116 517.965 329.484 508.315 333.477 505.265C347.87 494.266 361.706 483.129 376.581 472.704C382.633 468.462 387.921 463.197 394.45 459.171C388.245 454.768 374.441 441.776 367.866 436.084C362.467 429.928 356.066 423.748 350.94 417.5C339.711 403.815 327.458 390.301 316.512 376.464C320.038 377.62 323.333 378.792 326.814 380.08C335.642 382.649 349.614 387.041 357.948 390.679C378.447 380.269 398.192 364.286 419.252 354.073C427.208 350.215 433.443 344.105 442.434 340.78Z"/><path fill="#C61C1B" d="M442.434 340.78C447.917 346.325 454.448 355.122 459.387 361.399L480.358 387.717C484.862 393.42 491.311 401.967 496.73 406.721C497.684 394.28 496.76 379.857 497.089 367.298C497.197 363.169 496.801 355.005 497.399 351.241L497.468 420.729C496.974 419.578 497.322 420.085 496.422 419.209C494.626 419.308 479.73 424 476.253 424.899L397.004 445.342C392.644 437.58 387.735 431.953 382.641 424.903C374.587 413.758 365.408 402.149 357.948 390.679C378.447 380.269 398.192 364.286 419.252 354.073C427.208 350.215 433.443 344.105 442.434 340.78Z"/><path fill="#E02222" d="M283.693 552.262C309.672 559.663 336.252 565.465 362.428 572.142C366.077 573.073 369.715 573.903 373.332 574.971C372.34 584.43 373.536 595.569 373.437 605.139C373.28 620.392 374.022 637.252 373.548 652.361L371.951 653.522C367.468 652.891 363.382 651.4 359.053 650.118C336.316 643.383 313.432 637.173 290.85 629.911C290.23 623.756 290.723 616.896 289.986 610.37L285.611 568.371C285.195 564.32 283.696 555.354 283.693 552.262Z"/><path fill="#C61C1B" d="M394.45 459.171C407.174 467.931 419.688 480.255 432.099 489.677C435.528 492.28 439.332 496.486 442.762 499.444C428.511 515.295 413.087 530.661 398.67 546.4C396.558 548.707 394.414 551.383 392.066 553.423C373.602 546.437 354.47 537.632 336.429 529.576C329.377 526.428 320.526 523.146 313.944 519.847L314.02 519.65C318.116 517.965 329.484 508.315 333.477 505.265C347.87 494.266 361.706 483.129 376.581 472.704C382.633 468.462 387.921 463.197 394.45 459.171Z"/><path fill="#C61C1B" d="M334.903 221.26C348.662 211.876 367.058 203.5 381.611 195.057C386.273 192.352 387.892 189.401 393.897 189.497C392.831 190.341 392.401 190.214 390.943 190.493C394.707 193.538 401.504 203.556 404.745 207.674C414.311 219.83 423.469 232.177 432.312 244.877C422.861 261.679 409.379 280.366 398.88 296.757C395.608 301.865 388.208 313.997 384.853 318.267C400.238 324.612 415.839 329.627 431.647 334.795C435.9 336.185 439.943 336.901 442.434 340.78C433.443 344.105 427.208 350.215 419.252 354.073C398.192 364.286 378.447 380.269 357.948 390.679C349.614 387.041 335.642 382.649 326.814 380.08C323.333 378.792 320.038 377.62 316.512 376.464C327.458 390.301 339.711 403.815 350.94 417.5C356.066 423.748 362.467 429.928 367.866 436.084C364.62 436.501 361.533 436.53 358.331 436.87C331.279 439.743 304.274 443.347 277.172 445.611C279.567 441.442 281.608 436.551 284.027 432.419C290.749 420.993 297.204 409.401 303.802 397.907C307.686 391.142 310.422 382.953 315.724 377.289C313.723 375.963 306.624 375.714 304.066 375.764C281.403 376.205 257.992 373.99 235.38 375.004C234.683 357.057 233.148 337.635 232.126 319.584C233.363 319.029 234.701 318.621 235.991 318.181C238.252 315.882 253.193 310.542 256.715 308.692C263.58 305.085 276.523 301.575 282.901 297.861C288.295 294.72 305.388 289.522 308.703 286.654C316.91 264.681 326.478 243.357 334.903 221.26Z"/><path fill="#E02222" d="M385.122 317.587C376.931 315.429 314.105 291.419 310.098 287.887C310.423 285.418 313.401 282.711 315.056 280.817C339.043 253.379 362.534 225.443 385.64 197.259C387.496 194.995 388.856 192.545 390.943 190.493C394.707 193.538 401.504 203.556 404.745 207.674C414.311 219.83 423.469 232.177 432.312 244.877C422.861 261.679 409.379 280.366 398.88 296.757C395.608 301.865 388.208 313.997 384.853 318.267C400.238 324.612 415.839 329.627 431.647 334.795C435.9 336.185 439.943 336.901 442.434 340.78C433.443 344.105 427.208 350.215 419.252 354.073C398.192 364.286 378.447 380.269 357.948 390.679C349.614 387.041 335.642 382.649 326.814 380.08C328.925 376.769 335.301 370.414 338.251 367.273L358.694 345.484C363.742 340.087 380.743 320.922 385.122 317.587Z"/><path fill="#E02222" d="M235.991 318.181C238.252 315.882 253.193 310.542 256.715 308.692C263.58 305.085 276.523 301.575 282.901 297.861C288.295 294.72 305.388 289.522 308.703 286.654C309.339 289.053 310.194 290.959 310.4 293.469C311.192 303.077 317.266 314.006 318.281 323.23C320.084 339.624 316.822 356.994 317.714 373.483C295.475 359.137 272.81 345.401 250.395 331.334C248.294 330.016 234.866 321.865 233.834 320.652C234.693 319.447 234.972 319.199 235.991 318.181Z"/><path fill="#C31C1B" d="M198.414 598.557C203.095 593.435 215.849 587.566 222.515 584.039L260.404 563.939C266.495 560.752 278.063 555.126 283.503 551.505L283.693 552.262C283.696 555.354 285.195 564.32 285.611 568.371L289.986 610.37C290.723 616.896 290.23 623.756 290.85 629.911C313.432 637.173 336.316 643.383 359.053 650.118C363.382 651.4 367.468 652.891 371.951 653.522L373.548 652.361C381.32 654.477 393.662 653.923 402.12 654.678C422.903 656.533 443.902 657.518 464.754 658.415C473.026 658.771 489.517 659.86 497.019 658.484C497.039 660.093 496.973 666.868 497.394 667.9L497.48 743.51C497.478 756.534 497.991 773.265 497.399 785.897C497.819 800.052 497.429 815.912 497.352 830.123C482.105 846.152 458.448 872.69 443.079 886.42C441.074 888.211 374.729 901.392 367.02 903.322L285.962 873.612C281.607 872.017 255.633 863.095 253.796 861.486C228.018 838.917 202.983 815.13 177.735 791.9C175.426 781.769 167.595 761.184 164.008 750.657L152.266 716.48C149.758 709.293 147.319 701.511 143.993 694.675C133.192 672.479 120.682 650.768 110.028 628.535C113.205 626.766 133.788 620.573 138.587 618.862C158.016 611.932 177.833 605.465 197.241 598.443L198.414 598.557Z"/><defs><linearGradient id="gradient_1" gradientUnits="userSpaceOnUse" x1="449.92648" y1="882.27954" x2="132.38075" y2="605.08008"><stop offset="0" stop-color="#991714"/><stop offset="1" stop-color="#C21C1B"/></linearGradient></defs><path fill="url(#gradient_1)" d="M110.028 628.535C113.205 626.766 133.788 620.573 138.587 618.862C158.016 611.932 177.833 605.465 197.241 598.443C200.595 601.065 216.319 634.229 220.386 640.251C228.082 651.646 235.056 666.958 242.425 678.467C246.675 682.315 258.408 687.274 263.964 690.379C273.554 695.738 283.978 700.807 293.592 706.139C297.024 708.042 312.751 715.132 313.739 717.044L312.217 718.784C304.725 723.341 296.634 727.632 288.91 731.816C267.67 743.322 246.706 755.32 225.383 766.688L199.275 780.861C194.411 783.501 186.092 787.748 181.919 790.861C214.513 793.581 247.341 795.734 279.952 798.554C285.707 799.052 292.202 799.758 297.93 799.428L298.6 799.396C298.734 799.387 298.868 799.378 299.002 799.37C313.321 819.082 327.429 839.66 340.905 859.97C346.888 868.987 362.049 891.216 365.963 900.475C367.067 874.47 367.397 848.579 370.338 822.642C371.348 813.738 371.143 803.14 372.587 794.485C386.299 792.748 401.315 789.319 414.958 786.672C433.881 783.001 452.422 779.413 471.492 776.496C480.011 775.193 488.426 773.148 497.136 771.94C497.163 774.348 496.882 784.237 497.399 785.897C497.819 800.052 497.429 815.912 497.352 830.123C482.105 846.152 458.448 872.69 443.079 886.42C441.074 888.211 374.729 901.392 367.02 903.322L285.962 873.612C281.607 872.017 255.633 863.095 253.796 861.486C228.018 838.917 202.983 815.13 177.735 791.9C175.426 781.769 167.595 761.184 164.008 750.657L152.266 716.48C149.758 709.293 147.319 701.511 143.993 694.675C133.192 672.479 120.682 650.768 110.028 628.535Z"/><path fill="#C61C1B" d="M198.414 598.557C203.095 593.435 215.849 587.566 222.515 584.039L260.404 563.939C266.495 560.752 278.063 555.126 283.503 551.505L283.693 552.262C283.696 555.354 285.195 564.32 285.611 568.371L289.986 610.37C290.723 616.896 290.23 623.756 290.85 629.911C313.432 637.173 336.316 643.383 359.053 650.118C363.382 651.4 367.468 652.891 371.951 653.522L371.21 654.921C363.385 661.811 352.337 673.955 345.145 681.747C339.389 687.984 316.185 709.683 314.268 715.776L314.513 717.249C317.793 718.871 334.782 744.482 338.127 749.712C348.311 765.635 362.322 780.349 372.874 795.538C348.035 795.206 321.864 798.558 297.266 799.119C297.279 796.074 297.553 793.529 298.193 790.535C302.759 769.198 307.03 747.807 311.053 726.362C311.509 723.934 311.94 721.222 312.217 718.784L313.739 717.044C312.751 715.132 297.024 708.042 293.592 706.139C283.978 700.807 273.554 695.738 263.964 690.379C258.408 687.274 246.675 682.315 242.425 678.467C235.056 666.958 228.082 651.646 220.386 640.251C216.319 634.229 200.595 601.065 197.241 598.443L198.414 598.557Z"/><path fill="#B61A18" d="M198.414 598.557C229.45 608.556 259.744 620.676 290.597 630.097C280.074 640.912 269.074 651.288 258.637 662.205C253.337 667.749 247.652 672.778 242.425 678.467C235.056 666.958 228.082 651.646 220.386 640.251C216.319 634.229 200.595 601.065 197.241 598.443L198.414 598.557Z"/><path fill="#C61C1B" d="M373.548 652.361C381.32 654.477 393.662 653.923 402.12 654.678C422.903 656.533 443.902 657.518 464.754 658.415C473.026 658.771 489.517 659.86 497.019 658.484C497.039 660.093 496.973 666.868 497.394 667.9L497.48 743.51C497.478 756.534 497.991 773.265 497.399 785.897C496.882 784.237 497.163 774.348 497.136 771.94C488.426 773.148 480.011 775.193 471.492 776.496C452.422 779.413 433.881 783.001 414.958 786.672C401.315 789.319 386.299 792.748 372.587 794.485C374.125 790.587 384.24 779.817 387.263 775.942C401.85 757.245 417.04 739.774 432.545 721.905C419.625 706.098 404.477 691.043 390.437 676.301C383.971 669.51 377.439 661.972 371.21 654.921L371.951 653.522L373.548 652.361Z"/><path fill="#C31C1B" d="M594.63 110.471C596.005 110.145 616.248 113.966 619.28 114.48L671.552 123.475C676.961 124.425 686.58 124.719 690.719 127.729C719.492 148.653 749.621 167.59 779.471 186.918C783.423 197.37 803.564 254.129 807.338 258.784C811.441 263.844 818.768 268.288 823.948 272.304L853.966 295.643C858.758 299.321 866.281 304.638 870.641 308.321C872.367 315.337 873.785 324.202 875.135 331.404L882.701 371.486C883.82 377.418 886.006 392.027 888.17 397.122C897.596 419.322 907.828 443.987 918.369 465.523L912.04 522.056C911.302 528.828 909.261 543.973 909.288 550.427C908.021 550.545 906.756 550.634 905.575 550.123C894.54 545.312 883.841 539.699 873.071 534.315C855.575 525.569 837.746 517.527 820.292 508.698C816.762 506.912 813.391 505.048 809.602 503.862L809.452 503.706L808.995 503.611C805.102 502.741 803.387 501.442 799.802 499.909C770.705 487.471 741.179 475.771 711.083 465.961C710.456 465.757 710.011 465.238 709.611 464.743C712.884 460.952 719.214 455.013 722.9 451.329L748.591 425.659C768.602 434.877 789.783 432.301 804.254 414.357C807.39 410.468 811.175 403.516 810.549 398.445C810.997 389.419 811.974 385.071 808.724 376.351C800.96 355.514 775.942 346.72 755.795 354.096C747.248 357.225 738.051 366.796 734.297 375.155C729.228 386.446 730.524 397.191 734.81 408.537L628.21 514.529L529.999 514.532L529.987 464.999L592.779 464.985C601.437 457.18 611.892 446.026 620.245 437.599L666.658 391.113L666.62 311.341C719.599 292.231 694.532 214.881 639.54 237.417C634.78 232.037 615.5 210.474 609.699 207.914C604.538 208.486 587.414 216.272 581.642 218.635L546.55 232.703C542.085 234.516 534.414 238.244 529.961 238.827L529.982 161.022L529.837 157.602C531.711 154.21 587.094 116.142 594.63 110.471Z"/><path fill="#E02222" d="M529.837 157.602C531.711 154.21 587.094 116.142 594.63 110.471C594.987 120.23 598.855 141.267 600.541 151.897L607.094 191.512C607.915 196.497 608.525 202.194 609.509 207.056C595.27 196.252 573.579 185.726 557.834 176.312C552.261 172.98 534.943 162.527 529.982 161.022L529.837 157.602Z"/><defs><linearGradient id="gradient_2" gradientUnits="userSpaceOnUse" x1="877.008" y1="720.10339" x2="640.04095" y2="605.57062"><stop offset="0" stop-color="#9D1815"/><stop offset="1" stop-color="#CE1D1D"/></linearGradient></defs><path fill="url(#gradient_2)" d="M809.602 503.862C813.391 505.048 816.762 506.912 820.292 508.698C837.746 517.527 855.575 525.569 873.071 534.315C883.841 539.699 894.54 545.312 905.575 550.123C906.756 550.634 908.021 550.545 909.288 550.427C909.026 567.364 910.383 583.462 911.568 600.165C911.943 605.461 915.38 635.605 914.469 637.566C904.624 658.762 890.833 679.985 880.391 701.024C874.058 713.785 870.041 728.39 864.402 741.484C862.059 747.394 852.683 769.592 852.219 774.377L851.702 773.942C848.623 778.693 844 793.879 840.114 797.946C833.336 805.04 823.43 812.909 815.973 819.638L790.392 843.106C787.254 846.019 778.945 854.105 775.747 856.01C761.344 835.031 745.011 814.348 729.611 794.016C726.314 789.663 718.561 783.328 715.015 778.585C713.812 776.976 712.792 777.102 711.432 774.758C717.438 768.258 724.372 762.217 730.764 756.098C733.672 753.315 736.388 750.214 739.342 747.327L738.72 748.154C739.7 747.434 739.283 747.805 739.995 747.053L740.951 747.409L741.013 755.165C747.682 761.68 753.919 767.692 760.876 773.929C760.461 749.241 761.348 723.85 761.349 699.012C749.57 686.347 734.1 671.669 721.715 659.343L647.33 585.186C649.575 584.957 652.393 585.017 654.696 585.051C675.82 585.37 696.906 583.939 718.026 583.591C722.679 583.514 727.432 583.506 732.034 582.804C736.498 568.119 749.183 557.432 764.413 555.525C779.644 553.618 794.571 560.848 802.519 573.979C804.74 568.885 808.478 512.978 809.602 503.862Z"/><path fill="#FEFEFE" d="M732.034 582.804C736.498 568.119 749.183 557.432 764.413 555.525C779.644 553.618 794.571 560.848 802.519 573.979C811.768 589.262 809.418 608.88 796.82 621.546C784.222 634.211 764.616 636.665 749.284 627.497C733.953 618.329 726.838 599.896 732.034 582.804Z"/><path fill="#C31C1B" d="M755.909 580.828C761.98 573.792 771.88 574.629 778.951 579.69C783.265 583.309 787.19 587.051 787.581 593.027C789.265 618.789 752.664 618.634 751.254 594.687C751.015 590.614 753.411 584.209 755.909 580.828Z"/><path fill="#C61C1B" d="M755.909 580.828C761.98 573.792 771.88 574.629 778.951 579.69C775.74 582.114 758.505 583.075 755.909 580.828Z"/><path fill="#C61C1B" d="M620.326 723.645L622.761 723.601C630.307 728.711 639.613 733.049 647.572 737.844C668.23 750.29 689.522 761.845 710.241 774.148C711.226 774.732 710.243 774.286 711.432 774.758C712.792 777.102 713.812 776.976 715.015 778.585C718.561 783.328 726.314 789.663 729.611 794.016C745.011 814.348 761.344 835.031 775.747 856.01L718.657 886.144C710.611 890.465 697.003 897.317 689.482 902.207C688.646 902.82 686.754 904.248 685.729 904.15C658.349 901.548 631.041 897.42 603.704 894.24C597.519 893.521 591.291 892.722 585.135 891.787C578.67 886.035 571.009 877.208 564.907 870.815L527.977 832.423L528.001 774.823L527.981 774.361C531.167 773.257 541.776 766.804 545.232 764.908L597.545 735.85C601.188 733.851 618.219 725.439 620.326 723.645Z"/><path fill="#B61A18" d="M620.326 723.645L622.761 723.601C630.307 728.711 639.613 733.049 647.572 737.844C668.23 750.29 689.522 761.845 710.241 774.148C711.226 774.732 710.243 774.286 711.432 774.758C712.792 777.102 713.812 776.976 715.015 778.585C718.561 783.328 726.314 789.663 729.611 794.016C745.011 814.348 761.344 835.031 775.747 856.01L718.657 886.144C710.611 890.465 697.003 897.317 689.482 902.207C688.827 900.124 688.915 897.534 689.245 895.375C694.321 862.14 701.057 829.153 706.033 795.883C706.477 792.915 709.459 777.956 709.146 776.259C705.058 777.018 698.072 782.937 693.784 784.821C668.657 795.856 643.664 807.372 618.897 819.201L619.009 819.276C614.613 816.788 609.922 814.73 605.415 812.357L565.702 791.778C559.29 788.534 533.959 774.413 528.001 774.823L527.981 774.361C531.167 773.257 541.776 766.804 545.232 764.908L597.545 735.85C601.188 733.851 618.219 725.439 620.326 723.645Z"/><path fill="#C31C1B" d="M528.002 605.55L637.792 605.542C645.703 612.927 654.02 621.354 661.622 629.136C687.655 655.783 715.177 681.427 741.017 708.211L740.951 747.409L739.995 747.053C739.283 747.805 739.7 747.434 738.72 748.154L739.342 747.327C736.388 750.214 733.672 753.315 730.764 756.098C724.372 762.217 717.438 768.258 711.432 774.758C710.243 774.286 711.226 774.732 710.241 774.148C689.522 761.845 668.23 750.29 647.572 737.844C639.613 733.049 630.307 728.711 622.761 723.601L620.326 723.645C618.219 725.439 601.188 733.851 597.545 735.85L545.232 764.908C541.776 766.804 531.167 773.257 527.981 774.361L528.002 605.55Z"/><path fill="#C61C1B" d="M609.938 610.467C613.809 621.219 613.817 634.185 615.518 645.58C617.971 662.006 619.459 678.722 621.183 695.23C621.923 703.16 623.617 715.914 622.761 723.601L620.326 723.645C616.755 719.389 609.293 713.899 604.907 710.044C589.261 696.295 568.004 683.55 553.514 669.023C567.824 652.451 584.772 637.164 599.152 620.5C602.003 617.197 606.676 613.623 609.938 610.467Z"/><path fill="#C61C1B" d="M529.961 238.827C534.414 238.244 542.085 234.516 546.55 232.703L581.642 218.635C587.414 216.272 604.538 208.486 609.699 207.914C615.5 210.474 634.78 232.037 639.54 237.417C633.437 241.023 629.402 243.736 625.264 249.51C611.561 268.629 617.036 297.394 638.562 308.174C641.084 309.437 643.439 310.333 646.073 311.301L646.108 382.233L606.892 421.625C600.404 428.15 590.538 438.724 583.823 444.602L529.997 444.611L529.961 238.827Z"/><defs><linearGradient id="gradient_3" gradientUnits="userSpaceOnUse" x1="624.51086" y1="632.94208" x2="717.78278" y2="456.53497"><stop offset="0" stop-color="#9D1713"/><stop offset="1" stop-color="#C81E20"/></linearGradient></defs><path fill="url(#gradient_3)" d="M810.549 398.445C811.175 403.516 807.39 410.468 804.254 414.357C789.783 432.301 768.602 434.877 748.591 425.659L722.9 451.329C719.214 455.013 712.884 460.952 709.611 464.743C710.011 465.238 710.456 465.757 711.083 465.961C741.179 475.771 770.705 487.471 799.802 499.909C803.387 501.442 805.102 502.741 808.995 503.611L809.452 503.706L809.602 503.862C808.478 512.978 804.74 568.885 802.519 573.979C794.571 560.848 779.644 553.618 764.413 555.525C749.183 557.432 736.498 568.119 732.034 582.804C727.432 583.506 722.679 583.514 718.026 583.591C696.906 583.939 675.82 585.37 654.696 585.051C652.393 585.017 649.575 584.957 647.33 585.186C644.63 584.011 541.004 584.714 530.016 584.775L529.997 535.008L637.318 534.981C646.335 526.467 655.71 516.634 664.554 507.777L711.772 461.027C723.653 449.182 736.432 435.932 748.618 424.555C774.652 437.77 802.113 426.746 810.549 398.445Z"/><path fill="#B61A18" d="M767.116 372.093C793.385 370.276 800.475 398.483 775.028 408.672L774.537 408.787C748.872 414.578 741.234 377.19 767.116 372.093Z"/><path fill="#C31C1B" d="M656.19 253.939C666.459 253.628 675.049 261.672 675.411 271.939C675.774 282.206 667.771 290.836 657.506 291.248C647.17 291.664 638.466 283.594 638.102 273.255C637.737 262.916 645.85 254.253 656.19 253.939Z"/></svg>