<?xml version="1.0" encoding="utf-8" ?><svg xmlns="http://www.w3.org/2000/svg" xmlns:xlink="http://www.w3.org/1999/xlink" width="1024" height="1536" viewBox="0 0 1024 1536"><path fill="#A82120" d="M299.993 433.776C305.994 428.451 315.379 421.783 322.044 416.779L360.523 387.985C373.87 378.017 388.74 366.431 402.578 357.338C405.693 355.291 422.228 351.173 426.886 349.924L467.656 339.077C478.652 336.173 521.137 323.532 530.311 324.036L599.98 324.018C605.235 324.029 631.548 323.812 634.653 324.701C650.219 329.157 670.922 338.422 686.4 344.738C708.501 353.755 730.232 363.105 752.14 372.472C763.384 377.279 774.723 382.431 785.766 387.635C788.984 389.152 791.577 391.006 794.014 393.57C813.462 414.043 832.488 435.341 851.564 456.139C854.593 459.442 874.556 481.002 875.708 482.989C879.616 486.829 891.699 499.204 893.475 503.457C900.739 520.848 905.534 546.66 910.559 565.241C923.651 564.057 948.679 564.868 962.376 564.923L968.443 682.428C969.443 703.476 972.017 730.268 970.886 750.693C966.538 829.243 962.15 908.753 956.249 987.11L952.264 1040.93C951.633 1049.63 950.468 1061.18 950.392 1069.55C928.734 1087.11 903.313 1106.57 881.02 1123.59C875.807 1123.89 834.304 1113.33 826.085 1111.61C790.279 1107.79 752.824 1106.29 717.373 1102.14C694.381 1100.44 666.465 1096.2 642.612 1093.82C636.715 1093.03 629.821 1092.31 624.123 1090.85C602.538 1098.35 570.488 1113.75 548.91 1123.44L410.726 1186.14C404.326 1189.05 361.176 1209.37 357.615 1209.52C344.224 1205.86 310.612 1201.04 295.654 1198.49L200.133 1182.2C180.909 1178.94 160.068 1175.81 141.054 1171.93C141.007 1165.63 140.523 1140.38 141.566 1136.09L143.138 1135.18C162.025 1126.5 191.224 1115.97 210.964 1108.66L211.735 1108.44C212.7 1105.53 212.066 1080.47 211.908 1076.03C209.182 1070.41 186.736 1043.3 181.462 1036.83C178.422 1032.99 125.618 1028.37 120.408 1025.65C104.501 1017.35 78.4615 995.445 64.376 984.471C64.1235 984.28 63.8711 984.089 63.6186 983.898C58.1572 983.208 59.4249 953.945 60.8742 952.338C131.916 934.772 207.89 920.351 279.747 904.195L254.918 842.572C251.336 833.661 245.313 819.495 242.693 810.643C241.675 807.204 241.026 786.527 240.842 782.159L238.397 719.184L236.18 669.153C235.912 663.696 234.552 642.703 235.198 638.768C237.525 624.592 240.789 605.626 244.043 591.693C247.504 576.869 250.569 555.282 254.733 541.368C256.621 534.013 267.061 510.696 270.536 502.703C280.45 479.9 289.986 456.468 299.993 433.776ZM661.288 750.597C662.263 727.638 665.577 702.231 664.669 679.082C664.475 674.149 658.701 653.48 656.768 647.61C652.454 636.713 649.697 617.148 644.273 607.325C632.588 586.163 613.951 563.902 595.574 548.625C550.874 565.099 522.501 586.76 503.313 631.846C496.476 647.911 494.623 666.578 491.113 685.064C488.422 699.238 494.634 735.281 497.955 749.933C499.924 758.622 521.922 783.898 528.058 791.961C537.955 800.731 561.921 816.875 573.551 823.183C579.977 826.669 602.792 831.811 610.953 835.056C630.29 821.59 636.17 806.256 645.258 785.569C650.383 773.902 656.509 762.478 661.288 750.597Z"/><path fill="#AA2423" d="M299.993 433.776C305.994 428.451 315.379 421.783 322.044 416.779L360.523 387.985C373.87 378.017 388.74 366.431 402.578 357.338C405.693 355.291 422.228 351.173 426.886 349.924L467.656 339.077C478.652 336.173 521.137 323.532 530.311 324.036L599.98 324.018C605.235 324.029 631.548 323.812 634.653 324.701C650.219 329.157 670.922 338.422 686.4 344.738C708.501 353.755 730.232 363.105 752.14 372.472C763.384 377.279 774.723 382.431 785.766 387.635C788.984 389.152 791.577 391.006 794.014 393.57C813.462 414.043 832.488 435.341 851.564 456.139C854.593 459.442 874.556 481.002 875.708 482.989C876.342 487.024 886.78 497.067 890.161 500.633C869.013 500.596 847.072 499.154 825.708 499.831C820.642 499.991 807.645 499.491 803.261 500.503L802.481 502.253L801.636 501.348L801.729 500.601C796.344 501.012 671.538 476.955 668.618 475.695C650.647 478.316 632.272 479.546 614.227 481.444C609.278 481.964 589.198 483.274 585.691 484.616L585.962 485.083C578.792 497.858 574.51 514.949 569.195 527.775C574.42 531.034 590.3 544.156 595.574 548.625C550.874 565.099 522.501 586.76 503.313 631.846C496.476 647.911 494.623 666.578 491.113 685.064C488.422 699.238 494.634 735.281 497.955 749.933C499.924 758.622 521.922 783.898 528.058 791.961C537.955 800.731 561.921 816.875 573.551 823.183C579.977 826.669 602.792 831.811 610.953 835.056C601.211 843.262 593.322 851.643 583.984 860.039C569.75 863.839 549.498 870.624 535.878 873.648C533.587 874.157 480.52 865.403 479.002 864.545C463.599 855.833 442.093 839.295 428.467 827.797C416.825 843.099 398.839 866.277 388.416 881.919L387.26 881.919C362.094 887.11 335.106 892.484 310.13 898.032C300.932 899.821 288.648 902.806 279.747 904.195L254.918 842.572C251.336 833.661 245.313 819.495 242.693 810.643C241.675 807.204 241.026 786.527 240.842 782.159L238.397 719.184L236.18 669.153C235.912 663.696 234.552 642.703 235.198 638.768C237.525 624.592 240.789 605.626 244.043 591.693C247.504 576.869 250.569 555.282 254.733 541.368C256.621 534.013 267.061 510.696 270.536 502.703C280.45 479.9 289.986 456.468 299.993 433.776Z"/><defs><linearGradient id="gradient_0" gradientUnits="userSpaceOnUse" x1="465.09589" y1="571.04126" x2="506.77438" y2="321.4364"><stop offset="0" stop-color="#D43131"/><stop offset="1" stop-color="#EC4E4C"/></linearGradient></defs><path fill="url(#gradient_0)" d="M299.993 433.776C305.994 428.451 315.379 421.783 322.044 416.779L360.523 387.985C373.87 378.017 388.74 366.431 402.578 357.338C405.693 355.291 422.228 351.173 426.886 349.924L467.656 339.077C478.652 336.173 521.137 323.532 530.311 324.036L599.98 324.018C605.235 324.029 631.548 323.812 634.653 324.701C650.219 329.157 670.922 338.422 686.4 344.738C708.501 353.755 730.232 363.105 752.14 372.472C763.384 377.279 774.723 382.431 785.766 387.635C788.984 389.152 791.577 391.006 794.014 393.57C813.462 414.043 832.488 435.341 851.564 456.139C854.593 459.442 874.556 481.002 875.708 482.989C876.342 487.024 886.78 497.067 890.161 500.633C869.013 500.596 847.072 499.154 825.708 499.831C820.642 499.991 807.645 499.491 803.261 500.503L802.481 502.253L801.636 501.348L801.729 500.601C796.344 501.012 671.538 476.955 668.618 475.695C650.647 478.316 632.272 479.546 614.227 481.444C609.278 481.964 589.198 483.274 585.691 484.616C570.076 481.45 552.232 478.776 536.461 476.899C528.312 474.695 485.617 485.247 474.478 488.821C456.316 494.65 428.681 510.433 410.991 519.195C410.275 519.55 409.38 520.232 408.76 520.73C394.219 536.715 379.357 552.439 364.634 568.259C358.355 575.004 349.452 582.441 344.947 590.448C338.553 601.815 328.326 664.497 325.336 682.256C302.39 677.722 277.249 672.134 254.279 668.594C252.988 666.314 269.691 626.849 271.778 621.463C281.554 596.245 291.03 571.17 299.76 545.568C285.692 542.951 269.015 542.009 254.733 541.368C256.621 534.013 267.061 510.696 270.536 502.703C280.45 479.9 289.986 456.468 299.993 433.776Z"/><path fill="#A82120" d="M530.311 324.036L599.98 324.018C605.235 324.029 631.548 323.812 634.653 324.701C650.219 329.157 670.922 338.422 686.4 344.738C708.501 353.755 730.232 363.105 752.14 372.472C763.384 377.279 774.723 382.431 785.766 387.635C788.984 389.152 791.577 391.006 794.014 393.57C813.462 414.043 832.488 435.341 851.564 456.139C854.593 459.442 874.556 481.002 875.708 482.989C876.342 487.024 886.78 497.067 890.161 500.633C869.013 500.596 847.072 499.154 825.708 499.831C820.642 499.991 807.645 499.491 803.261 500.503L802.481 502.253L801.636 501.348L801.729 500.601C796.715 492.06 758.653 457.658 748.762 448.747C725.65 427.926 701.378 403.927 678.239 383.47C675.253 381.265 654.702 373.268 650.227 371.491L574.474 342.167C567.7 339.621 532.253 327.447 530.311 324.036Z"/><path fill="#CA2E2D" d="M254.733 541.368C256.621 534.013 267.061 510.696 270.536 502.703C280.45 479.9 289.986 456.468 299.993 433.776C308.732 435.005 329.777 435.412 339.169 435.657C350.392 435.95 371.539 437.463 382.284 436.741C373.925 446.802 301.701 541.117 300.566 544.859C306.497 546.93 397.731 524.899 408.76 520.73C394.219 536.715 379.357 552.439 364.634 568.259C358.355 575.004 349.452 582.441 344.947 590.448C338.553 601.815 328.326 664.497 325.336 682.256C302.39 677.722 277.249 672.134 254.279 668.594C252.988 666.314 269.691 626.849 271.778 621.463C281.554 596.245 291.03 571.17 299.76 545.568C285.692 542.951 269.015 542.009 254.733 541.368Z"/><path fill="#E64746" d="M678.239 383.47C701.378 403.927 725.65 427.926 748.762 448.747C758.653 457.658 796.715 492.06 801.729 500.601C796.344 501.012 671.538 476.955 668.618 475.695C662.223 470.897 649.47 464.822 642.14 460.711C627.477 452.487 612.481 444.311 597.64 436.439C594.103 434.563 577.991 426.053 575.82 423.902L577.005 399.705C569.227 399.775 561.67 399.815 553.894 399.638C557.471 398.546 570.122 399.648 574.424 399.339C608.399 396.893 644.601 387.402 678.239 383.47Z"/><path fill="#761817" d="M553.894 399.638C561.67 399.815 569.227 399.775 577.005 399.705L575.82 423.902C575.153 428.743 575.321 435.717 575.288 440.753C566.117 441.169 554.463 440.246 544.806 440.378C520.639 440.709 496.555 440.9 472.389 440.338L472.447 399.855C499.569 399.695 526.779 400.068 553.894 399.638Z"/><defs><linearGradient id="gradient_1" gradientUnits="userSpaceOnUse" x1="562.04639" y1="526.80511" x2="470.05753" y2="860.89441"><stop offset="0" stop-color="#641515"/><stop offset="1" stop-color="#9B201E"/></linearGradient></defs><path fill="url(#gradient_1)" d="M530.649 521.276C541.059 522.727 559.498 524.97 569.195 527.775C574.42 531.034 590.3 544.156 595.574 548.625C550.874 565.099 522.501 586.76 503.313 631.846C496.476 647.911 494.623 666.578 491.113 685.064C488.422 699.238 494.634 735.281 497.955 749.933C499.924 758.622 521.922 783.898 528.058 791.961C537.955 800.731 561.921 816.875 573.551 823.183C579.977 826.669 602.792 831.811 610.953 835.056C601.211 843.262 593.322 851.643 583.984 860.039C569.75 863.839 549.498 870.624 535.878 873.648C533.587 874.157 480.52 865.403 479.002 864.545C463.599 855.833 442.093 839.295 428.467 827.797C417.866 810.432 399.215 780.424 392.495 762.255C390.006 755.527 388.082 706.311 387.808 696.832C387.35 687.878 401.937 635.583 404.781 623.654C405.369 621.191 408.163 615.207 409.83 612.823C421.15 596.636 433.378 576.374 446.332 561.743C453.377 554.881 463.932 549.513 471.314 543.514C489.36 528.85 508.63 526.411 530.649 521.276Z"/><path fill="#A82120" d="M254.733 541.368C269.015 542.009 285.692 542.951 299.76 545.568C291.03 571.17 281.554 596.245 271.778 621.463C269.691 626.849 252.988 666.314 254.279 668.594C261.826 679.951 270.334 696.458 277.209 708.711L318.545 781.573C320.929 785.71 331.32 804.78 333.973 807.288L335.226 809.681C339.656 815.11 344.626 821.887 348.507 827.745C360.592 845.99 375.451 863.645 387.26 881.919C362.094 887.11 335.106 892.484 310.13 898.032C300.932 899.821 288.648 902.806 279.747 904.195L254.918 842.572C251.336 833.661 245.313 819.495 242.693 810.643C241.675 807.204 241.026 786.527 240.842 782.159L238.397 719.184L236.18 669.153C235.912 663.696 234.552 642.703 235.198 638.768C237.525 624.592 240.789 605.626 244.043 591.693C247.504 576.869 250.569 555.282 254.733 541.368Z"/><path fill="#AA2423" d="M335.226 809.681C339.656 815.11 344.626 821.887 348.507 827.745C360.592 845.99 375.451 863.645 387.26 881.919C362.094 887.11 335.106 892.484 310.13 898.032C307.136 893.977 305.131 891.121 302.52 886.769C308.204 875.13 314.173 860.144 319.418 848.081C323.508 838.672 332.556 819.204 335.226 809.681Z"/><path fill="#D83837" d="M325.287 683.789C332.791 684.976 384.516 693.719 387.808 696.832C388.082 706.311 390.006 755.527 392.495 762.255C399.215 780.424 417.866 810.432 428.467 827.797C416.825 843.099 398.839 866.277 388.416 881.919L387.26 881.919C375.451 863.645 360.592 845.99 348.507 827.745C344.626 821.887 339.656 815.11 335.226 809.681L333.973 807.288C333.931 804.08 333.708 800.853 333.5 797.652C331.033 759.683 326.987 721.804 325.287 683.789Z"/><path fill="#941F1D" d="M875.708 482.989C879.616 486.829 891.699 499.204 893.475 503.457C900.739 520.848 905.534 546.66 910.559 565.241C923.651 564.057 948.679 564.868 962.376 564.923L968.443 682.428C969.443 703.476 972.017 730.268 970.886 750.693C966.538 829.243 962.15 908.753 956.249 987.11L952.264 1040.93C951.633 1049.63 950.468 1061.18 950.392 1069.55C928.734 1087.11 903.313 1106.57 881.02 1123.59C875.807 1123.89 834.304 1113.33 826.085 1111.61C790.279 1107.79 752.824 1106.29 717.373 1102.14L718.19 1101.71C720.491 1096.2 773.899 1060.88 783.476 1052.41C774.343 1038.15 764.755 1024.47 756.287 1009.74C767.397 991.239 778.57 968.365 788.77 949.023L847.917 835.991C848.347 829.657 848.909 823.35 849.456 817.025L848.782 812.287L847.796 814.301C844.962 814.997 832.332 811.344 826.472 811.112L825.802 811.529C819.237 806.288 788.209 711.467 781.698 695.156C780.309 691.676 780.191 690.39 777.509 686.828C778.407 685.284 779.06 665.429 779.369 661.694L775.612 661.205C774.173 659.229 774.455 634.635 775.67 631.562C778.184 629.012 778.347 622.64 775.683 620.098C774.03 616.924 774.743 595.459 774.802 590.388C777.74 589.841 780.812 589.679 783.801 589.438C784.579 582.278 799.727 504.833 801.636 501.348L802.481 502.253L803.261 500.503C807.645 499.491 820.642 499.991 825.708 499.831C847.072 499.154 869.013 500.596 890.161 500.633C886.78 497.067 876.342 487.024 875.708 482.989Z"/><path fill="#CA2E2D" d="M875.708 482.989C879.616 486.829 891.699 499.204 893.475 503.457C900.739 520.848 905.534 546.66 910.559 565.241L905.958 565.63C891.406 565.996 876.618 567.59 862.056 568.3C857.674 568.514 852.447 568.716 848.159 569.416C852.478 608.442 859.384 647.313 864.076 686.286C864.289 688.058 863.868 694.722 863.559 696.745C857.554 736.081 855.542 777.888 849.456 817.025L848.782 812.287L847.796 814.301C844.962 814.997 832.332 811.344 826.472 811.112L825.802 811.529C819.237 806.288 788.209 711.467 781.698 695.156C780.309 691.676 780.191 690.39 777.509 686.828C778.407 685.284 779.06 665.429 779.369 661.694L775.612 661.205C774.173 659.229 774.455 634.635 775.67 631.562C778.184 629.012 778.347 622.64 775.683 620.098C774.03 616.924 774.743 595.459 774.802 590.388C777.74 589.841 780.812 589.679 783.801 589.438C784.579 582.278 799.727 504.833 801.636 501.348L802.481 502.253L803.261 500.503C807.645 499.491 820.642 499.991 825.708 499.831C847.072 499.154 869.013 500.596 890.161 500.633C886.78 497.067 876.342 487.024 875.708 482.989Z"/><path fill="#AA2423" d="M875.708 482.989C879.616 486.829 891.699 499.204 893.475 503.457C900.739 520.848 905.534 546.66 910.559 565.241L905.958 565.63C891.406 565.996 876.618 567.59 862.056 568.3C857.674 568.514 852.447 568.716 848.159 569.416C852.478 608.442 859.384 647.313 864.076 686.286C864.289 688.058 863.868 694.722 863.559 696.745C857.554 736.081 855.542 777.888 849.456 817.025L848.782 812.287L847.796 814.301C844.962 814.997 832.332 811.344 826.472 811.112C827.323 807.36 827.712 803.048 828.169 799.182C831.427 771.602 835.06 744.153 839.439 716.722C841.4 704.139 843.579 692.896 841.261 680.105C834.71 643.954 831.616 607.033 824.813 570.948C823.376 563.325 819.244 552.701 816.766 545.172L802.481 502.253L803.261 500.503C807.645 499.491 820.642 499.991 825.708 499.831C847.072 499.154 869.013 500.596 890.161 500.633C886.78 497.067 876.342 487.024 875.708 482.989Z"/><path fill="#AA2423" d="M783.801 589.438C789.473 589.512 796.782 589.42 802.301 589.812L802.37 620.256C793.63 620.339 784.366 620.59 775.683 620.098C774.03 616.924 774.743 595.459 774.802 590.388C777.74 589.841 780.812 589.679 783.801 589.438Z"/><path fill="#AA2423" d="M775.67 631.562C784.942 630.746 793.054 630.831 802.369 631.37L802.455 661.44C796.907 661.458 784.358 661.152 779.369 661.694L775.612 661.205C774.173 659.229 774.455 634.635 775.67 631.562Z"/><path fill="#AA2423" d="M756.287 1009.74C767.397 991.239 778.57 968.365 788.77 949.023L847.917 835.991C849.56 845.743 845.597 870.784 844.915 881.336C843.539 902.604 841.611 924.29 840.349 945.484C839.449 960.594 836.982 982.221 837.293 996.805C845.238 987.246 853.779 972.998 860.594 962.248L898.861 901.221L885.903 1051.7L882.056 1097.49C881.554 1104.26 880.471 1117.21 881.02 1123.59C875.807 1123.89 834.304 1113.33 826.085 1111.61C790.279 1107.79 752.824 1106.29 717.373 1102.14L718.19 1101.71C720.491 1096.2 773.899 1060.88 783.476 1052.41C774.343 1038.15 764.755 1024.47 756.287 1009.74Z"/><path fill="#A82120" d="M783.476 1052.41C800.333 1034.78 819.084 1015.09 836.492 998.132C835.874 1010.3 828.206 1108.07 826.085 1111.61C790.279 1107.79 752.824 1106.29 717.373 1102.14L718.19 1101.71C720.491 1096.2 773.899 1060.88 783.476 1052.41Z"/><path fill="#CA2E2D" d="M848.159 569.416C852.447 568.716 857.674 568.514 862.056 568.3C876.618 567.59 891.406 565.996 905.958 565.63L915.605 643.037C916.664 651.669 920.689 675.781 920.124 683.444C914.792 755.851 905.161 828.865 898.861 901.221L860.594 962.248C853.779 972.998 845.238 987.246 837.293 996.805C836.982 982.221 839.449 960.594 840.349 945.484C841.611 924.29 843.539 902.604 844.915 881.336C845.597 870.784 849.56 845.743 847.917 835.991C848.347 829.657 848.909 823.35 849.456 817.025C855.542 777.888 857.554 736.081 863.559 696.745C863.868 694.722 864.289 688.058 864.076 686.286C859.384 647.313 852.478 608.442 848.159 569.416Z"/><defs><linearGradient id="gradient_2" gradientUnits="userSpaceOnUse" x1="452.05099" y1="1199.3916" x2="332.28546" y2="1014.3943"><stop offset="0" stop-color="#AF2624"/><stop offset="1" stop-color="#E73231"/></linearGradient></defs><path fill="url(#gradient_2)" d="M533.157 1021.05C542.158 1020.76 568.072 1011.65 578.479 1008.82C579.445 1013.67 578.542 1045.27 578.391 1052.25L579.008 1052.16C593.966 1052.17 609.678 1054.54 624.771 1054.62C624.419 1066.81 624.132 1078.65 624.123 1090.85C602.538 1098.35 570.488 1113.75 548.91 1123.44L410.726 1186.14C404.326 1189.05 361.176 1209.37 357.615 1209.52C344.224 1205.86 310.612 1201.04 295.654 1198.49L200.133 1182.2C180.909 1178.94 160.068 1175.81 141.054 1171.93C141.007 1165.63 140.523 1140.38 141.566 1136.09L143.138 1135.18C162.025 1126.5 191.224 1115.97 210.964 1108.66L211.735 1108.44C212.7 1105.53 212.066 1080.47 211.908 1076.03L215.006 1076.08C221.863 1081.23 304.369 1084.21 319.407 1086.82C322.012 1087.28 330.221 1087.13 333.04 1086.59C342.314 1079.49 398.51 1062.82 412.347 1058.22C451.817 1045.1 493.232 1033.1 533.157 1021.05Z"/><path fill="#A82120" d="M533.157 1021.05C542.158 1020.76 568.072 1011.65 578.479 1008.82C579.445 1013.67 578.542 1045.27 578.391 1052.25C514.232 1075.2 451.75 1102.59 387.06 1124.13C369.126 1130.1 351.617 1137.47 333.542 1142.89C331.438 1143.52 317.971 1142.05 316.11 1140.89C318.108 1138.38 326.511 1142.78 331.53 1141.75C333.182 1136.77 333.226 1093.6 333.04 1086.59C342.314 1079.49 398.51 1062.82 412.347 1058.22C451.817 1045.1 493.232 1033.1 533.157 1021.05Z"/><path fill="#A82120" d="M141.054 1171.93C141.007 1165.63 140.523 1140.38 141.566 1136.09L143.138 1135.18C152.221 1139.03 193.193 1143.79 205.122 1145.35C234.144 1149.13 263.699 1153.57 292.651 1158.07C311.196 1160.95 340.991 1163.6 358.102 1168.21C358.024 1178.93 358.477 1199.31 357.615 1209.52C344.224 1205.86 310.612 1201.04 295.654 1198.49L200.133 1182.2C180.909 1178.94 160.068 1175.81 141.054 1171.93Z"/><path fill="#941F1D" d="M211.908 1076.03L215.006 1076.08C221.863 1081.23 304.369 1084.21 319.407 1086.82C322.012 1087.28 330.221 1087.13 333.04 1086.59C333.226 1093.6 333.182 1136.77 331.53 1141.75C326.511 1142.78 318.108 1138.38 316.11 1140.89C307.724 1140.25 296.857 1138.06 288.181 1137.11C263.584 1134.42 236.726 1129.7 212.219 1127.88C212.289 1123.64 213.14 1111.35 210.964 1108.66L211.735 1108.44C212.7 1105.53 212.066 1080.47 211.908 1076.03Z"/><path fill="#D83837" d="M668.618 475.695C671.538 476.955 796.344 501.012 801.729 500.601L801.636 501.348C799.727 504.833 784.579 582.278 783.801 589.438C780.812 589.679 777.74 589.841 774.802 590.388C774.743 595.459 774.03 616.924 775.683 620.098C778.347 622.64 778.184 629.012 775.67 631.562C774.455 634.635 774.173 659.229 775.612 661.205L779.369 661.694C779.06 665.429 778.407 685.284 777.509 686.828C773.518 692.623 760.276 722.179 756.723 729.661L720.717 804.551C715.331 815.643 709.255 829.197 703.562 839.861C705.336 817.51 707.936 795.157 709.086 772.793C693.347 804.215 670.245 838.24 652.466 868.984C649.856 873.498 630.472 888.921 625.396 893.792C629.801 894.022 642.017 894.356 645.42 895.643C643.12 896.638 601.079 894.614 598.862 893.649C593.641 883.57 588.6 870.666 583.984 860.039C593.322 851.643 601.211 843.262 610.953 835.056C630.29 821.59 636.17 806.256 645.258 785.569C650.383 773.902 656.509 762.478 661.288 750.597C662.263 727.638 665.577 702.231 664.669 679.082C664.475 674.149 658.701 653.48 656.768 647.61C652.454 636.713 649.697 617.148 644.273 607.325C632.588 586.163 613.951 563.902 595.574 548.625C590.3 544.156 574.42 531.034 569.195 527.775C574.51 514.949 578.792 497.858 585.962 485.083L585.691 484.616C589.198 483.274 609.278 481.964 614.227 481.444C632.272 479.546 650.647 478.316 668.618 475.695Z"/><path fill="#A82120" d="M585.962 485.083C592.096 489 598.346 494.828 604.075 499.245C627.927 517.637 648.329 538.021 666.603 561.961C671.184 567.962 677.813 575.298 681.851 581.889C693.415 607.014 703.383 638.848 712.354 664.933C713.779 669.077 711.941 700.535 711.641 706.374C710.559 727.449 710.407 749.514 709.133 770.317C694.576 764.249 675.847 755.858 661.288 750.597C662.263 727.638 665.577 702.231 664.669 679.082C664.475 674.149 658.701 653.48 656.768 647.61C652.454 636.713 649.697 617.148 644.273 607.325C632.588 586.163 613.951 563.902 595.574 548.625C590.3 544.156 574.42 531.034 569.195 527.775C574.51 514.949 578.792 497.858 585.962 485.083Z"/><path fill="#AA2423" d="M731.148 589.762C740.152 589.52 750.215 589.254 759.104 590.281C758.884 600.234 758.911 610.529 758.824 620.509C749.652 620.427 740.482 620.512 731.311 620.573C731.042 609.963 730.945 600.4 731.148 589.762Z"/><path fill="#941F1D" d="M731.179 631.091C740.609 631.056 749.443 631.36 758.844 631.731L758.733 661.404C751.731 661.97 738.585 661.494 731.135 661.456C730.974 651.089 730.926 641.481 731.179 631.091Z"/><path fill="#E64746" d="M428.467 827.797C442.093 839.295 463.599 855.833 479.002 864.545C480.52 865.403 533.587 874.157 535.878 873.648C549.498 870.624 569.75 863.839 583.984 860.039C588.6 870.666 593.641 883.57 598.862 893.649C601.079 894.614 643.12 896.638 645.42 895.643C646.793 895.824 647.708 895.809 648.86 896.575C596.866 911.533 543.845 924.928 491.347 938C466.472 944.194 441.198 949.212 416.302 955.355L357.347 970.174C344.415 973.394 328.461 978.371 315.384 978.262C235.065 968.175 153.271 962.867 72.7381 954.225C69.1304 953.837 64.1531 953.742 60.8742 952.338C131.916 934.772 207.89 920.351 279.747 904.195C288.648 902.806 300.932 899.821 310.13 898.032C335.106 892.484 362.094 887.11 387.26 881.919L388.416 881.919C398.839 866.277 416.825 843.099 428.467 827.797Z"/><path fill="#CA2E2D" d="M428.467 827.797C442.093 839.295 463.599 855.833 479.002 864.545C480.52 865.403 533.587 874.157 535.878 873.648C549.498 870.624 569.75 863.839 583.984 860.039C588.6 870.666 593.641 883.57 598.862 893.649C584.409 892.326 563.949 892.204 548.804 891.444L447.043 885.86C427.961 884.716 407.355 883.768 388.416 881.919C398.839 866.277 416.825 843.099 428.467 827.797Z"/><path fill="#AA2423" d="M777.509 686.828C780.191 690.39 780.309 691.676 781.698 695.156C788.209 711.467 819.237 806.288 825.802 811.529L825.866 812.006L822.272 812.683L823.273 814.094C819.1 816.664 798.27 842.7 793.512 848.099L731.268 918.074C716.817 934.412 700.601 953.477 685.601 969.114L653.007 934.647C651.352 932.926 649.292 930.904 647.757 929.134C645.685 926.744 646.196 924.493 643.48 922.723L643.123 924.557C642.985 924.558 642.847 924.56 642.709 924.561C629.032 928.15 615.078 931.228 601.394 935.212C596.916 936.517 592.174 937.577 588.045 939.767C531.359 955.664 473.579 969.815 416.601 984.75L355.735 1000.93C345.405 1003.69 331.751 1007.75 321.561 1009.6C321.805 1001.95 322.361 987.307 321.36 980.094C319.815 978.626 317.624 978.618 315.384 978.262C328.461 978.371 344.415 973.394 357.347 970.174L416.302 955.355C441.198 949.212 466.472 944.194 491.347 938C543.845 924.928 596.866 911.533 648.86 896.575C647.708 895.809 646.793 895.824 645.42 895.643C642.017 894.356 629.801 894.022 625.396 893.792C630.472 888.921 649.856 873.498 652.466 868.984C670.245 838.24 693.347 804.215 709.086 772.793C707.936 795.157 705.336 817.51 703.562 839.861C709.255 829.197 715.331 815.643 720.717 804.551L756.723 729.661C760.276 722.179 773.518 692.623 777.509 686.828Z"/><path fill="#761817" d="M826.472 811.112C832.332 811.344 844.962 814.997 847.796 814.301L848.782 812.287L849.456 817.025C848.909 823.35 848.347 829.657 847.917 835.991L788.77 949.023C778.57 968.365 767.397 991.239 756.287 1009.74C764.755 1024.47 774.343 1038.15 783.476 1052.41C773.899 1060.88 720.491 1096.2 718.19 1101.71L717.373 1102.14C694.381 1100.44 666.465 1096.2 642.612 1093.82C636.715 1093.03 629.821 1092.31 624.123 1090.85C624.132 1078.65 624.419 1066.81 624.771 1054.62C609.678 1054.54 593.966 1052.17 579.008 1052.16C580.283 1049.98 600.269 1035.52 603.58 1033.15C613.353 1040.75 636.059 1053.99 646.845 1059.41C654.727 1052.58 674.808 1038.44 683.672 1032.28C695.584 1024.01 721.342 1004.64 733.949 998.395L734.899 998.017C738.29 994.505 760.237 949.801 763.779 942.698C776.53 917.128 790.301 890.864 802.826 865.167C807.75 855.066 823.152 821.899 825.866 812.006L825.802 811.529L826.472 811.112Z"/><path fill="#A82120" d="M642.612 1093.82C651.048 1085.93 671.304 1071.2 681.135 1064.08C705.956 1046.09 731.204 1027.3 756.287 1009.74C764.755 1024.47 774.343 1038.15 783.476 1052.41C773.899 1060.88 720.491 1096.2 718.19 1101.71L717.373 1102.14C694.381 1100.44 666.465 1096.2 642.612 1093.82Z"/><path fill="#AA2423" d="M333.062 1044.07C345.381 1041.84 363.764 1035.97 376.366 1032.34L442.275 1013.32C485.456 1000.43 529.854 988.635 573.286 976.538C583.75 973.623 614.717 962.189 624.18 962.635C620.011 968.78 588.082 999.639 580.994 1006.19L550.591 1015.48C545.51 1017 537.736 1018.98 533.157 1021.05C493.232 1033.1 451.817 1045.1 412.347 1058.22C398.51 1062.82 342.314 1079.49 333.04 1086.59C330.221 1087.13 322.012 1087.28 319.407 1086.82C304.369 1084.21 221.863 1081.23 215.006 1076.08L211.908 1076.03C209.182 1070.41 186.736 1043.3 181.462 1036.83C193.64 1034.51 264.093 1046.14 280.704 1047.6C283.717 1047.87 297.203 1050.26 299.161 1049.69L333.062 1044.07Z"/><path fill="#761817" d="M181.462 1036.83C193.64 1034.51 264.093 1046.14 280.704 1047.6C283.717 1047.87 297.203 1050.26 299.161 1049.69L333.062 1044.07L332.777 1085.84C322.079 1085.97 308.001 1084.4 296.997 1083.46L241.484 1078.65C236.706 1078.23 218.046 1075.95 215.006 1076.08L211.908 1076.03C209.182 1070.41 186.736 1043.3 181.462 1036.83Z"/><path fill="#AA2423" d="M64.376 984.471C70.3944 981.906 88.1508 984.728 95.4321 985.501L138.299 990.175L252.217 1002.52C274.317 1004.99 299.839 1008.71 321.73 1010.08C316.307 1019.51 304.462 1037.76 298.752 1048.15C298.888 1048.67 299.025 1049.18 299.161 1049.69C297.203 1050.26 283.717 1047.87 280.704 1047.6C264.093 1046.14 193.64 1034.51 181.462 1036.83C178.422 1032.99 125.618 1028.37 120.408 1025.65C104.501 1017.35 78.4615 995.445 64.376 984.471Z"/><path fill="#941F1D" d="M686.022 968.553C701.989 978.574 717.794 988.67 733.949 998.395C721.342 1004.64 695.584 1024.01 683.672 1032.28C674.808 1038.44 654.727 1052.58 646.845 1059.41C636.059 1053.99 613.353 1040.75 603.58 1033.15C600.269 1035.52 580.283 1049.98 579.008 1052.16L578.391 1052.25C578.542 1045.27 579.445 1013.67 578.479 1008.82C568.072 1011.65 542.158 1020.76 533.157 1021.05C537.736 1018.98 545.51 1017 550.591 1015.48L580.994 1006.19C588.609 1014.9 595.944 1024.24 603.217 1033.26C627.854 1012.3 660.117 988.994 686.022 968.553Z"/></svg>